<svg width="64" height="80" viewBox="0 0 64 80" fill="none" xmlns="http://www.w3.org/2000/svg">
<g clip-path="url(#clip0_1097_3243)">
<g clip-path="url(#clip1_1097_3243)">
<path d="M17.2378 55.5568C8.03346 53.2172 -0.977922 41.2739 4.14208 35.9354C5.68723 34.324 7.07302 34.0469 9.12336 36.0124C11.1708 37.9805 9.66563 39.9698 8.12047 41.5811C7.70301 42.0175 10.4322 46.8818 20.1249 51.8844C20.7902 54.2453 19.0059 56.0062 17.2378 55.5568Z" fill="#FEFEF4"/>
<path d="M43.733 54.5104C53.1868 53.6052 63.9178 43.1797 59.674 37.1213C58.3933 35.2927 57.0662 34.807 54.7395 36.436C52.4153 38.068 53.5987 40.264 54.8794 42.0926C55.2252 42.5877 51.7846 46.9776 41.4412 50.4399C40.4229 52.6714 41.917 54.6843 43.733 54.5104Z" fill="#FEFEF4"/>
<path d="M42.596 51.7075C42.5685 51.6636 42.5465 51.6251 42.5191 51.5811C41.7442 50.3666 40.4197 49.4323 38.9743 49.2619C38.0895 49.1575 37.6113 50.2841 38.0015 50.9601C38.1059 51.136 38.2159 51.3173 38.3313 51.4987C37.3585 50.3391 36.144 49.5147 34.9129 49.5147C31.5055 49.5147 32.9454 53.7629 33.7368 55.5491C34.8634 58.0991 36.8639 61.8857 40.0734 61.9626C43.915 62.0561 44.1788 58.0771 43.7226 55.2413C43.5303 54.0267 43.25 52.7737 42.607 51.7075H42.596Z" fill="#E3DAEA"/>
<path d="M26.5978 49.5201C25.3667 49.5201 24.1522 50.3445 23.1794 51.5041C23.2893 51.3227 23.4047 51.1413 23.5091 50.9655C23.9763 50.1521 23.3278 49.3332 22.5199 49.2728C21.3878 49.1794 20.3491 49.7124 19.6346 50.5753C18.5684 51.8613 18.0573 53.6309 17.7935 55.2522C17.3374 58.088 17.6012 62.067 21.4427 61.9735C24.6523 61.8966 26.6527 58.11 27.7794 55.56C28.5653 53.7738 30.0107 49.5256 26.6033 49.5256L26.5978 49.5201Z" fill="#E3DAEA"/>
<path d="M38.3643 57.154C38.3643 60.4625 38.2928 63.7929 37.7927 67.0739C37.4135 69.569 36.9793 74.147 34.1875 75.1252C32.6596 75.6638 30.912 75.4825 29.3292 75.3835C28.296 75.3176 27.2518 75.0318 26.4439 74.3833C23.7565 72.24 23.6191 66.9365 23.4102 63.8314C23.119 59.4458 23.1409 55.1151 23.2454 50.7295C23.2509 50.4602 23.2509 50.1744 23.1135 49.9436C23.0805 49.8831 23.031 49.8337 22.9761 49.7897C27.5925 50.2733 32.0771 51.0262 36.6221 49.7402C36.6496 49.7842 36.6935 49.8227 36.754 49.8447C37.0398 49.9766 37.3311 50.059 37.6388 50.1194C37.8422 50.1579 38.051 50.2019 38.2653 50.2184C38.1994 50.4437 38.1939 50.713 38.2049 50.9548C38.3093 53.0267 38.3643 55.0766 38.3643 57.1485V57.154Z" fill="#FFD7EF"/>
<path d="M23.119 49.949C23.2619 50.1799 23.2619 50.4656 23.2509 50.7349C23.1464 55.1261 23.119 59.4512 23.4157 63.8369C23.6246 66.942 23.762 72.2454 26.4494 74.3888C27.2573 75.0318 28.3015 75.3231 29.3347 75.389C30.9175 75.4879 32.6596 75.6638 34.193 75.1307C36.9848 74.147 37.4135 69.5745 37.7982 67.0794C38.2983 63.7984 38.3698 60.468 38.3698 57.1595C38.3698 55.0876 38.3148 53.0377 38.2104 50.9658C38.1994 50.7239 38.2049 50.4602 38.2708 50.2293C38.062 50.2183 37.8477 50.1744 37.6443 50.1304C37.3366 50.0645 37.0453 49.9875 36.7595 49.8556C36.7045 49.8281 36.6606 49.7897 36.6276 49.7512C32.0826 51.0372 27.598 50.2843 22.9816 49.8007C23.0365 49.8446 23.086 49.8941 23.119 49.9545V49.949ZM22.7013 49.4819C25.2843 49.3225 27.7904 49.8226 30.3514 49.9985C32.4508 50.1414 34.5117 49.2566 36.5891 49.383C36.6606 49.2016 36.8419 49.0532 37.0508 49.1357C37.3805 49.2566 37.7707 49.2511 38.1334 49.3005C38.4687 49.3225 38.7874 49.4214 39.0677 49.6413C39.1062 49.6688 39.1282 49.6962 39.1502 49.7292C39.3095 49.7952 39.4469 49.9051 39.5459 50.0425C39.7437 50.3173 39.8151 50.669 39.8701 51.0097C40.1614 52.8014 40.3263 54.615 40.3537 56.4286C41.5408 56.1373 42.7224 55.8955 43.937 56.2527C47.3169 57.2474 49.081 61.5122 48.7293 64.7327C48.6139 65.7714 48.3941 66.8211 48.0973 67.8543C47.3938 70.2834 46.2507 72.086 45.0306 74.2789C45.7066 74.3063 46.3386 74.4327 46.9707 74.6746C48.1687 75.1307 49.4877 75.6473 50.5264 76.3563C51.1694 76.7959 52.6203 77.7412 52.4994 78.593C52.2466 80.3352 47.5202 79.8571 46.2837 79.8351C44.591 79.8076 42.9203 79.6153 41.2276 79.6262C40.1614 79.6317 36.2374 79.5163 35.49 78.1754C35.4405 78.1314 35.402 78.0819 35.3581 78.0325C33.0608 78.659 30.5273 78.615 28.1641 78.3018C27.62 78.2303 26.9275 78.1039 26.2296 77.9116C26.1581 78.005 26.0867 78.0929 26.0043 78.1699C25.2513 79.5108 21.3328 79.6317 20.2612 79.6208C18.5685 79.6098 16.9032 79.8021 15.205 79.8296C13.963 79.8516 9.24213 80.3297 8.98932 78.5875C8.86841 77.7302 10.3138 76.7904 10.9568 76.3508C12.001 75.6418 13.32 75.1197 14.5126 74.6691C15.1446 74.4272 15.7766 74.3008 16.4526 74.2734C15.2325 72.0805 14.0894 70.2834 13.3859 67.8488C13.0892 66.8156 12.8693 65.7659 12.7539 64.7272C12.4132 61.6221 14.2653 57.2035 17.5462 56.2472C18.486 55.9724 20.0798 55.9889 21.1625 56.4835C21.1625 54.1698 21.4318 52.2738 22.2287 50.0809C22.2726 49.9655 22.3166 49.8391 22.4155 49.7567C22.465 49.7182 22.5144 49.6962 22.5749 49.6852C22.5309 49.6028 22.5694 49.4874 22.6903 49.4819H22.7013Z" fill="url(#paint0_linear_1097_3243)"/>
<path d="M3.66785 13.6019L9.94837 4.16534C18.6235 10.9681 24.6146 21.3937 24.6146 21.3937L21.5825 25.365C15.8529 23.2846 8.54996 18.2142 3.66785 13.6019Z" fill="url(#paint1_linear_1097_3243)"/>
<path d="M5.47529 13.4873L9.62814 7.25035C17.0109 13.0366 22.1666 21.9637 22.1666 21.9637L21.3444 23.3568C16.4691 21.5872 9.63142 17.4098 5.47529 13.4873Z" fill="#985988"/>
<path d="M57.8155 13.5526L51.535 4.11602C42.8599 10.9188 36.8688 21.3443 36.8688 21.3443L39.9009 25.3157C45.6305 23.2353 52.9334 18.1649 57.8155 13.5526Z" fill="url(#paint2_linear_1097_3243)"/>
<path d="M56.0081 13.438L51.8553 7.20104C44.4725 12.9873 39.3168 21.9144 39.3168 21.9144L40.139 23.3075C45.0143 21.5379 51.852 17.3604 56.0081 13.438Z" fill="#985988"/>
<path d="M57.4513 20.095C59.068 19.7757 59.3016 15.1994 58.8297 12.045C58.5321 10.0559 57.7255 7.91864 57.0781 7.20198C54.5516 4.40513 52.3103 3.47847 51.5262 4.12665C51.0533 4.62015 51.7544 10.6282 53.2683 16.0933C53.7475 17.8233 54.0314 19.9113 55.4709 20.1281C56.0721 20.2204 56.7466 20.2339 57.4534 20.0919L57.4513 20.095Z" fill="#FEFEF4"/>
<path d="M44.3271 42.3753H17.178C17.5847 30.4989 17.2824 23.4918 26.2845 19.958C26.5538 19.8536 26.8286 19.7657 27.1089 19.6887L27.1748 19.6722C29.4501 19.0402 31.8572 19.0182 34.1435 19.6063C34.3853 19.6667 34.6326 19.7382 34.8744 19.8261C44.2337 23.1291 43.9149 30.3505 44.3271 42.3808V42.3753Z" fill="#FEFEF4"/>
<path d="M12.5286 37.1214C16.9252 31.7795 20.7283 36.7257 30.8405 36.7257C40.9528 36.7257 45.7341 31.7795 49.1525 37.1214C52.6533 42.5897 40.9528 52.5371 30.8405 52.5371C20.7283 52.5371 8.40126 42.1336 12.5286 37.1214Z" fill="#FEFEF4"/>
<path d="M37.9797 40.1391C37.9797 41.3757 39.7439 42.3759 41.9202 42.3759C44.0965 42.3759 45.8607 41.3757 45.8607 40.1391C45.8607 38.9026 44.0965 37.9023 41.9202 37.9023C39.7439 37.9023 37.9797 38.9026 37.9797 40.1391Z" fill="#FFD7EF"/>
<path d="M15.7273 40.1389C15.7273 41.3754 17.4914 42.3757 19.6678 42.3757C21.8441 42.3757 23.6082 41.3754 23.6082 40.1389C23.6082 38.9023 21.8441 37.9021 19.6678 37.9021C17.4914 37.9021 15.7273 38.9023 15.7273 40.1389Z" fill="#FFD7EF"/>
<path d="M37.9357 44.4305C36.5618 45.8869 33.9018 48.0028 30.8461 48.0028C27.7905 48.0028 25.1305 45.8869 23.7566 44.4305L26.6803 44.2492C27.5981 44.1942 28.472 43.815 29.1425 43.183L30.7747 41.6497L34.1821 44.458L37.9357 44.425V44.4305Z" fill="#985988"/>
<path d="M30.7636 41.1663C31.1208 42.3039 32.2034 43.2876 33.7148 43.9471V44.112C33.7148 45.3815 33.7148 46.4147 32.2364 46.4147C30.7581 46.4147 30.7581 46.4147 30.7581 44.112C30.7581 43.5624 30.824 42.3643 30.7581 41.1773C30.7581 41.1773 30.7581 41.1718 30.7581 41.1663H30.7636Z" fill="white"/>
<path d="M29.2852 46.4091C27.8069 46.4091 27.8069 45.3814 27.8069 44.1064V43.9415C29.3127 43.2875 30.3954 42.3038 30.7526 41.1716C30.8241 42.3587 30.7526 43.5623 30.7526 44.1064C30.7526 45.6415 30.2617 46.4091 29.2798 46.4091H29.2852Z" fill="white"/>
<path d="M20.2063 41.0899C20.2063 41.0899 20.2393 41.1338 20.2503 41.1558C20.2503 41.1558 20.2448 41.1503 20.2393 41.1448C20.2668 41.1833 20.2613 41.1778 20.2503 41.1558C20.3218 41.2602 20.3987 41.3646 20.4811 41.4636C20.7504 41.8098 21.0472 42.1286 21.3605 42.4308C22.2618 43.2937 23.3829 43.9367 24.625 44.1345C26.3122 44.4093 28.1972 43.6894 29.4283 42.5407C29.78 42.211 30.1207 41.7823 30.2307 41.3042C30.3186 40.914 30.3406 40.5018 30.3461 40.0951C30.3461 39.9083 30.3406 39.7214 30.3461 39.5291C30.3461 39.4576 30.3461 39.3917 30.3461 39.3202C30.3461 39.0674 30.3351 38.8201 30.3186 38.5673C30.3131 38.4684 30.3571 38.3914 30.423 38.3475C30.5329 38.0727 31.1265 38.309 31.1045 38.6387C31.088 38.9465 31.088 39.2543 31.0825 39.562C31.0825 39.6664 31.088 39.7654 31.088 39.8698C31.088 40.0896 31.088 40.3149 31.077 40.5458C31.088 40.947 31.1265 41.3591 31.3023 41.6889C31.5826 42.222 32.1322 42.6397 32.6158 42.9749C33.4017 43.519 34.2646 43.9696 35.1988 44.1895C37.5565 44.739 39.7658 43.1618 41.0848 41.3427C41.1673 41.2272 41.2497 41.1118 41.3211 40.9909C41.5135 40.6667 42.173 41.0349 41.9806 41.3537C41.0848 42.843 39.5735 44.1455 37.9138 44.6676C36.3859 45.1457 34.8306 44.849 33.4347 44.1235C32.5279 43.6509 31.3353 42.9529 30.7692 41.9857C30.1647 43.1892 28.7358 43.9696 27.5432 44.3873C24.8393 45.3436 22.1299 44.2609 20.2778 42.211C20.003 41.9087 19.7392 41.5845 19.5249 41.2382C19.2995 40.8755 20.0305 40.7931 20.2173 41.0899H20.2063Z" fill="#828282"/>
<path d="M27.686 37.2153C27.686 36.2426 29.0985 35.4512 30.8461 35.4512C32.5938 35.4512 34.0062 36.2426 34.0062 37.2153C34.0062 38.1881 32.5938 39.584 30.8461 39.584C29.0985 39.584 27.686 38.1936 27.686 37.2153Z" fill="#5E5E5E"/>
<path d="M33.6763 32.247C33.6763 31.0215 34.6655 30.0322 35.8911 30.0322C37.1166 30.0322 38.1059 31.0215 38.1059 32.247C38.1059 33.4726 37.1166 34.4618 35.8911 34.4618C34.6655 34.4618 33.6763 33.4726 33.6763 32.247Z" fill="#5D5D5D"/>
<path d="M35.2756 30.939C35.2756 30.5983 35.5504 30.3235 35.8912 30.3235C36.2319 30.3235 36.5067 30.5983 36.5067 30.939C36.5067 31.2797 36.2319 31.5545 35.8912 31.5545C35.5504 31.5545 35.2756 31.2797 35.2756 30.939Z" fill="white"/>
<path d="M23.3772 32.247C23.3772 31.0215 24.3664 30.0322 25.592 30.0322C26.8176 30.0322 27.8068 31.0215 27.8068 32.247C27.8068 33.4726 26.8121 34.4618 25.592 34.4618C24.3719 34.4618 23.3772 33.4726 23.3772 32.247Z" fill="#5D5D5D"/>
<path d="M24.9766 30.939C24.9766 30.5983 25.2514 30.3235 25.5921 30.3235C25.9328 30.3235 26.2076 30.5983 26.2076 30.939C26.2076 31.2797 25.9328 31.5545 25.5921 31.5545C25.2514 31.5545 24.9766 31.2797 24.9766 30.939Z" fill="white"/>
<mask id="mask0_1097_3243" style="mask-type:alpha" maskUnits="userSpaceOnUse" x="-3" y="42" width="68" height="40">
<path d="M11.6394 43.9824L-2.26978 45.6067L4.69905 81.633H64.6956V42.2947L52.4688 47.8217L48.4818 45.6067L42.5752 47.8217L37.7023 46.788L31.0573 47.8217L25.4461 43.3918L16.8077 47.1572L11.6394 43.9824Z" fill="black"/>
</mask>
<g mask="url(#mask0_1097_3243)">
<path d="M62.0452 46.5699C62.0452 46.974 62.0408 47.3781 62.0228 47.7777C62.0138 48.1507 62.0003 48.5193 61.9734 48.8879C61.9285 49.6694 61.8611 50.4421 61.7622 51.2059C61.6948 51.8098 61.605 52.4093 61.5017 52.9999C61.2905 54.2344 61.021 55.4422 60.693 56.6279C60.5672 57.0986 60.428 57.5648 60.2752 58.0222C59.9069 59.1856 59.4801 60.3224 59.0039 61.4237C58.7433 62.0188 58.4693 62.6049 58.1773 63.1778C57.3147 64.9007 56.3219 66.5304 55.2123 68.0491C54.9292 68.4399 54.6327 68.8218 54.3362 69.1992C52.2652 71.7792 49.8528 73.9995 47.1708 75.7624C46.6946 76.0777 46.2139 76.3752 45.7242 76.655C45.1672 76.9747 44.6056 77.2767 44.0306 77.5609C40.3692 79.3593 36.3305 80.354 32.0807 80.354C27.3546 80.354 22.8847 79.1195 18.9088 76.9214C18.2979 76.5839 17.7049 76.2287 17.1209 75.8468C16.5593 75.4827 16.0112 75.0963 15.4721 74.6922C13.2169 73.0004 11.1774 70.9666 9.41183 68.6663C9.1333 68.3022 8.85926 67.9336 8.59421 67.5562C7.44415 65.9221 6.42885 64.1636 5.56181 62.3074C5.27879 61.7079 5.01374 61.0951 4.76665 60.4734C4.27248 59.2389 3.83672 57.96 3.47732 56.6501C3.34704 56.1882 3.23024 55.7264 3.12242 55.2557C2.91577 54.3898 2.74056 53.515 2.6013 52.6224C2.56985 52.4315 2.5384 52.2405 2.51594 52.0496C2.34972 50.975 2.2419 49.8826 2.17901 48.7724C2.15205 48.2573 2.13408 47.7378 2.1251 47.2138V47.1827C2.12061 47.1161 2.12061 47.045 2.12061 46.974C2.12061 46.8408 2.12061 46.7031 2.12061 46.5699C2.12061 45.775 2.14307 44.9713 2.19698 44.1586C2.31378 42.1293 2.58333 40.0599 2.99214 37.9906C3.24372 36.6895 3.55369 35.384 3.91309 34.0873C4.09728 33.4257 4.29495 32.764 4.5016 32.1068C5.2114 29.8732 6.07395 27.6751 7.06229 25.5569C7.31386 25.0152 7.57443 24.4823 7.84847 23.9539C9.29503 21.0986 10.9797 18.4209 12.8665 16.0185C13.1001 15.7254 13.3337 15.4368 13.5718 15.1526C15.1711 13.2209 16.9052 11.4891 18.7471 10.0237C19.0661 9.76612 19.3895 9.52189 19.7175 9.2821C19.996 9.07783 20.279 8.878 20.5666 8.68705C24.1066 6.29357 27.9971 4.89478 32.0807 4.89478C36.1643 4.89478 39.9604 6.26248 43.4735 8.60268C43.8464 8.85136 44.2148 9.10891 44.5786 9.37979C44.9246 9.6329 45.266 9.8949 45.6029 10.1702C47.1528 11.4225 48.6263 12.8612 50.001 14.451C50.2301 14.7085 50.4503 14.9705 50.6704 15.237C52.4764 17.4306 54.1161 19.8774 55.5492 22.4929C55.8277 22.9903 56.0928 23.4965 56.3533 24.0072C57.3417 25.961 58.2222 27.9948 58.9724 30.073C59.0757 30.3528 59.1746 30.6325 59.2689 30.9123C59.4486 31.4318 59.6193 31.9558 59.7811 32.4798C59.8125 32.5775 59.8395 32.6708 59.8664 32.764C59.8664 32.764 59.8679 32.767 59.8709 32.7729C60.2977 34.1806 60.6706 35.5971 60.9761 37.0181C60.9805 37.0315 60.9805 37.0448 60.985 37.0625C61.4433 39.1985 61.7622 41.3388 61.924 43.4437C61.9734 44.0965 62.0093 44.7448 62.0228 45.3887C62.0363 45.6995 62.0408 46.0104 62.0408 46.3168C62.0453 46.4011 62.0452 46.4855 62.0452 46.5699Z" fill="#BE6CA7"/>
<path fill-rule="evenodd" clip-rule="evenodd" d="M55.1893 67.9955C55.3331 67.7957 55.4768 67.5959 55.6206 67.3916C50.2252 68.8037 41.7165 69.1989 28.7109 65.8019C12.1738 61.4844 5.64703 47.9933 3.07384 37.5781C3.04596 37.7157 3.01872 37.8532 2.99214 37.9907C2.58333 40.0601 2.31378 42.1294 2.19698 44.1587C2.14307 44.9714 2.12061 45.7751 2.12061 46.57V46.9741C2.12061 47.0451 2.12061 47.1162 2.1251 47.1828V47.2139C2.13408 47.7379 2.15205 48.2574 2.17901 48.7725C2.2419 49.8827 2.34972 50.9751 2.51594 52.0497C2.5384 52.2406 2.56985 52.4316 2.6013 52.6225C2.74056 53.5151 2.91577 54.3899 3.12242 55.2558C3.23024 55.7265 3.34704 56.1883 3.47732 56.6502C3.83672 57.9601 4.27248 59.239 4.76665 60.4735C4.93551 60.8984 5.11276 61.3191 5.29841 61.7342C5.38441 61.9266 5.47221 62.1177 5.56181 62.3075C6.42885 64.1637 7.44415 65.9221 8.59421 67.5563C8.85926 67.9337 9.1333 68.3023 9.41183 68.6664C11.1774 70.9667 13.2169 73.0005 15.4721 74.6923C16.0112 75.0964 16.5593 75.4828 17.1209 75.8469C17.7049 76.2288 18.2979 76.584 18.9088 76.9215C22.8311 79.09 27.2342 80.3207 31.8897 80.3535C31.9322 80.3537 31.9747 80.3538 32.0173 80.3538C37.4307 80.3538 42.5071 78.7374 46.8873 75.9087L46.8963 75.8998C47.7229 75.3669 48.5315 74.7852 49.3042 74.168C51.182 72.6715 52.8982 70.9397 54.4166 69.008C54.6817 68.675 54.9377 68.3375 55.1893 67.9955Z" fill="#A55692"/>
<path d="M48.3973 44.012C47.7144 40.0332 45.7602 33.0215 43.8914 26.7158C45.0414 26.4538 46.1241 26.1652 47.1349 25.8677C47.3101 26.3206 47.4808 26.778 47.656 27.2443C51.1691 36.645 49.8483 52.4447 48.3973 44.012Z" fill="#6B75B2"/>
<path d="M62.0453 46.5697C62.0453 46.9737 62.0408 47.3778 62.0228 47.7775C62.0138 48.1505 62.0003 48.5191 61.9734 48.8876C61.9285 49.6692 61.8611 50.4419 61.7622 51.2056C58.1548 52.7465 48.2984 56.3123 34.7312 56.2369C21.7121 56.1614 10.7326 54.5539 2.51594 52.0494C2.34972 50.9747 2.2419 49.8823 2.17901 48.7722C2.15205 48.2571 2.13408 47.7375 2.1251 47.2135V47.1825C2.12061 47.1158 2.12061 47.0448 2.12061 46.9737C2.12061 46.8405 2.12061 46.7029 2.12061 46.5697C2.12061 45.7748 2.14307 44.971 2.19698 44.1584C2.31378 42.129 2.58333 40.0597 2.99214 37.9904C3.24372 36.6893 3.55369 35.3838 3.91309 34.0871C4.09728 33.4255 4.29495 32.7638 4.5016 32.1066C5.2114 29.873 6.07395 27.6749 7.06229 25.5567C7.31387 25.0149 7.57443 24.4821 7.84847 23.9536C10.0812 24.9439 19.5917 28.7451 33.0286 28.1633C37.1437 27.9813 40.778 27.4306 43.8958 26.7157C45.7647 33.0214 47.7189 40.0331 48.4017 44.0119C49.8528 52.4446 51.1735 36.6449 47.6605 27.2441C47.4853 26.7779 47.3145 26.3205 47.1393 25.8675C51.0837 24.7041 53.9274 23.3675 55.5537 22.4927C55.8322 22.99 56.0973 23.4963 56.3578 24.0069C57.3462 25.9608 58.2267 27.9946 58.9769 30.0728C59.0802 30.3526 59.1791 30.6323 59.2734 30.9121C59.4531 31.4316 59.6238 31.9556 59.7856 32.4796C59.817 32.5773 59.844 32.6705 59.8709 32.7638C59.8709 32.7638 59.8724 32.7668 59.8754 32.7727C60.3022 34.1804 60.6751 35.5969 60.9805 37.0179C60.985 37.0312 60.985 37.0445 60.9895 37.0623C61.4478 39.1982 61.7667 41.3386 61.9285 43.4435C61.9779 44.0962 62.0138 44.7446 62.0273 45.3885C62.0408 45.6993 62.0453 46.0101 62.0453 46.3165C62.0497 46.4009 62.0498 46.4853 62.0498 46.5697H62.0453Z" fill="#5961A8"/>
<path d="M60.6927 56.628C60.5669 57.0987 60.4276 57.565 60.2749 58.0224L57.4851 61.899L55.459 58.5774L52.512 63.209L49.2864 59.47L45.6969 64.3769L42.2827 60.3359L38.6932 65.0252L35.3868 60.5757L31.8063 64.8254L28.401 60.4336L24.9149 64.741L21.5231 59.9096L17.9426 63.8085L14.5598 58.7639L11.1815 62.3653L8.43213 57.6183L6.26678 60.851L3.47697 56.6502C3.34669 56.1884 3.22989 55.7266 3.12207 55.2559L6.27576 59.9851L8.45909 56.7168L11.2669 61.566L14.6182 57.9913L18.001 63.0358L21.5725 59.1458L24.9374 63.9461L28.41 59.6565L31.8198 64.0616L35.4137 59.803L38.6977 64.2259L42.2647 59.5677L45.67 63.5998L49.2594 58.7018L52.458 62.4052L55.468 57.676L57.5165 61.0331L60.6927 56.628Z" fill="#EBBB8D"/>
<path d="M44.0304 77.561C40.3691 79.3595 36.3304 80.3542 32.0805 80.3542C27.3545 80.3542 22.8845 79.1197 18.9087 76.9216C23.2888 76.4997 28.7516 76.1623 33.5765 76.4065C37.5972 76.6063 41.1777 77.0681 44.0304 77.561Z" fill="#5961A8"/>
<path d="M47.1708 75.7619C46.6946 76.0772 46.2139 76.3747 45.7243 76.6544C42.8176 75.7264 37.4537 74.554 29.4526 74.9093C23.9269 75.1535 19.9062 75.5132 17.1209 75.8462C16.5593 75.4821 16.0113 75.0958 15.4722 74.6917C19.2413 74.0167 25.1084 73.3018 32.3503 73.546C39.938 73.8036 44.6056 74.896 47.1708 75.7619Z" fill="#5961A8"/>
<path d="M12.5296 70.3229C12.5296 70.3229 10.1531 67.3788 9.6455 65.5182C9.1109 63.5732 14.8882 71.7972 12.5296 70.3229Z" fill="#5961A8"/>
<path d="M18.0822 71.8369C18.0822 71.8369 15.9797 68.7373 15.6293 66.859C15.2654 64.8918 20.288 73.4844 18.0822 71.8369Z" fill="#5961A8"/>
<path d="M23.2179 72.2939C23.2179 72.2939 21.4562 69.2387 21.2629 67.4803C21.0562 65.6374 25.1774 74.0213 23.2179 72.2939Z" fill="#5961A8"/>
<path d="M28.564 72.5298C28.564 72.5298 26.8337 69.4569 26.6539 67.6674C26.4651 65.7934 30.501 74.2483 28.564 72.5298Z" fill="#5961A8"/>
<path d="M59.0038 61.4239C58.7433 62.019 58.4692 62.6051 58.1772 63.178C52.4628 65.0341 42.4177 67.3166 29.2369 66.4507C17.5835 65.6869 10.0183 63.8307 5.56176 62.3076C5.27874 61.7081 5.01369 61.0953 4.7666 60.4736C8.22578 61.7792 15.2609 63.7197 28.1453 64.7455C42.9299 65.9223 53.7746 63.1868 59.0038 61.4239Z" fill="#5961A8"/>
<path d="M50.5132 71.6724C50.5132 71.6724 52.9615 68.786 53.5141 66.9387C54.0936 65.0071 48.1232 73.089 50.5132 71.6724Z" fill="#5961A8"/>
<path d="M44.9244 72.583C44.9244 72.583 47.1033 69.5367 47.4986 67.6628C47.9119 65.7045 42.6827 74.1771 44.9244 72.583Z" fill="#5961A8"/>
<path d="M40.0821 72.7386C40.0821 72.7386 41.9158 69.7279 42.154 67.9738C42.4057 66.1399 38.0777 74.4216 40.0821 72.7386Z" fill="#5961A8"/>
<path d="M35.0953 72.5076C35.0953 72.5076 36.7042 69.8033 36.902 68.2091C37.1087 66.5395 33.3291 73.9952 35.0953 72.5076Z" fill="#5961A8"/>
<path d="M15.2298 68.8262C15.3602 69.1948 15.2478 69.5723 14.9737 69.6655C14.704 69.7588 14.3759 69.5367 14.2456 69.1682C14.1152 68.7996 14.2276 68.4221 14.5018 68.3289C14.7714 68.2356 15.0995 68.4577 15.2298 68.8262Z" fill="#EBBB8D"/>
<path d="M20.2839 69.5406C20.3963 69.8559 20.2974 70.1712 20.0682 70.2511C19.839 70.3311 19.5603 70.1401 19.4525 69.8293C19.3401 69.514 19.439 69.1987 19.6682 69.1188C19.8974 69.0389 20.1761 69.2298 20.2839 69.5406Z" fill="#EBBB8D"/>
<path d="M25.531 69.7321C25.6433 70.0473 25.5445 70.3626 25.3153 70.4426C25.0861 70.5225 24.8074 70.3315 24.6996 70.0207C24.5872 69.7054 24.6861 69.3901 24.9153 69.3102C25.1445 69.2303 25.4231 69.4212 25.531 69.7321Z" fill="#EBBB8D"/>
<path d="M48.258 69.3184C48.1277 69.687 48.2401 70.0644 48.5142 70.1577C48.7839 70.2509 49.1119 70.0289 49.2423 69.6603C49.3726 69.2918 49.2603 68.9143 48.9861 68.8211C48.7165 68.7278 48.3884 68.9498 48.258 69.3184Z" fill="#EBBB8D"/>
<path d="M43.2039 70.0338C43.0916 70.3491 43.1905 70.6644 43.4197 70.7443C43.6489 70.8242 43.9275 70.6333 44.0354 70.3225C44.1477 70.0072 44.0489 69.6919 43.8197 69.612C43.5905 69.532 43.3118 69.723 43.2039 70.0338Z" fill="#EBBB8D"/>
<path d="M37.9569 70.2203C37.8445 70.5356 37.9434 70.8509 38.1726 70.9308C38.4018 71.0108 38.6805 70.8198 38.7883 70.509C38.9007 70.1937 38.8018 69.8784 38.5726 69.7985C38.3434 69.7185 38.0647 69.9095 37.9569 70.2203Z" fill="#EBBB8D"/>
<path d="M32.1302 72.6358C32.1302 72.6358 33.4555 72.1118 34.1923 70.6908C34.929 69.2698 32.7502 70.7086 32.247 71.6056C32.247 71.6056 33.6622 69.5629 33.6127 68.5682C33.5633 67.5735 31.9191 70.0514 31.8697 70.5487C31.8697 70.5487 31.4069 69.1588 30.7016 68.8435C29.9963 68.5282 30.4815 70.3223 31.5687 71.277C31.5687 71.277 30.459 70.4333 30.0143 70.5665C29.565 70.6997 30.3018 72.0497 32.1257 72.6358H32.1302Z" fill="#EBBB8D"/>
<path d="M31.8204 69.7944C31.8204 69.7944 31.1777 68.5643 31.5777 67.6407C31.9777 66.717 32.7012 68.4933 31.8204 69.7944Z" fill="#EBBB8D"/>
<path d="M8.97643 60.7136C8.87756 60.9533 8.5315 61.0422 8.20791 60.9089C7.88432 60.7757 7.70006 60.4738 7.79893 60.234C7.89781 59.9942 8.24387 59.9054 8.56745 60.0386C8.89104 60.1718 9.07531 60.4738 8.97643 60.7136Z" fill="#E2D8CF"/>
<path d="M12.0134 58.639C11.9729 58.7944 11.7752 58.8788 11.5639 58.8255C11.3527 58.7722 11.2179 58.6079 11.2538 58.4525C11.2898 58.2971 11.492 58.2127 11.7033 58.266C11.9145 58.3193 12.0493 58.4836 12.0134 58.639Z" fill="#E2D8CF"/>
<path d="M15.2569 61.9304C15.1581 62.1701 14.812 62.259 14.4884 62.1257C14.1648 61.9925 13.9806 61.6906 14.0795 61.4508C14.1783 61.211 14.5244 61.1222 14.848 61.2554C15.1716 61.3886 15.3558 61.6906 15.2569 61.9304Z" fill="#E2D8CF"/>
<path d="M22.1168 62.7953C22.0629 63.0484 21.7438 63.1993 21.3978 63.1327C21.0517 63.0617 20.818 62.7997 20.8674 62.5466C20.9214 62.2935 21.2405 62.1425 21.5865 62.2091C21.9326 62.2801 22.1663 62.5421 22.1168 62.7953Z" fill="#E2D8CF"/>
<path d="M29.0892 63.6041C29.0668 63.8661 28.7702 64.0526 28.4196 64.026C28.069 63.9993 27.7994 63.7684 27.8219 63.5064C27.8443 63.2444 28.141 63.0579 28.4915 63.0846C28.8421 63.1112 29.1117 63.3421 29.0892 63.6041Z" fill="#E2D8CF"/>
<path d="M35.8952 63.6354C35.8727 63.8974 35.5761 64.0839 35.2255 64.0572C34.875 64.0306 34.6053 63.7997 34.6278 63.5377C34.6502 63.2757 34.9469 63.0892 35.2974 63.1158C35.648 63.1425 35.9176 63.3734 35.8952 63.6354Z" fill="#E2D8CF"/>
<path d="M55.1586 61.8141C55.2574 62.0539 55.6035 62.1427 55.9271 62.0095C56.2507 61.8763 56.4349 61.5743 56.3361 61.3346C56.2372 61.0948 55.8911 61.006 55.5675 61.1392C55.2439 61.2724 55.0597 61.5743 55.1586 61.8141Z" fill="#E2D8CF"/>
<path d="M48.2986 62.6761C48.3525 62.9292 48.6716 63.0802 49.0177 63.0136C49.3637 62.9426 49.5974 62.6806 49.548 62.4274C49.4986 62.1743 49.175 62.0233 48.8289 62.09C48.4828 62.161 48.2491 62.423 48.2986 62.6761Z" fill="#E2D8CF"/>
<path d="M41.326 63.4889C41.3485 63.7509 41.6451 63.9374 41.9957 63.9107C42.3462 63.8841 42.6159 63.6532 42.5934 63.3912C42.5709 63.1292 42.2743 62.9427 41.9238 62.9693C41.5732 62.996 41.3035 63.2269 41.326 63.4889Z" fill="#E2D8CF"/>
<path d="M6.07441 57.3421C6.03396 57.4975 5.83621 57.5819 5.62498 57.5286C5.41375 57.4798 5.27892 57.311 5.31487 57.1556C5.35532 57.0002 5.55307 56.9158 5.7643 56.9691C5.97553 57.018 6.11036 57.1867 6.07441 57.3421Z" fill="#E2D8CF"/>
<path d="M18.4733 59.7718C18.4329 59.9272 18.2351 60.0116 18.0239 59.9583C17.8127 59.905 17.6778 59.7407 17.7138 59.5853C17.7498 59.4299 17.952 59.3455 18.1632 59.3988C18.3745 59.4521 18.5093 59.6164 18.4733 59.7718Z" fill="#E2D8CF"/>
<path d="M25.4904 60.8597C25.45 61.0151 25.2522 61.0995 25.041 61.0462C24.8298 60.9929 24.6949 60.8286 24.7309 60.6732C24.7668 60.5178 24.9691 60.4334 25.1803 60.4867C25.3915 60.54 25.5264 60.7043 25.4904 60.8597Z" fill="#E2D8CF"/>
<path d="M32.2337 61.1791C32.2382 61.3389 32.0675 61.4722 31.8517 61.481C31.636 61.4899 31.4562 61.3656 31.4517 61.2057C31.4473 61.0459 31.618 60.9126 31.8338 60.9038C32.0495 60.8949 32.2293 61.0192 32.2337 61.1791Z" fill="#E2D8CF"/>
<path d="M52.0632 59.8607C52.1036 60.0161 52.3014 60.1005 52.5126 60.0472C52.7238 59.9983 52.8587 59.8296 52.8227 59.6742C52.7822 59.5188 52.5845 59.4344 52.3733 59.4877C52.162 59.5365 52.0272 59.7053 52.0632 59.8607Z" fill="#E2D8CF"/>
<path d="M57.5036 58.7767C57.544 58.9321 57.7418 59.0165 57.953 58.9632C58.1643 58.9099 58.2991 58.7456 58.2631 58.5902C58.2272 58.4348 58.0249 58.3504 57.8137 58.4037C57.6025 58.457 57.4676 58.6213 57.5036 58.7767Z" fill="#E2D8CF"/>
<path d="M45.374 60.7396C45.4144 60.895 45.6122 60.9794 45.8234 60.9261C46.0346 60.8728 46.1694 60.7085 46.1335 60.5531C46.0975 60.3977 45.8953 60.3133 45.6841 60.3666C45.4728 60.4199 45.338 60.5842 45.374 60.7396Z" fill="#E2D8CF"/>
<path d="M38.2038 61.2367C38.2442 61.3921 38.442 61.4765 38.6532 61.4232C38.8644 61.3743 38.9993 61.2056 38.9633 61.0502C38.9229 60.8947 38.7251 60.8104 38.5139 60.8636C38.3027 60.9125 38.1678 61.0812 38.2038 61.2367Z" fill="#E2D8CF"/>
<path d="M40.1491 47.3868C39.7808 47.3912 39.4393 47.52 39.1563 47.7287C38.8059 46.2233 38.0467 44.6958 36.5777 43.559C33.9226 41.503 30.9082 41.4541 30.9082 41.4541C30.9082 41.4541 31.3799 39.145 30.5533 38.4611C30.5533 38.4611 33.8912 33.5232 33.0107 31.6493C32.1256 29.7753 29.0169 37.764 29.0169 37.764C29.0169 37.764 29.6368 33.2434 28.9854 32.1954C28.334 31.1475 27.2693 36.2098 27.9701 38.0881C27.9701 38.0881 26.1956 38.4389 25.8632 39.3804C25.5307 40.3218 24.8299 40.637 25.0545 41.2232C25.2837 41.8138 25.7868 42.5953 27.6736 42.4577L28.4329 42.32C28.4329 42.32 27.458 47.2935 28.5452 49.3628C29.6323 51.4322 28.7339 52.4579 28.8102 52.8798C28.8911 53.3372 29.821 53.2928 30.0591 52.9375C30.4455 52.3647 31.7303 49.7625 32.22 49.6826C32.7097 49.6026 33.3925 51.3167 33.397 51.5876C33.4015 51.8585 32.5524 52.1737 31.9729 52.2936C31.3934 52.4091 30.8767 53.0308 30.8767 53.2084C30.8767 53.386 38.0422 53.1818 38.5453 52.9064C38.7205 52.8087 39.2462 52.227 39.3585 51.0902C39.61 51.2323 39.9021 51.3123 40.2031 51.3078C41.1959 51.2945 41.9865 50.4019 41.9731 49.3229C41.9551 48.2394 41.1375 47.3779 40.1446 47.3912L40.1491 47.3868Z" fill="#E4A134"/>
<path d="M22.539 45.0421C22.2066 45.0465 21.8966 45.1753 21.6451 45.384C21.3261 43.8786 20.6343 42.3466 19.309 41.2098C16.9055 39.1494 14.1831 39.0961 14.1831 39.0961C14.1831 39.0961 14.6054 36.7914 13.8552 36.0987C13.8552 36.0987 16.8651 31.1652 16.0654 29.2912C15.2658 27.4173 12.467 35.4015 12.467 35.4015C12.467 35.4015 13.0196 30.8854 12.4266 29.833C11.8336 28.7806 10.8812 33.8473 11.5191 35.7212C11.5191 35.7212 9.9153 36.0676 9.6188 37.009C9.32229 37.946 8.68437 38.2613 8.89102 38.8519C9.09767 39.4425 9.55141 40.224 11.2585 40.0908L11.9459 39.9531C11.9459 39.9531 11.0699 44.9266 12.0582 46.9959C13.0465 49.0653 12.2334 50.091 12.3008 50.5129C12.3727 50.9703 13.2127 50.9259 13.4329 50.5706C13.7833 49.9978 14.9378 47.4 15.3826 47.3201C15.8273 47.2402 16.4428 48.9587 16.4473 49.2251C16.4473 49.496 15.6836 49.8113 15.1625 49.9267C14.6413 50.0422 14.1741 50.6594 14.1741 50.8415C14.1741 51.0191 20.6522 50.8237 21.106 50.5484C21.2632 50.4507 21.7394 49.869 21.8382 48.7322C22.0673 48.8743 22.3279 48.9542 22.6019 48.9498C23.5004 48.9365 24.2147 48.0484 24.1968 46.9649C24.1788 45.8813 23.4375 45.0199 22.539 45.0332V45.0421Z" fill="#78BB9B"/>
<path d="M7.6508 44.8776C7.66428 45.9567 7.16112 46.8404 6.5232 46.8537C6.32553 46.8537 6.14134 46.7738 5.97512 46.6317C5.90773 47.7685 5.57529 48.3502 5.46298 48.4434C5.26981 48.6077 3.53572 48.7365 2.17901 48.772C2.15205 48.2569 2.13408 47.7374 2.1251 47.2134V47.1823C2.13408 47.1512 2.13858 47.1246 2.13858 47.0979C2.13858 47.0713 2.13408 47.0269 2.12061 46.9736C2.12061 46.8404 2.12061 46.7027 2.12061 46.5695C2.12061 45.7746 2.14307 44.9709 2.19698 44.1582C2.31378 42.1289 2.58333 40.0596 2.99214 37.9902C3.374 38.27 3.76484 38.6297 4.1467 39.0915C5.0946 40.2327 5.59326 41.7692 5.82687 43.2746C6.00657 43.0659 6.2267 42.9415 6.46479 42.9371C7.10272 42.9237 7.63732 43.7941 7.65529 44.8776H7.6508Z" fill="#E4A134"/>
<path d="M55.5045 45.0421C55.1766 45.0465 54.8711 45.1708 54.6195 45.384C54.3005 43.8786 53.6222 42.3466 52.3104 41.2098C49.9339 39.1494 47.2384 39.0961 47.2384 39.0961C47.2384 39.0961 47.6562 36.7914 46.915 36.0987C46.915 36.0987 49.8935 31.1652 49.0983 29.2912C48.3031 27.4173 45.5403 35.4015 45.5403 35.4015C45.5403 35.4015 46.0884 30.8854 45.4999 29.833C44.9113 28.7806 43.9724 33.8473 44.6014 35.7212C44.6014 35.7212 43.0155 36.0676 42.719 37.009C42.427 37.946 41.7981 38.2613 42.0002 38.8519C42.2024 39.4425 42.6561 40.224 44.3453 40.0908L45.0237 39.9531C45.0237 39.9531 44.1611 44.9266 45.136 46.9959C46.1108 49.0653 45.3112 50.091 45.3786 50.5129C45.4504 50.9703 46.2815 50.9259 46.4972 50.5706C46.8431 49.9978 47.9887 47.4 48.4244 47.3201C48.8602 47.2402 49.4757 48.9587 49.4802 49.2251C49.4802 49.496 48.7254 49.8113 48.2088 49.9267C47.6922 50.0422 47.2294 50.6594 47.2339 50.8415C47.2339 51.0191 53.6402 50.8282 54.0894 50.5484C54.2466 50.4507 54.7139 49.869 54.8127 48.7322C55.0418 48.8743 55.2979 48.9542 55.5719 48.9498C56.4614 48.9365 57.1667 48.0484 57.1488 46.9649C57.1308 45.8813 56.3985 45.0199 55.509 45.0332L55.5045 45.0421Z" fill="#78BB9B"/>
<path d="M60.4775 48.537C60.3248 48.8879 59.7228 48.9323 59.6689 48.4749C59.6195 48.0486 60.1945 47.0272 59.4802 44.9535C58.7659 42.8797 59.3679 37.9107 59.3679 37.9107L58.8782 38.0483C57.6563 38.1727 57.3238 37.3867 57.1756 36.7961C57.0229 36.2055 57.4766 35.8946 57.6877 34.9577C57.8944 34.0207 59.0445 33.6788 59.0445 33.6788C58.8333 32.8351 58.8513 31.3563 58.9726 30.073C59.0759 30.3528 59.1747 30.6325 59.2691 30.9123C59.4488 31.4318 59.6195 31.9558 59.7812 32.4798C59.7453 33.0127 59.7183 33.3635 59.7183 33.3635C59.7183 33.3635 59.7767 33.137 59.8666 32.764C59.8666 32.764 59.8681 32.767 59.8711 32.7729C60.2978 34.1806 60.6707 35.5971 60.9762 37.0181C60.9672 37.0492 60.9672 37.0625 60.9672 37.0625H60.9852C61.4434 39.1984 61.7624 41.3388 61.9241 43.4437C61.9735 44.0964 62.0095 44.7448 62.0229 45.3887C61.969 45.3176 61.9106 45.2821 61.8612 45.2954C61.5423 45.3709 60.7246 47.9686 60.4775 48.537Z" fill="#E4A134"/>
<path d="M61.7134 47.9019C61.8077 47.8708 61.9156 47.8309 62.0235 47.7776C62.0145 48.1506 62.001 48.5192 61.974 48.8877C61.4077 48.8877 61.0123 48.8655 61.0123 48.8123C61.0078 48.6302 61.3403 48.0174 61.7134 47.9019Z" fill="#E4A134"/>
<path d="M62.0452 46.5699C62.0452 46.974 62.0408 47.3781 62.0228 47.7777C62.0138 48.1507 62.0003 48.5193 61.9734 48.8879C61.9285 49.6694 61.8611 50.4421 61.7622 51.2059C61.6948 51.8098 61.605 52.4093 61.5017 52.9999C61.2905 54.2344 61.021 55.4422 60.693 56.6279C60.5672 57.0986 60.428 57.5648 60.2752 58.0222C59.9069 59.1856 59.4801 60.3224 59.0039 61.4237C58.7433 62.0188 58.4693 62.6049 58.1773 63.1778C57.3147 64.9007 56.3219 66.5304 55.2123 68.0491C54.9292 68.4399 54.6327 68.8218 54.3362 69.1992C52.2652 71.7792 49.8528 73.9995 47.1708 75.7624C46.6946 76.0777 46.2139 76.3752 45.7242 76.655C45.1672 76.9747 44.6056 77.2767 44.0306 77.5609C40.3692 79.3593 36.3305 80.354 32.0807 80.354C27.3546 80.354 22.8847 79.1195 18.9088 76.9214C18.2979 76.5839 17.7049 76.2287 17.1209 75.8468C16.5593 75.4827 16.0112 75.0963 15.4721 74.6922C13.2169 73.0004 11.1774 70.9666 9.41183 68.6663C9.1333 68.3022 8.85926 67.9336 8.59421 67.5562C7.44415 65.9221 6.42885 64.1636 5.56181 62.3074C5.27879 61.7079 5.01374 61.0951 4.76665 60.4734C4.27248 59.2389 3.83672 57.96 3.47732 56.6501C3.34704 56.1882 3.23024 55.7264 3.12242 55.2557C2.91577 54.3898 2.74056 53.515 2.6013 52.6224C2.56985 52.4315 2.5384 52.2405 2.51594 52.0496C2.34972 50.975 2.2419 49.8826 2.17901 48.7724C2.15205 48.2573 2.13408 47.7378 2.1251 47.2138V47.1827C2.12061 47.1161 2.12061 47.045 2.12061 46.974C2.12061 46.8408 2.12061 46.7031 2.12061 46.5699C2.12061 45.775 2.14307 44.9713 2.19698 44.1586C2.31378 42.1293 2.58333 40.0599 2.99214 37.9906C3.24372 36.6895 3.55369 35.384 3.91309 34.0873C4.09728 33.4257 4.29495 32.764 4.5016 32.1068C5.2114 29.8732 6.07395 27.6751 7.06229 25.5569C7.31386 25.0152 7.57443 24.4823 7.84847 23.9539C9.29503 21.0986 10.9797 18.4209 12.8665 16.0185C13.1001 15.7254 13.3337 15.4368 13.5718 15.1526C15.1711 13.2209 16.9052 11.4891 18.7471 10.0237C19.0661 9.76612 19.3895 9.52189 19.7175 9.2821C19.996 9.07783 20.279 8.878 20.5666 8.68705C24.1066 6.29357 27.9971 4.89478 32.0807 4.89478C36.1643 4.89478 39.9604 6.26248 43.4735 8.60268C43.8464 8.85136 44.2148 9.10891 44.5786 9.37979C44.9246 9.6329 45.266 9.8949 45.6029 10.1702C47.1528 11.4225 48.6263 12.8612 50.001 14.451C50.2301 14.7085 50.4503 14.9705 50.6704 15.237C52.4764 17.4306 54.1161 19.8774 55.5492 22.4929C55.8277 22.9903 56.0928 23.4965 56.3533 24.0072C57.3417 25.961 58.2222 27.9948 58.9724 30.073C59.0757 30.3528 59.1746 30.6325 59.2689 30.9123C59.4486 31.4318 59.6193 31.9558 59.7811 32.4798C59.8125 32.5775 59.8395 32.6708 59.8664 32.764C59.8664 32.764 59.8679 32.767 59.8709 32.7729C60.2977 34.1806 60.6706 35.5971 60.9761 37.0181C60.9805 37.0315 60.9805 37.0448 60.985 37.0625C61.4433 39.1985 61.7622 41.3388 61.924 43.4437C61.9734 44.0965 62.0093 44.7448 62.0228 45.3887C62.0363 45.6995 62.0408 46.0104 62.0408 46.3168C62.0453 46.4011 62.0452 46.4855 62.0452 46.5699Z" fill="url(#paint3_radial_1097_3243)"/>
<path d="M62.0452 46.5699C62.0452 46.974 62.0408 47.3781 62.0228 47.7777C62.0138 48.1507 62.0003 48.5193 61.9734 48.8879C61.9285 49.6694 61.8611 50.4421 61.7622 51.2059C61.6948 51.8098 61.605 52.4093 61.5017 52.9999C61.2905 54.2344 61.021 55.4422 60.693 56.6279C60.5672 57.0986 60.428 57.5648 60.2752 58.0222C59.9069 59.1856 59.4801 60.3224 59.0039 61.4237C58.7433 62.0188 58.4693 62.6049 58.1773 63.1778C57.3147 64.9007 56.3219 66.5304 55.2123 68.0491C54.9292 68.4399 54.6327 68.8218 54.3362 69.1992C52.2652 71.7792 49.8528 73.9995 47.1708 75.7624C46.6946 76.0777 46.2139 76.3752 45.7242 76.655C45.1672 76.9747 44.6056 77.2767 44.0306 77.5609C40.3692 79.3593 36.3305 80.354 32.0807 80.354C27.3546 80.354 22.8847 79.1195 18.9088 76.9214C18.2979 76.5839 17.7049 76.2287 17.1209 75.8468C16.5593 75.4827 16.0112 75.0963 15.4721 74.6922C13.2169 73.0004 11.1774 70.9666 9.41183 68.6663C9.1333 68.3022 8.85926 67.9336 8.59421 67.5562C7.44415 65.9221 6.42885 64.1636 5.56181 62.3074C5.27879 61.7079 5.01374 61.0951 4.76665 60.4734C4.27248 59.2389 3.83672 57.96 3.47732 56.6501C3.34704 56.1882 3.23024 55.7264 3.12242 55.2557C2.91577 54.3898 2.74056 53.515 2.6013 52.6224C2.56985 52.4315 2.5384 52.2405 2.51594 52.0496C2.34972 50.975 2.2419 49.8826 2.17901 48.7724C2.15205 48.2573 2.13408 47.7378 2.1251 47.2138V47.1827C2.12061 47.1161 2.12061 47.045 2.12061 46.974C2.12061 46.8408 2.12061 46.7031 2.12061 46.5699C2.12061 45.775 2.14307 44.9713 2.19698 44.1586C2.31378 42.1293 2.58333 40.0599 2.99214 37.9906C3.24372 36.6895 3.55369 35.384 3.91309 34.0873C4.09728 33.4257 4.29495 32.764 4.5016 32.1068C5.2114 29.8732 6.07395 27.6751 7.06229 25.5569C7.31386 25.0152 7.57443 24.4823 7.84847 23.9539C9.29503 21.0986 10.9797 18.4209 12.8665 16.0185C13.1001 15.7254 13.3337 15.4368 13.5718 15.1526C15.1711 13.2209 16.9052 11.4891 18.7471 10.0237C19.0661 9.76612 19.3895 9.52189 19.7175 9.2821C19.996 9.07783 20.279 8.878 20.5666 8.68705C24.1066 6.29357 27.9971 4.89478 32.0807 4.89478C36.1643 4.89478 39.9604 6.26248 43.4735 8.60268C43.8464 8.85136 44.2148 9.10891 44.5786 9.37979C44.9246 9.6329 45.266 9.8949 45.6029 10.1702C47.1528 11.4225 48.6263 12.8612 50.001 14.451C50.2301 14.7085 50.4503 14.9705 50.6704 15.237C52.4764 17.4306 54.1161 19.8774 55.5492 22.4929C55.8277 22.9903 56.0928 23.4965 56.3533 24.0072C57.3417 25.961 58.2222 27.9948 58.9724 30.073C59.0757 30.3528 59.1746 30.6325 59.2689 30.9123C59.4486 31.4318 59.6193 31.9558 59.7811 32.4798C59.8125 32.5775 59.8395 32.6708 59.8664 32.764C59.8664 32.764 59.8679 32.767 59.8709 32.7729C60.2977 34.1806 60.6706 35.5971 60.9761 37.0181C60.9805 37.0315 60.9805 37.0448 60.985 37.0625C61.4433 39.1985 61.7622 41.3388 61.924 43.4437C61.9734 44.0965 62.0093 44.7448 62.0228 45.3887C62.0363 45.6995 62.0408 46.0104 62.0408 46.3168C62.0453 46.4011 62.0452 46.4855 62.0452 46.5699Z" fill="url(#paint4_radial_1097_3243)"/>
<path d="M62.0452 46.5699C62.0452 46.974 62.0408 47.3781 62.0228 47.7777C62.0138 48.1507 62.0003 48.5193 61.9734 48.8879C61.9285 49.6694 61.8611 50.4421 61.7622 51.2059C61.6948 51.8098 61.605 52.4093 61.5017 52.9999C61.2905 54.2344 61.021 55.4422 60.693 56.6279C60.5672 57.0986 60.428 57.5648 60.2752 58.0222C59.9069 59.1856 59.4801 60.3224 59.0039 61.4237C58.8472 61.7814 58.6857 62.136 58.5184 62.4863C58.4073 62.7187 58.2937 62.9493 58.1773 63.1778C57.3147 64.9007 56.3219 66.5304 55.2122 68.0491C54.9292 68.4399 54.6327 68.8218 54.3362 69.1992C52.2652 71.7792 49.8528 73.9995 47.1708 75.7624C46.6946 76.0777 46.2139 76.3752 45.7242 76.655C45.1672 76.9747 44.6056 77.2767 44.0306 77.5609C40.3692 79.3593 36.3305 80.354 32.0807 80.354C32.017 80.354 31.9533 80.3538 31.8897 80.3534C27.2342 80.3206 22.8311 79.0899 18.9088 76.9214C18.2979 76.5839 17.7049 76.2287 17.1209 75.8468C16.5593 75.4827 16.0112 75.0963 15.4721 74.6922C13.2169 73.0004 11.1774 70.9666 9.41183 68.6663C9.1333 68.3022 8.85926 67.9336 8.59421 67.5562C7.44415 65.9221 6.42885 64.1636 5.56181 62.3074C5.47221 62.1176 5.38441 61.9265 5.29841 61.7341C5.11276 61.319 4.93551 60.8983 4.76665 60.4734C4.27248 59.2389 3.83672 57.96 3.47732 56.6501C3.34704 56.1882 3.23024 55.7264 3.12242 55.2557C2.91577 54.3898 2.74056 53.515 2.6013 52.6224C2.56985 52.4315 2.5384 52.2405 2.51594 52.0496C2.34972 50.975 2.2419 49.8826 2.17901 48.7724C2.15205 48.2573 2.13408 47.7378 2.1251 47.2138V47.1827C2.12061 47.1161 2.12061 47.045 2.12061 46.974C2.12061 46.8408 2.12061 46.7031 2.12061 46.5699C2.12061 45.775 2.14307 44.9713 2.19698 44.1586C2.31378 42.1293 2.58333 40.06 2.99214 37.9906C3.01872 37.8531 3.04596 37.7156 3.07384 37.578C3.30978 36.4137 3.59167 35.247 3.91309 34.0873C4.09728 33.4257 4.29495 32.764 4.5016 32.1068C5.2114 29.8732 6.07395 27.6751 7.06229 25.5569C7.31386 25.0152 7.57443 24.4823 7.84847 23.9539C9.29503 21.0986 10.9797 18.4209 12.8665 16.0185C13.1001 15.7254 13.3337 15.4368 13.5718 15.1526C15.1711 13.2209 16.9052 11.4891 18.7471 10.0237C19.0661 9.76612 19.3895 9.52189 19.7175 9.2821C19.996 9.07783 20.279 8.878 20.5666 8.68705C24.1066 6.29357 27.9971 4.89478 32.0807 4.89478C36.1643 4.89478 39.9604 6.26248 43.4735 8.60268C43.8464 8.85136 44.2148 9.10891 44.5786 9.37979C44.9246 9.6329 45.266 9.8949 45.6029 10.1702C47.1528 11.4225 48.6263 12.8612 50.001 14.451C50.2301 14.7085 50.4503 14.9705 50.6704 15.237C52.4764 17.4306 54.1161 19.8774 55.5492 22.4929C55.8277 22.9903 56.0928 23.4965 56.3533 24.0072C57.3417 25.961 58.2222 27.9948 58.9724 30.073C59.0757 30.3528 59.1746 30.6325 59.2689 30.9123C59.4486 31.4318 59.6193 31.9558 59.7811 32.4798C59.8125 32.5775 59.8395 32.6708 59.8664 32.764C60.2932 34.1717 60.6706 35.5971 60.9761 37.0181C60.9805 37.0315 60.9805 37.0448 60.985 37.0625C61.4433 39.1985 61.7622 41.3388 61.924 43.4437C61.9734 44.0965 62.0093 44.7448 62.0228 45.3887C62.0363 45.6995 62.0408 46.0104 62.0408 46.3168C62.0453 46.4011 62.0452 46.4855 62.0452 46.5699Z" fill="url(#paint5_radial_1097_3243)"/>
<path d="M62.0452 46.5699C62.0452 46.974 62.0408 47.3781 62.0228 47.7777C62.0138 48.1507 62.0003 48.5193 61.9734 48.8879C61.9285 49.6694 61.8611 50.4421 61.7622 51.2059C61.6948 51.8098 61.605 52.4093 61.5017 52.9999C61.2905 54.2344 61.021 55.4422 60.693 56.6279C60.5672 57.0986 60.428 57.5648 60.2752 58.0222C59.9069 59.1856 59.4801 60.3224 59.0039 61.4237C58.8472 61.7814 58.6857 62.136 58.5184 62.4863C58.4073 62.7187 58.2937 62.9493 58.1773 63.1778C57.3147 64.9007 56.3219 66.5304 55.2122 68.0491C54.9292 68.4399 54.6327 68.8218 54.3362 69.1992C52.2652 71.7792 49.8528 73.9995 47.1708 75.7624C46.6946 76.0777 46.2139 76.3752 45.7242 76.655C45.1672 76.9747 44.6056 77.2767 44.0306 77.5609C40.3692 79.3593 36.3305 80.354 32.0807 80.354C32.017 80.354 31.9533 80.3538 31.8897 80.3534C27.2342 80.3206 22.8311 79.0899 18.9088 76.9214C18.2979 76.5839 17.7049 76.2287 17.1209 75.8468C16.5593 75.4827 16.0112 75.0963 15.4721 74.6922C13.2169 73.0004 11.1774 70.9666 9.41183 68.6663C9.1333 68.3022 8.85926 67.9336 8.59421 67.5562C7.44415 65.9221 6.42885 64.1636 5.56181 62.3074C5.47221 62.1176 5.38441 61.9265 5.29841 61.7341C5.11276 61.319 4.93551 60.8983 4.76665 60.4734C4.27248 59.2389 3.83672 57.96 3.47732 56.6501C3.34704 56.1882 3.23024 55.7264 3.12242 55.2557C2.91577 54.3898 2.74056 53.515 2.6013 52.6224C2.56985 52.4315 2.5384 52.2405 2.51594 52.0496C2.34972 50.975 2.2419 49.8826 2.17901 48.7724C2.15205 48.2573 2.13408 47.7378 2.1251 47.2138V47.1827C2.12061 47.1161 2.12061 47.045 2.12061 46.974C2.12061 46.8408 2.12061 46.7031 2.12061 46.5699C2.12061 45.775 2.14307 44.9713 2.19698 44.1586C2.31378 42.1293 2.58333 40.06 2.99214 37.9906C3.01872 37.8531 3.04596 37.7156 3.07384 37.578C3.30978 36.4137 3.59167 35.247 3.91309 34.0873C4.09728 33.4257 4.29495 32.764 4.5016 32.1068C5.2114 29.8732 6.07395 27.6751 7.06229 25.5569C7.31386 25.0152 7.57443 24.4823 7.84847 23.9539C9.29503 21.0986 10.9797 18.4209 12.8665 16.0185C13.1001 15.7254 13.3337 15.4368 13.5718 15.1526C15.1711 13.2209 16.9052 11.4891 18.7471 10.0237C19.0661 9.76612 19.3895 9.52189 19.7175 9.2821C19.996 9.07783 20.279 8.878 20.5666 8.68705C24.1066 6.29357 27.9971 4.89478 32.0807 4.89478C36.1643 4.89478 39.9604 6.26248 43.4735 8.60268C43.8464 8.85136 44.2148 9.10891 44.5786 9.37979C44.9246 9.6329 45.266 9.8949 45.6029 10.1702C47.1528 11.4225 48.6263 12.8612 50.001 14.451C50.2301 14.7085 50.4503 14.9705 50.6704 15.237C52.4764 17.4306 54.1161 19.8774 55.5492 22.4929C55.8277 22.9903 56.0928 23.4965 56.3533 24.0072C57.3417 25.961 58.2222 27.9948 58.9724 30.073C59.0757 30.3528 59.1746 30.6325 59.2689 30.9123C59.4486 31.4318 59.6193 31.9558 59.7811 32.4798C59.8125 32.5775 59.8395 32.6708 59.8664 32.764C60.2932 34.1717 60.6706 35.5971 60.9761 37.0181C60.9805 37.0315 60.9805 37.0448 60.985 37.0625C61.4433 39.1985 61.7622 41.3388 61.924 43.4437C61.9734 44.0965 62.0093 44.7448 62.0228 45.3887C62.0363 45.6995 62.0408 46.0104 62.0408 46.3168C62.0453 46.4011 62.0452 46.4855 62.0452 46.5699Z" fill="url(#paint6_radial_1097_3243)"/>
<path d="M32.0806 4.89429C36.164 4.89429 39.9602 6.26229 43.4731 8.60229C43.846 8.85093 44.2148 9.1088 44.5786 9.37964C44.9245 9.63275 45.2661 9.89534 45.603 10.1707C47.1528 11.4229 48.6268 12.8613 50.0015 14.4509C50.2305 14.7084 50.4503 14.9707 50.6704 15.2371C52.4764 17.4307 54.1162 19.8774 55.5493 22.4929C55.8278 22.9903 56.0925 23.4969 56.353 24.0076C57.3413 25.9613 58.222 27.9949 58.9722 30.073C59.0754 30.3526 59.1747 30.6322 59.269 30.9119C59.4487 31.4314 59.619 31.9562 59.7808 32.4802C59.8122 32.5778 59.8398 32.6712 59.8667 32.7644C60.2934 34.1719 60.6706 35.5974 60.9761 37.0183C60.9805 37.0315 60.9805 37.0447 60.9849 37.0623C61.4431 39.1982 61.7626 41.3392 61.9243 43.4441C61.9515 43.8032 61.9732 44.161 61.9907 44.5173L52.4692 48.822L48.4819 46.6072L42.5757 48.822L37.7026 47.7878L31.0571 48.822L25.4458 44.3914L16.8081 48.157L11.6392 44.9822L2.12451 46.0935C2.13197 45.4544 2.15363 44.8095 2.19678 44.1589C2.31358 42.1297 2.58389 40.0602 2.99268 37.991C3.01926 37.8535 3.04585 37.7155 3.07373 37.5779C3.30965 36.4137 3.59219 35.2472 3.91357 34.0876C4.09773 33.4261 4.29486 32.7643 4.50146 32.1072C5.21121 29.8737 6.07377 27.6754 7.06201 25.5574C7.31356 25.0157 7.57414 24.4822 7.84814 23.9539C9.29471 21.0985 10.9799 18.4207 12.8667 16.0183C13.1003 15.7253 13.3337 15.4362 13.5718 15.1521C15.171 13.2205 16.9057 11.4885 18.7476 10.0232C19.0663 9.76581 19.3895 9.52163 19.7173 9.28198C19.9958 9.07771 20.2794 8.8782 20.5669 8.68726C24.1069 6.29384 27.997 4.89433 32.0806 4.89429Z" fill="#27202D"/>
</g>
<mask id="mask1_1097_3243" style="mask-type:alpha" maskUnits="userSpaceOnUse" x="2" y="5" width="61" height="25">
<path d="M11.6391 26.0157L4.6989 28.1568L2.05298 5.95801H62.0495V22.3241L52.4685 29.855L48.4815 27.64L42.5749 29.855L37.702 28.8213L31.0571 29.855L25.4458 25.425L16.8074 29.1905L11.6391 26.0157Z" fill="black"/>
</mask>
<g mask="url(#mask1_1097_3243)">
<path d="M62.045 48.6031C62.045 49.0072 62.0405 49.4113 62.0225 49.8109C62.0136 50.1839 62.0001 50.5525 61.9731 50.9211C61.9282 51.7026 61.8608 52.4753 61.762 53.2391C61.6946 53.843 61.6048 54.4425 61.5014 55.0331C61.2903 56.2676 61.0207 57.4754 60.6928 58.6611C60.567 59.1318 60.4277 59.598 60.275 60.0554C59.9066 61.2189 59.4798 62.3556 59.0036 63.4569C58.7431 64.052 58.469 64.6381 58.177 65.211C57.3145 66.9339 56.3216 68.5636 55.212 70.0823C54.929 70.4731 54.6325 70.855 54.336 71.2324C52.265 73.8124 49.8525 76.0327 47.1705 77.7956C46.6943 78.1109 46.2136 78.4084 45.724 78.6882C45.1669 79.0079 44.6054 79.3099 44.0303 79.5941C40.369 81.3925 36.3303 82.3872 32.0804 82.3872C27.3544 82.3872 22.8844 81.1527 18.9086 78.9546C18.2976 78.6172 17.7046 78.2619 17.1206 77.88C16.5591 77.5159 16.011 77.1295 15.4719 76.7255C13.2167 75.0336 11.1771 72.9998 9.41159 70.6996C9.13306 70.3354 8.85902 69.9669 8.59397 69.5894C7.4439 67.9553 6.42861 66.1968 5.56157 64.3406C5.27855 63.7411 5.01349 63.1283 4.76641 62.5066C4.27224 61.2721 3.83647 59.9932 3.47708 58.6833C3.3468 58.2214 3.22999 57.7596 3.12218 57.2889C2.91552 56.423 2.74032 55.5482 2.60105 54.6556C2.56961 54.4647 2.53816 54.2737 2.5157 54.0828C2.34948 53.0082 2.24166 51.9158 2.17876 50.8056C2.15181 50.2905 2.13384 49.771 2.12485 49.247V49.2159C2.12036 49.1493 2.12036 49.0782 2.12036 49.0072C2.12036 48.874 2.12036 48.7363 2.12036 48.6031C2.12036 47.8082 2.14282 47.0045 2.19673 46.1918C2.31354 44.1625 2.58308 42.0932 2.99189 40.0238C3.24347 38.7227 3.55345 37.4172 3.91284 36.1205C4.09703 35.4589 4.2947 34.7972 4.50135 34.14C5.21116 31.9064 6.07371 29.7083 7.06204 27.5901C7.31362 27.0484 7.57418 26.5155 7.84822 25.9871C9.29479 23.1318 10.9795 20.4541 12.8663 18.0517C13.0999 17.7586 13.3335 17.47 13.5716 17.1858C15.1709 15.2541 16.905 13.5223 18.7469 12.0569C19.0658 11.7993 19.3893 11.5551 19.7172 11.3153C19.9958 11.111 20.2788 10.9112 20.5663 10.7203C24.1064 8.32677 27.9968 6.92798 32.0804 6.92798C36.1641 6.92798 39.9602 8.29569 43.4733 10.6359C43.8461 10.8846 44.2145 11.1421 44.5784 11.413C44.9243 11.6661 45.2657 11.9281 45.6027 12.2034C47.1526 13.4557 48.6261 14.8944 50.0008 16.4842C50.2299 16.7417 50.45 17.0037 50.6701 17.2702C52.4761 19.4638 54.1159 21.9106 55.5489 24.5261C55.8275 25.0235 56.0925 25.5297 56.3531 26.0404C57.3414 27.9942 58.2219 30.028 58.9722 32.1062C59.0755 32.386 59.1743 32.6657 59.2687 32.9455C59.4484 33.4651 59.6191 33.989 59.7808 34.513C59.8123 34.6107 59.8392 34.704 59.8662 34.7972C59.8662 34.7972 59.8677 34.8002 59.8707 34.8061C60.2974 36.2138 60.6703 37.6303 60.9758 39.0513C60.9803 39.0647 60.9803 39.078 60.9848 39.0957C61.443 41.2317 61.762 43.372 61.9237 45.4769C61.9731 46.1297 62.0091 46.778 62.0225 47.4219C62.036 47.7327 62.0405 48.0436 62.0405 48.35C62.045 48.4343 62.045 48.5187 62.045 48.6031Z" fill="#BE6CA7"/>
<path d="M47.1347 27.9007C46.1239 28.1982 45.0412 28.4868 43.8911 28.7488C41.7887 21.6838 39.7896 15.5069 39.7896 15.5069C40.1355 12.8337 43.7609 19.1971 47.1347 27.9007Z" fill="#DD90CB"/>
<path d="M48.397 46.0452C47.7142 42.0664 45.76 35.0547 43.8911 28.749C45.0412 28.487 46.1239 28.1984 47.1347 27.9009C47.3099 28.3538 47.4806 28.8112 47.6558 29.2775C51.1689 38.6782 49.8481 54.4779 48.397 46.0452Z" fill="#6B75B2"/>
<path d="M62.045 48.6029C62.045 49.0069 62.0405 49.411 62.0226 49.8107C62.0136 50.1837 62.0001 50.5523 61.9731 50.9209C61.9282 51.7024 61.8608 52.4751 61.762 53.2389C58.1546 54.7797 48.2981 58.3456 34.731 58.2701C21.7119 58.1946 10.7324 56.5871 2.5157 54.0826C2.34948 53.0079 2.24166 51.9155 2.17876 50.8054C2.15181 50.2903 2.13384 49.7707 2.12485 49.2467V49.2157C2.12036 49.1491 2.12036 49.078 2.12036 49.007C2.12036 48.8737 2.12036 48.7361 2.12036 48.6029C2.12036 47.808 2.14282 47.0042 2.19673 46.1916C2.31354 44.1622 2.58308 42.0929 2.99189 40.0236C3.24347 38.7225 3.55345 37.417 3.91284 36.1203C4.09703 35.4587 4.2947 34.797 4.50135 34.1398C5.21116 31.9062 6.07371 29.7081 7.06204 27.5899C7.31362 27.0481 7.57418 26.5153 7.84822 25.9868C10.081 26.9771 19.5915 30.7783 33.0283 30.1965C37.1434 30.0145 40.7778 29.4638 43.8956 28.7489C45.7644 35.0546 47.7186 42.0663 48.4015 46.0451C49.8525 54.4778 51.1733 38.6781 47.6602 29.2773C47.485 28.8111 47.3143 28.3537 47.1391 27.9007C51.0835 26.7373 53.9272 25.4007 55.5534 24.5259C55.832 25.0232 56.097 25.5295 56.3576 26.0401C57.3459 27.994 58.2264 30.0278 58.9767 32.106C59.08 32.3858 59.1788 32.6655 59.2732 32.9453C59.4529 33.4648 59.6236 33.9888 59.7853 34.5128C59.8168 34.6105 59.8437 34.7038 59.8707 34.797C59.8707 34.797 59.8722 34.8 59.8752 34.8059C60.3019 36.2136 60.6748 37.6301 60.9803 39.0511C60.9848 39.0644 60.9848 39.0778 60.9893 39.0955C61.4475 41.2314 61.7665 43.3718 61.9282 45.4767C61.9776 46.1294 62.0136 46.7778 62.027 47.4217C62.0405 47.7325 62.045 48.0433 62.045 48.3497C62.0495 48.4341 62.0495 48.5185 62.0495 48.6029H62.045Z" fill="#5961A8"/>
<path d="M43.4735 10.6359C39.902 11.1421 34.6997 11.7194 30.1983 11.6217C26.3123 11.5373 22.9475 11.1199 20.562 10.7203C24.1065 8.32677 27.997 6.92798 32.0806 6.92798C36.1643 6.92798 39.9604 8.29569 43.4735 10.6359Z" fill="#5961A8"/>
<path d="M45.6027 12.2033C42.9387 12.8516 37.8353 13.8241 31.2045 13.7886C24.1558 13.7486 20.3552 12.6785 18.7424 12.0568C19.0614 11.7992 19.3849 11.555 19.7128 11.3152C21.4783 11.9635 25.9842 13.2202 33.3968 12.6785C38.9674 12.2699 42.5344 11.7681 44.5785 11.4129C44.9244 11.666 45.2658 11.928 45.6027 12.2033Z" fill="#5961A8"/>
<path d="M16.7298 16.3595C16.7298 16.3595 18.3022 13.9527 19.5376 13.1401C20.8269 12.2875 16.2266 18.3933 16.7298 16.3595Z" fill="#5961A8"/>
<path d="M20.081 17.7051C20.081 17.7051 21.2091 15.0673 22.2832 14.0549C23.4068 12.9936 19.9417 19.7966 20.081 17.7051Z" fill="#5961A8"/>
<path d="M24.5601 18.6866C24.5601 18.6866 25.0769 15.8668 25.9038 14.6501C26.7667 13.3757 24.8836 20.7604 24.5601 18.6866Z" fill="#5961A8"/>
<path d="M29.7982 19.3172C29.7982 19.3172 29.7263 16.453 30.2836 15.0942C30.8678 13.6732 30.5397 21.2799 29.7982 19.3172Z" fill="#5961A8"/>
<path d="M47.3502 16.3595C47.3502 16.3595 45.7778 13.9527 44.5424 13.1401C43.2531 12.2875 47.8533 18.3933 47.3502 16.3595Z" fill="#5961A8"/>
<path d="M44 17.7051C44 17.7051 42.8719 15.0673 41.7978 14.0549C40.6742 12.9936 44.1393 19.7966 44 17.7051Z" fill="#5961A8"/>
<path d="M39.5207 18.6866C39.5207 18.6866 39.0038 15.8668 38.1769 14.6501C37.314 13.3757 39.1971 20.7604 39.5207 18.6866Z" fill="#5961A8"/>
<path d="M34.2821 19.3172C34.2821 19.3172 34.354 16.453 33.7967 15.0942C33.2124 13.6732 33.5405 21.2799 34.2821 19.3172Z" fill="#5961A8"/>
<path d="M50.6702 17.2701C48.3341 18.6112 41.0204 22.177 30.1892 21.724C20.1036 21.3022 14.825 19.0952 12.8618 18.0517C13.0954 17.7586 13.329 17.4699 13.5671 17.1857C15.108 18.0117 19.56 19.859 29.4569 20.4407C40.3241 21.0802 47.6648 17.7364 50.0008 16.4841C50.2299 16.7417 50.4501 17.0037 50.6702 17.2701Z" fill="#5961A8"/>
<path d="M14.066 20.6315C13.9672 20.8713 13.6211 20.9601 13.2975 20.8269C12.9739 20.6937 12.7897 20.3917 12.8885 20.1519C12.9874 19.9121 13.3335 19.8233 13.6571 19.9566C13.9806 20.0898 14.1649 20.3917 14.066 20.6315Z" fill="#E2D8CF"/>
<path d="M19.466 22.0527C19.4121 22.3058 19.0885 22.4523 18.7425 22.3813C18.4009 22.3058 18.1672 22.0393 18.2211 21.7862C18.275 21.5331 18.5986 21.3866 18.9447 21.4576C19.2863 21.5331 19.52 21.7995 19.466 22.0527Z" fill="#E2D8CF"/>
<path d="M25.8138 23.0119C25.7599 23.265 25.4363 23.4115 25.0902 23.3405C24.7442 23.2694 24.515 22.9986 24.5689 22.7454C24.6228 22.4923 24.9464 22.3458 25.2925 22.4168C25.634 22.4923 25.8677 22.7588 25.8138 23.0119Z" fill="#E2D8CF"/>
<path d="M16.519 21.2352C16.4785 21.3906 16.2808 21.475 16.0696 21.4217C15.8583 21.3729 15.7235 21.2041 15.7595 21.0487C15.7999 20.8933 15.9977 20.8089 16.2089 20.8622C16.4201 20.911 16.5549 21.0798 16.519 21.2352Z" fill="#E2D8CF"/>
<path d="M22.0539 22.3902C22.0134 22.5456 21.8157 22.63 21.6045 22.5767C21.3932 22.5279 21.2584 22.3591 21.2944 22.2037C21.3348 22.0483 21.5326 21.9639 21.7438 22.0172C21.955 22.0661 22.0899 22.2348 22.0539 22.3902Z" fill="#E2D8CF"/>
<path d="M49.4302 19.4147C49.5606 19.6412 49.9111 19.69 50.2167 19.5213C50.5223 19.3525 50.6706 19.0284 50.5403 18.8019C50.41 18.5754 50.0594 18.5266 49.7538 18.6953C49.4482 18.8641 49.2999 19.1882 49.4302 19.4147Z" fill="#E2D8CF"/>
<path d="M44.2415 21.4574C44.3269 21.7016 44.6685 21.8126 45.0011 21.6972C45.3336 21.5817 45.5314 21.2931 45.446 21.0444C45.3606 20.7957 45.019 20.6891 44.6865 20.8046C44.3539 20.9201 44.1561 21.2087 44.2415 21.4574Z" fill="#E2D8CF"/>
<path d="M38.0555 23.1539C38.1409 23.3982 38.4825 23.5092 38.815 23.3937C39.1476 23.2783 39.3454 22.9896 39.26 22.7409C39.1746 22.4967 38.833 22.3857 38.5004 22.5011C38.1679 22.6166 37.9701 22.9052 38.0555 23.1539Z" fill="#E2D8CF"/>
<path d="M47.0719 20.3034C47.1304 20.4543 47.3371 20.5121 47.5393 20.4366C47.7416 20.3611 47.8584 20.179 47.8 20.0325C47.7416 19.8815 47.5348 19.8238 47.3326 19.8993C47.1304 19.9748 47.0135 20.1568 47.0719 20.3034Z" fill="#E2D8CF"/>
<path d="M41.7121 22.0971C41.7705 22.248 41.9772 22.3058 42.1795 22.2303C42.3817 22.1548 42.4986 21.9727 42.4401 21.8262C42.3817 21.6752 42.175 21.6175 41.9727 21.693C41.7705 21.7685 41.6536 21.9505 41.7121 22.0971Z" fill="#E2D8CF"/>
<path d="M32.4762 23.4959C32.4538 23.7534 32.1482 23.9399 31.8021 23.9089C31.4515 23.8778 31.1864 23.6424 31.2088 23.3849C31.2313 23.1273 31.5369 22.9408 31.883 22.9719C32.2335 23.003 32.4987 23.2383 32.4762 23.4959Z" fill="#E2D8CF"/>
<path d="M28.671 23.3406C28.653 23.5005 28.4643 23.607 28.2485 23.5848C28.0328 23.5626 27.8755 23.4117 27.8935 23.2518C27.9115 23.0919 28.1002 22.9854 28.3159 23.0076C28.5317 23.0342 28.689 23.1807 28.671 23.3406Z" fill="#E2D8CF"/>
<path d="M35.5042 23.4024C35.4863 23.5622 35.2975 23.6688 35.0818 23.6466C34.8661 23.62 34.7088 23.4734 34.7267 23.3136C34.7447 23.1537 34.9335 23.0471 35.1492 23.0693C35.3649 23.096 35.5222 23.2425 35.5042 23.4024Z" fill="#E2D8CF"/>
<path d="M22.5388 47.0753C22.2064 47.0797 21.8964 47.2085 21.6448 47.4172C21.3258 45.9118 20.634 44.3798 19.3087 43.243C16.9053 41.1826 14.1829 41.1293 14.1829 41.1293C14.1829 41.1293 14.6052 38.8246 13.8549 38.1319C13.8549 38.1319 16.8649 33.1984 16.0652 31.3244C15.2655 29.4505 12.4668 37.4347 12.4668 37.4347C12.4668 37.4347 13.0193 32.9186 12.4263 31.8662C11.8333 30.8138 10.8809 35.8805 11.5189 37.7544C11.5189 37.7544 9.91505 38.1008 9.61855 39.0422C9.32205 39.9792 8.68412 40.2945 8.89078 40.8851C9.09743 41.4757 9.55116 42.2572 11.2583 42.124L11.9456 41.9863C11.9456 41.9863 11.0696 46.9598 12.0579 49.0291C13.0463 51.0985 12.2332 52.1242 12.3005 52.5461C12.3724 53.0035 13.2125 52.9591 13.4326 52.6038C13.783 52.031 14.9376 49.4332 15.3824 49.3533C15.8271 49.2734 16.4426 50.9919 16.4471 51.2583C16.4471 51.5292 15.6833 51.8445 15.1622 51.9599C14.6411 52.0754 14.1739 52.6926 14.1739 52.8747C14.1739 53.0523 20.652 52.8569 21.1057 52.5816C21.263 52.4839 21.7392 51.9022 21.838 50.7654C22.0671 50.9075 22.3277 50.9874 22.6017 50.983C23.5002 50.9697 24.2145 50.0816 24.1965 48.9981C24.1785 47.9145 23.4373 47.0531 22.5388 47.0664V47.0753Z" fill="#78BB9B"/>
<path d="M55.5043 47.0753C55.1763 47.0797 54.8708 47.2041 54.6193 47.4172C54.3003 45.9118 53.6219 44.3798 52.3102 43.243C49.9337 41.1826 47.2382 41.1293 47.2382 41.1293C47.2382 41.1293 47.656 38.8246 46.9147 38.1319C46.9147 38.1319 49.8932 33.1984 49.0981 31.3244C48.3029 29.4505 45.54 37.4347 45.54 37.4347C45.54 37.4347 46.0881 32.9186 45.4996 31.8662C44.9111 30.8138 43.9722 35.8805 44.6011 37.7544C44.6011 37.7544 43.0153 38.1008 42.7188 39.0422C42.4268 39.9792 41.7978 40.2945 42 40.8851C42.2022 41.4757 42.6559 42.2572 44.3451 42.124L45.0234 41.9863C45.0234 41.9863 44.1609 46.9598 45.1357 49.0291C46.1106 51.0985 45.3109 52.1242 45.3783 52.5461C45.4502 53.0035 46.2813 52.9591 46.4969 52.6038C46.8429 52.031 47.9884 49.4332 48.4242 49.3533C48.86 49.2734 49.4754 50.9919 49.4799 51.2583C49.4799 51.5292 48.7252 51.8445 48.2086 51.9599C47.6919 52.0754 47.2292 52.6926 47.2337 52.8747C47.2337 53.0523 53.6399 52.8614 54.0892 52.5816C54.2464 52.4839 54.7136 51.9022 54.8124 50.7654C55.0416 50.9075 55.2976 50.9874 55.5717 50.983C56.4612 50.9697 57.1665 50.0816 57.1485 48.9981C57.1305 47.9145 56.3983 47.0531 55.5088 47.0664L55.5043 47.0753Z" fill="#78BB9B"/>
<path d="M62.045 48.6031C62.045 49.0072 62.0405 49.4113 62.0225 49.8109C62.0136 50.1839 62.0001 50.5525 61.9731 50.9211C61.9282 51.7026 61.8608 52.4753 61.762 53.2391C61.6946 53.843 61.6048 54.4425 61.5014 55.0331C61.2903 56.2676 61.0207 57.4754 60.6928 58.6611C60.567 59.1318 60.4277 59.598 60.275 60.0554C59.9066 61.2189 59.4798 62.3556 59.0036 63.4569C58.7431 64.052 58.469 64.6381 58.177 65.211C57.3145 66.9339 56.3216 68.5636 55.212 70.0823C54.929 70.4731 54.6325 70.855 54.336 71.2324C52.265 73.8124 49.8525 76.0327 47.1705 77.7956C46.6943 78.1109 46.2136 78.4084 45.724 78.6882C45.1669 79.0079 44.6054 79.3099 44.0303 79.5941C40.369 81.3925 36.3303 82.3872 32.0804 82.3872C27.3544 82.3872 22.8844 81.1527 18.9086 78.9546C18.2976 78.6172 17.7046 78.2619 17.1206 77.88C16.5591 77.5159 16.011 77.1295 15.4719 76.7255C13.2167 75.0336 11.1771 72.9998 9.41159 70.6996C9.13306 70.3354 8.85902 69.9669 8.59397 69.5894C7.4439 67.9553 6.42861 66.1968 5.56157 64.3406C5.27855 63.7411 5.01349 63.1283 4.76641 62.5066C4.27224 61.2721 3.83647 59.9932 3.47708 58.6833C3.3468 58.2214 3.22999 57.7596 3.12218 57.2889C2.91552 56.423 2.74032 55.5482 2.60105 54.6556C2.56961 54.4647 2.53816 54.2737 2.5157 54.0828C2.34948 53.0082 2.24166 51.9158 2.17876 50.8056C2.15181 50.2905 2.13384 49.771 2.12485 49.247V49.2159C2.12036 49.1493 2.12036 49.0782 2.12036 49.0072C2.12036 48.874 2.12036 48.7363 2.12036 48.6031C2.12036 47.8082 2.14282 47.0045 2.19673 46.1918C2.31354 44.1625 2.58308 42.0932 2.99189 40.0238C3.24347 38.7227 3.55345 37.4172 3.91284 36.1205C4.09703 35.4589 4.2947 34.7972 4.50135 34.14C5.21116 31.9064 6.07371 29.7083 7.06204 27.5901C7.31362 27.0484 7.57418 26.5155 7.84822 25.9871C9.29479 23.1318 10.9795 20.4541 12.8663 18.0517C13.0999 17.7586 13.3335 17.47 13.5716 17.1858C15.1709 15.2541 16.905 13.5223 18.7469 12.0569C19.0658 11.7993 19.3893 11.5551 19.7172 11.3153C19.9958 11.111 20.2788 10.9112 20.5663 10.7203C24.1064 8.32677 27.9968 6.92798 32.0804 6.92798C36.1641 6.92798 39.9602 8.29569 43.4733 10.6359C43.8461 10.8846 44.2145 11.1421 44.5784 11.413C44.9243 11.6661 45.2657 11.9281 45.6027 12.2034C47.1526 13.4557 48.6261 14.8944 50.0008 16.4842C50.2299 16.7417 50.45 17.0037 50.6701 17.2702C52.4761 19.4638 54.1159 21.9106 55.5489 24.5261C55.8275 25.0235 56.0925 25.5297 56.3531 26.0404C57.3414 27.9942 58.2219 30.028 58.9722 32.1062C59.0755 32.386 59.1743 32.6657 59.2687 32.9455C59.4484 33.4651 59.6191 33.989 59.7808 34.513C59.8123 34.6107 59.8392 34.704 59.8662 34.7972C59.8662 34.7972 59.8677 34.8002 59.8707 34.8061C60.2974 36.2138 60.6703 37.6303 60.9758 39.0513C60.9803 39.0647 60.9803 39.078 60.9848 39.0957C61.443 41.2317 61.762 43.372 61.9237 45.4769C61.9731 46.1297 62.0091 46.778 62.0225 47.4219C62.036 47.7327 62.0405 48.0436 62.0405 48.35C62.045 48.4343 62.045 48.5187 62.045 48.6031Z" fill="url(#paint7_radial_1097_3243)"/>
<path d="M62.045 48.6031C62.045 49.0072 62.0405 49.4113 62.0225 49.8109C62.0136 50.1839 62.0001 50.5525 61.9731 50.9211C61.9282 51.7026 61.8608 52.4753 61.762 53.2391C61.6946 53.843 61.6048 54.4425 61.5014 55.0331C61.2903 56.2676 61.0207 57.4754 60.6928 58.6611C60.567 59.1318 60.4277 59.598 60.275 60.0554C59.9066 61.2189 59.4798 62.3556 59.0036 63.4569C58.7431 64.052 58.469 64.6381 58.177 65.211C57.3145 66.9339 56.3216 68.5636 55.212 70.0823C54.929 70.4731 54.6325 70.855 54.336 71.2324C52.265 73.8124 49.8525 76.0327 47.1705 77.7956C46.6943 78.1109 46.2136 78.4084 45.724 78.6882C45.1669 79.0079 44.6054 79.3099 44.0303 79.5941C40.369 81.3925 36.3303 82.3872 32.0804 82.3872C27.3544 82.3872 22.8844 81.1527 18.9086 78.9546C18.2976 78.6172 17.7046 78.2619 17.1206 77.88C16.5591 77.5159 16.011 77.1295 15.4719 76.7255C13.2167 75.0336 11.1771 72.9998 9.41159 70.6996C9.13306 70.3354 8.85902 69.9669 8.59397 69.5894C7.4439 67.9553 6.42861 66.1968 5.56157 64.3406C5.27855 63.7411 5.01349 63.1283 4.76641 62.5066C4.27224 61.2721 3.83647 59.9932 3.47708 58.6833C3.3468 58.2214 3.22999 57.7596 3.12218 57.2889C2.91552 56.423 2.74032 55.5482 2.60105 54.6556C2.56961 54.4647 2.53816 54.2737 2.5157 54.0828C2.34948 53.0082 2.24166 51.9158 2.17876 50.8056C2.15181 50.2905 2.13384 49.771 2.12485 49.247V49.2159C2.12036 49.1493 2.12036 49.0782 2.12036 49.0072C2.12036 48.874 2.12036 48.7363 2.12036 48.6031C2.12036 47.8082 2.14282 47.0045 2.19673 46.1918C2.31354 44.1625 2.58308 42.0932 2.99189 40.0238C3.24347 38.7227 3.55345 37.4172 3.91284 36.1205C4.09703 35.4589 4.2947 34.7972 4.50135 34.14C5.21116 31.9064 6.07371 29.7083 7.06204 27.5901C7.31362 27.0484 7.57418 26.5155 7.84822 25.9871C9.29479 23.1318 10.9795 20.4541 12.8663 18.0517C13.0999 17.7586 13.3335 17.47 13.5716 17.1858C15.1709 15.2541 16.905 13.5223 18.7469 12.0569C19.0658 11.7993 19.3893 11.5551 19.7172 11.3153C19.9958 11.111 20.2788 10.9112 20.5663 10.7203C24.1064 8.32677 27.9968 6.92798 32.0804 6.92798C36.1641 6.92798 39.9602 8.29569 43.4733 10.6359C43.8461 10.8846 44.2145 11.1421 44.5784 11.413C44.9243 11.6661 45.2657 11.9281 45.6027 12.2034C47.1526 13.4557 48.6261 14.8944 50.0008 16.4842C50.2299 16.7417 50.45 17.0037 50.6701 17.2702C52.4761 19.4638 54.1159 21.9106 55.5489 24.5261C55.8275 25.0235 56.0925 25.5297 56.3531 26.0404C57.3414 27.9942 58.2219 30.028 58.9722 32.1062C59.0755 32.386 59.1743 32.6657 59.2687 32.9455C59.4484 33.4651 59.6191 33.989 59.7808 34.513C59.8123 34.6107 59.8392 34.704 59.8662 34.7972C59.8662 34.7972 59.8677 34.8002 59.8707 34.8061C60.2974 36.2138 60.6703 37.6303 60.9758 39.0513C60.9803 39.0647 60.9803 39.078 60.9848 39.0957C61.443 41.2317 61.762 43.372 61.9237 45.4769C61.9731 46.1297 62.0091 46.778 62.0225 47.4219C62.036 47.7327 62.0405 48.0436 62.0405 48.35C62.045 48.4343 62.045 48.5187 62.045 48.6031Z" fill="url(#paint8_radial_1097_3243)"/>
<path d="M62.045 48.6031C62.045 49.0072 62.0405 49.4113 62.0225 49.8109C62.0136 50.1839 62.0001 50.5525 61.9731 50.9211C61.9282 51.7026 61.8608 52.4753 61.762 53.2391C61.6946 53.843 61.6047 54.4425 61.5014 55.0331C61.2903 56.2676 61.0207 57.4754 60.6928 58.6611C60.567 59.1318 60.4277 59.598 60.275 60.0554C59.9066 61.2189 59.4798 62.3556 59.0036 63.4569C58.847 63.8146 58.6855 64.1692 58.5181 64.5195C58.4071 64.7519 58.2935 64.9825 58.177 65.211C57.3145 66.9339 56.3216 68.5636 55.212 70.0823C54.929 70.4731 54.6325 70.855 54.336 71.2324C52.265 73.8124 49.8525 76.0327 47.1705 77.7956C46.6943 78.1109 46.2136 78.4085 45.724 78.6882C45.1669 79.0079 44.6054 79.3099 44.0303 79.5941C40.369 81.3925 36.3303 82.3872 32.0804 82.3872C32.0167 82.3872 31.9531 82.387 31.8895 82.3866C27.234 82.3538 22.8308 81.1231 18.9086 78.9546C18.2976 78.6171 17.7046 78.2619 17.1206 77.88C16.5591 77.5159 16.011 77.1295 15.4719 76.7254C13.2167 75.0336 11.1771 72.9998 9.41159 70.6996C9.13306 70.3354 8.85902 69.9668 8.59397 69.5894C7.4439 67.9553 6.42861 66.1968 5.56157 64.3406C5.47197 64.1508 5.38416 63.9597 5.29816 63.7674C5.11252 63.3522 4.93527 62.9315 4.76641 62.5066C4.27224 61.2721 3.83647 59.9932 3.47708 58.6833C3.3468 58.2214 3.22999 57.7596 3.12218 57.2889C2.91552 56.423 2.74032 55.5482 2.60105 54.6556C2.56961 54.4647 2.53816 54.2737 2.5157 54.0828C2.34948 53.0082 2.24166 51.9158 2.17876 50.8056C2.15181 50.2905 2.13384 49.771 2.12485 49.247V49.2159C2.12036 49.1493 2.12036 49.0782 2.12036 49.0072C2.12036 48.874 2.12036 48.7363 2.12036 48.6031C2.12036 47.8082 2.14282 47.0045 2.19673 46.1918C2.31354 44.1625 2.58308 42.0932 2.99189 40.0238C3.01848 39.8863 3.04572 39.7488 3.07359 39.6112C3.30953 38.4469 3.59143 37.2802 3.91284 36.1205C4.09703 35.4589 4.2947 34.7972 4.50135 34.14C5.21116 31.9064 6.07371 29.7083 7.06204 27.5901C7.31362 27.0484 7.57418 26.5155 7.84822 25.9871C9.29479 23.1318 10.9795 20.4541 12.8663 18.0517C13.0999 17.7586 13.3335 17.47 13.5716 17.1858C15.1709 15.2541 16.905 13.5223 18.7469 12.0569C19.0658 11.7993 19.3893 11.5551 19.7172 11.3153C19.9958 11.111 20.2788 10.9112 20.5663 10.7203C24.1064 8.32677 27.9968 6.92798 32.0804 6.92798C36.1641 6.92798 39.9602 8.29569 43.4733 10.6359C43.8461 10.8846 44.2145 11.1421 44.5784 11.413C44.9243 11.6661 45.2657 11.9281 45.6027 12.2034C47.1526 13.4557 48.6261 14.8944 50.0008 16.4842C50.2299 16.7417 50.45 17.0037 50.6702 17.2702C52.4761 19.4638 54.1159 21.9106 55.5489 24.5261C55.8275 25.0235 56.0925 25.5297 56.3531 26.0404C57.3414 27.9942 58.2219 30.028 58.9722 32.1062C59.0755 32.386 59.1743 32.6657 59.2687 32.9455C59.4484 33.4651 59.6191 33.989 59.7808 34.513C59.8123 34.6107 59.8392 34.704 59.8662 34.7972C60.293 36.2049 60.6703 37.6303 60.9758 39.0513C60.9803 39.0647 60.9803 39.078 60.9848 39.0957C61.443 41.2317 61.762 43.372 61.9237 45.4769C61.9731 46.1297 62.0091 46.778 62.0225 47.4219C62.036 47.7327 62.0405 48.0436 62.0405 48.35C62.045 48.4343 62.045 48.5187 62.045 48.6031Z" fill="url(#paint9_radial_1097_3243)"/>
<path d="M62.045 48.6031C62.045 49.0072 62.0405 49.4113 62.0225 49.8109C62.0136 50.1839 62.0001 50.5525 61.9731 50.9211C61.9282 51.7026 61.8608 52.4753 61.762 53.2391C61.6946 53.843 61.6047 54.4425 61.5014 55.0331C61.2903 56.2676 61.0207 57.4754 60.6928 58.6611C60.567 59.1318 60.4277 59.598 60.275 60.0554C59.9066 61.2189 59.4798 62.3556 59.0036 63.4569C58.847 63.8146 58.6855 64.1692 58.5181 64.5195C58.4071 64.7519 58.2935 64.9825 58.177 65.211C57.3145 66.9339 56.3216 68.5636 55.212 70.0823C54.929 70.4731 54.6325 70.855 54.336 71.2324C52.265 73.8124 49.8525 76.0327 47.1705 77.7956C46.6943 78.1109 46.2136 78.4085 45.724 78.6882C45.1669 79.0079 44.6054 79.3099 44.0303 79.5941C40.369 81.3925 36.3303 82.3872 32.0804 82.3872C32.0167 82.3872 31.9531 82.387 31.8895 82.3866C27.234 82.3538 22.8308 81.1231 18.9086 78.9546C18.2976 78.6171 17.7046 78.2619 17.1206 77.88C16.5591 77.5159 16.011 77.1295 15.4719 76.7254C13.2167 75.0336 11.1771 72.9998 9.41159 70.6996C9.13306 70.3354 8.85902 69.9668 8.59397 69.5894C7.4439 67.9553 6.42861 66.1968 5.56157 64.3406C5.47197 64.1508 5.38416 63.9597 5.29816 63.7674C5.11252 63.3522 4.93527 62.9315 4.76641 62.5066C4.27224 61.2721 3.83647 59.9932 3.47708 58.6833C3.3468 58.2214 3.22999 57.7596 3.12218 57.2889C2.91552 56.423 2.74032 55.5482 2.60105 54.6556C2.56961 54.4647 2.53816 54.2737 2.5157 54.0828C2.34948 53.0082 2.24166 51.9158 2.17876 50.8056C2.15181 50.2905 2.13384 49.771 2.12485 49.247V49.2159C2.12036 49.1493 2.12036 49.0782 2.12036 49.0072C2.12036 48.874 2.12036 48.7363 2.12036 48.6031C2.12036 47.8082 2.14282 47.0045 2.19673 46.1918C2.31354 44.1625 2.58308 42.0932 2.99189 40.0238C3.01848 39.8863 3.04572 39.7488 3.07359 39.6112C3.30953 38.4469 3.59143 37.2802 3.91284 36.1205C4.09703 35.4589 4.2947 34.7972 4.50135 34.14C5.21116 31.9064 6.07371 29.7083 7.06204 27.5901C7.31362 27.0484 7.57418 26.5155 7.84822 25.9871C9.29479 23.1318 10.9795 20.4541 12.8663 18.0517C13.0999 17.7586 13.3335 17.47 13.5716 17.1858C15.1709 15.2541 16.905 13.5223 18.7469 12.0569C19.0658 11.7993 19.3893 11.5551 19.7172 11.3153C19.9958 11.111 20.2788 10.9112 20.5663 10.7203C24.1064 8.32677 27.9968 6.92798 32.0804 6.92798C36.1641 6.92798 39.9602 8.29569 43.4733 10.6359C43.8461 10.8846 44.2145 11.1421 44.5784 11.413C44.9243 11.6661 45.2657 11.9281 45.6027 12.2034C47.1526 13.4557 48.6261 14.8944 50.0008 16.4842C50.2299 16.7417 50.45 17.0037 50.6702 17.2702C52.4761 19.4638 54.1159 21.9106 55.5489 24.5261C55.8275 25.0235 56.0925 25.5297 56.3531 26.0404C57.3414 27.9942 58.2219 30.028 58.9722 32.1062C59.0755 32.386 59.1743 32.6657 59.2687 32.9455C59.4484 33.4651 59.6191 33.989 59.7808 34.513C59.8123 34.6107 59.8392 34.704 59.8662 34.7972C60.293 36.2049 60.6703 37.6303 60.9758 39.0513C60.9803 39.0647 60.9803 39.078 60.9848 39.0957C61.443 41.2317 61.762 43.372 61.9237 45.4769C61.9731 46.1297 62.0091 46.778 62.0225 47.4219C62.036 47.7327 62.0405 48.0436 62.0405 48.35C62.045 48.4343 62.045 48.5187 62.045 48.6031Z" fill="url(#paint10_radial_1097_3243)"/>
<path d="M31.0569 28.8552L37.7024 27.821L42.5745 28.8552L48.4817 26.6394L52.468 28.8552L56.2639 25.8699C56.2932 25.9269 56.3236 25.9836 56.3528 26.0408C57.3411 27.9945 58.2217 30.0281 58.9719 32.1062C59.0752 32.3858 59.1745 32.6654 59.2688 32.9451C59.4485 33.4646 59.6188 33.9894 59.7805 34.5134C59.8119 34.611 59.8395 34.7044 59.8665 34.7976C60.2932 36.2052 60.6704 37.6307 60.9758 39.0515C60.9802 39.0647 60.9802 39.0779 60.9846 39.0955C61.4428 41.2314 61.7623 43.3724 61.9241 45.4773C61.9735 46.1298 62.0092 46.778 62.0227 47.4216C62.0362 47.7325 62.0403 48.0439 62.0403 48.3503C62.0448 48.4346 62.0452 48.519 62.0452 48.6033C62.0452 49.0073 62.0407 49.4117 62.0227 49.8113C62.0137 50.184 61.9998 50.5523 61.9729 50.9207C61.928 51.7022 61.8608 52.4752 61.762 53.239C61.6946 53.8429 61.6045 54.4424 61.5012 55.033C61.2901 56.2674 61.0206 57.4753 60.6926 58.6609C60.5668 59.1316 60.4274 59.598 60.2747 60.0554C59.9063 61.2187 59.4803 62.3556 59.0042 63.4568C58.8475 63.8145 58.6852 64.169 58.5178 64.5193C58.4068 64.7516 58.2934 64.9823 58.177 65.2107C57.3145 66.9336 56.3218 68.5641 55.2122 70.0828C54.9292 70.4734 54.6326 70.8549 54.3362 71.2322C52.2652 73.8122 49.8522 76.0327 47.1702 77.7957C46.6941 78.1109 46.2134 78.4085 45.7239 78.6882C45.1669 79.0079 44.6055 79.3103 44.0305 79.5945C40.3692 81.3929 36.3301 82.3875 32.0803 82.3875C32.0168 82.3875 31.9533 82.3869 31.8899 82.3865C27.2344 82.3537 22.8307 81.1233 18.9084 78.9548C18.2975 78.6174 17.7043 78.2615 17.1204 77.8796C16.559 77.5156 16.0109 77.1293 15.4719 76.7253C13.2168 75.0335 11.1769 73.0001 9.41138 70.7C9.13287 70.3359 8.85903 69.967 8.59399 69.5896C7.44393 67.9555 6.42881 66.1967 5.56177 64.3406C5.47216 64.1508 5.3841 63.9597 5.2981 63.7673C5.11248 63.3522 4.93568 62.9314 4.76685 62.5066C4.27268 61.2721 3.8362 59.9933 3.47681 58.6833C3.34653 58.2215 3.23013 57.7595 3.12231 57.2888C2.9157 56.423 2.74008 55.5484 2.60083 54.656C2.56938 54.4651 2.53833 54.2737 2.51587 54.0828C2.34965 53.0081 2.24185 51.9156 2.17896 50.8054C2.15201 50.2904 2.13423 49.7707 2.12524 49.2468V49.2156C2.12078 49.1492 2.12036 49.0784 2.12036 49.0076V48.6033C2.12036 47.8085 2.14264 47.0047 2.19653 46.1921C2.31333 44.1629 2.58365 42.0934 2.99243 40.0242C3.01902 39.8867 3.04561 39.7487 3.07349 39.6111C3.30941 38.4469 3.59194 37.2804 3.91333 36.1208C4.09748 35.4593 4.29461 34.7975 4.50122 34.1404C5.21097 31.9069 6.07353 29.7086 7.06177 27.5906C7.27632 27.1285 7.49932 26.6733 7.72974 26.2214L11.6389 25.0154L16.8079 28.1902L25.4456 24.4246L31.0569 28.8552Z" fill="#27202D"/>
</g>
<path d="M10.3058 20.5033C8.36265 19.7018 6.03939 17.7705 3.67251 13.5989C2.9129 12.2615 2.307 10.6806 4.57968 7.50885C6.85544 4.3417 8.89218 3.11517 9.94848 4.1654C12.3205 6.52159 14.8321 13.2103 15.3087 17.9917C15.4697 19.6017 14.218 21.0466 12.6035 21.0049C11.9297 20.99 11.1528 20.8523 10.3027 20.4987L10.3058 20.5033Z" fill="#FEFEF4"/>
</g>
</g>
<defs>
<linearGradient id="paint0_linear_1097_3243" x1="30.7444" y1="79.9113" x2="30.7444" y2="75.5269" gradientUnits="userSpaceOnUse">
<stop stop-color="white"/>
<stop offset="1" stop-color="#876F8D"/>
</linearGradient>
<linearGradient id="paint1_linear_1097_3243" x1="20.1766" y1="26.317" x2="6.67669" y2="6.38076" gradientUnits="userSpaceOnUse">
<stop stop-color="#876F8D"/>
<stop offset="1" stop-color="white"/>
</linearGradient>
<linearGradient id="paint2_linear_1097_3243" x1="41.3068" y1="26.2677" x2="54.8067" y2="6.33145" gradientUnits="userSpaceOnUse">
<stop stop-color="#876F8D"/>
<stop offset="1" stop-color="white"/>
</linearGradient>
<radialGradient id="paint3_radial_1097_3243" cx="0" cy="0" r="1" gradientTransform="matrix(15.4271 52.461 -41.661 11.9719 28.0382 37.2254)" gradientUnits="userSpaceOnUse">
<stop stop-color="#11151C" stop-opacity="0"/>
<stop offset="1" stop-color="#11151C" stop-opacity="0.5"/>
</radialGradient>
<radialGradient id="paint4_radial_1097_3243" cx="0" cy="0" r="1" gradientTransform="matrix(12.3417 46.3609 -36.8167 9.57754 30.5065 40.2754)" gradientUnits="userSpaceOnUse">
<stop offset="0.609498" stop-color="#11151C" stop-opacity="0"/>
<stop offset="1" stop-color="#11151C"/>
</radialGradient>
<radialGradient id="paint5_radial_1097_3243" cx="0" cy="0" r="1" gradientTransform="matrix(15.4271 52.461 -41.661 11.9719 28.0382 37.2254)" gradientUnits="userSpaceOnUse">
<stop stop-color="#11151C" stop-opacity="0"/>
<stop offset="1" stop-color="#11151C" stop-opacity="0.5"/>
</radialGradient>
<radialGradient id="paint6_radial_1097_3243" cx="0" cy="0" r="1" gradientTransform="matrix(12.3417 46.3609 -36.8167 9.57754 30.5065 40.2754)" gradientUnits="userSpaceOnUse">
<stop offset="0.609498" stop-color="#11151C" stop-opacity="0"/>
<stop offset="1" stop-color="#11151C"/>
</radialGradient>
<radialGradient id="paint7_radial_1097_3243" cx="0" cy="0" r="1" gradientTransform="matrix(15.4271 52.461 -41.661 11.9719 28.0379 39.2586)" gradientUnits="userSpaceOnUse">
<stop stop-color="#11151C" stop-opacity="0"/>
<stop offset="1" stop-color="#11151C" stop-opacity="0.5"/>
</radialGradient>
<radialGradient id="paint8_radial_1097_3243" cx="0" cy="0" r="1" gradientTransform="matrix(12.3417 46.3609 -36.8167 9.57754 30.5063 42.3086)" gradientUnits="userSpaceOnUse">
<stop offset="0.609498" stop-color="#11151C" stop-opacity="0"/>
<stop offset="1" stop-color="#11151C"/>
</radialGradient>
<radialGradient id="paint9_radial_1097_3243" cx="0" cy="0" r="1" gradientTransform="matrix(15.4271 52.461 -41.661 11.9719 28.0379 39.2586)" gradientUnits="userSpaceOnUse">
<stop stop-color="#11151C" stop-opacity="0"/>
<stop offset="1" stop-color="#11151C" stop-opacity="0.5"/>
</radialGradient>
<radialGradient id="paint10_radial_1097_3243" cx="0" cy="0" r="1" gradientTransform="matrix(12.3417 46.3609 -36.8167 9.57754 30.5063 42.3086)" gradientUnits="userSpaceOnUse">
<stop offset="0.609498" stop-color="#11151C" stop-opacity="0"/>
<stop offset="1" stop-color="#11151C"/>
</radialGradient>
<clipPath id="clip0_1097_3243">
<rect width="64" height="80" fill="white"/>
</clipPath>
<clipPath id="clip1_1097_3243">
<rect width="62" height="81" fill="white" transform="translate(0 3.54492)"/>
</clipPath>
</defs>
</svg>
