<svg xmlns="http://www.w3.org/2000/svg" viewBox="0 0 64 80" fill="none">
  <ellipse cx="32" cy="68" rx="22" ry="10" fill="#C8E6C9" opacity=".45"/>
  <path fill="#E8D4C4" d="M18 52c0-12 8-22 14-22s14 10 14 22v6H18v-6Z"/>
  <ellipse cx="32" cy="42" rx="16" ry="14" fill="#F5EBE0"/>
  <path fill="#F5EBE0" d="M24 22c-2-8 4-16 8-16s6 6 6 6-4 10-14 10Z"/>
  <path fill="#F5EBE0" d="M40 22c2-8-2-16-8-16s-6 6-6 6 6 10 14 10Z"/>
  <circle cx="26" cy="40" r="3" fill="#4A3728"/>
  <circle cx="38" cy="40" r="3" fill="#4A3728"/>
  <ellipse cx="32" cy="48" rx="4" ry="2.5" fill="#D4A574"/>
  <path stroke="#4A3728" stroke-width="1.2" stroke-linecap="round" d="M28 52q4 3 8 0"/>
</svg>
