<svg width="64" height="80" viewBox="0 0 64 80" fill="none" xmlns="http://www.w3.org/2000/svg">
<path d="M43.8652 51.7166C43.8377 51.6726 43.8156 51.634 43.7881 51.5899C43.011 50.3719 41.6828 49.435 40.2333 49.2641C39.346 49.1594 38.8665 50.2892 39.2578 50.9671C39.3625 51.1435 39.4727 51.3253 39.5885 51.5072C38.613 50.3443 37.395 49.5176 36.1605 49.5176C32.7435 49.5176 34.1874 53.7779 34.981 55.569C36.1053 58.1263 38.117 61.9235 41.3355 62.0007C45.1879 62.0944 45.4525 58.1042 44.995 55.2604C44.8021 54.0424 44.5211 52.7858 43.8762 51.7166H43.8652Z" fill="#E3DAEA"/>
<path d="M27.8218 49.5233C26.5873 49.5233 25.3693 50.35 24.3938 51.5128C24.504 51.331 24.6197 51.1491 24.7245 50.9727C25.1929 50.1571 24.5426 49.3359 23.7324 49.2753C22.5971 49.1816 21.5555 49.7162 20.839 50.5814C19.7698 51.8711 19.2573 53.6457 18.9927 55.2715C18.5353 58.1153 18.7998 62.1055 22.6522 62.0118C25.8708 61.9346 27.8769 58.1374 29.0067 55.5802C29.7948 53.789 31.2443 49.5288 27.8273 49.5288L27.8218 49.5233Z" fill="#E3DAEA"/>
<path d="M39.6215 57.1789C39.6215 60.4966 39.5499 63.8365 39.0483 67.1267C38.6681 69.6288 38.2327 74.2197 35.4329 75.2007C33.9008 75.7408 32.1482 75.559 30.561 75.4598C29.5249 75.3936 28.4777 75.107 27.6676 74.4567C24.9725 72.3073 24.8348 66.9889 24.6253 63.8751C24.3332 59.4771 24.3553 55.1342 24.46 50.7362C24.4655 50.4661 24.4655 50.1795 24.3277 49.9481C24.2947 49.8874 24.2451 49.8378 24.1899 49.7937C28.8194 50.2787 33.3166 51.0338 37.8744 49.7441C37.902 49.7882 37.9461 49.8268 38.0067 49.8489C38.2933 49.9811 38.5854 50.0638 38.894 50.1244C39.0979 50.163 39.3074 50.2071 39.5223 50.2236C39.4562 50.4496 39.4507 50.7196 39.4617 50.9621C39.5664 53.0399 39.6215 55.0956 39.6215 57.1733V57.1789Z" fill="#985988"/>
<path d="M24.3334 49.9534C24.4767 50.1848 24.4767 50.4714 24.4657 50.7415C24.3609 55.145 24.3334 59.4823 24.631 63.8803C24.8404 66.9942 24.9782 72.3126 27.6732 74.462C28.4834 75.1068 29.5305 75.3989 30.5666 75.465C32.1539 75.5642 33.901 75.7406 35.4386 75.206C38.2383 74.2195 38.6682 69.6341 39.054 67.132C39.5555 63.8418 39.6272 60.5019 39.6272 57.1841C39.6272 55.1064 39.5721 53.0507 39.4674 50.9729C39.4563 50.7304 39.4618 50.4659 39.528 50.2344C39.3185 50.2234 39.1036 50.1793 38.8997 50.1352C38.5911 50.0691 38.299 49.9919 38.0124 49.8597C37.9573 49.8321 37.9132 49.7935 37.8801 49.7549C33.3223 51.0446 28.8251 50.2895 24.1956 49.8045C24.2507 49.8486 24.3003 49.8982 24.3334 49.9589V49.9534ZM23.9145 49.4849C26.5048 49.3251 29.018 49.8266 31.5862 50.003C33.6915 50.1462 35.7583 49.2589 37.8415 49.3857C37.9132 49.2038 38.095 49.055 38.3045 49.1377C38.6351 49.2589 39.0265 49.2534 39.3902 49.303C39.7264 49.3251 40.046 49.4243 40.3271 49.6447C40.3657 49.6723 40.3877 49.6998 40.4098 49.7329C40.5696 49.799 40.7074 49.9093 40.8066 50.047C41.005 50.3226 41.0766 50.6753 41.1318 51.017C41.4239 52.8137 41.5892 54.6324 41.6168 56.4511C42.8072 56.159 43.9921 55.9166 45.2101 56.2748C48.5995 57.2723 50.3687 61.5491 50.0159 64.7787C49.9792 65.1096 49.9318 65.4416 49.8748 65.7738C49.7983 66.2195 49.7044 66.6657 49.5952 67.1101C49.5295 67.3772 49.4584 67.6437 49.3821 67.9091C48.6767 70.3451 47.5303 72.1528 46.3068 74.3518C46.9847 74.3793 47.6185 74.5061 48.2523 74.7486C49.4538 75.206 50.7765 75.7241 51.8181 76.435C52.4629 76.8759 53.9179 77.8239 53.7967 78.6781C53.5432 80.4252 48.8035 79.9457 47.5634 79.9237C45.8659 79.8961 44.1905 79.7032 42.493 79.7142C41.4239 79.7198 37.4888 79.604 36.7393 78.2593C36.6897 78.2152 36.6511 78.1656 36.607 78.116C34.3033 78.7443 31.7626 78.7002 29.3927 78.386C28.8471 78.3144 28.1527 78.1876 27.4528 77.9947C27.3811 78.0884 27.3095 78.1766 27.2268 78.2538C26.4718 79.5985 22.5422 79.7197 21.4675 79.7087C19.7701 79.6977 18.1001 79.8906 16.3972 79.9182C15.1516 79.9402 10.4174 80.4197 10.1639 78.6726C10.0427 77.8129 11.4921 76.8704 12.1369 76.4295C13.1841 75.7186 14.5068 75.195 15.7027 74.7431C16.3365 74.5006 16.9703 74.3738 17.6427 74.3463C16.4192 72.1473 15.2729 70.3451 14.5674 67.9036C14.4072 67.3459 14.2694 66.7834 14.1582 66.2204C14.0883 65.8663 14.0289 65.5119 13.9811 65.1585C13.9637 65.0299 13.9479 64.9015 13.9336 64.7732C13.5919 61.6593 15.4492 57.2282 18.7394 56.2693C19.6819 55.9937 21.2801 56.0102 22.3659 56.5063C22.3659 54.186 22.6359 52.2846 23.4351 50.0856C23.4791 49.9699 23.5232 49.8431 23.6224 49.7605C23.672 49.7219 23.7216 49.6998 23.7823 49.6888C23.7382 49.6061 23.7768 49.4904 23.898 49.4849H23.9145Z" fill="url(#paint0_linear_1097_2534)"/>
<g opacity="0.9" filter="url(#filter0_f_1097_2534)">
<path fill-rule="evenodd" clip-rule="evenodd" d="M47.4394 64.8877L49.8674 66.325C49.791 66.7708 49.6971 67.2169 49.5879 67.6613L46.8051 66.1396L31.0027 73.0793L14.1653 66.7717C14.0954 66.4175 14.036 66.0632 13.9883 65.7097L30.964 71.6788L47.4394 64.8877Z" fill="#20101D"/>
</g>
<path d="M18.3755 42.3587H45.6012C45.1934 30.4488 45.4965 23.4219 36.469 19.8782C36.199 19.7735 35.9234 19.6853 35.6423 19.6081L35.5762 19.5916C33.2945 18.9578 30.8806 18.9358 28.5879 19.5255C28.3454 19.5861 28.0974 19.6577 27.8549 19.7459C18.4692 23.0582 18.7888 30.3 18.3755 42.3642V42.3587Z" fill="#E3DAEA"/>
<path d="M50.2639 37.0901C45.8549 31.7331 42.0411 36.6933 31.9003 36.6933C21.7596 36.6933 16.9648 31.7331 13.5368 37.0901C10.0261 42.5738 21.7596 52.5492 31.9003 52.5492C42.0411 52.5492 54.4029 42.1164 50.2639 37.0901Z" fill="#F4FDF8"/>
<path d="M24.7411 40.1156C24.7411 41.3557 22.9719 42.3587 20.7895 42.3587C18.607 42.3587 16.8379 41.3557 16.8379 40.1156C16.8379 38.8756 18.607 37.8726 20.7895 37.8726C22.9719 37.8726 24.7411 38.8756 24.7411 40.1156Z" fill="#FFD7EF"/>
<path d="M47.0562 40.1156C47.0562 41.3557 45.2871 42.3587 43.1047 42.3587C40.9222 42.3587 39.1531 41.3557 39.1531 40.1156C39.1531 38.8756 40.9222 37.8726 43.1047 37.8726C45.2871 37.8726 47.0562 38.8756 47.0562 40.1156Z" fill="#FFD7EF"/>
<path d="M24.7852 44.4201C26.163 45.8805 28.8304 48.0024 31.8947 48.0024C34.959 48.0024 37.6264 45.8805 39.0042 44.4201L36.0722 44.2382C35.1519 44.1831 34.2756 43.8028 33.6032 43.169L31.9663 41.6313L28.5494 44.4476L24.7852 44.4145V44.4201Z" fill="#EC7CBA"/>
<path d="M31.9774 41.1406C31.6191 42.2815 30.5334 43.268 29.0178 43.9293V44.0947C29.0178 45.3678 29.0178 46.4039 30.5004 46.4039C31.9829 46.4039 31.9829 46.4039 31.9829 44.0947C31.9829 43.5435 31.9168 42.3421 31.9829 41.1516C31.9829 41.1516 31.9829 41.1461 31.9829 41.1406H31.9774Z" fill="white"/>
<path d="M33.4601 46.4041C34.9427 46.4041 34.9427 45.3735 34.9427 44.0949V43.9295C33.4326 43.2737 32.3469 42.2872 31.9886 41.1519C31.917 42.3423 31.9886 43.5493 31.9886 44.0949C31.9886 45.6344 32.481 46.4041 33.4657 46.4041H33.4601Z" fill="white"/>
<path d="M42.5646 41.0689C42.5646 41.0689 42.5316 41.113 42.5206 41.135C42.5206 41.135 42.5261 41.1295 42.5316 41.124C42.504 41.1626 42.5095 41.157 42.5206 41.135C42.4489 41.2397 42.3717 41.3444 42.2891 41.4436C42.019 41.7908 41.7214 42.1105 41.4073 42.4136C40.5034 43.2789 39.3791 43.9237 38.1336 44.1221C36.4416 44.3977 34.5512 43.6757 33.3167 42.5238C32.964 42.1932 32.6223 41.7633 32.5121 41.2838C32.4239 40.8925 32.4018 40.4792 32.3963 40.0713C32.3963 39.8839 32.4018 39.6966 32.3963 39.5037C32.3963 39.432 32.3963 39.3659 32.3963 39.2942C32.3963 39.0407 32.4074 38.7927 32.4239 38.5392C32.4294 38.44 32.3853 38.3628 32.3192 38.3187C32.209 38.0432 31.6137 38.2802 31.6358 38.6108C31.6523 38.9195 31.6523 39.2281 31.6578 39.5367C31.6578 39.6415 31.6523 39.7407 31.6523 39.8454C31.6523 40.0658 31.6523 40.2918 31.6633 40.5233C31.6523 40.9256 31.6137 41.3389 31.4374 41.6696C31.1563 42.2042 30.6052 42.6231 30.1202 42.9592C29.3321 43.5049 28.4613 43.9568 27.5299 44.1772C25.1655 44.7284 22.95 43.1466 21.6273 41.3224C21.5446 41.2067 21.462 41.0909 21.3903 40.9697C21.1974 40.6445 20.5361 41.0138 20.729 41.3334C21.6273 42.827 23.1429 44.1331 24.8073 44.6567C26.3394 45.1362 27.8991 44.8386 29.299 44.1111C30.2084 43.6371 31.4043 42.9372 31.972 41.9672C32.5782 43.1742 34.0111 43.9568 35.2071 44.3756C37.9186 45.3346 40.6357 44.2489 42.493 42.1932C42.7686 41.8901 43.0331 41.5649 43.248 41.2177C43.474 40.8539 42.741 40.7713 42.5536 41.0689H42.5646Z" fill="#828282"/>
<path d="M35.0638 37.1837C35.0638 36.2082 33.6474 35.4146 31.8948 35.4146C30.1422 35.4146 28.7258 36.2082 28.7258 37.1837C28.7258 38.1592 30.1422 39.559 31.8948 39.559C33.6474 39.559 35.0638 38.1647 35.0638 37.1837Z" fill="#5E5E5E"/>
<path d="M29.0563 32.2015C29.0563 30.9725 28.0643 29.9805 26.8353 29.9805C25.6063 29.9805 24.6143 30.978 24.6143 32.2015C24.6143 33.425 25.6063 34.4226 26.8353 34.4226C28.0643 34.4226 29.0563 33.4305 29.0563 32.2015Z" fill="#5D5D5D"/>
<path d="M27.4528 30.8897C27.4528 30.548 27.1772 30.2725 26.8355 30.2725C26.4938 30.2725 26.2183 30.548 26.2183 30.8897C26.2183 31.2314 26.4938 31.507 26.8355 31.507C27.1772 31.507 27.4528 31.2314 27.4528 30.8897Z" fill="white"/>
<path d="M39.3845 32.2018C39.3845 30.9727 38.3924 29.9807 37.1634 29.9807C35.9344 29.9807 34.9424 30.9783 34.9424 32.2018C34.9424 33.4253 35.9399 34.4228 37.1634 34.4228C38.3869 34.4228 39.3845 33.4308 39.3845 32.2018Z" fill="#5D5D5D"/>
<path d="M37.7807 30.89C37.7807 30.5483 37.5051 30.2727 37.1634 30.2727C36.8217 30.2727 36.5461 30.5483 36.5461 30.89C36.5461 31.2317 36.8217 31.5072 37.1634 31.5072C37.5051 31.5072 37.7807 31.2317 37.7807 30.89Z" fill="white"/>
<path d="M48.0536 8.65709L37.5326 4.35278C34.1542 14.8793 35.0415 26.9049 35.0415 26.9049L39.7922 28.4977C43.3801 23.5486 46.5932 15.232 48.0536 8.65709Z" fill="#FEFEF4"/>
<path d="M48.0536 8.65709L37.5326 4.35278C34.1542 14.8793 35.0415 26.9049 35.0415 26.9049L39.7922 28.4977C43.3801 23.5486 46.5932 15.232 48.0536 8.65709Z" fill="url(#paint1_linear_1097_2534)"/>
<path d="M46.4943 9.5777L39.539 6.73389C36.6622 15.6897 37.4007 26.0013 37.4007 26.0013L38.8667 26.6957C41.9199 22.4851 45.2487 15.1716 46.4943 9.5777Z" fill="#985988"/>
<path d="M16.1548 6.35924L26.6758 2.05493C30.0542 12.5815 29.1669 24.6071 29.1669 24.6071L24.4162 26.1998C20.8283 21.2507 17.6153 12.9342 16.1548 6.35924Z" fill="url(#paint2_linear_1097_2534)"/>
<path d="M17.7197 7.27936L24.675 4.43555C27.5518 13.3914 26.8133 23.703 26.8133 23.703L25.3473 24.3974C22.2941 20.1868 18.9653 12.8733 17.7197 7.27936Z" fill="#985988"/>
<path d="M12.7154 11.4516C12.4674 9.35728 13.0185 6.38119 15.5151 2.26978C16.3143 0.952585 17.4055 -0.353586 21.291 0.0873158C25.1764 0.528218 27.2486 1.71865 26.8463 3.1571C25.9425 6.3867 21.313 11.8539 17.3614 14.6095C16.0277 15.5354 14.1539 15.1496 13.3988 13.7112C13.0847 13.1105 12.8256 12.3664 12.7154 11.4516Z" fill="#FEFEF4"/>
<path d="M18.3755 42.3587H45.6012C45.1934 30.4488 45.4965 23.4219 36.469 19.8782C36.199 19.7735 35.9234 19.6853 35.6423 19.6081L35.5762 19.5916C33.2945 18.9578 30.8806 18.9358 28.5879 19.5255C28.3454 19.5861 28.0974 19.6577 27.8549 19.7459C18.4692 23.0582 18.7888 30.3 18.3755 42.3642V42.3587Z" fill="#E3DAEA"/>
<path d="M50.2639 37.0899C45.8549 31.7329 42.0411 36.693 31.9003 36.693C21.7596 36.693 16.9648 31.7329 13.5368 37.0899C10.0261 42.5736 21.7596 52.549 31.9003 52.549C42.0411 52.549 54.4029 42.1161 50.2639 37.0899Z" fill="#F4FDF8"/>
<path d="M24.7411 40.1156C24.7411 41.3557 22.9719 42.3587 20.7895 42.3587C18.607 42.3587 16.8379 41.3557 16.8379 40.1156C16.8379 38.8756 18.607 37.8726 20.7895 37.8726C22.9719 37.8726 24.7411 38.8756 24.7411 40.1156Z" fill="#FFD7EF"/>
<path d="M47.0562 40.1156C47.0562 41.3557 45.2871 42.3587 43.1047 42.3587C40.9222 42.3587 39.1531 41.3557 39.1531 40.1156C39.1531 38.8756 40.9222 37.8726 43.1047 37.8726C45.2871 37.8726 47.0562 38.8756 47.0562 40.1156Z" fill="#FFD7EF"/>
<path d="M24.7852 44.4201C26.163 45.8805 28.8304 48.0024 31.8947 48.0024C34.959 48.0024 37.6264 45.8805 39.0042 44.4201L36.0722 44.2382C35.1519 44.1831 34.2756 43.8028 33.6032 43.169L31.9663 41.6313L28.5494 44.4476L24.7852 44.4145V44.4201Z" fill="#EC7CBA"/>
<path d="M31.9774 41.1406C31.6191 42.2815 30.5334 43.268 29.0178 43.9293V44.0947C29.0178 45.3678 29.0178 46.4039 30.5004 46.4039C31.9829 46.4039 31.9829 46.4039 31.9829 44.0947C31.9829 43.5435 31.9168 42.3421 31.9829 41.1516C31.9829 41.1516 31.9829 41.1461 31.9829 41.1406H31.9774Z" fill="white"/>
<path d="M33.4601 46.4041C34.9427 46.4041 34.9427 45.3735 34.9427 44.0949V43.9295C33.4326 43.2737 32.3469 42.2872 31.9886 41.1519C31.917 42.3423 31.9886 43.5493 31.9886 44.0949C31.9886 45.6344 32.481 46.4041 33.4657 46.4041H33.4601Z" fill="white"/>
<path d="M42.5646 41.0691C42.5646 41.0691 42.5316 41.1132 42.5206 41.1352C42.5206 41.1352 42.5261 41.1297 42.5316 41.1242C42.504 41.1628 42.5095 41.1573 42.5206 41.1352C42.4489 41.24 42.3717 41.3447 42.2891 41.4439C42.019 41.7911 41.7214 42.1107 41.4073 42.4139C40.5034 43.2791 39.3791 43.924 38.1336 44.1224C36.4416 44.3979 34.5512 43.6759 33.3167 42.5241C32.964 42.1934 32.6223 41.7635 32.5121 41.2841C32.4239 40.8928 32.4018 40.4794 32.3963 40.0716C32.3963 39.8842 32.4018 39.6968 32.3963 39.5039C32.3963 39.4323 32.3963 39.3661 32.3963 39.2945C32.3963 39.041 32.4074 38.793 32.4239 38.5394C32.4294 38.4402 32.3853 38.3631 32.3192 38.319C32.209 38.0434 31.6137 38.2804 31.6358 38.6111C31.6523 38.9197 31.6523 39.2284 31.6578 39.537C31.6578 39.6417 31.6523 39.7409 31.6523 39.8456C31.6523 40.0661 31.6523 40.292 31.6633 40.5235C31.6523 40.9258 31.6137 41.3392 31.4374 41.6698C31.1563 42.2044 30.6052 42.6233 30.1202 42.9595C29.3321 43.5051 28.4613 43.957 27.5299 44.1775C25.1655 44.7286 22.95 43.1469 21.6273 41.3226C21.5446 41.2069 21.462 41.0912 21.3903 40.9699C21.1974 40.6447 20.5361 41.014 20.729 41.3337C21.6273 42.8272 23.1429 44.1334 24.8073 44.657C26.3394 45.1364 27.8991 44.8388 29.299 44.1113C30.2084 43.6374 31.4043 42.9374 31.972 41.9675C32.5782 43.1744 34.0111 43.957 35.2071 44.3759C37.9186 45.3348 40.6357 44.2491 42.493 42.1934C42.7686 41.8903 43.0331 41.5651 43.248 41.2179C43.474 40.8542 42.741 40.7715 42.5536 41.0691H42.5646Z" fill="#828282"/>
<path d="M35.0638 37.1837C35.0638 36.2082 33.6474 35.4146 31.8948 35.4146C30.1422 35.4146 28.7258 36.2082 28.7258 37.1837C28.7258 38.1592 30.1422 39.559 31.8948 39.559C33.6474 39.559 35.0638 38.1647 35.0638 37.1837Z" fill="#5E5E5E"/>
<path d="M29.0563 32.2015C29.0563 30.9725 28.0643 29.9805 26.8353 29.9805C25.6063 29.9805 24.6143 30.978 24.6143 32.2015C24.6143 33.425 25.6063 34.4226 26.8353 34.4226C28.0643 34.4226 29.0563 33.4305 29.0563 32.2015Z" fill="#5D5D5D"/>
<path d="M27.4528 30.8897C27.4528 30.548 27.1772 30.2725 26.8355 30.2725C26.4938 30.2725 26.2183 30.548 26.2183 30.8897C26.2183 31.2314 26.4938 31.507 26.8355 31.507C27.1772 31.507 27.4528 31.2314 27.4528 30.8897Z" fill="white"/>
<path d="M39.3845 32.2018C39.3845 30.9727 38.3924 29.9807 37.1634 29.9807C35.9344 29.9807 34.9424 30.9783 34.9424 32.2018C34.9424 33.4253 35.9399 34.4228 37.1634 34.4228C38.3869 34.4228 39.3845 33.4308 39.3845 32.2018Z" fill="#5D5D5D"/>
<path d="M37.7807 30.89C37.7807 30.5483 37.5051 30.2727 37.1634 30.2727C36.8217 30.2727 36.5461 30.5483 36.5461 30.89C36.5461 31.2317 36.8217 31.5072 37.1634 31.5072C37.5051 31.5072 37.7807 31.2317 37.7807 30.89Z" fill="white"/>
<mask id="mask0_1097_2534" style="mask-type:alpha" maskUnits="userSpaceOnUse" x="1" y="12" width="61" height="61">
<path d="M10.7959 65.588L1.89185 72.5277V12.1892H61.8884V72.5277L48.0982 65.588L30.926 72.5277L10.7959 65.588Z" fill="black"/>
</mask>
<g mask="url(#mask0_1097_2534)">
<path d="M61.8839 54.8343C61.8839 55.2384 61.8794 55.6425 61.8614 56.0421C61.8524 56.4151 61.839 56.7837 61.812 57.1523C61.7671 57.9338 61.6997 58.7065 61.6009 59.4703C61.5335 60.0742 61.4436 60.6737 61.3403 61.2643C61.1291 62.4988 60.8596 63.7066 60.5317 64.8923C60.4059 65.363 60.2666 65.8292 60.1139 66.2866C59.7455 67.4501 59.3187 68.5869 58.8425 69.6881C58.5819 70.2832 58.3079 70.8693 58.0159 71.4422C57.1533 73.1651 56.1605 74.7948 55.0509 76.3135C54.7678 76.7043 54.4713 77.0862 54.1748 77.4636C52.1038 80.0436 49.6914 82.2639 47.0094 84.0268C46.5332 84.3421 46.0525 84.6396 45.5628 84.9194C45.0058 85.2391 44.4442 85.5411 43.8692 85.8253C40.2079 87.6237 36.1691 88.6184 31.9193 88.6184C27.1933 88.6184 22.7233 87.3839 18.7475 85.1858C18.1365 84.8484 17.5435 84.4931 16.9595 84.1112C16.3979 83.7471 15.8499 83.3607 15.3108 82.9567C13.0556 81.2648 11.016 79.231 9.25046 76.9308C8.97193 76.5666 8.69789 76.1981 8.43283 75.8206C7.28277 74.1865 6.26748 72.428 5.40044 70.5718C5.11741 69.9723 4.85236 69.3595 4.60528 68.7378C4.11111 67.5033 3.67534 66.2244 3.31595 64.9145C3.18566 64.4526 3.06886 63.9908 2.96104 63.5201C2.75439 62.6542 2.57919 61.7794 2.43992 60.8868C2.40847 60.6959 2.37703 60.5049 2.35456 60.314C2.18834 59.2394 2.08052 58.147 2.01763 57.0368C1.99068 56.5217 1.97271 56.0022 1.96372 55.4782V55.4471C1.95923 55.3805 1.95923 55.3094 1.95923 55.2384C1.95923 55.1052 1.95923 54.9675 1.95923 54.8343C1.95923 54.0394 1.98169 53.2357 2.0356 52.423C2.1524 50.3937 2.42195 48.3244 2.83076 46.255C3.08234 44.9539 3.39232 43.6484 3.75171 42.3517C3.9359 41.6901 4.13357 41.0284 4.34022 40.3712C5.05003 38.1376 5.91257 35.9395 6.90091 33.8213C7.15249 33.2796 7.41305 32.7467 7.68709 32.2183C9.13365 29.363 10.8183 26.6853 12.7051 24.2829C12.9387 23.9898 13.1724 23.7012 13.4105 23.417C15.0098 21.4853 16.7438 19.7535 18.5857 18.2881C18.9047 18.0305 19.2282 17.7863 19.5561 17.5465C19.8346 17.3422 20.1177 17.1424 20.4052 16.9515C23.9452 14.558 27.8357 13.1592 31.9193 13.1592C36.0029 13.1592 39.799 14.5269 43.3121 16.8671C43.685 17.1158 44.0534 17.3733 44.4173 17.6442C44.7632 17.8973 45.1046 18.1593 45.4415 18.4346C46.9914 19.6869 48.465 21.1256 49.8396 22.7154C50.0688 22.9729 50.2889 23.2349 50.509 23.5014C52.315 25.695 53.9547 28.1418 55.3878 30.7573C55.6663 31.2547 55.9314 31.7609 56.192 32.2716C57.1803 34.2254 58.0608 36.2592 58.811 38.3374C58.9144 38.6172 59.0132 38.8969 59.1075 39.1767C59.2872 39.6963 59.458 40.2202 59.6197 40.7442C59.6511 40.8419 59.6781 40.9352 59.705 41.0284C59.705 41.0284 59.7065 41.0314 59.7095 41.0373C60.1363 42.445 60.5092 43.8615 60.8147 45.2825C60.8192 45.2959 60.8192 45.3092 60.8237 45.3269C61.2819 47.4629 61.6009 49.6032 61.7626 51.7081C61.812 52.3609 61.8479 53.0092 61.8614 53.6531C61.8749 53.9639 61.8794 54.2748 61.8794 54.5812C61.8839 54.6655 61.8839 54.7499 61.8839 54.8343Z" fill="#BE6CA7"/>
<path fill-rule="evenodd" clip-rule="evenodd" d="M55.0279 76.2599C55.1717 76.0601 55.3154 75.8603 55.4592 75.656C50.0638 77.0681 41.5551 77.4633 28.5495 74.0663C12.0124 69.7488 5.48566 56.2577 2.91246 45.8425C2.88458 45.9801 2.85735 46.1176 2.83076 46.2551C2.42195 48.3245 2.1524 50.3938 2.0356 52.4231C1.98169 53.2358 1.95923 54.0395 1.95923 54.8344V55.2385C1.95923 55.3095 1.95923 55.3806 1.96372 55.4472V55.4783C1.97271 56.0023 1.99068 56.5218 2.01763 57.0369C2.08052 58.1471 2.18834 59.2395 2.35456 60.3141C2.37703 60.505 2.40847 60.696 2.43992 60.8869C2.57919 61.7795 2.75439 62.6543 2.96104 63.5202C3.06886 63.9909 3.18566 64.4527 3.31595 64.9146C3.67534 66.2245 4.11111 67.5034 4.60528 68.7379C4.77413 69.1628 4.95139 69.5835 5.13703 69.9987C5.22303 70.191 5.31083 70.3821 5.40044 70.5719C6.26748 72.4281 7.28277 74.1866 8.43283 75.8207C8.69789 76.1982 8.97193 76.5667 9.25046 76.9309C11.016 79.2311 13.0556 81.2649 15.3108 82.9567C15.8498 83.3608 16.3979 83.7472 16.9595 84.1113C17.5435 84.4932 18.1365 84.8484 18.7475 85.1859C22.6697 87.3544 27.0728 88.5851 31.7283 88.6179C31.7708 88.6181 31.8134 88.6182 31.8559 88.6182C37.2693 88.6182 42.3458 87.0018 46.7259 84.1731L46.7349 84.1642C47.5615 83.6313 48.3701 83.0496 49.1428 82.4324C51.0207 80.9359 52.7368 79.2041 54.2552 77.2724C54.5203 76.9394 54.7763 76.6019 55.0279 76.2599Z" fill="#A55692"/>
<path d="M46.9736 34.1319C45.9628 34.4294 44.8801 34.718 43.73 34.98C41.6276 27.915 39.6284 21.7381 39.6284 21.7381C39.9743 19.0649 43.5997 25.4283 46.9736 34.1319Z" fill="#DD90CB"/>
<path d="M48.2359 52.2764C47.553 48.2976 45.5988 41.2859 43.73 34.9802C44.88 34.7182 45.9627 34.4296 46.9735 34.1321C47.1487 34.585 47.3194 35.0424 47.4946 35.5087C51.0077 44.9094 49.687 60.7091 48.2359 52.2764Z" fill="#6B75B2"/>
<path d="M61.8839 54.8341C61.8839 55.2382 61.8794 55.6422 61.8614 56.0419C61.8524 56.4149 61.839 56.7835 61.812 57.1521C61.7671 57.9336 61.6997 58.7063 61.6009 59.4701C57.9934 61.0109 48.137 64.5768 34.5698 64.5013C21.5508 64.4258 10.5712 62.8183 2.35456 60.3138C2.18834 59.2391 2.08052 58.1467 2.01763 57.0366C1.99068 56.5215 1.97271 56.0019 1.96372 55.4779V55.4469C1.95923 55.3803 1.95923 55.3092 1.95923 55.2382C1.95923 55.1049 1.95923 54.9673 1.95923 54.8341C1.95923 54.0392 1.98169 53.2354 2.0356 52.4228C2.1524 50.3934 2.42195 48.3241 2.83076 46.2548C3.08234 44.9537 3.39232 43.6482 3.75171 42.3515C3.9359 41.6899 4.13357 41.0282 4.34022 40.371C5.05003 38.1374 5.91258 35.9393 6.90091 33.8211C7.15249 33.2793 7.41305 32.7465 7.68709 32.218C9.91983 33.2083 19.4303 37.0095 32.8672 36.4277C36.9823 36.2457 40.6167 35.695 43.7344 34.9801C45.6033 41.2858 47.5575 48.2975 48.2403 52.2763C49.6914 60.709 51.0122 44.9093 47.4991 35.5085C47.3239 35.0423 47.1532 34.5849 46.978 34.1319C50.9223 32.9685 53.766 31.6319 55.3923 30.7571C55.6708 31.2544 55.9359 31.7607 56.1964 32.2713C57.1848 34.2252 58.0653 36.259 58.8155 38.3372C58.9189 38.617 59.0177 38.8967 59.112 39.1765C59.2917 39.696 59.4625 40.22 59.6242 40.744C59.6556 40.8417 59.6826 40.935 59.7095 41.0282C59.7095 41.0282 59.711 41.0312 59.714 41.0371C60.1408 42.4448 60.5137 43.8613 60.8192 45.2823C60.8237 45.2956 60.8237 45.309 60.8282 45.3267C61.2864 47.4626 61.6053 49.603 61.7671 51.7079C61.8165 52.3606 61.8524 53.009 61.8659 53.6529C61.8794 53.9637 61.8839 54.2745 61.8839 54.5809C61.8884 54.6653 61.8884 54.7497 61.8884 54.8341H61.8839Z" fill="#5961A8"/>
<path d="M43.3123 16.8671C39.7408 17.3733 34.5386 17.9506 30.0372 17.8529C26.1512 17.7685 22.7864 17.3511 20.4009 16.9515C23.9454 14.558 27.8359 13.1592 31.9195 13.1592C36.0031 13.1592 39.7992 14.5269 43.3123 16.8671Z" fill="#5961A8"/>
<path d="M45.4416 18.4345C42.7776 19.0828 37.6742 20.0553 31.0433 20.0198C23.9947 19.9798 20.1941 18.9097 18.5813 18.288C18.9003 18.0304 19.2237 17.7862 19.5517 17.5464C21.3172 18.1947 25.8231 19.4514 33.2356 18.9097C38.8063 18.5011 42.3733 17.9993 44.4173 17.6441C44.7632 17.8972 45.1047 18.1592 45.4416 18.4345Z" fill="#5961A8"/>
<path d="M16.5687 22.5907C16.5687 22.5907 18.141 20.1839 19.3764 19.3713C20.6658 18.5187 16.0655 24.6245 16.5687 22.5907Z" fill="#5961A8"/>
<path d="M19.9199 23.9363C19.9199 23.9363 21.0479 21.2985 22.1221 20.2861C23.2456 19.2248 19.7805 26.0278 19.9199 23.9363Z" fill="#5961A8"/>
<path d="M24.3989 24.9178C24.3989 24.9178 24.9158 22.098 25.7427 20.8813C26.6056 19.6069 24.7225 26.9916 24.3989 24.9178Z" fill="#5961A8"/>
<path d="M29.6371 25.5484C29.6371 25.5484 29.5652 22.6842 30.1224 21.3254C30.7067 19.9044 30.3786 27.5111 29.6371 25.5484Z" fill="#5961A8"/>
<path d="M47.189 22.5907C47.189 22.5907 45.6167 20.1839 44.3813 19.3713C43.0919 18.5187 47.6922 24.6245 47.189 22.5907Z" fill="#5961A8"/>
<path d="M43.8389 23.9363C43.8389 23.9363 42.7108 21.2985 41.6367 20.2861C40.5131 19.2248 43.9782 26.0278 43.8389 23.9363Z" fill="#5961A8"/>
<path d="M39.3595 24.9178C39.3595 24.9178 38.8427 22.098 38.0157 20.8813C37.1528 19.6069 39.0359 26.9916 39.3595 24.9178Z" fill="#5961A8"/>
<path d="M34.1209 25.5484C34.1209 25.5484 34.1928 22.6842 33.6356 21.3254C33.0513 19.9044 33.3794 27.5111 34.1209 25.5484Z" fill="#5961A8"/>
<path d="M50.5091 23.5013C48.173 24.8424 40.8593 28.4082 30.028 27.9552C19.9425 27.5334 14.6639 25.3264 12.7007 24.2829C12.9343 23.9898 13.1679 23.7011 13.406 23.4169C14.9469 24.2429 19.3989 26.0902 29.2958 26.6719C40.163 27.3114 47.5036 23.9676 49.8397 22.7153C50.0688 22.9729 50.2889 23.2349 50.5091 23.5013Z" fill="#5961A8"/>
<path d="M13.9049 26.8627C13.806 27.1025 13.46 27.1913 13.1364 27.0581C12.8128 26.9249 12.6285 26.6229 12.7274 26.3831C12.8263 26.1433 13.1723 26.0545 13.4959 26.1878C13.8195 26.321 14.0038 26.6229 13.9049 26.8627Z" fill="#E2D8CF"/>
<path d="M19.3049 28.2839C19.251 28.537 18.9274 28.6835 18.5813 28.6125C18.2398 28.537 18.0061 28.2705 18.06 28.0174C18.1139 27.7643 18.4375 27.6178 18.7836 27.6888C19.1251 27.7643 19.3588 28.0307 19.3049 28.2839Z" fill="#E2D8CF"/>
<path d="M60.5313 64.8922C60.4055 65.3629 60.2663 65.8291 60.1135 66.2865L57.3237 70.1632L55.2976 66.8416L52.3506 71.4732L49.125 67.7342L45.5355 72.641L42.1213 68.6001L38.5318 73.2894L35.2254 68.8399L31.6449 73.0895L28.2397 68.6978L24.7535 73.0052L21.3617 68.1738L17.7813 72.0726L14.3984 67.0281L11.0201 70.6294L8.27076 65.8824L6.1054 69.1152L3.3156 64.9144C3.18532 64.4525 3.06851 63.9907 2.96069 63.52L6.11439 68.2493L8.29771 64.981L11.1055 69.8301L14.4568 66.2554L17.8397 71.3L21.4111 67.41L24.776 72.2103L28.2486 67.9207L31.6584 72.3257L35.2524 68.0672L38.5363 72.49L42.1033 67.8318L45.5086 71.8639L49.0981 66.9659L52.2967 70.6694L55.3066 65.9401L57.3552 69.2972L60.5313 64.8922Z" fill="#EBBB8D"/>
<path d="M25.6527 29.2431C25.5987 29.4962 25.2752 29.6427 24.9291 29.5717C24.583 29.5006 24.3538 29.2298 24.4078 28.9766C24.4617 28.7235 24.7853 28.577 25.1313 28.648C25.4729 28.7235 25.7066 28.99 25.6527 29.2431Z" fill="#E2D8CF"/>
<path d="M16.3579 27.4664C16.3174 27.6218 16.1197 27.7062 15.9084 27.6529C15.6972 27.6041 15.5624 27.4353 15.5983 27.2799C15.6388 27.1245 15.8365 27.0401 16.0477 27.0934C16.259 27.1422 16.3938 27.311 16.3579 27.4664Z" fill="#E2D8CF"/>
<path d="M21.8928 28.6214C21.8523 28.7768 21.6546 28.8612 21.4433 28.8079C21.2321 28.7591 21.0973 28.5903 21.1332 28.4349C21.1737 28.2795 21.3714 28.1951 21.5827 28.2484C21.7939 28.2973 21.9287 28.466 21.8928 28.6214Z" fill="#E2D8CF"/>
<path d="M49.2691 25.6459C49.3994 25.8724 49.75 25.9212 50.0556 25.7525C50.3612 25.5837 50.5095 25.2596 50.3792 25.0331C50.2488 24.8066 49.8983 24.7578 49.5927 24.9265C49.2871 25.0953 49.1388 25.4194 49.2691 25.6459Z" fill="#E2D8CF"/>
<path d="M44.0804 27.6886C44.1658 27.9328 44.5074 28.0438 44.8399 27.9284C45.1725 27.8129 45.3703 27.5243 45.2849 27.2756C45.1995 27.0269 44.8579 26.9203 44.5253 27.0358C44.1928 27.1513 43.995 27.4399 44.0804 27.6886Z" fill="#E2D8CF"/>
<path d="M37.8944 29.3851C37.9798 29.6294 38.3213 29.7404 38.6539 29.6249C38.9865 29.5095 39.1842 29.2208 39.0988 28.9721C39.0134 28.7279 38.6719 28.6169 38.3393 28.7323C38.0067 28.8478 37.809 29.1364 37.8944 29.3851Z" fill="#E2D8CF"/>
<path d="M46.9108 26.5346C46.9692 26.6855 47.176 26.7433 47.3782 26.6678C47.5804 26.5923 47.6973 26.4102 47.6389 26.2637C47.5805 26.1127 47.3737 26.055 47.1715 26.1305C46.9692 26.206 46.8524 26.388 46.9108 26.5346Z" fill="#E2D8CF"/>
<path d="M41.5509 28.3283C41.6094 28.4792 41.8161 28.537 42.0183 28.4615C42.2206 28.386 42.3374 28.2039 42.279 28.0574C42.2206 27.9064 42.0139 27.8487 41.8116 27.9242C41.6094 27.9997 41.4925 28.1817 41.5509 28.3283Z" fill="#E2D8CF"/>
<path d="M32.3151 29.7271C32.2926 29.9846 31.987 30.1711 31.641 30.1401C31.2904 30.109 31.0252 29.8736 31.0477 29.6161C31.0702 29.3585 31.3758 29.172 31.7219 29.2031C32.0724 29.2342 32.3376 29.4695 32.3151 29.7271Z" fill="#E2D8CF"/>
<path d="M28.5099 29.5718C28.4919 29.7317 28.3031 29.8382 28.0874 29.816C27.8717 29.7938 27.7144 29.6429 27.7324 29.483C27.7503 29.3231 27.9391 29.2166 28.1548 29.2388C28.3705 29.2654 28.5278 29.4119 28.5099 29.5718Z" fill="#E2D8CF"/>
<path d="M35.3431 29.6336C35.3251 29.7934 35.1364 29.9 34.9207 29.8778C34.7049 29.8512 34.5476 29.7046 34.5656 29.5448C34.5836 29.3849 34.7723 29.2783 34.9881 29.3005C35.2038 29.3272 35.3611 29.4737 35.3431 29.6336Z" fill="#E2D8CF"/>
<path d="M12.3683 78.5871C12.3683 78.5871 9.99177 75.6429 9.48412 73.7823C8.94952 71.8373 14.7268 80.0613 12.3683 78.5871Z" fill="#5961A8"/>
<path d="M58.8424 69.6881C58.5819 70.2831 58.3078 70.8693 58.0158 71.4421C52.3015 73.2983 42.2564 75.5808 29.0755 74.7148C17.4222 73.9511 9.85689 72.0949 5.40039 70.5718C5.11736 69.9723 4.85231 69.3595 4.60522 68.7378C8.0644 70.0433 15.0996 71.9839 27.9839 73.0097C42.7685 74.1864 53.6132 71.451 58.8424 69.6881Z" fill="#5961A8"/>
<path d="M8.81505 68.9777C8.71618 69.2175 8.37012 69.3063 8.04654 69.1731C7.72295 69.0399 7.53868 68.7379 7.63756 68.4981C7.73643 68.2583 8.08249 68.1695 8.40608 68.3027C8.72966 68.436 8.91393 68.7379 8.81505 68.9777Z" fill="#E2D8CF"/>
<path d="M11.852 66.9036C11.8115 67.0591 11.6138 67.1434 11.4026 67.0902C11.1913 67.0369 11.0565 66.8726 11.0925 66.7171C11.1284 66.5617 11.3307 66.4774 11.5419 66.5306C11.7531 66.5839 11.8879 66.7482 11.852 66.9036Z" fill="#E2D8CF"/>
<path d="M15.0956 70.1945C14.9967 70.4343 14.6506 70.5231 14.3271 70.3899C14.0035 70.2567 13.8192 69.9547 13.9181 69.7149C14.0169 69.4751 14.363 69.3863 14.6866 69.5195C15.0102 69.6528 15.1944 69.9547 15.0956 70.1945Z" fill="#E2D8CF"/>
<path d="M21.9555 71.0599C21.9015 71.313 21.5824 71.464 21.2364 71.3974C20.8903 71.3263 20.6566 71.0643 20.7061 70.8112C20.76 70.5581 21.0791 70.4071 21.4251 70.4737C21.7712 70.5448 22.0049 70.8068 21.9555 71.0599Z" fill="#E2D8CF"/>
<path d="M28.9279 71.8683C28.9054 72.1303 28.6088 72.3168 28.2582 72.2901C27.9077 72.2635 27.638 72.0326 27.6605 71.7706C27.683 71.5086 27.9796 71.3221 28.3301 71.3487C28.6807 71.3754 28.9503 71.6063 28.9279 71.8683Z" fill="#E2D8CF"/>
<path d="M35.7338 71.8995C35.7113 72.1615 35.4147 72.348 35.0641 72.3214C34.7136 72.2947 34.4439 72.0638 34.4664 71.8018C34.4889 71.5398 34.7855 71.3533 35.136 71.38C35.4866 71.4066 35.7563 71.6375 35.7338 71.8995Z" fill="#E2D8CF"/>
<path d="M54.9972 70.0788C55.096 70.3186 55.4421 70.4074 55.7657 70.2742C56.0893 70.141 56.2735 69.839 56.1747 69.5992C56.0758 69.3594 55.7297 69.2706 55.4062 69.4038C55.0826 69.537 54.8983 69.839 54.9972 70.0788Z" fill="#E2D8CF"/>
<path d="M48.137 70.9403C48.1909 71.1934 48.51 71.3444 48.856 71.2778C49.2021 71.2067 49.4358 70.9447 49.3864 70.6916C49.3369 70.4385 49.0133 70.2875 48.6673 70.3541C48.3212 70.4252 48.0875 70.6872 48.137 70.9403Z" fill="#E2D8CF"/>
<path d="M41.1646 71.753C41.1871 72.015 41.4837 72.2015 41.8343 72.1749C42.1848 72.1483 42.4545 71.9173 42.432 71.6553C42.4096 71.3934 42.1129 71.2068 41.7624 71.2335C41.4118 71.2601 41.1422 71.491 41.1646 71.753Z" fill="#E2D8CF"/>
<path d="M5.91303 65.6068C5.87258 65.7622 5.67483 65.8466 5.4636 65.7933C5.25237 65.7444 5.11754 65.5757 5.1535 65.4203C5.19395 65.2649 5.39169 65.1805 5.60292 65.2338C5.81415 65.2826 5.94898 65.4514 5.91303 65.6068Z" fill="#E2D8CF"/>
<path d="M18.312 68.036C18.2715 68.1914 18.0738 68.2758 17.8625 68.2225C17.6513 68.1692 17.5165 68.0049 17.5524 67.8495C17.5884 67.6941 17.7906 67.6097 18.0018 67.663C18.2131 67.7163 18.3479 67.8806 18.312 68.036Z" fill="#E2D8CF"/>
<path d="M25.329 69.1244C25.2886 69.2798 25.0908 69.3641 24.8796 69.3109C24.6684 69.2576 24.5336 69.0933 24.5695 68.9378C24.6055 68.7824 24.8077 68.6981 25.0189 68.7513C25.2302 68.8046 25.365 68.9689 25.329 69.1244Z" fill="#E2D8CF"/>
<path d="M32.0724 69.4437C32.0769 69.6036 31.9061 69.7368 31.6904 69.7457C31.4746 69.7546 31.2949 69.6302 31.2904 69.4704C31.2859 69.3105 31.4567 69.1773 31.6724 69.1684C31.8881 69.1595 32.0679 69.2839 32.0724 69.4437Z" fill="#E2D8CF"/>
<path d="M51.9018 68.1248C51.9422 68.2803 52.14 68.3646 52.3512 68.3113C52.5624 68.2625 52.6973 68.0938 52.6613 67.9383C52.6209 67.7829 52.4231 67.6985 52.2119 67.7518C52.0007 67.8007 51.8658 67.9694 51.9018 68.1248Z" fill="#E2D8CF"/>
<path d="M57.3422 67.0413C57.3827 67.1968 57.5804 67.2811 57.7916 67.2279C58.0029 67.1746 58.1377 67.0103 58.1018 66.8548C58.0658 66.6994 57.8636 66.615 57.6523 66.6683C57.4411 66.7216 57.3063 66.8859 57.3422 67.0413Z" fill="#E2D8CF"/>
<path d="M45.2126 69.0042C45.253 69.1597 45.4508 69.244 45.662 69.1907C45.8732 69.1375 46.0081 68.9732 45.9721 68.8177C45.9362 68.6623 45.7339 68.5779 45.5227 68.6312C45.3115 68.6845 45.1766 68.8488 45.2126 69.0042Z" fill="#E2D8CF"/>
<path d="M38.0424 69.5013C38.0829 69.6567 38.2806 69.7411 38.4918 69.6878C38.7031 69.639 38.8379 69.4702 38.8019 69.3148C38.7615 69.1594 38.5637 69.075 38.3525 69.1283C38.1413 69.1771 38.0065 69.3459 38.0424 69.5013Z" fill="#E2D8CF"/>
<path d="M39.9878 55.6512C39.6194 55.6556 39.278 55.7844 38.9949 55.9931C38.6445 54.4877 37.8853 52.9602 36.4163 51.8234C33.7612 49.7674 30.7468 49.7185 30.7468 49.7185C30.7468 49.7185 31.2185 47.4094 30.3919 46.7255C30.3919 46.7255 33.7298 41.7876 32.8493 39.9137C31.9643 38.0397 28.8555 46.0284 28.8555 46.0284C28.8555 46.0284 29.4755 41.5078 28.8241 40.4599C28.1726 39.4119 27.1079 44.4742 27.8088 46.3525C27.8088 46.3525 26.0342 46.7033 25.7018 47.6448C25.3694 48.5862 24.6685 48.9014 24.8932 49.4876C25.1223 50.0782 25.6254 50.8598 27.5123 50.7221L28.2715 50.5844C28.2715 50.5844 27.2966 55.5579 28.3838 57.6272C29.471 59.6966 28.5725 60.7223 28.6488 61.1442C28.7297 61.6016 29.6596 61.5572 29.8977 61.2019C30.2841 60.6291 31.5689 58.0269 32.0586 57.947C32.5483 57.867 33.2311 59.5811 33.2356 59.852C33.2401 60.1229 32.391 60.4381 31.8115 60.558C31.232 60.6735 30.7154 61.2952 30.7154 61.4728C30.7154 61.6504 37.8808 61.4462 38.384 61.1708C38.5592 61.0732 39.0848 60.4914 39.1971 59.3546C39.4487 59.4967 39.7407 59.5767 40.0417 59.5722C41.0345 59.5589 41.8252 58.6663 41.8117 57.5873C41.7937 56.5038 40.9761 55.6423 39.9833 55.6556L39.9878 55.6512Z" fill="#E4A134"/>
<path d="M22.3777 53.3065C22.0452 53.3109 21.7353 53.4397 21.4837 53.6484C21.1647 52.143 20.4729 50.611 19.1476 49.4742C16.7442 47.4138 14.0217 47.3605 14.0217 47.3605C14.0217 47.3605 14.444 45.0558 13.6938 44.3631C13.6938 44.3631 16.7037 39.4296 15.9041 37.5556C15.1044 35.6817 12.3056 43.6659 12.3056 43.6659C12.3056 43.6659 12.8582 39.1498 12.2652 38.0974C11.6722 37.045 10.7198 42.1117 11.3577 43.9856C11.3577 43.9856 9.75392 44.332 9.45742 45.2734C9.16092 46.2104 8.52299 46.5257 8.72964 47.1163C8.9363 47.7069 9.39003 48.4884 11.0972 48.3552L11.7845 48.2175C11.7845 48.2175 10.9085 53.191 11.8968 55.2603C12.8852 57.3297 12.072 58.3554 12.1394 58.7773C12.2113 59.2347 13.0514 59.1903 13.2715 58.835C13.6219 58.2622 14.7765 55.6644 15.2212 55.5845C15.666 55.5046 16.2814 57.2231 16.2859 57.4895C16.2859 57.7604 15.5222 58.0757 15.0011 58.1911C14.48 58.3066 14.0128 58.9238 14.0128 59.1059C14.0128 59.2835 20.4908 59.0881 20.9446 58.8128C21.1018 58.7151 21.578 58.1334 21.6769 56.9966C21.906 57.1387 22.1665 57.2187 22.4406 57.2142C23.3391 57.2009 24.0534 56.3128 24.0354 55.2293C24.0174 54.1457 23.2762 53.2843 22.3777 53.2976V53.3065Z" fill="#78BB9B"/>
<path d="M7.48942 53.142C7.5029 54.2211 6.99975 55.1048 6.36182 55.1181C6.16415 55.1181 5.97996 55.0382 5.81374 54.8961C5.74635 56.0329 5.41391 56.6146 5.3016 56.7078C5.10843 56.8721 3.37435 57.0009 2.01763 57.0364C1.99068 56.5213 1.97271 56.0018 1.96372 55.4778V55.4467C1.97271 55.4156 1.9772 55.389 1.9772 55.3623C1.9772 55.3357 1.97271 55.2913 1.95923 55.238C1.95923 55.1048 1.95923 54.9671 1.95923 54.8339C1.95923 54.039 1.98169 53.2353 2.0356 52.4226C2.1524 50.3933 2.42195 48.324 2.83076 46.2546C3.21262 46.5344 3.60346 46.8941 3.98532 47.3559C4.93322 48.4971 5.43188 50.0336 5.66549 51.539C5.84519 51.3303 6.06532 51.2059 6.30342 51.2015C6.94134 51.1882 7.47594 52.0585 7.49391 53.142H7.48942Z" fill="#E4A134"/>
<path d="M55.3431 53.3065C55.0152 53.3109 54.7097 53.4353 54.4581 53.6484C54.1392 52.143 53.4608 50.611 52.149 49.4742C49.7725 47.4138 47.0771 47.3605 47.0771 47.3605C47.0771 47.3605 47.4949 45.0558 46.7536 44.3631C46.7536 44.3631 49.7321 39.4296 48.9369 37.5556C48.1418 35.6817 45.3789 43.6659 45.3789 43.6659C45.3789 43.6659 45.927 39.1498 45.3385 38.0974C44.75 37.045 43.8111 42.1117 44.44 43.9856C44.44 43.9856 42.8542 44.332 42.5577 45.2734C42.2657 46.2104 41.6367 46.5257 41.8389 47.1163C42.041 47.7069 42.4948 48.4884 44.1839 48.3552L44.8623 48.2175C44.8623 48.2175 43.9997 53.191 44.9746 55.2603C45.9495 57.3297 45.1498 58.3554 45.2172 58.7773C45.2891 59.2347 46.1202 59.1903 46.3358 58.835C46.6817 58.2622 47.8273 55.6644 48.2631 55.5845C48.6988 55.5046 49.3143 57.2231 49.3188 57.4895C49.3188 57.7604 48.5641 58.0757 48.0474 58.1911C47.5308 58.3066 47.0681 58.9238 47.0726 59.1059C47.0726 59.2835 53.4788 59.0926 53.928 58.8128C54.0853 58.7151 54.5525 58.1334 54.6513 56.9966C54.8804 57.1387 55.1365 57.2186 55.4105 57.2142C56.3 57.2009 57.0053 56.3128 56.9874 55.2293C56.9694 54.1457 56.2371 53.2843 55.3476 53.2976L55.3431 53.3065Z" fill="#78BB9B"/>
<path d="M60.3162 56.8014C60.1634 57.1523 59.5614 57.1967 59.5075 56.7393C59.4581 56.313 60.0331 55.2916 59.3188 53.2179C58.6045 51.1441 59.2065 46.1751 59.2065 46.1751L58.7169 46.3127C57.4949 46.4371 57.1625 45.6511 57.0142 45.0605C56.8615 44.4699 57.3152 44.159 57.5264 43.2221C57.733 42.2851 58.8831 41.9432 58.8831 41.9432C58.6719 41.0995 58.6899 39.6207 58.8112 38.3374C58.9145 38.6172 59.0134 38.8969 59.1077 39.1767C59.2874 39.6962 59.4581 40.2202 59.6198 40.7442C59.5839 41.2771 59.5569 41.6279 59.5569 41.6279C59.5569 41.6279 59.6153 41.4014 59.7052 41.0284C59.7052 41.0284 59.7067 41.0314 59.7097 41.0373C60.1365 42.445 60.5093 43.8615 60.8148 45.2825C60.8058 45.3136 60.8058 45.3269 60.8058 45.3269H60.8238C61.282 47.4629 61.601 49.6032 61.7627 51.7081C61.8121 52.3608 61.8481 53.0092 61.8616 53.6531C61.8077 53.582 61.7493 53.5465 61.6998 53.5598C61.3809 53.6353 60.5632 56.2331 60.3162 56.8014Z" fill="#E4A134"/>
<path d="M61.552 56.1663C61.6464 56.1352 61.7542 56.0953 61.8621 56.042C61.8531 56.415 61.8396 56.7836 61.8126 57.1521C61.2464 57.1521 60.8509 57.1299 60.8509 57.0767C60.8464 56.8946 61.179 56.2818 61.552 56.1663Z" fill="#E4A134"/>
<path d="M61.8839 54.8343C61.8839 55.2384 61.8794 55.6425 61.8614 56.0421C61.8524 56.4151 61.839 56.7837 61.812 57.1523C61.7671 57.9338 61.6997 58.7065 61.6009 59.4703C61.5335 60.0742 61.4436 60.6737 61.3403 61.2643C61.1291 62.4988 60.8596 63.7066 60.5317 64.8923C60.4059 65.363 60.2666 65.8292 60.1139 66.2866C59.7455 67.4501 59.3187 68.5869 58.8425 69.6881C58.5819 70.2832 58.3079 70.8693 58.0159 71.4422C57.1533 73.1651 56.1605 74.7948 55.0509 76.3135C54.7678 76.7043 54.4713 77.0862 54.1748 77.4636C52.1038 80.0436 49.6914 82.2639 47.0094 84.0268C46.5332 84.3421 46.0525 84.6396 45.5628 84.9194C45.0058 85.2391 44.4442 85.5411 43.8692 85.8253C40.2079 87.6237 36.1691 88.6184 31.9193 88.6184C27.1933 88.6184 22.7233 87.3839 18.7475 85.1858C18.1365 84.8484 17.5435 84.4931 16.9595 84.1112C16.3979 83.7471 15.8499 83.3607 15.3108 82.9567C13.0556 81.2648 11.016 79.231 9.25046 76.9308C8.97193 76.5666 8.69789 76.1981 8.43283 75.8206C7.28277 74.1865 6.26748 72.428 5.40044 70.5718C5.11741 69.9723 4.85236 69.3595 4.60528 68.7378C4.11111 67.5033 3.67534 66.2244 3.31595 64.9145C3.18566 64.4526 3.06886 63.9908 2.96104 63.5201C2.75439 62.6542 2.57919 61.7794 2.43992 60.8868C2.40847 60.6959 2.37703 60.5049 2.35456 60.314C2.18834 59.2394 2.08052 58.147 2.01763 57.0368C1.99068 56.5217 1.97271 56.0022 1.96372 55.4782V55.4471C1.95923 55.3805 1.95923 55.3094 1.95923 55.2384C1.95923 55.1052 1.95923 54.9675 1.95923 54.8343C1.95923 54.0394 1.98169 53.2357 2.0356 52.423C2.1524 50.3937 2.42195 48.3244 2.83076 46.255C3.08234 44.9539 3.39232 43.6484 3.75171 42.3517C3.9359 41.6901 4.13357 41.0284 4.34022 40.3712C5.05003 38.1376 5.91257 35.9395 6.90091 33.8213C7.15249 33.2796 7.41305 32.7467 7.68709 32.2183C9.13365 29.363 10.8183 26.6853 12.7051 24.2829C12.9387 23.9898 13.1724 23.7012 13.4105 23.417C15.0098 21.4853 16.7438 19.7535 18.5857 18.2881C18.9047 18.0305 19.2282 17.7863 19.5561 17.5465C19.8346 17.3422 20.1177 17.1424 20.4052 16.9515C23.9452 14.558 27.8357 13.1592 31.9193 13.1592C36.0029 13.1592 39.799 14.5269 43.3121 16.8671C43.685 17.1158 44.0534 17.3733 44.4173 17.6442C44.7632 17.8973 45.1046 18.1593 45.4415 18.4346C46.9914 19.6869 48.465 21.1256 49.8396 22.7154C50.0688 22.9729 50.2889 23.2349 50.509 23.5014C52.315 25.695 53.9547 28.1418 55.3878 30.7573C55.6663 31.2547 55.9314 31.7609 56.192 32.2716C57.1803 34.2254 58.0608 36.2592 58.811 38.3374C58.9144 38.6172 59.0132 38.8969 59.1075 39.1767C59.2872 39.6963 59.458 40.2202 59.6197 40.7442C59.6511 40.8419 59.6781 40.9352 59.705 41.0284C59.705 41.0284 59.7065 41.0314 59.7095 41.0373C60.1363 42.445 60.5092 43.8615 60.8147 45.2825C60.8192 45.2959 60.8192 45.3092 60.8237 45.3269C61.2819 47.4629 61.6009 49.6032 61.7626 51.7081C61.812 52.3609 61.8479 53.0092 61.8614 53.6531C61.8749 53.9639 61.8794 54.2748 61.8794 54.5812C61.8839 54.6655 61.8839 54.7499 61.8839 54.8343Z" fill="url(#paint3_radial_1097_2534)"/>
<path d="M61.8839 54.8343C61.8839 55.2384 61.8794 55.6425 61.8614 56.0421C61.8524 56.4151 61.839 56.7837 61.812 57.1523C61.7671 57.9338 61.6997 58.7065 61.6009 59.4703C61.5335 60.0742 61.4436 60.6737 61.3403 61.2643C61.1291 62.4988 60.8596 63.7066 60.5317 64.8923C60.4059 65.363 60.2666 65.8292 60.1139 66.2866C59.7455 67.4501 59.3187 68.5869 58.8425 69.6881C58.5819 70.2832 58.3079 70.8693 58.0159 71.4422C57.1533 73.1651 56.1605 74.7948 55.0509 76.3135C54.7678 76.7043 54.4713 77.0862 54.1748 77.4636C52.1038 80.0436 49.6914 82.2639 47.0094 84.0268C46.5332 84.3421 46.0525 84.6396 45.5628 84.9194C45.0058 85.2391 44.4442 85.5411 43.8692 85.8253C40.2079 87.6237 36.1691 88.6184 31.9193 88.6184C27.1933 88.6184 22.7233 87.3839 18.7475 85.1858C18.1365 84.8484 17.5435 84.4931 16.9595 84.1112C16.3979 83.7471 15.8499 83.3607 15.3108 82.9567C13.0556 81.2648 11.016 79.231 9.25046 76.9308C8.97193 76.5666 8.69789 76.1981 8.43283 75.8206C7.28277 74.1865 6.26748 72.428 5.40044 70.5718C5.11741 69.9723 4.85236 69.3595 4.60528 68.7378C4.11111 67.5033 3.67534 66.2244 3.31595 64.9145C3.18566 64.4526 3.06886 63.9908 2.96104 63.5201C2.75439 62.6542 2.57919 61.7794 2.43992 60.8868C2.40847 60.6959 2.37703 60.5049 2.35456 60.314C2.18834 59.2394 2.08052 58.147 2.01763 57.0368C1.99068 56.5217 1.97271 56.0022 1.96372 55.4782V55.4471C1.95923 55.3805 1.95923 55.3094 1.95923 55.2384C1.95923 55.1052 1.95923 54.9675 1.95923 54.8343C1.95923 54.0394 1.98169 53.2357 2.0356 52.423C2.1524 50.3937 2.42195 48.3244 2.83076 46.255C3.08234 44.9539 3.39232 43.6484 3.75171 42.3517C3.9359 41.6901 4.13357 41.0284 4.34022 40.3712C5.05003 38.1376 5.91257 35.9395 6.90091 33.8213C7.15249 33.2796 7.41305 32.7467 7.68709 32.2183C9.13365 29.363 10.8183 26.6853 12.7051 24.2829C12.9387 23.9898 13.1724 23.7012 13.4105 23.417C15.0098 21.4853 16.7438 19.7535 18.5857 18.2881C18.9047 18.0305 19.2282 17.7863 19.5561 17.5465C19.8346 17.3422 20.1177 17.1424 20.4052 16.9515C23.9452 14.558 27.8357 13.1592 31.9193 13.1592C36.0029 13.1592 39.799 14.5269 43.3121 16.8671C43.685 17.1158 44.0534 17.3733 44.4173 17.6442C44.7632 17.8973 45.1046 18.1593 45.4415 18.4346C46.9914 19.6869 48.465 21.1256 49.8396 22.7154C50.0688 22.9729 50.2889 23.2349 50.509 23.5014C52.315 25.695 53.9547 28.1418 55.3878 30.7573C55.6663 31.2547 55.9314 31.7609 56.192 32.2716C57.1803 34.2254 58.0608 36.2592 58.811 38.3374C58.9144 38.6172 59.0132 38.8969 59.1075 39.1767C59.2872 39.6963 59.458 40.2202 59.6197 40.7442C59.6511 40.8419 59.6781 40.9352 59.705 41.0284C59.705 41.0284 59.7065 41.0314 59.7095 41.0373C60.1363 42.445 60.5092 43.8615 60.8147 45.2825C60.8192 45.2959 60.8192 45.3092 60.8237 45.3269C61.2819 47.4629 61.6009 49.6032 61.7626 51.7081C61.812 52.3609 61.8479 53.0092 61.8614 53.6531C61.8749 53.9639 61.8794 54.2748 61.8794 54.5812C61.8839 54.6655 61.8839 54.7499 61.8839 54.8343Z" fill="url(#paint4_radial_1097_2534)"/>
<path d="M61.8839 54.8343C61.8839 55.2384 61.8794 55.6425 61.8614 56.0421C61.8524 56.4151 61.839 56.7837 61.812 57.1523C61.7671 57.9338 61.6997 58.7065 61.6009 59.4703C61.5335 60.0742 61.4436 60.6737 61.3403 61.2643C61.1291 62.4988 60.8596 63.7066 60.5317 64.8923C60.4059 65.363 60.2666 65.8292 60.1139 66.2866C59.7455 67.4501 59.3187 68.5869 58.8425 69.6881C58.6858 70.0458 58.5243 70.4004 58.357 70.7507C58.2459 70.9831 58.1323 71.2137 58.0159 71.4422C57.1533 73.1651 56.1605 74.7948 55.0509 76.3135C54.7678 76.7043 54.4713 77.0862 54.1748 77.4636C52.1038 80.0436 49.6914 82.2639 47.0094 84.0268C46.5332 84.3421 46.0525 84.6397 45.5628 84.9194C45.0058 85.2391 44.4442 85.5411 43.8692 85.8253C40.2079 87.6237 36.1691 88.6184 31.9193 88.6184C31.8556 88.6184 31.7919 88.6182 31.7283 88.6178C27.0728 88.585 22.6697 87.3543 18.7475 85.1858C18.1365 84.8484 17.5435 84.4931 16.9595 84.1112C16.3979 83.7471 15.8499 83.3607 15.3108 82.9566C13.0556 81.2648 11.016 79.231 9.25046 76.9308C8.97193 76.5666 8.69789 76.1981 8.43283 75.8206C7.28277 74.1865 6.26748 72.428 5.40044 70.5718C5.31083 70.382 5.22303 70.1909 5.13703 69.9986C4.95139 69.5834 4.77413 69.1627 4.60528 68.7378C4.11111 67.5033 3.67534 66.2244 3.31595 64.9145C3.18566 64.4526 3.06886 63.9908 2.96104 63.5201C2.75439 62.6542 2.57919 61.7794 2.43992 60.8868C2.40847 60.6959 2.37703 60.5049 2.35456 60.314C2.18834 59.2394 2.08052 58.147 2.01763 57.0368C1.99068 56.5217 1.97271 56.0022 1.96372 55.4782V55.4471C1.95923 55.3805 1.95923 55.3094 1.95923 55.2384C1.95923 55.1052 1.95923 54.9675 1.95923 54.8343C1.95923 54.0394 1.98169 53.2357 2.0356 52.423C2.1524 50.3937 2.42195 48.3244 2.83076 46.255C2.85735 46.1175 2.88458 45.98 2.91246 45.8424C3.1484 44.6781 3.43029 43.5114 3.75171 42.3517C3.9359 41.6901 4.13357 41.0284 4.34022 40.3712C5.05003 38.1376 5.91257 35.9395 6.90091 33.8213C7.15249 33.2796 7.41305 32.7467 7.68709 32.2183C9.13365 29.363 10.8183 26.6853 12.7051 24.2829C12.9387 23.9898 13.1724 23.7012 13.4105 23.417C15.0098 21.4853 16.7438 19.7535 18.5857 18.2881C18.9047 18.0305 19.2282 17.7863 19.5561 17.5465C19.8346 17.3422 20.1177 17.1424 20.4052 16.9515C23.9452 14.558 27.8357 13.1592 31.9193 13.1592C36.0029 13.1592 39.799 14.5269 43.3121 16.8671C43.685 17.1158 44.0534 17.3733 44.4173 17.6442C44.7632 17.8973 45.1046 18.1593 45.4415 18.4346C46.9914 19.6869 48.465 21.1256 49.8396 22.7154C50.0688 22.9729 50.2889 23.2349 50.509 23.5014C52.315 25.695 53.9547 28.1418 55.3878 30.7573C55.6663 31.2547 55.9314 31.7609 56.192 32.2716C57.1803 34.2254 58.0608 36.2592 58.811 38.3374C58.9144 38.6172 59.0132 38.8969 59.1075 39.1767C59.2872 39.6963 59.458 40.2202 59.6197 40.7442C59.6511 40.8419 59.6781 40.9352 59.705 41.0284C60.1318 42.4361 60.5092 43.8615 60.8147 45.2825C60.8192 45.2959 60.8192 45.3092 60.8237 45.3269C61.2819 47.4629 61.6009 49.6032 61.7626 51.7081C61.812 52.3609 61.8479 53.0092 61.8614 53.6531C61.8749 53.9639 61.8794 54.2748 61.8794 54.5812C61.8839 54.6655 61.8839 54.7499 61.8839 54.8343Z" fill="url(#paint5_radial_1097_2534)"/>
<path d="M61.8839 54.8343C61.8839 55.2384 61.8794 55.6425 61.8614 56.0421C61.8524 56.4151 61.839 56.7837 61.812 57.1523C61.7671 57.9338 61.6997 58.7065 61.6009 59.4703C61.5335 60.0742 61.4436 60.6737 61.3403 61.2643C61.1291 62.4988 60.8596 63.7066 60.5317 64.8923C60.4059 65.363 60.2666 65.8292 60.1139 66.2866C59.7455 67.4501 59.3187 68.5869 58.8425 69.6881C58.6858 70.0458 58.5243 70.4004 58.357 70.7507C58.2459 70.9831 58.1323 71.2137 58.0159 71.4422C57.1533 73.1651 56.1605 74.7948 55.0509 76.3135C54.7678 76.7043 54.4713 77.0862 54.1748 77.4636C52.1038 80.0436 49.6914 82.2639 47.0094 84.0268C46.5332 84.3421 46.0525 84.6397 45.5628 84.9194C45.0058 85.2391 44.4442 85.5411 43.8692 85.8253C40.2079 87.6237 36.1691 88.6184 31.9193 88.6184C31.8556 88.6184 31.7919 88.6182 31.7283 88.6178C27.0728 88.585 22.6697 87.3543 18.7475 85.1858C18.1365 84.8484 17.5435 84.4931 16.9595 84.1112C16.3979 83.7471 15.8499 83.3607 15.3108 82.9566C13.0556 81.2648 11.016 79.231 9.25046 76.9308C8.97193 76.5666 8.69789 76.1981 8.43283 75.8206C7.28277 74.1865 6.26748 72.428 5.40044 70.5718C5.31083 70.382 5.22303 70.1909 5.13703 69.9986C4.95139 69.5834 4.77413 69.1627 4.60528 68.7378C4.11111 67.5033 3.67534 66.2244 3.31595 64.9145C3.18566 64.4526 3.06886 63.9908 2.96104 63.5201C2.75439 62.6542 2.57919 61.7794 2.43992 60.8868C2.40847 60.6959 2.37703 60.5049 2.35456 60.314C2.18834 59.2394 2.08052 58.147 2.01763 57.0368C1.99068 56.5217 1.97271 56.0022 1.96372 55.4782V55.4471C1.95923 55.3805 1.95923 55.3094 1.95923 55.2384C1.95923 55.1052 1.95923 54.9675 1.95923 54.8343C1.95923 54.0394 1.98169 53.2357 2.0356 52.423C2.1524 50.3937 2.42195 48.3244 2.83076 46.255C2.85735 46.1175 2.88458 45.98 2.91246 45.8424C3.1484 44.6781 3.43029 43.5114 3.75171 42.3517C3.9359 41.6901 4.13357 41.0284 4.34022 40.3712C5.05003 38.1376 5.91257 35.9395 6.90091 33.8213C7.15249 33.2796 7.41305 32.7467 7.68709 32.2183C9.13365 29.363 10.8183 26.6853 12.7051 24.2829C12.9387 23.9898 13.1724 23.7012 13.4105 23.417C15.0098 21.4853 16.7438 19.7535 18.5857 18.2881C18.9047 18.0305 19.2282 17.7863 19.5561 17.5465C19.8346 17.3422 20.1177 17.1424 20.4052 16.9515C23.9452 14.558 27.8357 13.1592 31.9193 13.1592C36.0029 13.1592 39.799 14.5269 43.3121 16.8671C43.685 17.1158 44.0534 17.3733 44.4173 17.6442C44.7632 17.8973 45.1046 18.1593 45.4415 18.4346C46.9914 19.6869 48.465 21.1256 49.8396 22.7154C50.0688 22.9729 50.2889 23.2349 50.509 23.5014C52.315 25.695 53.9547 28.1418 55.3878 30.7573C55.6663 31.2547 55.9314 31.7609 56.192 32.2716C57.1803 34.2254 58.0608 36.2592 58.811 38.3374C58.9144 38.6172 59.0132 38.8969 59.1075 39.1767C59.2872 39.6963 59.458 40.2202 59.6197 40.7442C59.6511 40.8419 59.6781 40.9352 59.705 41.0284C60.1318 42.4361 60.5092 43.8615 60.8147 45.2825C60.8192 45.2959 60.8192 45.3092 60.8237 45.3269C61.2819 47.4629 61.6009 49.6032 61.7626 51.7081C61.812 52.3609 61.8479 53.0092 61.8614 53.6531C61.8749 53.9639 61.8794 54.2748 61.8794 54.5812C61.8839 54.6655 61.8839 54.7499 61.8839 54.8343Z" fill="url(#paint6_radial_1097_2534)"/>
<path opacity="0.9" d="M58.7969 69.7896C58.6543 70.1126 58.5088 70.4335 58.3574 70.7505L48.0986 65.5884L30.9268 72.5278L10.7959 65.5884L5.1377 69.9985C4.96506 69.6125 4.8007 69.2212 4.64258 68.8267L9.89648 64.3364L30.8838 71.1274L48.7871 64.3364L58.7969 69.7896Z" fill="#1C0D19"/>
</g>
<path d="M46.4499 17.398C47.6128 15.6399 48.4561 12.73 48.0758 7.93516C47.9545 6.39751 47.5687 4.74413 43.8982 3.38836C40.2277 2.0381 37.8468 2.16486 37.5603 3.63086C36.9154 6.92109 38.5909 13.8873 40.8836 18.1255C41.6551 19.5529 43.5069 20.0489 44.8241 19.1065C45.3752 18.7152 45.9429 18.1641 46.4499 17.3925V17.398Z" fill="#FEFEF4"/>
<defs>
<filter id="filter0_f_1097_2534" x="12.3349" y="63.2343" width="39.1859" height="11.4982" filterUnits="userSpaceOnUse" color-interpolation-filters="sRGB">
<feFlood flood-opacity="0" result="BackgroundImageFix"/>
<feBlend mode="normal" in="SourceGraphic" in2="BackgroundImageFix" result="shape"/>
<feGaussianBlur stdDeviation="0.826691" result="effect1_foregroundBlur_1097_2534"/>
</filter>
<linearGradient id="paint0_linear_1097_2534" x1="31.9803" y1="74.854" x2="31.9803" y2="64.5572" gradientUnits="userSpaceOnUse">
<stop stop-color="white"/>
<stop offset="1" stop-color="#876F8D"/>
</linearGradient>
<linearGradient id="paint1_linear_1097_2534" x1="41.495" y1="28.4977" x2="41.495" y2="4.35278" gradientUnits="userSpaceOnUse">
<stop stop-color="#876F8D"/>
<stop offset="1" stop-color="white"/>
</linearGradient>
<linearGradient id="paint2_linear_1097_2534" x1="22.7135" y1="26.1998" x2="22.7135" y2="2.05493" gradientUnits="userSpaceOnUse">
<stop stop-color="#876F8D"/>
<stop offset="1" stop-color="white"/>
</linearGradient>
<radialGradient id="paint3_radial_1097_2534" cx="0" cy="0" r="1" gradientTransform="matrix(15.4271 52.461 -41.661 11.9719 27.8768 45.4898)" gradientUnits="userSpaceOnUse">
<stop stop-color="#11151C" stop-opacity="0"/>
<stop offset="1" stop-color="#11151C" stop-opacity="0.5"/>
</radialGradient>
<radialGradient id="paint4_radial_1097_2534" cx="0" cy="0" r="1" gradientTransform="matrix(12.3417 46.3609 -36.8167 9.57754 30.3451 48.5398)" gradientUnits="userSpaceOnUse">
<stop offset="0.609498" stop-color="#11151C" stop-opacity="0"/>
<stop offset="1" stop-color="#11151C"/>
</radialGradient>
<radialGradient id="paint5_radial_1097_2534" cx="0" cy="0" r="1" gradientTransform="matrix(15.4271 52.461 -41.661 11.9719 27.8768 45.4898)" gradientUnits="userSpaceOnUse">
<stop stop-color="#11151C" stop-opacity="0"/>
<stop offset="1" stop-color="#11151C" stop-opacity="0.5"/>
</radialGradient>
<radialGradient id="paint6_radial_1097_2534" cx="0" cy="0" r="1" gradientTransform="matrix(12.3417 46.3609 -36.8167 9.57754 30.3451 48.5398)" gradientUnits="userSpaceOnUse">
<stop offset="0.609498" stop-color="#11151C" stop-opacity="0"/>
<stop offset="1" stop-color="#11151C"/>
</radialGradient>
</defs>
</svg>
