<svg width="56" height="72" viewBox="0 0 56 72" fill="none" xmlns="http://www.w3.org/2000/svg">
<path d="M51.8277 39.1566C51.8277 41.3041 51.6129 43.397 51.2053 45.4025C51.0196 46.3343 50.7903 47.2442 50.521 48.136C49.8331 50.429 48.8904 52.5874 47.7293 54.5638C43.3725 61.9744 35.9619 66.8517 27.5504 66.8517C19.1389 66.8517 11.7319 61.9744 7.3751 54.5638C6.29773 52.7293 5.40598 50.7384 4.73262 48.631C4.59795 48.216 4.4742 47.7938 4.35772 47.368C3.65161 44.7728 3.27307 42.0139 3.27307 39.1566C3.27307 34.6105 4.23397 29.7478 5.93739 25.1617C6.29409 24.1971 6.68718 23.2435 7.10575 22.3081C7.43333 21.5838 7.77911 20.8704 8.14309 20.1679C9.01664 18.4754 9.99209 16.8594 11.0622 15.3561C12.1796 13.7765 13.4026 12.3242 14.702 11.0394C18.3818 7.38503 22.7204 5.05921 27.372 5.00461C27.4303 5.00097 27.4921 5.00098 27.5504 5.00098C33.6288 5.00098 39.1831 8.87734 43.4416 14.5372C44.5481 16.0077 45.5673 17.5982 46.4845 19.2762C47.1651 20.5173 47.7912 21.8095 48.3553 23.1307C48.723 23.9897 49.0651 24.8632 49.3745 25.7441C50.9468 30.1591 51.8277 34.8035 51.8277 39.1566Z" fill="#41AD9F"/>
<path d="M46.6737 56.2275C46.5573 56.3949 46.4408 56.5587 46.3243 56.7225C46.1205 57.0027 45.913 57.2794 45.6983 57.5523C44.468 59.1356 43.0777 60.5552 41.5562 61.7818C40.9302 62.2877 40.275 62.7645 39.6053 63.2013C39.6053 63.2049 39.598 63.2085 39.598 63.2085C36.0492 65.5271 31.9363 66.852 27.5504 66.852C24.7113 66.852 21.9924 66.2987 19.4628 65.2759H19.4592C18.9933 65.0903 18.5346 64.8865 18.0833 64.6681C15.6592 63.4961 13.439 61.891 11.4953 59.9291C11.2515 59.6889 11.0112 59.4377 10.7856 59.183C8.68542 56.9008 6.95288 54.2001 5.67896 51.1937C5.60981 51.0299 5.54429 50.8697 5.47877 50.7059C5.04564 49.6322 4.67074 48.5184 4.35772 47.3719C4.25945 47.0043 4.16482 46.6294 4.07746 46.2508C3.55334 43.9905 3.27307 41.6138 3.27307 39.1606C3.27307 37.9813 3.33859 36.7801 3.46234 35.5717C3.48782 35.3206 3.51693 35.0731 3.54969 34.8219C3.67708 33.77 3.8518 32.7182 4.06655 31.6663C6.1303 40.2197 11.4043 51.3684 24.8679 54.9244C35.405 57.7089 42.3024 57.3849 46.6737 56.2275Z" fill="#47A08F"/>
<path d="M33.476 12.9362C33.476 12.9362 41.2687 30.2907 43.2087 37.0279C45.1487 43.7651 44.1041 30.7056 40.417 23.3678C36.7299 16.0337 33.5087 10.6141 33.476 12.9326V12.9362Z" fill="#7DCCBD"/>
<path d="M33.6727 20.0045C33.3779 19.2875 32.5116 19.1638 32.2568 19.1419C32.9083 18.1665 32.8137 17.3257 32.0493 16.8707C31.5434 16.5686 30.9792 16.7433 30.6407 16.9035C30.7172 16.0554 30.3532 15.4876 29.6216 15.3347C29.2795 15.2619 28.9737 15.3565 28.7226 15.4985C28.5879 15.3165 28.4023 15.1564 28.1511 15.0654C27.4559 14.8215 26.8517 15.0981 26.4805 15.8443C26.233 15.5822 25.7198 15.16 25.0901 15.291C24.3585 15.4439 23.9945 16.0117 24.0709 16.8598C23.7361 16.6996 23.1719 16.5286 22.6624 16.827C21.898 17.2783 21.8034 18.1191 22.4549 19.0982C22.2001 19.1201 21.3375 19.2438 21.039 19.9609C20.7187 20.7398 21.0863 21.4386 22.0727 21.839C21.8798 21.97 21.1628 22.5233 21.2756 23.3095C21.3921 24.1393 22.0581 24.547 23.0991 24.4014C22.9681 24.6744 22.6805 25.4205 23.11 26.0138C23.6233 26.7236 24.4531 26.749 25.3485 26.0429C25.3958 26.345 25.5887 27.1167 26.2766 27.3605C26.8845 27.5753 27.4195 27.386 27.7944 26.84C27.9764 26.9747 28.1985 27.0766 28.4642 27.0875C29.0174 27.113 29.4396 26.8692 29.6726 26.396C30.3823 26.76 31.0156 26.6399 31.4378 26.0575C31.8673 25.4642 31.5798 24.718 31.4488 24.4451C32.4897 24.5907 33.1558 24.183 33.2723 23.3531C33.3742 22.6288 32.7736 22.1047 32.5298 21.9227C33.5926 21.5296 33.9966 20.8126 33.6654 20.0082L33.6727 20.0045ZM22.171 21.8717C22.171 21.8717 22.171 21.8936 22.1746 21.9081L22.1528 21.8681C22.1528 21.8681 22.1637 21.8681 22.1673 21.8717H22.171Z" fill="#2F9181"/>
<path d="M27.9764 18.9054C27.3395 18.6433 25.6724 18.7452 24.8753 19.7462C24.0782 20.7471 23.3757 20.587 23.3757 20.587C23.3757 20.587 22.211 23.2112 25.3776 24.4233C27.0592 25.0675 28.9701 24.5216 29.7453 23.2112C30.1421 22.5379 30.7608 20.0446 27.9801 18.9054H27.9764Z" fill="#FAF7C9"/>
<path d="M29.1266 19.5638C29.1266 19.5638 28.8208 15.287 30.7608 14.4681C32.7008 13.6491 30.4915 19.0396 29.6725 20.1534C28.8536 21.2672 29.1266 19.5638 29.1266 19.5638Z" fill="#FAF7C9"/>
<path d="M23.2882 20.4486C23.2882 20.4486 23.0917 20.8016 23.321 20.8853C23.5503 20.969 23.8852 20.5177 23.8852 20.5177C23.8852 20.5177 23.6631 20.201 23.2882 20.4486Z" fill="#AD7069"/>
<path d="M23.6595 21.6533C23.6595 21.6533 23.3756 22.2211 23.7068 22.4067C24.0417 22.5924 24.2091 22.4177 24.2091 22.4177C24.2091 22.4177 24.2783 22.9272 24.6641 22.9673C25.0499 23.0073 25.1773 22.5596 25.1773 22.5596C25.1773 22.5596 24.6823 22.909 24.4748 22.5596C24.2674 22.2102 24.3511 22.101 24.3511 22.101C24.3511 22.101 24.0672 22.374 23.8743 22.2502C23.685 22.1265 23.6559 21.6497 23.6559 21.6497L23.6595 21.6533Z" fill="#AD7069"/>
<path d="M29.6361 19.2835C29.6361 19.2835 30.728 15.4763 30.5606 15.1887C30.3932 14.9012 29.1047 17.1287 29.6361 19.2835Z" fill="#AD7069"/>
<path d="M25.9525 20.5719C25.8179 20.8959 25.5922 21.1106 25.4466 21.0524C25.301 20.9941 25.2974 20.6811 25.432 20.3572C25.5667 20.0332 25.7924 19.8185 25.938 19.8767C26.0836 19.935 26.0872 20.248 25.9525 20.5719Z" fill="#AD7069"/>
<path d="M27.7071 19.1088C27.7071 19.1088 26.6297 14.9595 28.3914 13.802C30.1494 12.6446 28.9555 18.3481 28.3513 19.5929C27.7471 20.8377 27.7071 19.1088 27.7071 19.1088Z" fill="#FAF7C9"/>
<path d="M28.1546 18.7415C28.1546 18.7415 28.5404 14.7997 28.3221 14.5485C28.1073 14.2937 27.241 16.7215 28.1546 18.7415Z" fill="#AD7069"/>
<path d="M24.828 24.6959C24.828 24.6959 24.7697 23.9898 25.4322 23.9097C26.091 23.8296 26.4913 24.3028 26.4913 24.3028C26.4913 24.3028 26.8189 23.5894 27.3831 23.5348C27.9473 23.4766 28.2785 23.9679 28.2785 23.9679C28.2785 23.9679 28.5624 23.3383 29.0865 23.3783C29.6143 23.4147 29.8108 23.9461 29.8108 23.9461C29.8108 23.9461 27.4668 26.3265 24.828 24.6995V24.6959Z" fill="#E39F4D"/>
<path d="M49.3746 25.7443C48.9087 26.1701 48.3773 26.5742 47.7767 26.9491C44.3626 29.071 40.5663 28.5651 37.0831 25.5186C35.9984 28.1356 33.2795 32.4961 26.9062 32.4961H26.7789C20.7332 32.4415 18.4256 28.7871 17.5884 26.6106C17.5265 26.4468 17.4028 26.3849 17.3336 26.3631C17.2608 26.3376 17.148 26.323 17.0243 26.3995C15.4992 27.3349 13.6684 27.8517 11.5901 27.9282C8.98035 28.0228 7.16046 26.6943 5.9375 25.1619C6.2942 24.1974 6.68729 23.2438 7.10586 22.3083C7.89206 23.7461 9.24969 25.384 11.3426 25.384C11.3935 25.384 11.4445 25.384 11.4954 25.3803C13.1297 25.3221 14.5419 24.9326 15.6921 24.2265C16.431 23.7715 17.33 23.6696 18.1526 23.9499C18.9861 24.2301 19.6485 24.8671 19.9652 25.697C21.0426 28.485 23.3393 29.9155 26.8007 29.9482H26.9026C31.5397 29.9482 33.6981 27.0291 34.6917 24.5723C35.0011 23.8007 35.6708 23.2292 36.4752 23.0363C37.2796 22.8434 38.1349 23.0545 38.761 23.6005C40.5772 25.1911 43.3799 26.6834 46.43 24.787C47.2344 24.2847 47.8641 23.7242 48.3554 23.1309C48.7231 23.9899 49.0652 24.8635 49.3746 25.7443Z" fill="#FAEE91"/>
<path d="M51.2055 45.4023C51.0198 46.3341 50.7905 47.2441 50.5212 48.1358C50.1572 48.3869 49.7568 48.5616 49.3164 48.6162C47.5402 48.8383 46.0406 47.6917 44.4573 46.4761C42.5392 45.0092 40.5628 43.4878 37.7711 43.8918C35.3797 44.2376 34.1531 45.3878 32.8501 46.6107C31.5252 47.8483 30.1676 49.1258 27.6379 49.417C27.5578 49.4534 27.4668 49.4789 27.3686 49.4789C27.223 49.4789 27.0847 49.4716 26.9464 49.4679C26.8044 49.4716 26.6661 49.4789 26.5205 49.4789C26.4222 49.4789 26.3385 49.4534 26.2548 49.417C23.7252 49.1258 22.3639 47.8483 21.0426 46.6071C19.7432 45.3878 18.513 44.2376 16.1217 43.8918C13.3336 43.4878 11.3499 45.0092 9.4354 46.4761C7.89942 47.6553 6.44714 48.7691 4.73281 48.6308C4.59813 48.2159 4.47438 47.7937 4.35791 47.3678C4.4853 47.426 4.6127 47.4661 4.74009 47.4806C5.99217 47.6371 7.22241 46.6908 8.65285 45.5916C10.5783 44.1175 12.9696 42.2794 16.3073 42.7598C19.1026 43.1639 20.595 44.5652 21.9126 45.8027C23.2847 47.0875 24.4822 48.2086 26.9464 48.3214C29.4105 48.2086 30.6043 47.0875 31.9765 45.8027C33.2941 44.5652 34.7901 43.1639 37.5818 42.7598C40.9195 42.2794 43.3144 44.1175 45.2399 45.5916C46.6667 46.6908 47.9078 47.6371 49.1563 47.4806C49.9279 47.386 50.6449 46.4833 51.2055 45.4023Z" fill="#FAEE91"/>
<path d="M13.8449 30.8036C13.5592 28.8964 14.0106 28.681 15.1859 28.5049L17.638 28.1375L17.5379 27.4693L15.0857 27.8367C13.4759 28.0779 12.7205 28.6159 13.0649 30.915C13.4094 33.214 14.2894 33.507 15.8981 33.266L18.5001 32.8761L18.4015 32.2176L15.7994 32.6074C14.6242 32.7835 14.129 32.7066 13.8437 30.8027L13.8449 30.8036Z" fill="#A3E593"/>
<path d="M36.482 29.9374C36.9279 28.144 37.4066 28.1186 38.5117 28.3934L40.8177 28.9666L40.9739 28.3383L38.6679 27.765C37.1541 27.3887 36.288 27.5882 35.7505 29.7502C35.2131 31.9122 35.8849 32.4941 37.3977 32.8702L39.8446 33.4785L39.9986 32.8592L37.5517 32.2509C36.4465 31.9761 36.0362 31.7266 36.4813 29.9362L36.482 29.9374Z" fill="#A3E593"/>
<path d="M37.2031 12.9902C36.3623 14.053 32.5952 9.95463 32.3841 9.72896C32.4823 9.96555 33.6434 12.7973 32.3768 13.649C31.0592 14.5407 29.4249 9.35043 29.4249 9.35043C29.4249 9.35043 28.7952 11.5343 27.6414 11.8546C26.4876 11.5343 25.6942 9.35043 25.6942 9.35043C25.6942 9.35043 24.0599 14.5407 22.7423 13.649C21.4757 12.7973 22.6367 9.96555 22.735 9.72896C22.5239 9.95463 18.7567 14.053 17.9159 12.9902C17.0533 11.8983 19.8741 9.35043 19.8741 9.35043C17.5192 10.5807 15.783 10.9519 14.702 11.0393C16.7913 8.96461 19.0843 7.2612 21.5812 6.20203C23.4812 5.39036 25.5012 4.94994 27.6414 5.00454C29.6833 5.02274 31.6306 5.45587 33.476 6.2275C35.9802 7.26848 38.2987 8.9355 40.417 11.0393C39.336 10.9519 37.5999 10.5807 35.2449 9.35043C35.2449 9.35043 38.0657 11.8983 37.2031 12.9902Z" fill="#F1EA43"/>
<path d="M19.4337 20.0188C19.4337 20.0188 19.168 18.4246 17.7558 17.2598C16.3435 16.0951 17.4246 18.8577 18.309 19.6366C18.309 19.6366 16.3654 17.5692 15.2407 17.3763C14.116 17.1834 16.4928 19.6148 17.0351 19.7895C17.0351 19.7895 15.3644 19.9606 14.844 20.663C14.3235 21.3655 16.4455 21.2709 17.7813 20.2991C17.7813 20.2991 16.5692 21.3182 16.6092 21.846C16.6493 22.3737 18.3418 21.8933 19.4373 20.0188H19.4337Z" fill="#DF8F54"/>
<path d="M16.1726 19.6658C16.1726 19.6658 14.6403 20.0734 13.7012 19.4037C12.7621 18.734 14.9278 18.3736 16.1726 19.6658Z" fill="#F1EA43"/>
<path d="M35.0813 20.0188C35.0813 20.0188 35.347 18.4246 36.7592 17.2598C38.1714 16.0951 37.0904 18.8577 36.206 19.6366C36.206 19.6366 38.1496 17.5692 39.2743 17.3763C40.399 17.1834 38.0222 19.6148 37.4799 19.7895C37.4799 19.7895 39.1505 19.9606 39.671 20.663C40.1915 21.3655 38.0695 21.2709 36.7337 20.2991C36.7337 20.2991 37.9458 21.3182 37.9057 21.846C37.8657 22.3737 36.1732 21.8933 35.0776 20.0188H35.0813Z" fill="#DF8F54"/>
<path d="M38.3389 19.6658C38.3389 19.6658 39.8712 20.0734 40.8103 19.4037C41.7493 18.734 39.5837 18.3736 38.3389 19.6658Z" fill="#F1EA43"/>
<path d="M10.1813 18.5776C10.2068 18.6796 10.4689 19.7606 9.43883 20.4521C8.93654 20.7906 8.40513 20.6159 8.14307 20.1682C9.01661 18.4757 9.99207 16.8597 11.0622 15.3564C11.7683 15.7859 11.306 17.18 10.3087 17.7696C10.3087 17.7696 12.3361 17.4384 12.7729 18.6541C13.206 19.8698 11.0622 20.3211 10.1813 18.5776Z" fill="#A3E593"/>
<path d="M46.4847 19.2763C46.2117 19.6804 45.6985 19.8259 45.218 19.502C44.1916 18.8141 44.4537 17.7367 44.4792 17.6312C43.5947 19.3746 41.4545 18.9233 41.8877 17.7076C42.3208 16.4919 44.3481 16.8231 44.3481 16.8231C43.4418 16.2844 42.9723 15.0724 43.4418 14.5374C44.5483 16.0078 45.5675 17.5984 46.4847 19.2763Z" fill="#A3E593"/>
<path d="M47.7294 54.564C47.0197 55.7688 46.2298 56.908 45.3636 57.9708C44.2352 59.3649 42.9831 60.6242 41.6255 61.7271C41.3125 61.9819 40.9958 62.2257 40.6719 62.4587C39.6309 63.2267 38.5317 63.9073 37.3815 64.486C34.3787 66.0074 31.0483 66.8519 27.5505 66.8519C24.0527 66.8519 20.8169 66.0293 17.8432 64.5515C16.5802 63.9218 15.3754 63.1757 14.2362 62.3204C14.0542 62.1857 13.8722 62.0437 13.6939 61.8981H13.6902C12.2598 60.7625 10.9495 59.4631 9.7702 58.0109C8.89301 56.9371 8.08862 55.787 7.37158 54.564C8.05586 54.4038 10.5273 54.1272 14.6985 56.9262C14.6985 56.9262 13.5446 51.2263 14.6985 48.7986C14.6985 48.7986 21.4976 52.6203 23.372 60.4459C23.372 60.4459 24.5659 54.6841 27.5505 52.9225C30.5315 54.6841 31.7217 60.4459 31.7217 60.4459C33.5998 52.6203 40.3989 48.7986 40.3989 48.7986C41.5491 51.2263 40.3989 56.9262 40.3989 56.9262C44.581 54.1236 47.0451 54.4038 47.7294 54.564Z" fill="#F1EA43"/>
<path d="M33.4762 6.2279C33.0467 6.48269 32.2569 6.78115 31.0812 6.56276C29.1849 6.21334 29.0029 5.9258 29.0029 5.9258V5.98404C29.0029 6.2643 28.9228 7.49091 27.5507 7.78937H27.5434C25.9928 7.45087 26.0911 5.9258 26.0911 5.9258C26.0911 5.9258 25.9091 6.21334 24.0164 6.56276C22.8044 6.78479 22.0036 6.46449 21.5814 6.20243C22.7643 5.6965 23.991 5.33616 25.2649 5.15053C26.0401 5.03406 26.8336 4.9831 27.6416 5.00494C28.4388 5.01222 29.2249 5.08501 29.9966 5.21605C31.1941 5.41259 32.3552 5.75837 33.4762 6.2279Z" fill="#41AD9F"/>
<path d="M29.9964 5.21605C29.545 5.34344 28.8025 5.48539 27.6997 5.50723C26.3384 5.53999 25.6068 5.31068 25.2646 5.15053C26.0399 5.03406 26.8334 4.9831 27.6414 5.00494C28.4385 5.01222 29.2247 5.08501 29.9964 5.21605Z" fill="#F1EA43"/>
<path d="M20.5039 9.84945C20.5039 9.84945 20.5549 8.11328 22.0435 7.99316C22.0435 7.99316 22.6332 9.09237 20.5039 9.84945Z" fill="#41AD9F"/>
<path d="M34.2804 9.64559C34.2804 9.64559 34.2295 7.90942 32.7408 7.78931C32.7408 7.78931 32.1512 8.88488 34.2804 9.64559Z" fill="#41AD9F"/>
<path d="M18.531 58.4368C18.531 58.4368 14.8694 56.3258 16.3289 52.9954C16.3289 52.9954 19.5283 54.444 18.531 58.4368Z" fill="#41AD9F"/>
<path d="M27.03 36.7656C25.8908 36.7838 24.9881 38.0177 25.0136 39.5209C25.0391 41.0241 25.9818 42.2253 27.121 42.2071C28.2603 42.1889 29.1629 40.955 29.1375 39.4517C29.112 37.9485 28.1693 36.7474 27.03 36.7656ZM27.1465 41.3917C26.3348 41.4063 25.6615 40.5619 25.6433 39.51C25.6251 38.4581 26.2693 37.5918 27.081 37.5773C27.8927 37.5627 28.566 38.4071 28.5842 39.459C28.6024 40.5109 27.9582 41.3772 27.1465 41.3917Z" fill="#FAEE91"/>
<path d="M27.9507 39.3822C27.9617 39.9827 27.594 40.4777 27.1281 40.485C26.6623 40.4923 26.2801 40.0118 26.2692 39.4113C26.2582 38.8107 26.6259 38.3157 27.0917 38.3084C27.5576 38.3012 27.9398 38.7816 27.9507 39.3822Z" fill="#FAEE91"/>
<path d="M27.0882 34.1484C27.0882 34.1484 27.4667 33.2713 27.9545 33.7699C28.5805 34.4105 27.0773 35.9865 27.0773 35.9865C27.0773 35.9865 25.7124 34.4069 26.1382 33.8063C26.5677 33.2057 27.0882 34.1484 27.0882 34.1484Z" fill="#F1EA43"/>
<path d="M32.1037 40.0156C32.1037 40.0156 32.4823 39.1384 32.97 39.6371C33.596 40.2777 32.0928 41.8537 32.0928 41.8537C32.0928 41.8537 30.7279 40.2741 31.1537 39.6735C31.5832 39.0729 32.1037 40.0156 32.1037 40.0156Z" fill="#F1EA43"/>
<path d="M22.6659 40.311C22.6659 40.311 23.0444 39.4339 23.5321 39.9325C24.1582 40.5731 22.6549 42.1491 22.6549 42.1491C22.6549 42.1491 21.29 40.5695 21.7159 39.9689C22.1454 39.3683 22.6659 40.311 22.6659 40.311Z" fill="#F1EA43"/>
<path d="M30.5352 36.5472C30.5352 36.5472 30.7682 36.0013 31.0739 36.3107C31.4634 36.7074 30.528 37.6865 30.528 37.6865C30.528 37.6865 29.6799 36.7038 29.9456 36.3325C30.2113 35.9612 30.5352 36.5436 30.5352 36.5436V36.5472Z" fill="#DF8F54"/>
<path d="M23.9144 36.5326C23.9144 36.5326 24.1473 35.9866 24.4531 36.296C24.8425 36.6927 23.9071 37.6718 23.9071 37.6718C23.9071 37.6718 23.059 36.6891 23.3247 36.3179C23.5904 35.9466 23.9144 36.529 23.9144 36.529V36.5326Z" fill="#DF8F54"/>
<path d="M26.95 43.5905C26.95 43.5905 27.183 43.0445 27.4887 43.3575C27.8782 43.7543 26.9427 44.7334 26.9427 44.7334C26.9427 44.7334 26.0947 43.7506 26.3604 43.3794C26.6261 43.0081 26.95 43.5905 26.95 43.5905Z" fill="#DF8F54"/>
<path d="M8.06312 33.4681C7.01487 33.4536 6.14496 34.662 6.12676 36.1616C6.10492 37.6648 6.94207 38.8914 7.99033 38.906C9.03858 38.9205 9.90849 37.7121 9.92669 36.2125C9.94489 34.713 9.11138 33.4827 8.06312 33.4681ZM8.03764 38.0979C7.28785 38.087 6.69457 37.2244 6.70549 36.1725C6.71641 35.1206 7.33881 34.2725 8.0886 34.2835C8.83839 34.2944 9.43168 35.157 9.42076 36.2089C9.4062 37.2608 8.78744 38.1089 8.03764 38.0979Z" fill="#DF8F54"/>
<path d="M8.83838 36.1103C8.8311 36.7108 8.47804 37.1949 8.04855 37.1877C7.61905 37.1804 7.28056 36.689 7.28783 36.0884C7.29511 35.4879 7.64817 35.0038 8.07767 35.0111C8.50716 35.0183 8.84566 35.5097 8.83838 36.1103Z" fill="#DF8F54"/>
<path d="M11.71 35.6992C11.71 35.6992 12.0085 35.186 12.2706 35.5318C12.6091 35.9722 11.5644 36.8312 11.5644 36.8312C11.5644 36.8312 10.8401 35.7538 11.1495 35.4189C11.4589 35.0804 11.71 35.7028 11.71 35.7028V35.6992Z" fill="#FEEA62"/>
<path d="M7.86665 40.2671C7.86665 40.2671 8.16511 39.7539 8.42718 40.0997C8.76568 40.5401 7.72106 41.3991 7.72106 41.3991C7.72106 41.3991 6.99675 40.3217 7.30613 39.9868C7.61551 39.652 7.86665 40.2707 7.86665 40.2707V40.2671Z" fill="#FEEA62"/>
<path d="M8.78023 31.5064C8.78023 31.5064 9.07869 30.9931 9.34075 31.3389C9.67925 31.7793 8.63463 32.6383 8.63463 32.6383C8.63463 32.6383 7.91032 31.5609 8.2197 31.2261C8.52908 30.8912 8.78023 31.51 8.78023 31.51V31.5064Z" fill="#FEEA62"/>
<path d="M5.12593 35.0732C5.12593 35.0732 5.42439 34.56 5.68646 34.9058C6.02495 35.3462 4.98034 36.2052 4.98034 36.2052C4.98034 36.2052 4.25602 35.1278 4.5654 34.793C4.87478 34.4581 5.12593 35.0769 5.12593 35.0769V35.0732Z" fill="#FEEA62"/>
<path d="M44.9705 35.881C44.9923 37.3842 45.8586 38.589 46.9069 38.5744C47.9551 38.5599 48.7923 37.3296 48.7704 35.83C48.7486 34.3268 47.8823 33.122 46.8341 33.1366C45.7858 33.1512 44.9487 34.3814 44.9705 35.881ZM45.4801 35.8737C45.4655 34.8218 46.0624 33.9592 46.8122 33.9483C47.562 33.9374 48.1808 34.7854 48.1954 35.8373C48.2099 36.8892 47.613 37.7518 46.8632 37.7628C46.1134 37.7737 45.4946 36.9256 45.4801 35.8737Z" fill="#DF8F54"/>
<path d="M46.0588 35.7792C46.0661 36.3798 46.4192 36.8639 46.8487 36.8566C47.2782 36.8493 47.6167 36.3579 47.6094 35.7574C47.6021 35.1568 47.249 34.6727 46.8196 34.68C46.3901 34.6873 46.0516 35.1787 46.0588 35.7792Z" fill="#DF8F54"/>
<path d="M43.1869 35.3642C43.1869 35.3642 42.8884 34.851 42.6263 35.1968C42.2878 35.6372 43.3325 36.4962 43.3325 36.4962C43.3325 36.4962 44.0568 35.4188 43.7474 35.084C43.438 34.7455 43.1869 35.3679 43.1869 35.3679V35.3642Z" fill="#FEEA62"/>
<path d="M47.0306 39.9321C47.0306 39.9321 46.7322 39.4189 46.4701 39.7647C46.1316 40.2051 47.1762 41.0641 47.1762 41.0641C47.1762 41.0641 47.9005 39.9867 47.5911 39.6519C47.2818 39.317 47.0306 39.9358 47.0306 39.9358V39.9321Z" fill="#FEEA62"/>
<path d="M46.117 31.1709C46.117 31.1709 45.8186 30.6577 45.5565 31.0035C45.218 31.4439 46.2626 32.3029 46.2626 32.3029C46.2626 32.3029 46.9869 31.2255 46.6776 30.8906C46.3682 30.5558 46.117 31.1745 46.117 31.1745V31.1709Z" fill="#FEEA62"/>
<path d="M49.7713 34.7417C49.7713 34.7417 49.4729 34.2285 49.2108 34.5742C48.8723 35.0147 49.9169 35.8736 49.9169 35.8736C49.9169 35.8736 50.6413 34.7963 50.3319 34.4614C50.0225 34.1229 49.7713 34.7453 49.7713 34.7453V34.7417Z" fill="#FEEA62"/>
<path d="M17.0059 40.5946C17.0059 40.5946 15.4881 40.0414 14.6036 38.4362C13.7192 36.8311 16.2343 38.4071 16.8385 39.4153C16.8385 39.4153 15.1642 37.1223 15.1824 35.983C15.2006 34.8438 17.1515 37.6246 17.2243 38.1924C17.2243 38.1924 17.7011 36.5836 18.4873 36.1978C19.2735 35.8156 18.7894 37.8866 17.5883 39.0149C17.5883 39.0149 18.8112 38.0104 19.3244 38.1487C19.8376 38.287 19.0515 39.8594 17.0059 40.5946Z" fill="#A3E593"/>
<path d="M17.2573 37.326C17.2573 37.326 17.9416 35.8956 17.4539 34.8473C16.9698 33.8027 16.2127 35.8628 17.2573 37.326Z" fill="#F1EA43"/>
<path d="M37.549 40.3397C37.549 40.3397 39.0668 39.7865 39.9512 38.1814C40.8357 36.5799 38.3206 38.1522 37.7164 39.1605C37.7164 39.1605 39.3907 36.8674 39.3725 35.7281C39.3543 34.5889 37.4034 37.3697 37.3306 37.9375C37.3306 37.9375 36.8538 36.3287 36.0676 35.9429C35.2814 35.5607 35.7655 37.6317 36.9666 38.7601C36.9666 38.7601 35.7437 37.7555 35.2305 37.8938C34.7172 38.0321 35.5034 39.6045 37.549 40.3397Z" fill="#A3E593"/>
<path d="M37.2977 37.0711C37.2977 37.0711 36.6134 35.6407 37.1012 34.5924C37.5853 33.5478 38.3423 35.6079 37.2977 37.0711Z" fill="#F1EA43"/>
<path d="M27.3795 55.2302C25.7198 56.9118 27.3795 58.4369 27.3795 58.4369C27.3795 58.4369 29.0392 56.9118 27.3795 55.2302Z" fill="#DF8F54"/>
<path d="M27.3795 59.8997C24.6132 62.4985 27.3795 64.8498 27.3795 64.8498C27.3795 64.8498 30.1457 62.4985 27.3795 59.8997Z" fill="#DF8F54"/>
<path d="M20.9478 62.7827C20.9478 62.7827 18.1925 61.7418 18.8222 59.2849C18.8222 59.2849 21.1844 59.9219 20.9478 62.7827Z" fill="#41AD9F"/>
<path d="M13.6903 61.8983C12.2599 60.7627 10.9496 59.4633 9.77026 58.011C10.7785 58.1893 12.9441 58.9209 13.6903 61.8983Z" fill="#41AD9F"/>
<path d="M17.8433 64.5513C16.5803 63.9216 15.3756 63.1755 14.2363 62.3201C14.775 62.2874 16.8679 62.3128 17.8433 64.5513Z" fill="#41AD9F"/>
<path d="M36.4314 58.324C36.4314 58.324 40.093 56.213 38.6335 52.8826C38.6335 52.8826 35.4341 54.3312 36.4314 58.324Z" fill="#41AD9F"/>
<path d="M34.0147 62.6699C34.0147 62.6699 36.77 61.629 36.1403 59.1721C36.1403 59.1721 33.7781 59.8091 34.0147 62.6699Z" fill="#41AD9F"/>
<path d="M45.3634 57.9709C44.2351 59.365 42.983 60.6243 41.6254 61.7272C41.4871 61.7418 41.4106 61.7454 41.4106 61.7454C42.1495 58.6989 44.3552 58.0874 45.3634 57.9709Z" fill="#41AD9F"/>
<path d="M40.6717 62.4587C39.6307 63.2267 38.5315 63.9074 37.3813 64.4861C38.335 62.3677 40.1294 62.3968 40.6717 62.4587Z" fill="#41AD9F"/>
<path d="M10.5055 52.0821C10.5055 52.0821 9.68652 51.3723 10.1415 50.8664C10.5965 50.3568 11.2225 51.1212 11.1497 51.8455C11.1497 51.8455 11.6629 50.8445 12.3399 51.0484C13.0169 51.2522 12.5183 52.3478 11.4591 52.1658C11.4591 52.1658 12.0779 52.3878 12.0487 53.1012C12.0196 53.8146 10.8949 53.8219 10.7275 52.5734C10.7275 52.5734 10.5928 53.265 9.96315 53.1776C9.33347 53.0866 9.19515 52.2422 10.5055 52.0857V52.0821Z" fill="#A3E593"/>
<path d="M22.7677 52.6752C22.7677 52.6752 22.371 51.6669 23.008 51.4304C23.6486 51.1901 23.8488 52.1583 23.4447 52.7662C23.4447 52.7662 24.3656 52.1183 24.8679 52.6133C25.3738 53.1083 24.4238 53.8472 23.5685 53.1956C23.5685 53.1956 24.0125 53.6797 23.6558 54.2985C23.2991 54.9173 22.2982 54.4004 22.7313 53.2175C22.7313 53.2175 22.2909 53.7671 21.7741 53.3958C21.2572 53.0246 21.5302 52.2129 22.7605 52.6788L22.7677 52.6752Z" fill="#A3E593"/>
<path d="M31.1283 52.6752C31.1283 52.6752 30.7316 51.6669 31.3686 51.4304C32.0092 51.1901 32.2093 52.1583 31.8053 52.7662C31.8053 52.7662 32.7262 52.1183 33.2285 52.6133C33.7344 53.1083 32.7844 53.8472 31.9291 53.1956C31.9291 53.1956 32.3731 53.6797 32.0164 54.2985C31.6597 54.9173 30.6588 54.4004 31.0919 53.2175C31.0919 53.2175 30.6515 53.7671 30.1347 53.3958C29.6178 53.0246 29.8908 52.2129 31.1211 52.6788L31.1283 52.6752Z" fill="#A3E593"/>
<path d="M44.3917 52.0821C44.3917 52.0821 45.2106 51.3723 44.7556 50.8664C44.3007 50.3568 43.6746 51.1212 43.7474 51.8455C43.7474 51.8455 43.2342 50.8445 42.5572 51.0484C41.8802 51.2522 42.3789 52.3478 43.438 52.1658C43.438 52.1658 42.8193 52.3878 42.8484 53.1012C42.8775 53.8146 44.0022 53.8219 44.1696 52.5734C44.1696 52.5734 44.3043 53.265 44.934 53.1776C45.5637 53.0866 45.702 52.2422 44.3917 52.0857V52.0821Z" fill="#A3E593"/>
<path d="M51.8277 39.1593C51.8277 40.2039 51.7767 41.234 51.6784 42.2458C51.6457 42.5698 51.6093 42.8901 51.5693 43.2104C51.4091 44.4697 51.1725 45.7036 50.8668 46.9011C50.8267 47.0576 50.7867 47.2141 50.743 47.367C49.8586 50.6137 48.4682 53.6092 46.6738 56.2262C46.5573 56.3936 46.4408 56.5574 46.3243 56.7212C46.1205 57.0015 45.913 57.2781 45.6983 57.5511C44.4681 59.1344 43.0777 60.5539 41.5562 61.7805C40.9302 62.2864 40.275 62.7632 39.6053 63.2L39.598 63.2073C36.0493 65.5258 31.9363 66.8507 27.5504 66.8507C24.7114 66.8507 21.9924 66.2975 19.4628 65.2747H19.4592C18.9933 65.0891 18.5346 64.8852 18.0833 64.6668C15.6592 63.4948 13.439 61.8897 11.4953 59.9279C11.2515 59.6876 11.0112 59.4365 10.7856 59.1817C8.68542 56.8996 6.95288 54.1988 5.67896 51.1924C5.60981 51.0286 5.54429 50.8685 5.47878 50.7047C5.04564 49.6309 4.67075 48.5172 4.35772 47.3706C4.25945 47.003 4.16482 46.6281 4.07746 46.2496C3.55333 43.9893 3.27307 41.6125 3.27307 39.1593C3.27307 37.98 3.33859 36.7789 3.46234 35.5705C3.48782 35.3193 3.51694 35.0718 3.54969 34.8207C3.67709 33.7688 3.8518 32.7169 4.06654 31.665C4.17574 31.1263 4.29949 30.5876 4.43052 30.0489C4.52879 29.6558 4.63071 29.2664 4.73626 28.8733C4.75446 28.8114 4.76902 28.7532 4.78722 28.6913C5.08204 27.643 5.41326 26.6021 5.78816 25.572C6.3232 24.0724 6.94197 22.602 7.62988 21.1788C7.70632 21.0296 7.77911 20.8803 7.85191 20.7311C8.38696 19.661 8.96204 18.6164 9.57716 17.6118C9.75187 17.3206 9.93022 17.0367 10.1122 16.7528C11.9539 13.8993 14.105 11.3805 16.4818 9.41141C19.8013 6.66702 23.5648 5 27.5504 5C31.8781 5 35.9401 6.96548 39.4561 10.143C40.7154 11.2786 41.902 12.5671 43.0085 13.9793C43.2232 14.2523 43.4344 14.5326 43.6455 14.8165C44.3916 15.8283 45.0977 16.8984 45.7602 18.0122C45.8512 18.1651 45.9385 18.3143 46.0295 18.4672C47.4053 20.8585 48.5774 23.4391 49.4982 26.0961C49.6183 26.4346 49.7312 26.7731 49.8367 27.1153C50.248 28.3928 50.5974 29.6813 50.885 30.9771C50.9214 31.1409 50.9578 31.3083 50.9905 31.4721C51.5365 34.0636 51.8277 36.6624 51.8277 39.1593Z" fill="url(#paint0_radial_1097_1446)"/>
<path d="M51.8277 39.1593C51.8277 40.2039 51.7767 41.234 51.6784 42.2458C51.6457 42.5698 51.6093 42.8901 51.5693 43.2104C51.4091 44.4697 51.1725 45.7036 50.8668 46.9011C50.8267 47.0576 50.7867 47.2141 50.743 47.367C49.8586 50.6137 48.4682 53.6092 46.6738 56.2262C46.5573 56.3936 46.4408 56.5574 46.3243 56.7212C46.1205 57.0015 45.913 57.2781 45.6983 57.5511C44.4681 59.1344 43.0777 60.5539 41.5562 61.7805C40.9302 62.2864 40.275 62.7632 39.6053 63.2L39.598 63.2073C36.0493 65.5258 31.9363 66.8507 27.5504 66.8507C24.7114 66.8507 21.9924 66.2975 19.4628 65.2747H19.4592C18.9933 65.0891 18.5346 64.8852 18.0833 64.6668C15.6592 63.4948 13.439 61.8897 11.4953 59.9279C11.2515 59.6876 11.0112 59.4365 10.7856 59.1817C8.68542 56.8996 6.95288 54.1988 5.67896 51.1924C5.60981 51.0286 5.54429 50.8685 5.47878 50.7047C5.04564 49.6309 4.67075 48.5172 4.35772 47.3706C4.25945 47.003 4.16482 46.6281 4.07746 46.2496C3.55333 43.9893 3.27307 41.6125 3.27307 39.1593C3.27307 37.98 3.33859 36.7789 3.46234 35.5705C3.48782 35.3193 3.51694 35.0718 3.54969 34.8207C3.67709 33.7688 3.8518 32.7169 4.06654 31.665C4.17574 31.1263 4.29949 30.5876 4.43052 30.0489C4.52879 29.6558 4.63071 29.2664 4.73626 28.8733C4.75446 28.8114 4.76902 28.7532 4.78722 28.6913C5.08204 27.643 5.41326 26.6021 5.78816 25.572C6.3232 24.0724 6.94197 22.602 7.62988 21.1788C7.70632 21.0296 7.77911 20.8803 7.85191 20.7311C8.38696 19.661 8.96204 18.6164 9.57716 17.6118C9.75187 17.3206 9.93022 17.0367 10.1122 16.7528C11.9539 13.8993 14.105 11.3805 16.4818 9.41141C19.8013 6.66702 23.5648 5 27.5504 5C31.8781 5 35.9401 6.96548 39.4561 10.143C40.7154 11.2786 41.902 12.5671 43.0085 13.9793C43.2232 14.2523 43.4344 14.5326 43.6455 14.8165C44.3916 15.8283 45.0977 16.8984 45.7602 18.0122C45.8512 18.1651 45.9385 18.3143 46.0295 18.4672C47.4053 20.8585 48.5774 23.4391 49.4982 26.0961C49.6183 26.4346 49.7312 26.7731 49.8367 27.1153C50.248 28.3928 50.5974 29.6813 50.885 30.9771C50.9214 31.1409 50.9578 31.3083 50.9905 31.4721C51.5365 34.0636 51.8277 36.6624 51.8277 39.1593Z" fill="url(#paint1_radial_1097_1446)"/>
<defs>
<radialGradient id="paint0_radial_1097_1446" cx="0" cy="0" r="1" gradientUnits="userSpaceOnUse" gradientTransform="translate(24.2731 31.5) rotate(73.791) scale(44.78 35.1536)">
<stop stop-color="#11151C" stop-opacity="0"/>
<stop offset="1" stop-color="#11151C" stop-opacity="0.5"/>
</radialGradient>
<radialGradient id="paint1_radial_1097_1446" cx="0" cy="0" r="1" gradientUnits="userSpaceOnUse" gradientTransform="translate(26.2731 34) rotate(75.2564) scale(39.2938 30.8468)">
<stop offset="0.609498" stop-color="#11151C" stop-opacity="0"/>
<stop offset="1" stop-color="#11151C"/>
</radialGradient>
</defs>
</svg>
