<svg width="56" height="72" viewBox="0 0 56 72" fill="none" xmlns="http://www.w3.org/2000/svg">
<path d="M52.1093 39.2284C52.1093 43.2249 51.3668 47.0211 50.031 50.4498C49.8235 50.9812 49.6051 51.5053 49.3685 52.0149C49.2557 52.2661 49.1392 52.5099 49.0191 52.7538C48.95 52.8994 48.8772 53.0413 48.8007 53.1833C48.1946 54.3663 47.5138 55.4939 46.7642 56.5567C46.2983 57.2172 45.8059 57.8527 45.2884 58.461C45.0627 58.7376 44.8261 59.0069 44.5822 59.269C40.2291 64.0116 34.329 66.9198 27.832 66.9198C21.335 66.9198 15.1729 63.8769 10.7942 58.945C10.5649 58.6903 10.3429 58.4318 10.1318 58.1698C8.81416 56.5756 7.66763 54.8066 6.71401 52.8921C6.69217 52.8484 6.66669 52.8011 6.64485 52.7538C6.56842 52.5973 6.49198 52.4408 6.41919 52.2843C6.11345 51.6364 5.82954 50.9703 5.57112 50.2897C4.27536 46.901 3.55469 43.1593 3.55469 39.2284C3.55469 37.3939 3.7112 35.5122 4.00966 33.6158C4.08443 33.1322 4.16969 32.6501 4.26353 32.1675C4.31587 31.8983 4.37089 31.629 4.42823 31.3592C5.33454 27.1298 6.91784 22.9113 9.01799 19.1332C9.35649 18.5144 9.71318 17.9102 10.0844 17.3169C10.8051 16.1595 11.5767 15.0566 12.3993 14.0193C12.5631 13.8009 12.7378 13.5862 12.9198 13.3751C14.8111 11.0741 16.9395 9.13223 19.2298 7.70281C19.2799 7.67151 19.3301 7.64046 19.3804 7.60965C22.012 5.99723 24.8619 5.06909 27.832 5.06909C31.2352 5.06909 34.4709 6.28478 37.4082 8.34853C37.4158 8.35381 37.4233 8.3591 37.4308 8.36439C39.1586 9.58098 40.7852 11.0895 42.2783 12.8182C42.4639 13.0293 42.6459 13.244 42.8242 13.4661C43.8834 14.7582 44.8734 16.1595 45.7797 17.6445C45.7906 17.6664 45.8052 17.6846 45.8161 17.7064C46.1655 18.2706 46.4968 18.8493 46.8171 19.4389C46.8243 19.4498 46.8316 19.4644 46.8353 19.4753C48.8444 23.1624 50.3586 27.2572 51.2357 31.3628C51.3959 32.109 51.5378 32.8588 51.6543 33.6049C51.9528 35.5085 52.1093 37.3939 52.1093 39.2284Z" fill="#E4A134"/>
<path d="M36.0214 10.6596C36.0214 10.6596 41.8195 28.7784 42.9952 35.6904C44.1708 42.6023 45.2409 29.652 42.3946 21.9466C39.5519 14.2448 36.3162 8.35566 36.0214 10.656V10.6596Z" fill="#F4C27A"/>
<path fill-rule="evenodd" clip-rule="evenodd" d="M46.7642 56.557C46.2983 57.2175 45.8059 57.853 45.2884 58.4612C45.0627 58.7378 44.8261 59.0072 44.5822 59.2692C40.2291 64.0119 34.329 66.92 27.832 66.92C21.335 66.92 15.1728 63.8772 10.7942 58.9453C10.5649 58.6905 10.3429 58.4321 10.1318 58.17C8.81416 56.5758 7.66763 54.8069 6.71401 52.8923C6.70929 52.8829 6.70441 52.8733 6.69943 52.8636L6.69164 52.8484C6.67587 52.8177 6.65954 52.7859 6.64485 52.754C6.56846 52.5976 6.49194 52.4409 6.41919 52.2845C6.11345 51.6366 5.82954 50.9705 5.57112 50.2899C4.27536 46.9013 3.55469 43.1596 3.55469 39.2286C3.55469 37.3942 3.7112 35.5124 4.00966 33.6161C4.08443 33.1324 4.16969 32.6503 4.26353 32.1677C6.43965 40.7351 11.8271 51.6135 25.1521 55.133C35.4656 57.8583 42.3287 57.6363 46.7642 56.557Z" fill="#D18D2A"/>
<path d="M46.8351 19.4753C46.4493 20.5454 45.7832 21.7101 44.6476 22.1323C44.3637 22.2378 44.0689 22.2924 43.7595 22.2924C42.8277 22.2924 41.8159 21.7974 40.7276 20.8147C36.1305 16.6472 33.5863 18.3178 30.973 20.7455C29.9757 21.6737 28.9856 21.9758 28.0284 21.9139C27.0711 21.9758 26.0775 21.6737 25.0765 20.7455C22.4632 18.3178 19.9226 16.6472 15.3256 20.8147C14.2409 21.7974 13.2254 22.2924 12.2936 22.2924C11.9879 22.2924 11.6931 22.2378 11.4055 22.1323C10.128 21.6555 9.44005 20.2287 9.07971 19.064C9.41821 18.4452 9.77127 17.841 10.1462 17.2477H10.1607C10.259 18.023 10.7868 20.3488 11.9115 20.7674C12.6722 21.0513 13.6585 20.3597 14.3465 19.7337C19.8498 14.7508 23.2821 17.0912 26.0702 19.6791C26.6889 20.2505 27.2895 20.4762 27.9155 20.4471V20.4289C27.9519 20.4362 27.9883 20.4362 28.0284 20.4398C28.0611 20.4362 28.1012 20.4362 28.1339 20.4289V20.4471C28.7636 20.4762 29.3678 20.2505 29.9866 19.6791C32.7674 17.0912 36.2033 14.7508 41.7067 19.7337C42.3946 20.3597 43.3846 21.0513 44.1417 20.7674C45.0953 20.4107 45.6194 18.7 45.816 17.7063C46.1654 18.2705 46.4966 18.8492 46.8169 19.4389C46.8242 19.4498 46.8315 19.4643 46.8351 19.4753Z" fill="#C870A8"/>
<path fill-rule="evenodd" clip-rule="evenodd" d="M19.2297 7.70281C20.0408 8.33904 21.6407 8.72888 24.6706 7.00868C24.6706 7.00868 24.826 9.99276 27.7798 10.1824C30.7373 10.3719 31.1658 7.19827 31.1658 7.19827C31.1658 7.19827 32.872 9.37471 35.9509 8.76045C36.5402 8.6426 37.0287 8.50643 37.4308 8.36439L37.4082 8.34853C34.4709 6.28478 31.2352 5.06909 27.832 5.06909C24.8619 5.06909 22.012 5.99723 19.3804 7.60965C19.3301 7.64046 19.2799 7.67151 19.2297 7.70281Z" fill="#FEEA61"/>
<path d="M49.3684 52.0147C49.2556 52.2658 49.1391 52.5097 49.019 52.7535C48.9498 52.8991 48.877 53.0411 48.8006 53.183L41.5757 57.3615L39.3154 47.8325L35.2133 55.9492L30.7 51.0283L27.0238 60.1277L23.9118 49.9109L19.9117 55.8546L15.1691 48.2839L13.5421 56.9793L6.71389 52.8918C6.69205 52.8482 6.66657 52.8008 6.64473 52.7535C6.5683 52.597 6.49186 52.4405 6.41907 52.284L6.60469 51.9746L13.0216 55.8182L14.7942 46.3148L19.9336 54.5152L24.1557 48.2548L27.1112 58.2314L30.3542 49.8453L35.0495 54.6608L39.5629 45.7288L42.0598 56.2404L49.3684 52.0147Z" fill="#FEEA61"/>
<path d="M17.342 36.7571C16.2027 36.7571 15.2782 37.9764 15.2782 39.476C15.2782 40.9756 16.2027 42.1949 17.342 42.1949C18.4812 42.1949 19.4057 40.9756 19.4057 39.476C19.4057 37.9764 18.4812 36.7571 17.342 36.7571ZM17.3784 41.3869C16.5667 41.3869 15.9079 40.5315 15.9079 39.4796C15.9079 38.4277 16.5667 37.5724 17.3784 37.5724C18.19 37.5724 18.8488 38.4277 18.8488 39.4796C18.8488 40.5315 18.19 41.3869 17.3784 41.3869Z" fill="#C870A8"/>
<path d="M18.2192 39.3883C18.2192 39.9889 17.8443 40.4766 17.3784 40.4766C16.9125 40.4766 16.5376 39.9889 16.5376 39.3883C16.5376 38.7878 16.9125 38.3 17.3784 38.3C17.8443 38.3 18.2192 38.7878 18.2192 39.3883Z" fill="#C870A8"/>
<path d="M9.97888 24.8405C8.94154 24.684 7.91877 25.7614 7.6931 27.2464C7.46743 28.7315 8.12623 30.0636 9.16357 30.2201C10.2009 30.3766 11.2237 29.2993 11.4493 27.8142C11.675 26.3292 11.0162 24.9971 9.97888 24.8405ZM9.31644 29.4194C8.57756 29.3066 8.10439 28.3711 8.2609 27.3302C8.41741 26.2892 9.14537 25.5357 9.88788 25.6486C10.6268 25.7614 11.0999 26.6968 10.9434 27.7378C10.7869 28.7788 10.059 29.5322 9.31644 29.4194Z" fill="#78BB9B"/>
<path d="M10.3828 27.563C10.2918 28.1562 9.87684 28.5894 9.45463 28.5239C9.03241 28.4583 8.76307 27.9269 8.85042 27.33C8.94142 26.7367 9.35635 26.3036 9.77857 26.3691C10.2008 26.4346 10.4701 26.966 10.3828 27.563Z" fill="#78BB9B"/>
<path d="M43.7704 27.8216C43.996 29.3066 45.0188 30.384 46.0561 30.2275C47.0935 30.0709 47.7523 28.7388 47.5266 27.2538C47.301 25.7687 46.2782 24.6914 45.2408 24.8479C44.2035 25.0044 43.5447 26.3365 43.7704 27.8216ZM44.2763 27.7451C44.1198 26.7042 44.5893 25.7687 45.3318 25.6559C46.0707 25.5431 46.8023 26.2965 46.9588 27.3375C47.1153 28.3785 46.6458 29.3139 45.9033 29.4267C45.1644 29.5395 44.4328 28.7861 44.2763 27.7451Z" fill="#C870A8"/>
<path d="M44.8369 27.5698C44.9279 28.1631 45.3428 28.5962 45.765 28.5307C46.1872 28.4652 46.4566 27.9338 46.3692 27.3368C46.2782 26.7436 45.8633 26.3104 45.4411 26.3759C45.0189 26.4415 44.7495 26.9729 44.8369 27.5698Z" fill="#C870A8"/>
<path d="M42.824 13.4662C42.4492 14.4707 41.7722 15.7811 40.7385 15.9194C39.6866 16.0577 38.7985 15.3297 37.863 14.5581C36.7311 13.6227 35.5591 12.6581 33.903 12.9129C32.4907 13.1313 31.7628 13.8665 30.9911 14.6418C30.2122 15.4316 29.4042 16.2433 27.9083 16.4289C27.8609 16.4508 27.8063 16.4653 27.7481 16.4653C27.6644 16.4653 27.5807 16.4617 27.497 16.4581C27.4169 16.4581 27.3332 16.4653 27.2458 16.4653C27.1912 16.4653 27.1366 16.4508 27.0893 16.4289C25.5934 16.2433 24.7853 15.4316 24.0028 14.6418C23.2348 13.8665 22.5068 13.1313 21.091 12.9129C19.4421 12.6581 18.2665 13.6227 17.1345 14.5581C16.1991 15.3297 15.3146 16.0613 14.2591 15.9194C13.4074 15.8065 12.7995 14.9002 12.3992 14.0194C12.563 13.801 12.7377 13.5863 12.9197 13.3752C13.2727 14.2669 13.7859 15.1223 14.3537 15.1951C15.0962 15.297 15.8242 14.6928 16.6723 13.9939C17.8115 13.0585 19.2274 11.8865 21.2038 12.1959C22.8562 12.4507 23.7407 13.3424 24.5196 14.1286C25.3313 14.9476 26.0411 15.6573 27.497 15.7301C28.9565 15.6573 29.6663 14.9476 30.4743 14.1286C31.2568 13.3424 32.1413 12.4507 33.7938 12.1959C35.7665 11.8901 37.186 13.0585 38.3253 13.9939C39.1734 14.6928 39.905 15.297 40.6438 15.1951C41.3281 15.1041 41.9359 13.8775 42.2781 12.8183C42.4637 13.0294 42.6457 13.2441 42.824 13.4662Z" fill="#78BB9B"/>
<path d="M20.3156 14.7071C20.3156 14.7071 20.6578 14.2048 20.9016 14.5797C21.211 15.0566 20.079 15.8537 20.079 15.8537C20.079 15.8537 19.4239 14.6999 19.7624 14.3759C20.1045 14.0556 20.312 14.7071 20.312 14.7071H20.3156Z" fill="#FEEA62"/>
<path d="M27.6499 17.8117C27.6499 17.8117 27.8682 17.2439 28.1885 17.5496C28.6035 17.9391 27.6862 18.9801 27.6862 18.9801C27.6862 18.9801 26.7763 18.0119 27.0347 17.6188C27.2932 17.2257 27.6462 17.8117 27.6462 17.8117H27.6499Z" fill="#696EB0"/>
<path d="M34.733 14.3288C34.733 14.3288 34.3981 13.8229 34.1506 14.1868C33.8303 14.6564 34.9477 15.4753 34.9477 15.4753C34.9477 15.4753 35.6284 14.3324 35.2935 14.0048C34.9586 13.6773 34.7366 14.3251 34.7366 14.3251L34.733 14.3288Z" fill="#FEEA62"/>
<path d="M12.1809 18.0121C12.1809 18.0121 12.523 17.5098 12.7669 17.8847C13.0763 18.3615 11.9443 19.1586 11.9443 19.1586C11.9443 19.1586 11.2891 18.0048 11.6276 17.6808C11.9698 17.3605 12.1772 18.0121 12.1772 18.0121H12.1809Z" fill="#696EB0"/>
<path d="M42.7985 17.5607C42.7985 17.5607 42.4637 17.0548 42.2162 17.4188C41.8959 17.8883 43.0133 18.7072 43.0133 18.7072C43.0133 18.7072 43.6939 17.5644 43.359 17.2368C43.0242 16.9092 42.8022 17.5571 42.8022 17.5571L42.7985 17.5607Z" fill="#696EB0"/>
<path d="M50.031 50.4498C49.7253 51.2396 49.3868 52.0076 49.0192 52.7537C47.7853 52.7355 46.4349 52.0695 44.9936 50.7701C38.806 45.1575 35.3846 47.4069 31.8649 50.6754C30.5255 51.9239 29.186 52.3315 27.8975 52.2478C26.6091 52.3315 25.2696 51.9239 23.9266 50.6754C20.4105 47.4069 16.9891 45.1575 10.7979 50.7701C9.33469 52.0913 7.96614 52.7574 6.71406 52.7574C6.69222 52.7574 6.66674 52.7574 6.6449 52.7537C6.2518 51.9566 5.89147 51.134 5.57117 50.2896C5.76408 50.4752 5.97518 50.6208 6.20449 50.7045C7.22363 51.0867 8.54851 50.1549 9.48029 49.3141C16.8909 42.606 21.5134 45.7544 25.2624 49.2414C26.0922 50.0093 26.9075 50.3151 27.7447 50.275V50.2496C27.7993 50.2605 27.8466 50.2605 27.8975 50.2641C27.9449 50.2641 27.9958 50.2641 28.0431 50.2496V50.275C28.8876 50.3151 29.6992 50.0093 30.5327 49.2414C34.2817 45.7544 38.9042 42.606 46.3148 49.3141C47.2429 50.1549 48.5715 51.0867 49.5906 50.7045C49.7471 50.6463 49.8927 50.5626 50.031 50.4498Z" fill="#C870A8"/>
<path d="M51.6543 33.6052C51.0319 35.0429 50.0455 36.5935 48.6478 36.7827C46.9954 37.0048 45.6014 35.8582 44.1272 34.6426C42.3438 33.1757 40.502 31.6543 37.9032 32.0583C35.6793 32.4041 34.5364 33.5543 33.3244 34.7772C32.0941 36.0148 30.8275 37.2923 28.4762 37.5835C28.3998 37.6199 28.3161 37.6454 28.2251 37.6454C28.0904 37.6454 27.9594 37.6381 27.832 37.6345C27.7009 37.6381 27.5699 37.6454 27.4352 37.6454C27.3442 37.6454 27.2642 37.6199 27.1877 37.5835C24.8328 37.2923 23.5662 36.0148 22.3359 34.7736C21.1275 33.5543 19.9846 32.4041 17.7571 32.0583C15.1619 31.6543 13.3165 33.1757 11.5367 34.6426C10.0626 35.8582 8.6722 37.0048 7.01246 36.7827C5.61842 36.5971 4.63205 35.0502 4.00964 33.6161C4.12612 32.8627 4.26807 32.1129 4.42822 31.3595C4.91231 33.1066 5.9642 35.487 7.16533 35.6471C8.33006 35.8036 9.47658 34.8573 10.8087 33.7581C12.5995 32.284 14.8234 30.4459 17.9318 30.9263C20.5306 31.3304 21.921 32.7317 23.1476 33.9692C24.4251 35.254 25.5389 36.3751 27.832 36.4879C30.125 36.3751 31.2352 35.254 32.5127 33.9692C33.7393 32.7317 35.1297 31.3304 37.7285 30.9263C40.8332 30.4459 43.0644 32.284 44.8552 33.7581C46.1837 34.8573 47.3375 35.8036 48.4986 35.6471C49.6925 35.487 50.7444 33.1102 51.2357 31.3631C51.3959 32.1093 51.5378 32.8591 51.6543 33.6052Z" fill="#78BB9B"/>
<path d="M17.6514 34.1476C17.6514 34.1476 18.0772 33.2922 18.5358 33.82C19.1255 34.4934 17.5349 35.982 17.5349 35.982C17.5349 35.982 16.261 34.3259 16.7196 33.7545C17.1818 33.1794 17.6514 34.1512 17.6514 34.1512V34.1476Z" fill="#696EB0"/>
<path d="M29.5718 48.0657C29.4917 48.0912 29.408 48.1094 29.3242 48.1239C28.9057 48.1967 28.4725 48.2368 28.0576 48.2477V48.255L27.8028 48.2513H27.7519C27.2641 48.2295 26.7436 48.164 26.2486 48.0548C25.3751 47.8655 24.76 47.1084 24.7199 46.173C24.6799 45.2157 25.2695 44.4041 26.2232 44.1056C25.8919 43.2539 24.9383 40.5823 25.4806 39.3229C25.6153 39.0063 25.8337 38.7915 26.1285 38.6787C26.1504 38.6714 26.1686 38.6641 26.1868 38.6569C26.4561 38.5732 26.7182 38.6168 26.9366 38.7843C27.6063 39.2938 27.8356 40.99 27.912 42.3476C28.0613 40.8517 28.4179 38.9844 29.2842 38.7187C29.4698 38.6605 29.6664 38.6751 29.8702 38.7624C30.1578 38.8862 30.3652 39.1118 30.489 39.4321C30.9731 40.7133 29.8993 43.3413 29.5281 44.1784C30.5363 44.546 30.9258 45.3723 30.944 46.0675C30.9694 46.9847 30.4053 47.8073 29.5754 48.0657H29.5718Z" fill="#E8B691"/>
<path d="M29.1895 44.3351C29.1895 44.3351 31.3952 39.6871 29.7719 38.9919C28.1486 38.2968 28.0539 44.1422 28.0539 44.1422L27.8938 44.135H27.8865H27.8537H27.6936C27.6936 44.135 27.8647 38.2895 26.2122 38.9119C24.5597 39.5343 26.5507 44.2769 26.5507 44.2769C24.3632 44.721 24.5816 47.4471 26.2959 47.822C26.7654 47.924 27.2677 47.9931 27.7555 48.0077C27.7555 48.0077 27.7664 48.0077 27.7737 48.0077C27.7846 48.0077 27.7991 48.0077 27.8101 48.0077C28.2978 48.0077 28.8037 47.9676 29.2769 47.8839C31.0058 47.5891 31.3516 44.8775 29.1823 44.3315L29.1895 44.3351Z" fill="white"/>
<path d="M27.3297 45.3104C27.3333 45.5215 27.2278 45.6999 27.0895 45.6999C26.9512 45.6999 26.8383 45.5324 26.8347 45.3213C26.831 45.1102 26.9366 44.9319 27.0749 44.9319C27.2132 44.9319 27.3261 45.0993 27.3297 45.3104Z" fill="#6E4725"/>
<path d="M28.7893 45.3505C28.7929 45.5616 28.6874 45.7399 28.5491 45.7399C28.4108 45.7399 28.2979 45.5725 28.2943 45.3614C28.2906 45.1503 28.3962 44.9719 28.5345 44.9719C28.6728 44.9719 28.7856 45.1394 28.7893 45.3505Z" fill="#6E4725"/>
<path d="M27.9121 46.2382C27.8284 46.1909 27.7738 46.0817 27.7483 46.0198C27.8356 45.9725 27.9485 45.8597 27.9266 45.8051C27.8975 45.7323 27.5445 45.7577 27.4789 45.8051C27.4243 45.8451 27.5481 45.9834 27.6354 46.0271C27.61 46.1144 27.5481 46.2528 27.4316 46.26C27.1586 46.271 27.0167 46.0598 27.0167 46.0598C27.0167 46.0598 27.0094 46.1836 27.0822 46.2928C27.0822 46.2928 27.2969 46.4675 27.5153 46.3583C27.701 46.2637 27.7082 46.1436 27.7046 46.1035C27.7119 46.1618 27.7519 46.4202 28.0249 46.3911C28.3306 46.3619 28.3452 46.078 28.3452 46.078C28.3452 46.078 28.0358 46.311 27.9084 46.2382H27.9121Z" fill="#6E4725"/>
<path d="M27.2349 44.0365C27.2276 44.0073 27.1585 40.0727 26.4705 39.7342C25.7826 39.3957 26.4669 43.2284 26.9255 44.0692L27.2349 44.0365Z" fill="#E39E66"/>
<path d="M28.4542 44.0069C28.4651 43.9778 28.8146 40.0578 29.5243 39.7702C30.2341 39.4827 29.2805 43.2571 28.76 44.0615L28.4542 44.0069Z" fill="#E39E66"/>
<path d="M29.841 46.0128C29.8992 46.202 29.8046 46.4022 29.6262 46.4568C29.4479 46.5114 29.2586 46.4022 29.1967 46.2093C29.1385 46.02 29.2331 45.8199 29.4115 45.7653C29.5898 45.7107 29.7791 45.8199 29.841 46.0128Z" fill="#E39E66"/>
<path d="M26.3396 45.8487C26.3978 46.038 26.3032 46.2382 26.1248 46.2928C25.9465 46.3474 25.7572 46.2382 25.6953 46.0453C25.6334 45.8523 25.7317 45.6558 25.9101 45.6012C26.0884 45.5466 26.2777 45.6558 26.3396 45.8487Z" fill="#E39E66"/>
<path d="M9.96781 46.5481C9.89865 46.5699 9.82585 46.5918 9.74942 46.6027C9.38544 46.6719 9.0069 46.7083 8.64657 46.7192V46.7265L8.42454 46.7228H8.38086C7.95501 46.7046 7.50368 46.6391 7.07054 46.5372C6.30983 46.3588 5.77479 45.6454 5.73839 44.7646C5.70199 43.862 6.2152 43.0976 7.0487 42.8173C6.76116 42.0166 5.92765 39.4979 6.40082 38.3113C6.52094 38.0128 6.71021 37.809 6.96499 37.7071C6.98319 37.6998 7.00139 37.6925 7.01595 37.6889C7.25253 37.6088 7.4782 37.6525 7.67111 37.809C8.25347 38.2895 8.45366 39.8873 8.51918 41.1685C8.65021 39.7563 8.95959 37.9983 9.71302 37.7471C9.87681 37.6925 10.0479 37.7071 10.2226 37.7872C10.4737 37.9036 10.6557 38.1184 10.7613 38.4205C11.1835 39.6289 10.2481 42.1039 9.92413 42.8901C10.805 43.2359 11.1398 44.0148 11.158 44.67C11.1799 45.5363 10.6885 46.3079 9.96417 46.5517L9.96781 46.5481Z" fill="#E8B691"/>
<path d="M9.63303 43.0318C9.63303 43.0318 11.5548 38.6531 10.1426 37.9943C8.72673 37.3392 8.64665 42.8498 8.64665 42.8498L8.50834 42.8425H8.50106H8.47194H8.33363C8.33363 42.8425 8.48286 37.3319 7.04151 37.9179C5.60016 38.5039 7.33634 42.9735 7.33634 42.9735C5.42909 43.3921 5.61836 45.9618 7.11431 46.3149C7.52196 46.4131 7.96238 46.475 8.38823 46.4896C8.38823 46.4896 8.39915 46.4896 8.40279 46.4896C8.41371 46.4896 8.42462 46.4896 8.43554 46.4896C8.8614 46.4896 9.30181 46.4495 9.71311 46.3731C11.22 46.0928 11.5221 43.5377 9.63303 43.0245V43.0318Z" fill="white"/>
<path d="M8.01334 43.9531C8.01698 44.1533 7.92234 44.3171 7.80587 44.3208C7.68576 44.3208 7.58748 44.1642 7.58384 43.9641C7.5802 43.7639 7.67484 43.6001 7.79131 43.5964C7.91142 43.5964 8.0097 43.7529 8.01334 43.9531Z" fill="#6E4725"/>
<path d="M9.28726 43.9893C9.2909 44.1895 9.19627 44.3533 9.07979 44.3569C8.96332 44.3606 8.86141 44.2004 8.85777 44.0002C8.85413 43.8001 8.94876 43.6363 9.06524 43.6326C9.18171 43.629 9.28362 43.7891 9.28726 43.9893Z" fill="#6E4725"/>
<path d="M8.52288 44.8262C8.45008 44.7789 8.40276 44.6806 8.38093 44.6187C8.45736 44.5751 8.55563 44.4695 8.53743 44.4185C8.51196 44.353 8.20258 44.3749 8.14798 44.4185C8.10066 44.4549 8.20986 44.586 8.28629 44.6297C8.26446 44.7134 8.20986 44.8444 8.10794 44.848C7.87136 44.859 7.7476 44.6624 7.7476 44.6624C7.7476 44.6624 7.74397 44.7789 7.8022 44.8808C7.8022 44.8808 7.98783 45.0482 8.18074 44.9427C8.34089 44.8553 8.34817 44.7388 8.34817 44.7024C8.35181 44.757 8.3882 45.0009 8.62843 44.9718C8.89413 44.9427 8.90505 44.677 8.90505 44.677C8.90505 44.677 8.63571 44.899 8.52288 44.8298V44.8262Z" fill="#6E4725"/>
<path d="M7.92962 42.7483C7.92235 42.7192 7.86411 39.0139 7.26355 38.6936C6.66298 38.3733 7.25991 41.9876 7.66028 42.7774L7.92962 42.7483Z" fill="#E39E66"/>
<path d="M8.99243 42.7263C9.00335 42.7008 9.30546 39.0064 9.92422 38.7334C10.543 38.4604 9.71311 42.0165 9.25814 42.7772L8.99243 42.7263Z" fill="#E39E66"/>
<path d="M10.2045 44.6115C10.2555 44.7899 10.1718 44.9791 10.0189 45.0301C9.86602 45.0811 9.69859 44.9791 9.64763 44.7971C9.59667 44.6188 9.68039 44.4295 9.83326 44.3786C9.98613 44.3276 10.1536 44.4295 10.2045 44.6115Z" fill="#E39E66"/>
<path d="M7.15068 44.4592C7.20164 44.6375 7.11792 44.8268 6.96505 44.8778C6.81218 44.9287 6.64475 44.8268 6.5938 44.6448C6.54284 44.4665 6.62656 44.2772 6.77943 44.2262C6.9323 44.1753 7.09972 44.2772 7.15068 44.4592Z" fill="#E39E66"/>
<path d="M48.0325 46.8357C47.9633 46.8575 47.8906 46.8794 47.8141 46.8903C47.4501 46.9595 47.0716 46.9959 46.7113 47.0068V47.0141L46.4892 47.0104H46.4456C46.0197 46.9922 45.5684 46.9267 45.1352 46.8248C44.3745 46.6464 43.8395 45.933 43.8031 45.0522C43.7667 44.1496 44.2799 43.3852 45.1134 43.1049C44.8259 42.3042 43.9924 39.7855 44.4655 38.5989C44.5856 38.3004 44.7749 38.0966 45.0297 37.9947C45.0479 37.9874 45.0661 37.9801 45.0807 37.9765C45.3172 37.8964 45.5429 37.9401 45.7358 38.0966C46.3182 38.5771 46.5184 40.1749 46.5839 41.4561C46.7149 40.0439 47.0243 38.2859 47.7777 38.0347C47.9415 37.9801 48.1126 37.9947 48.2873 38.0748C48.5384 38.1912 48.7204 38.406 48.826 38.7081C49.2482 39.9165 48.3128 42.3915 47.9888 43.1777C48.8697 43.5235 49.2045 44.3024 49.2227 44.9576C49.2446 45.8239 48.7532 46.5955 48.0289 46.8393L48.0325 46.8357Z" fill="#E8B691"/>
<path d="M47.7015 43.3194C47.7015 43.3194 49.6233 38.9407 48.2111 38.2819C46.7989 37.6268 46.7151 43.1374 46.7151 43.1374L46.5768 43.1301H46.5695H46.5404H46.4021C46.4021 43.1301 46.5513 37.6195 45.11 38.2055C43.6686 38.7915 45.4048 43.2611 45.4048 43.2611C43.4976 43.6797 43.6868 46.2494 45.1828 46.6025C45.5904 46.7007 46.0309 46.7626 46.4567 46.7772C46.4567 46.7772 46.4676 46.7772 46.4713 46.7772C46.4822 46.7772 46.4931 46.7772 46.504 46.7772C46.9299 46.7772 47.3703 46.7371 47.7816 46.6607C49.2885 46.3804 49.5906 43.8253 47.7015 43.3121V43.3194Z" fill="white"/>
<path d="M46.0817 44.2402C46.0853 44.4404 45.9907 44.6042 45.8742 44.6079C45.7541 44.6079 45.6558 44.4513 45.6522 44.2512C45.6486 44.051 45.7432 43.8872 45.8597 43.8835C45.9798 43.8835 46.0781 44.0401 46.0817 44.2402Z" fill="#6E4725"/>
<path d="M47.352 44.2764C47.3556 44.4766 47.261 44.6404 47.1445 44.6441C47.028 44.6477 46.9261 44.4875 46.9225 44.2874C46.9188 44.0872 47.0135 43.9234 47.1299 43.9197C47.2464 43.9161 47.3483 44.0762 47.352 44.2764Z" fill="#6E4725"/>
<path d="M46.5876 45.1143C46.5148 45.067 46.4675 44.9687 46.4456 44.9068C46.5221 44.8631 46.6203 44.7576 46.6021 44.7066C46.5766 44.6411 46.2673 44.663 46.2127 44.7066C46.1654 44.743 46.2709 44.8741 46.351 44.9177C46.3291 45.0015 46.2745 45.1325 46.1726 45.1361C45.936 45.147 45.8123 44.9505 45.8123 44.9505C45.8123 44.9505 45.8087 45.067 45.8669 45.1689C45.8669 45.1689 46.0525 45.3363 46.2454 45.2308C46.4056 45.1434 46.4129 45.0269 46.4129 44.9905C46.4165 45.0451 46.4529 45.289 46.6931 45.2599C46.9588 45.2308 46.9697 44.9651 46.9697 44.9651C46.9697 44.9651 46.6968 45.1871 46.5876 45.1179V45.1143Z" fill="#6E4725"/>
<path d="M45.9981 43.0354C45.9908 43.0063 45.9326 39.301 45.332 38.9807C44.7315 38.6604 45.3284 42.2747 45.7288 43.0646L45.9981 43.0354Z" fill="#E39E66"/>
<path d="M47.0609 43.0099C47.0718 42.9844 47.3739 39.2901 47.9927 39.0171C48.6115 38.7441 47.7816 42.3038 47.3266 43.0609L47.0609 43.0099Z" fill="#E39E66"/>
<path d="M48.2692 44.8996C48.3202 45.078 48.2365 45.2672 48.0836 45.3182C47.9307 45.3691 47.7633 45.2672 47.7123 45.0852C47.6614 44.9032 47.7451 44.7176 47.8979 44.6667C48.0508 44.6157 48.2183 44.7176 48.2692 44.8996Z" fill="#E39E66"/>
<path d="M45.2155 44.7463C45.2665 44.9246 45.1827 45.1139 45.0299 45.1649C44.877 45.2158 44.7096 45.1139 44.6586 44.9319C44.6077 44.7499 44.6914 44.5643 44.8442 44.5133C44.9971 44.4624 45.1645 44.5643 45.2155 44.7463Z" fill="#E39E66"/>
<path d="M38.4964 37.241C37.3571 37.241 36.4326 38.4603 36.4326 39.9599C36.4326 41.4595 37.3571 42.6788 38.4964 42.6788C39.6356 42.6788 40.5601 41.4595 40.5601 39.9599C40.5601 38.4603 39.6356 37.241 38.4964 37.241ZM38.5328 41.8708C37.7211 41.8708 37.0623 41.0154 37.0623 39.9635C37.0623 38.9116 37.7211 38.0563 38.5328 38.0563C39.3444 38.0563 40.0032 38.9116 40.0032 39.9635C40.0032 41.0154 39.3444 41.8708 38.5328 41.8708Z" fill="#78BB9B"/>
<path d="M39.3735 39.8727C39.3735 40.4733 38.9986 40.961 38.5327 40.961C38.0668 40.961 37.6919 40.4733 37.6919 39.8727C37.6919 39.2722 38.0668 38.7844 38.5327 38.7844C38.9986 38.7844 39.3735 39.2722 39.3735 39.8727Z" fill="#78BB9B"/>
<path d="M22.3323 40.2872C22.3323 40.2872 22.7581 39.4319 23.2167 39.9596C23.8064 40.633 22.2158 42.1217 22.2158 42.1217C22.2158 42.1217 20.9419 40.4656 21.4005 39.8941C21.8628 39.319 22.3323 40.2909 22.3323 40.2909V40.2872Z" fill="#696EB0"/>
<path d="M12.8906 40.0543C12.8906 40.0543 13.3165 39.199 13.7751 39.7267C14.3647 40.4001 12.7742 41.8888 12.7742 41.8888C12.7742 41.8888 11.5002 40.2327 11.9589 39.6612C12.4211 39.0861 12.8906 40.058 12.8906 40.058V40.0543Z" fill="#696EB0"/>
<path d="M20.9601 36.7352C20.9601 36.7352 21.2258 36.2038 21.5097 36.5314C21.8737 36.9499 20.8873 37.8744 20.8873 37.8744C20.8873 37.8744 20.0975 36.848 20.3814 36.4913C20.6689 36.1346 20.9601 36.7352 20.9601 36.7352Z" fill="#FEEA62"/>
<path d="M14.3501 36.3495C14.3501 36.3495 14.6159 35.818 14.8998 36.1456C15.2637 36.5642 14.2773 37.4887 14.2773 37.4887C14.2773 37.4887 13.4875 36.4623 13.7714 36.1056C14.059 35.7489 14.3501 36.3495 14.3501 36.3495Z" fill="#FEEA62"/>
<path d="M27.4826 33.0081C27.4826 33.0081 27.7483 32.4767 28.0322 32.8043C28.3962 33.2229 27.4098 34.1474 27.4098 34.1474C27.4098 34.1474 26.62 33.121 26.9039 32.7643C27.1914 32.4076 27.4826 33.0081 27.4826 33.0081Z" fill="#FEEA62"/>
<path d="M30.0863 30.6279C30.0863 30.6279 30.5239 29.7526 30.9915 30.2921C31.5911 30.9816 29.9664 32.5043 29.9664 32.5043C29.9664 32.5043 28.6654 30.8137 29.133 30.2262C29.6067 29.6387 30.0863 30.6279 30.0863 30.6279Z" fill="#FEEA62"/>
<path d="M24.7024 30.6279C24.7024 30.6279 25.14 29.7526 25.6076 30.2921C26.2071 30.9816 24.5825 32.5043 24.5825 32.5043C24.5825 32.5043 23.2815 30.8137 23.7491 30.2262C24.2228 29.6387 24.7024 30.6279 24.7024 30.6279Z" fill="#FEEA62"/>
<path d="M16.2473 26.381C16.2473 24.8928 16.6165 24.78 17.5336 24.78H19.4471V24.2585H17.5336C16.2774 24.2585 15.6393 24.5828 15.6393 26.3768C15.6393 28.1709 16.2774 28.4951 17.5328 28.4951H19.5632V27.9812H17.5328C16.6157 27.9812 16.2465 27.8659 16.2465 26.3802L16.2473 26.381Z" fill="#F3E05F"/>
<path d="M39.3158 24.2592C37.9118 24.2592 36.5069 24.2584 35.1029 24.2576V24.7598C35.7101 24.7623 36.3173 24.7648 36.9246 24.7665V28.495H37.5134V24.7673C38.1139 24.7665 38.7153 24.7648 39.3158 24.7639V24.2592Z" fill="#F3E05F"/>
<path d="M23.8973 24.3261C23.4437 23.9752 22.8382 23.9292 22.3095 23.9292C21.1794 23.9292 20.0819 24.1941 20.0819 26.2121C20.0819 28.2301 21.1794 28.495 22.3137 28.495C23.4479 28.495 24.5396 28.2226 24.5396 26.2113C24.5396 25.308 24.3692 24.6929 23.8981 24.327L23.8973 24.3261ZM22.3128 27.9861C21.1786 27.9861 20.6641 27.6594 20.6641 26.2146C20.6641 24.7698 21.1786 24.4498 22.3128 24.4498C23.4471 24.4498 23.9582 24.7698 23.9582 26.2146C23.9582 27.6594 23.4462 27.9861 22.3128 27.9861Z" fill="#F3E05F"/>
<path d="M27.4087 27.8877C25.9212 27.8877 25.8084 27.5184 25.8084 26.6009C25.8109 25.7661 25.8134 24.9322 25.8151 24.0974H25.2922C25.2906 24.9322 25.288 25.7661 25.2864 26.6009C25.2864 27.8577 25.6104 28.4952 27.4037 28.4952C29.197 28.4952 29.521 27.8568 29.521 26.6009C29.5277 25.7661 29.5344 24.9322 29.5411 24.0974H29.0124C29.0107 24.9322 29.0099 25.7661 29.0082 26.6009C29.0082 27.5184 28.8929 27.8877 27.4079 27.8877H27.4087Z" fill="#F3E05F"/>
<path d="M32.5303 24.7049C34.0179 24.7049 34.1306 25.0742 34.1306 25.9917C34.1281 26.8265 34.1256 27.6605 34.1239 28.4952H34.6468C34.6485 27.6605 34.651 26.8265 34.6526 25.9917C34.6526 24.735 34.3286 24.0974 32.5353 24.0974C30.7421 24.0974 30.418 24.7358 30.418 25.9917C30.4113 26.8265 30.4046 27.6605 30.3979 28.4952H30.9267C30.9283 27.6605 30.9292 26.8265 30.9308 25.9917C30.9308 25.0742 31.0461 24.7049 32.5311 24.7049H32.5303Z" fill="#F3E05F"/>
<path d="M13.2837 27.5484C13.2837 27.5484 13.6477 27.0825 13.8624 27.4574C14.1354 27.9415 12.9852 28.6476 12.9852 28.6476C12.9852 28.6476 12.4174 27.4829 12.7669 27.1917C13.1199 26.9005 13.2837 27.5484 13.2837 27.5484Z" fill="#FEEA62"/>
<path d="M8.85413 31.5484C8.85413 31.5484 9.21811 31.0825 9.43286 31.4574C9.70584 31.9415 8.55567 32.6476 8.55567 32.6476C8.55567 32.6476 7.98787 31.4829 8.33728 31.1917C8.69034 30.9005 8.85413 31.5484 8.85413 31.5484Z" fill="#FEEA62"/>
<path d="M10.9544 22.9913C10.9544 22.9913 11.3183 22.5254 11.5331 22.9003C11.8061 23.3844 10.6559 24.0905 10.6559 24.0905C10.6559 24.0905 10.0881 22.9257 10.4375 22.6346C10.7869 22.3434 10.9544 22.9913 10.9544 22.9913Z" fill="#FEEA62"/>
<path d="M6.84852 26.0308C6.84852 26.0308 7.2125 25.5649 7.42724 25.9398C7.70023 26.4239 6.55006 27.13 6.55006 27.13C6.55006 27.13 5.98225 25.9653 6.33167 25.6741C6.68109 25.3829 6.84852 26.0308 6.84852 26.0308Z" fill="#FEEA62"/>
<path d="M16.9816 43.5667C16.9816 43.5667 17.2473 43.0353 17.5312 43.3629C17.8952 43.7815 16.9088 44.706 16.9088 44.706C16.9088 44.706 16.119 43.6796 16.4029 43.3229C16.6904 42.9662 16.9816 43.5667 16.9816 43.5667Z" fill="#FEEA62"/>
<path d="M45.2882 58.461C45.0625 58.7376 44.8259 59.0069 44.5821 59.269C43.7558 58.9269 42.9696 58.3117 42.158 57.6711C40.5383 56.4009 38.8676 55.0869 36.509 55.4363C34.489 55.7348 33.4516 56.7321 32.3524 57.7876C31.235 58.8613 30.0848 59.9642 27.9483 60.219C27.8791 60.2481 27.8063 60.2699 27.7226 60.2699C27.5989 60.2699 27.4824 60.2663 27.3659 60.2627C27.2458 60.2663 27.1293 60.2699 27.0056 60.2699C26.9219 60.2699 26.8491 60.2481 26.7799 60.219C24.6434 59.9642 23.4932 58.8613 22.3758 57.7876C21.2802 56.7321 20.2429 55.7348 18.2228 55.4363C15.8642 55.0869 14.1899 56.4009 12.5739 57.6711C11.9733 58.1443 11.391 58.6029 10.794 58.9451C10.5647 58.6903 10.3427 58.4318 10.1316 58.1698C10.6958 57.864 11.2818 57.4018 11.9114 56.9068C13.5384 55.6292 15.5585 54.0386 18.3793 54.4572C20.7379 54.803 22.0009 56.0187 23.1147 57.0888C24.2721 58.2025 25.284 59.1707 27.3659 59.269C29.4442 59.1707 30.4561 58.2025 31.6135 57.0888C32.7273 56.0187 33.9903 54.803 36.3489 54.4572C39.1661 54.0423 41.1898 55.6292 42.8168 56.9068C43.7049 57.6056 44.5056 58.2353 45.2882 58.461Z" fill="#78BB9B"/>
<path d="M17.1129 57.8785C17.1129 57.8785 17.6043 57.1979 17.9501 57.7038C18.3941 58.3517 16.7781 59.4364 16.7781 59.4364C16.7781 59.4364 15.839 57.864 16.3267 57.4272C16.8145 56.9904 17.1129 57.8785 17.1129 57.8785Z" fill="#FEEA62"/>
<path d="M27.5844 62.1011C27.5844 62.1011 27.8937 61.3295 28.356 61.7444C28.9456 62.2758 27.639 63.6917 27.639 63.6917C27.639 63.6917 26.3432 62.3704 26.7108 61.839C27.0784 61.3076 27.5844 62.1011 27.5844 62.1011Z" fill="#FEEA62"/>
<path d="M37.692 57.3653C37.692 57.3653 37.2152 56.6737 36.8585 57.1724C36.3999 57.813 37.9941 58.9267 37.9941 58.9267C37.9941 58.9267 38.9659 57.3726 38.4855 56.9285C38.0087 56.4808 37.6884 57.3653 37.6884 57.3653H37.692Z" fill="#FEEA62"/>
<path d="M42.2382 27.6758C42.2382 27.6758 41.8742 27.2099 41.6595 27.5848C41.3865 28.0689 42.5366 28.775 42.5366 28.775C42.5366 28.775 43.1044 27.6103 42.755 27.3191C42.402 27.028 42.2382 27.6758 42.2382 27.6758Z" fill="#FEEA62"/>
<path d="M46.6677 31.6758C46.6677 31.6758 46.3038 31.2099 46.089 31.5848C45.816 32.0689 46.9662 32.775 46.9662 32.775C46.9662 32.775 47.534 31.6103 47.1846 31.3191C46.8315 31.028 46.6677 31.6758 46.6677 31.6758Z" fill="#FEEA62"/>
<path d="M44.5676 23.1221C44.5676 23.1221 44.2037 22.6562 43.9889 23.0311C43.7159 23.5152 44.8661 24.2213 44.8661 24.2213C44.8661 24.2213 45.4339 23.0566 45.0845 22.7654C44.7314 22.4742 44.5676 23.1221 44.5676 23.1221Z" fill="#FEEA62"/>
<path d="M48.6768 26.1578C48.6768 26.1578 48.3128 25.6919 48.0981 26.0668C47.8251 26.5509 48.9752 27.257 48.9752 27.257C48.9752 27.257 49.543 26.0923 49.1936 25.8011C48.8442 25.5099 48.6768 26.1578 48.6768 26.1578Z" fill="#FEEA62"/>
<path d="M37.954 34.3985C37.954 34.3985 37.5282 33.5432 37.0696 34.071C36.4799 34.7443 38.0705 36.233 38.0705 36.233C38.0705 36.233 39.3444 34.5769 38.8858 34.0055C38.4236 33.4304 37.954 34.4022 37.954 34.4022V34.3985Z" fill="#696EB0"/>
<path d="M33.2734 40.5392C33.2734 40.5392 32.8475 39.6838 32.3889 40.2116C31.7993 40.885 33.3898 42.3736 33.3898 42.3736C33.3898 42.3736 34.6638 40.7175 34.2052 40.1461C33.7429 39.571 33.2734 40.5428 33.2734 40.5428V40.5392Z" fill="#696EB0"/>
<path d="M42.715 40.3058C42.715 40.3058 42.2892 39.4504 41.8306 39.9782C41.2409 40.6516 42.8315 42.1402 42.8315 42.1402C42.8315 42.1402 44.1054 40.4841 43.6468 39.9127C43.1846 39.3376 42.715 40.3094 42.715 40.3094V40.3058Z" fill="#696EB0"/>
<path d="M34.6455 36.9901C34.6455 36.9901 34.3798 36.4587 34.0959 36.7863C33.7319 37.2048 34.7183 38.1293 34.7183 38.1293C34.7183 38.1293 35.5081 37.1029 35.2242 36.7462C34.9367 36.3895 34.6455 36.9901 34.6455 36.9901Z" fill="#FEEA62"/>
<path d="M41.2555 36.6043C41.2555 36.6043 40.9898 36.0729 40.7059 36.4005C40.3419 36.8191 41.3283 37.7436 41.3283 37.7436C41.3283 37.7436 42.1181 36.7172 41.8342 36.3605C41.5466 36.0038 41.2555 36.6043 41.2555 36.6043Z" fill="#FEEA62"/>
<path d="M38.6238 43.8182C38.6238 43.8182 38.3581 43.2868 38.0742 43.6144C37.7102 44.033 38.6966 44.9575 38.6966 44.9575C38.6966 44.9575 39.4864 43.931 39.2025 43.5743C38.9149 43.2176 38.6238 43.8182 38.6238 43.8182Z" fill="#FEEA62"/>
<path d="M34.3106 60.6232C34.3106 60.6232 34.529 60.0554 34.8493 60.3612C35.2642 60.7506 34.347 61.7916 34.347 61.7916C34.347 61.7916 33.4371 60.8234 33.6955 60.4303C33.9539 60.0372 34.307 60.6232 34.307 60.6232H34.3106Z" fill="#696EB0"/>
<path d="M21.9609 60.6232C21.9609 60.6232 22.1793 60.0554 22.4996 60.3612C22.9145 60.7506 21.9973 61.7916 21.9973 61.7916C21.9973 61.7916 21.0873 60.8234 21.3458 60.4303C21.6042 60.0372 21.9572 60.6232 21.9572 60.6232H21.9609Z" fill="#696EB0"/>
<path d="M52.1092 39.2286C52.1092 43.2251 51.3667 47.0214 50.0309 50.4501C49.8234 50.9815 49.605 51.5056 49.3684 52.0152C49.2556 52.2663 49.1391 52.5102 49.019 52.754C48.9498 52.8996 48.877 53.0416 48.8006 53.1835C47.8179 55.1017 46.6386 56.8743 45.2882 58.4612C45.0626 58.7378 44.826 59.0072 44.5821 59.2692C40.2289 64.0119 34.3289 66.92 27.8319 66.92C21.3349 66.92 15.1727 63.8772 10.7941 58.9453C10.5648 58.6905 10.3427 58.4321 10.1316 58.17C8.81404 56.5758 7.66751 54.8069 6.71389 52.8923C6.69205 52.8487 6.66657 52.8013 6.64473 52.754C6.5683 52.5975 6.49186 52.441 6.41907 52.2845C6.11333 51.6366 5.82942 50.9705 5.571 50.2899C4.27524 46.9013 3.55457 43.1596 3.55457 39.2286C3.55457 37.3942 3.71108 35.5124 4.00954 33.6161C4.12601 32.8627 4.26796 32.1129 4.42811 31.3594C5.33441 27.13 6.91772 22.9115 9.01787 19.1334C9.35637 18.5147 9.71306 17.9105 10.0843 17.3172C10.805 16.1597 11.5766 15.0569 12.3992 14.0195C12.563 13.8012 12.7377 13.5864 12.9197 13.3753C14.811 11.0744 16.9393 9.13248 19.2296 7.70305C19.2798 7.67176 19.33 7.6407 19.3803 7.6099C22.0119 5.99748 24.8618 5.06934 27.8319 5.06934C31.2351 5.06934 34.4708 6.28502 37.4081 8.34877C37.4156 8.35406 37.4232 8.35934 37.4307 8.36464C39.1584 9.58122 40.785 11.0898 42.2781 12.8184C42.4638 13.0295 42.6457 13.2443 42.8241 13.4663C43.8833 14.7584 44.8733 16.1597 45.7796 17.6448C45.7905 17.6666 45.8051 17.6848 45.816 17.7066C46.1654 18.2708 46.4966 18.8495 46.8169 19.4392C46.8242 19.4501 46.8315 19.4646 46.8351 19.4756C48.8443 23.1627 50.3584 27.2574 51.2356 31.3631C51.3958 32.1092 51.5377 32.859 51.6542 33.6052C51.9527 35.5088 52.1092 37.3942 52.1092 39.2286Z" fill="url(#paint0_radial_1097_1650)"/>
<path d="M52.1092 39.2286C52.1092 43.2251 51.3667 47.0214 50.0309 50.4501C49.8234 50.9815 49.605 51.5056 49.3684 52.0152C49.2556 52.2663 49.1391 52.5102 49.019 52.754C48.9498 52.8996 48.877 53.0416 48.8006 53.1835C47.8179 55.1017 46.6386 56.8743 45.2882 58.4612C45.0626 58.7378 44.826 59.0072 44.5821 59.2692C40.2289 64.0119 34.3289 66.92 27.8319 66.92C21.3349 66.92 15.1727 63.8772 10.7941 58.9453C10.5648 58.6905 10.3427 58.4321 10.1316 58.17C8.81404 56.5758 7.66751 54.8069 6.71389 52.8923C6.69205 52.8487 6.66657 52.8013 6.64473 52.754C6.5683 52.5975 6.49186 52.441 6.41907 52.2845C6.11333 51.6366 5.82942 50.9705 5.571 50.2899C4.27524 46.9013 3.55457 43.1596 3.55457 39.2286C3.55457 37.3942 3.71108 35.5124 4.00954 33.6161C4.12601 32.8627 4.26796 32.1129 4.42811 31.3594C5.33441 27.13 6.91772 22.9115 9.01787 19.1334C9.35637 18.5147 9.71306 17.9105 10.0843 17.3172C10.805 16.1597 11.5766 15.0569 12.3992 14.0195C12.563 13.8012 12.7377 13.5864 12.9197 13.3753C14.811 11.0744 16.9393 9.13248 19.2296 7.70305C19.2798 7.67176 19.33 7.6407 19.3803 7.6099C22.0119 5.99748 24.8618 5.06934 27.8319 5.06934C31.2351 5.06934 34.4708 6.28502 37.4081 8.34877C37.4156 8.35406 37.4232 8.35934 37.4307 8.36464C39.1584 9.58122 40.785 11.0898 42.2781 12.8184C42.4638 13.0295 42.6457 13.2443 42.8241 13.4663C43.8833 14.7584 44.8733 16.1597 45.7796 17.6448C45.7905 17.6666 45.8051 17.6848 45.816 17.7066C46.1654 18.2708 46.4966 18.8495 46.8169 19.4392C46.8242 19.4501 46.8315 19.4646 46.8351 19.4756C48.8443 23.1627 50.3584 27.2574 51.2356 31.3631C51.3958 32.1092 51.5377 32.859 51.6542 33.6052C51.9527 35.5088 52.1092 37.3942 52.1092 39.2286Z" fill="url(#paint1_radial_1097_1650)"/>
<defs>
<radialGradient id="paint0_radial_1097_1650" cx="0" cy="0" r="1" gradientUnits="userSpaceOnUse" gradientTransform="translate(24.5546 31.5693) rotate(73.791) scale(44.78 35.1536)">
<stop stop-color="#11151C" stop-opacity="0"/>
<stop offset="1" stop-color="#11151C" stop-opacity="0.5"/>
</radialGradient>
<radialGradient id="paint1_radial_1097_1650" cx="0" cy="0" r="1" gradientUnits="userSpaceOnUse" gradientTransform="translate(26.5546 34.0693) rotate(75.2564) scale(39.2938 30.8468)">
<stop offset="0.609498" stop-color="#11151C" stop-opacity="0"/>
<stop offset="1" stop-color="#11151C"/>
</radialGradient>
</defs>
</svg>
