<svg width="56" height="72" viewBox="0 0 56 72" fill="none" xmlns="http://www.w3.org/2000/svg">
<path d="M52.5546 39.1593C52.5546 40.2039 52.5037 41.234 52.4054 42.2458C52.3726 42.5698 52.3362 42.8901 52.2962 43.2104C52.136 44.4697 51.8994 45.7036 51.5937 46.9011C51.5537 47.0576 51.5136 47.2141 51.47 47.367C50.5855 50.6137 49.1951 53.6092 47.4007 56.2262C47.2842 56.3936 47.1677 56.5574 47.0513 56.7212C46.8474 57.0015 46.64 57.2781 46.4252 57.5511C45.195 59.1344 43.8046 60.5539 42.2832 61.7805C41.6571 62.2864 41.002 62.7632 40.3322 63.2L40.325 63.2073C36.7762 65.5258 32.6632 66.8507 28.2773 66.8507C25.4383 66.8507 22.7194 66.2975 20.1897 65.2747H20.1861C19.7202 65.0891 19.2616 64.8852 18.8102 64.6668C16.3862 63.4948 14.1659 61.8897 12.2223 59.9279C11.9784 59.6876 11.7382 59.4365 11.5125 59.1817C9.41235 56.8996 7.67981 54.1988 6.40589 51.1924C6.33674 51.0286 6.27122 50.8685 6.2057 50.7047C5.77257 49.6309 5.39767 48.5172 5.08465 47.3706C4.98638 47.003 4.89175 46.6281 4.80439 46.2496C4.28026 43.9893 4 41.6125 4 39.1593C4 37.98 4.06552 36.7789 4.18927 35.5705C4.21475 35.3193 4.24387 35.0718 4.27662 34.8207C4.40402 33.7688 4.57872 32.7169 4.79347 31.665C4.90266 31.1263 5.02642 30.5876 5.15745 30.0489C5.25572 29.6558 5.35764 29.2664 5.46319 28.8733C5.48139 28.8114 5.49595 28.7532 5.51415 28.6913C5.80897 27.643 6.14019 26.6021 6.51508 25.572C7.05013 24.0724 7.66889 22.602 8.35681 21.1788C8.43325 21.0296 8.50604 20.8803 8.57884 20.7311C9.11388 19.661 9.68897 18.6164 10.3041 17.6118C10.4788 17.3206 10.6571 17.0367 10.8391 16.7528C12.6809 13.8993 14.832 11.3805 17.2087 9.41141C20.5282 6.66702 24.2918 5 28.2773 5C32.605 5 36.667 6.96548 40.183 10.143C41.4424 11.2786 42.6289 12.5671 43.7354 13.9793C43.9502 14.2523 44.1613 14.5326 44.3724 14.8165C45.1185 15.8283 45.8247 16.8984 46.4871 18.0122C46.5781 18.1651 46.6654 18.3143 46.7564 18.4672C48.1323 20.8585 49.3043 23.4391 50.2251 26.0961C50.3453 26.4346 50.4581 26.7731 50.5637 27.1153C50.9749 28.3928 51.3244 29.6813 51.6119 30.9771C51.6483 31.1409 51.6847 31.3083 51.7175 31.4721C52.2634 34.0636 52.5546 36.6624 52.5546 39.1593Z" fill="#A3E593"/>
<path d="M36.3646 12.7783C36.3646 12.7783 44.1574 30.1327 46.0974 36.8699C48.0374 43.6072 47.6516 30.6168 43.9608 23.2827C40.2737 15.9485 36.3974 10.4597 36.3646 12.7783Z" fill="#CEEAC3"/>
<path d="M47.4007 56.2265C47.2842 56.3939 47.1677 56.5577 47.0513 56.7215C46.8474 57.0018 46.64 57.2784 46.4252 57.5514C45.195 59.1347 43.8046 60.5542 42.2832 61.7808C41.6571 62.2867 41.002 62.7635 40.3322 63.2003L40.325 63.2076C36.7762 65.5261 32.6632 66.851 28.2773 66.851C25.4383 66.851 22.7194 66.2977 20.1897 65.275H20.1861C19.7202 65.0893 19.2616 64.8855 18.8102 64.6671C16.3862 63.4951 14.1659 61.89 12.2223 59.9281C11.9784 59.6879 11.7382 59.4368 11.5125 59.182C9.41235 56.8998 7.67981 54.1991 6.40589 51.1927C6.33674 51.0289 6.27122 50.8687 6.2057 50.7049C5.77257 49.6312 5.39767 48.5174 5.08465 47.3709C4.98638 47.0033 4.89175 46.6284 4.80439 46.2499C4.28026 43.9896 4 41.6128 4 39.1596C4 37.9803 4.06552 36.7792 4.18927 35.5708C4.21475 35.3196 4.24387 35.0721 4.27662 34.821C4.40402 33.7691 4.57872 32.7172 4.79347 31.6653C6.85722 40.2188 12.1313 51.3674 25.5948 54.9234C36.1319 57.7079 43.0293 57.3839 47.4007 56.2265Z" fill="#8FD67B"/>
<path d="M46.7563 18.4674C45.224 18.5657 43.557 18.8969 41.9445 19.6576C37.4749 21.7687 35.1491 21.2082 31.6294 20.3528C30.8214 20.1563 29.9842 19.9525 29.0306 19.7595C25.3799 19.0243 23.6001 19.8687 21.3507 20.9352C20.5317 21.3283 19.68 21.7323 18.6645 22.0926C16.0221 23.039 13.183 22.3292 10.6752 21.7068C9.8672 21.5066 9.09192 21.3101 8.35669 21.1791C8.43312 21.0298 8.50592 20.8806 8.57872 20.7314C9.29939 20.866 10.0492 21.0553 10.8281 21.2482C13.365 21.8815 15.9893 22.5331 18.4571 21.6522C19.4471 21.2992 20.2806 20.9024 21.0886 20.5203C23.3489 19.4429 25.2998 18.5147 29.1544 19.2973C30.1189 19.4938 30.9633 19.6977 31.7786 19.8942C35.1709 20.7168 37.4094 21.2591 41.6825 19.2391C43.2876 18.4783 44.9474 18.1289 46.487 18.0125C46.578 18.1653 46.6653 18.3146 46.7563 18.4674Z" fill="#F5F6CE"/>
<path d="M44.3724 14.8166C43.608 14.9986 42.8364 15.2607 42.0757 15.6174C37.5078 17.7758 35.0109 17.1716 31.5567 16.3308C30.7523 16.1379 29.9152 15.9341 28.9688 15.7448C25.4164 15.0241 23.6803 15.8503 21.4818 16.895C20.6556 17.288 19.8003 17.6957 18.7702 18.0633C16.0367 19.0388 13.1504 18.3181 10.6025 17.6848C10.5006 17.6593 10.4024 17.6338 10.3041 17.612C10.4788 17.3208 10.6571 17.0369 10.8391 16.753C10.861 16.7566 10.8792 16.7639 10.901 16.7676C13.3942 17.39 15.9748 18.0306 18.3553 17.1825C19.3271 16.8331 20.1569 16.44 20.9577 16.0578C23.2653 14.9622 25.2599 14.0159 29.2163 14.813C30.1882 15.0095 31.0726 15.2243 31.8515 15.4136C35.2984 16.2507 37.3767 16.753 41.5515 14.7802C42.2759 14.4381 43.0111 14.176 43.7354 13.9795C43.9502 14.2525 44.1613 14.5327 44.3724 14.8166Z" fill="#F5F6CE"/>
<path d="M51.7173 31.4723C49.5443 31.1374 46.2904 31.0392 43.233 32.4841C38.767 34.5952 36.4411 34.031 32.9215 33.1793C32.1098 32.9828 31.2727 32.779 30.3227 32.5861C26.6683 31.8472 24.8921 32.6916 22.6427 33.7617C21.8202 34.1512 20.9721 34.5552 19.9566 34.9192C17.3141 35.8619 14.4715 35.1557 11.9673 34.5297C10.7662 34.2312 9.63419 33.951 8.61141 33.8636C6.58042 33.6889 5.01168 34.8063 4.18909 35.5707C4.21457 35.3195 4.24368 35.072 4.27644 34.8209C5.24098 34.0529 6.75149 33.2194 8.66237 33.3868C9.73974 33.4814 10.8936 33.769 12.1165 34.0711C14.6534 34.7044 17.2814 35.3596 19.7491 34.4751C20.7355 34.1257 21.5727 33.7289 22.3807 33.3431C24.6373 32.2694 26.5883 31.3413 30.4464 32.1238C31.411 32.3167 32.2518 32.5205 33.0671 32.7207C36.4593 33.5433 38.7014 34.0856 42.9745 32.0656C46.0683 30.6024 49.3514 30.6533 51.6117 30.9773C51.6481 31.1411 51.6845 31.3085 51.7173 31.4723Z" fill="#F5F6CE"/>
<path d="M50.5637 27.1153C48.4417 26.8205 45.3806 26.7805 42.5052 28.1381C37.9409 30.2928 35.444 29.6886 31.9899 28.8515C31.1819 28.655 30.3484 28.4548 29.402 28.2619C25.8496 27.5448 24.1134 28.371 21.915 29.4157C21.0888 29.8088 20.2298 30.2164 19.2034 30.584C16.4699 31.5559 13.5799 30.8388 11.0321 30.2055C9.8455 29.907 8.72445 29.6304 7.72715 29.5431C6.74805 29.4593 5.87815 29.6996 5.15747 30.049C5.25574 29.6559 5.35766 29.2664 5.46321 28.8733C6.16205 28.6404 6.95916 28.5203 7.83271 28.5967C8.93192 28.6877 10.1003 28.9789 11.3342 29.2883C13.8274 29.907 16.4044 30.5513 18.7884 29.6996C19.7602 29.3538 20.5901 28.9607 21.3909 28.5785C23.6985 27.4829 25.6931 26.533 29.6495 27.3337C30.6177 27.5303 31.5022 27.745 32.2847 27.9343C35.7279 28.7678 37.8099 29.2737 41.9847 27.301C44.922 25.9106 47.9721 25.8414 50.2252 26.0962C50.3453 26.4347 50.4581 26.7732 50.5637 27.1153Z" fill="#F5F6CE"/>
<path d="M51.5936 46.9013C51.5535 47.0579 51.5135 47.2144 51.4698 47.3672C49.5116 47.2799 47.1494 47.5055 44.8964 48.5684C40.4304 50.6794 38.1046 50.1153 34.5849 49.2636C33.7769 49.067 32.9397 48.8632 31.9861 48.6703C28.3318 47.935 26.5556 48.7795 24.3062 49.8459C23.4836 50.239 22.6355 50.6394 21.62 51.0034C18.9775 51.9461 16.1349 51.24 13.6307 50.6176C12.4332 50.3191 11.2976 50.0352 10.2748 49.9478C8.6333 49.8059 7.29386 50.5084 6.40575 51.1926C6.3366 51.0289 6.27108 50.8687 6.20557 50.7049C7.17011 50.0024 8.58234 49.3218 10.3294 49.4747C11.4032 49.5657 12.557 49.8532 13.7799 50.1589C16.3205 50.7886 18.9448 51.4438 21.4125 50.563C22.3989 50.2099 23.2361 49.8132 24.0441 49.4273C26.3044 48.3536 28.2517 47.4255 32.1098 48.208C33.0744 48.4009 33.9152 48.6048 34.7305 48.8049C38.1228 49.6275 40.3649 50.1699 44.638 48.1498C47.0293 47.0178 49.5335 46.7922 51.5936 46.9013Z" fill="#F5F6CE"/>
<path d="M52.4052 42.2456C52.3724 42.5696 52.336 42.8899 52.296 43.2102C50.1704 42.9044 47.0729 42.8498 44.1684 44.222C39.6041 46.3804 37.1072 45.7726 33.6531 44.9354C32.845 44.7425 32.0115 44.5387 31.0652 44.3494C27.5128 43.6287 25.7766 44.455 23.5782 45.4996C22.7519 45.8927 21.8966 46.3003 20.8665 46.6679C18.1331 47.6434 15.2467 46.9227 12.6989 46.2894C11.5123 45.9946 10.3913 45.7143 9.39032 45.627C7.3848 45.4559 5.8379 46.6388 5.08446 47.3704C4.98619 47.0028 4.89155 46.6279 4.8042 46.2494C5.8015 45.4304 7.4212 44.5023 9.49587 44.6806C10.5951 44.7753 11.7635 45.0664 12.9973 45.3722C15.4906 45.9946 18.0712 46.6352 20.4516 45.7871C21.4234 45.4377 22.2533 45.0446 23.054 44.6624C25.3617 43.5669 27.3562 42.6205 31.3127 43.4176C32.2845 43.6142 33.1653 43.8289 33.9479 44.0182C37.3911 44.8553 39.4731 45.3576 43.6479 43.3849C46.8181 41.8853 50.1121 41.9217 52.4052 42.2456Z" fill="#F5F6CE"/>
<path d="M42.283 61.781C41.6569 62.2869 41.0018 62.7637 40.3321 63.2005L40.3248 63.2078C37.4785 64.438 35.7314 63.954 33.2381 63.2588C32.5866 63.0804 31.9133 62.8911 31.1489 62.7164C28.2152 62.0358 26.7884 62.8111 24.9831 63.7974C24.3243 64.1578 23.6437 64.529 22.8284 64.8639C21.9657 65.217 21.074 65.3189 20.1895 65.2752H20.1859C19.72 65.0896 19.2614 64.8857 18.8101 64.6673C20.1095 64.9185 21.4089 64.9695 22.6609 64.4562C23.4544 64.1323 24.1241 63.7683 24.772 63.4116C26.5846 62.4216 28.1534 61.5663 31.2508 62.2869C32.0224 62.4653 32.6994 62.6545 33.3546 62.8365C36.0772 63.5936 37.8752 64.0959 41.3075 62.236C41.6315 62.0613 41.9554 61.9084 42.283 61.781Z" fill="#F5F6CE"/>
<path d="M47.0511 56.7212C46.8473 57.0014 46.6398 57.278 46.4251 57.551C44.8272 57.4273 42.829 57.5838 40.9326 58.6138C37.2674 60.6012 35.2619 60.0443 32.4884 59.2726C31.8405 59.0906 31.1708 58.905 30.41 58.7303C27.5601 58.0679 26.1624 58.8286 24.3971 59.7931C23.7347 60.1535 23.0468 60.5284 22.2205 60.8669C20.0258 61.7659 17.7072 61.1034 15.6617 60.5174C14.7081 60.2481 13.809 59.9897 13.0046 59.9096C12.7317 59.8841 12.4732 59.8914 12.2221 59.9278C11.9782 59.6876 11.738 59.4364 11.5123 59.1816C11.9928 59.0433 12.5205 58.9778 13.092 59.0361C13.9728 59.1234 14.9119 59.3891 15.9019 59.673C17.9074 60.2481 19.9748 60.8377 21.8893 60.0552C22.6682 59.7349 23.3343 59.3709 23.9786 59.0215C25.8312 58.0096 27.4327 57.1361 30.6102 57.875C31.3891 58.0533 32.0989 58.2535 32.7249 58.4246C35.4912 59.1962 37.1618 59.6621 40.5141 57.8422C42.8399 56.5828 45.2494 56.4991 47.0511 56.7212Z" fill="#F5F6CE"/>
<path d="M17.7275 20.7117C16.9518 20.3428 16.0509 20.4688 15.2772 20.6376C13.6234 20.9983 12.1018 21.7363 12.7459 24.6895C13.39 27.6428 15.0807 27.6801 16.7406 27.3181C18.4006 26.9561 19.9112 26.2089 19.2692 23.2655C18.9809 21.9435 18.5352 21.0979 17.729 20.7126L17.7275 20.7117ZM16.577 26.5736C14.9171 26.9357 14.0598 26.6218 13.5987 24.5074C13.1375 22.393 13.7883 21.7604 15.4482 21.3984C17.1082 21.0364 17.9584 21.3416 18.4195 23.4559C18.8807 25.5703 18.2357 26.2119 16.577 26.5736Z" fill="#818AC2"/>
<path d="M27.7326 20.0526C25.5139 19.4157 25.5038 18.8165 25.8966 17.448C26.2577 16.204 26.6185 14.9612 26.9784 13.7168L26.1985 13.493C25.8387 14.7374 25.4779 15.9802 25.118 17.2246C24.5799 19.0991 24.7903 20.1888 27.4651 20.9565C30.1398 21.7243 30.8965 20.9108 31.4342 19.0375C31.8015 17.7953 32.1685 16.5543 32.5359 15.3121L31.7473 15.0857C31.3874 16.3301 31.0291 17.5736 30.6692 18.818C30.2764 20.1865 29.9464 20.688 27.7314 20.0522L27.7326 20.0526Z" fill="#DF8F54"/>
<path d="M34.1785 27.3392C35.921 27.2423 36.0772 27.6676 36.137 28.7423C36.1884 29.7203 36.2399 30.6974 36.2923 31.6753L36.9048 31.6413C36.8523 30.6633 36.8009 29.6863 36.7485 28.7083C36.6665 27.2362 36.2454 26.5104 34.1448 26.6273C32.0442 26.7442 31.7062 27.5131 31.788 28.9843C31.8346 29.9626 31.8812 30.9399 31.9277 31.9182L32.547 31.8837C32.4946 30.9058 32.4412 29.9288 32.3888 28.9509C32.329 27.8761 32.4399 27.436 34.1795 27.3392L34.1785 27.3392Z" fill="#ECB749"/>
<path d="M46.6858 29.6123C44.8188 29.0859 42.9509 28.558 41.0842 28.0305L40.8959 28.6983C41.7025 28.9293 42.509 29.1603 43.3158 29.3902L41.9179 34.3482L42.7009 34.569L44.0985 29.6121C44.8974 29.8361 45.6977 30.0594 46.4966 30.2834L46.6858 29.6123Z" fill="#818AC2"/>
<path d="M31.0944 44.5681C31.0944 44.5681 30.5448 45.0668 31.0107 45.7874C31.0107 45.7874 30.5157 45.6855 30.4793 45.1214C30.4429 44.5572 31.0944 44.5718 31.0944 44.5718V44.5681Z" fill="#818AC2"/>
<path d="M34.8797 43.3596C34.8797 43.3596 34.6614 42.8354 34.0208 42.9847C34.0208 42.9847 34.2246 42.6534 34.6395 42.7736C35.0581 42.8937 34.8797 43.3632 34.8797 43.3632V43.3596Z" fill="#818AC2"/>
<path d="M28.2008 53.096C25.6784 53.096 23.3854 52.317 21.3871 50.7847C17.6636 47.9275 19.7347 41.9364 19.9057 41.456C20.4007 39.414 21.6455 37.7652 22.1187 37.1938C17.7801 29.5102 16.8228 20.6292 18.69 17.4007C19.276 16.3852 20.0113 16.1741 20.5245 16.1741C20.8775 16.1741 21.2488 16.2723 21.6273 16.4689C25.5183 18.4708 25.5219 32.0071 25.4673 35.2392L26.3882 34.7333C25.5692 31.1699 25.8677 24.4036 28.2445 21.328C29.0561 20.2797 30.0352 19.7447 31.1599 19.7447C31.6185 19.7447 32.1026 19.8357 32.6013 20.0177C37.0309 21.6447 38.2611 24.6256 37.9954 26.1216C37.8644 26.8641 37.3694 27.3227 36.7069 27.3227C36.6742 27.3227 36.6414 27.3227 36.6087 27.3227C35.1163 27.2208 32.9398 25.8923 31.957 25.2444C31.3965 28.5675 30.2318 32.5531 29.7841 34.0308C30.2172 33.9799 30.6831 33.9507 31.1672 33.9507C35.1709 33.9507 39.95 35.6723 41.6097 39.5232C43.7208 44.4187 38.5559 49.8638 34.1773 51.7565C32.1245 52.6446 30.1153 53.096 28.2008 53.096Z" fill="#EAC9BE"/>
<path d="M20.2769 41.5693C20.2769 41.5693 18.0057 47.706 21.6236 50.4831C25.2379 53.2566 29.653 53.3003 34.0244 51.4076C38.3484 49.5368 43.2293 44.2591 41.2566 39.6802C39.2802 35.0978 32.7213 33.8384 29.2344 34.5081C29.2344 34.5081 31.0434 28.8337 31.6731 24.5861C31.6731 24.5861 34.7851 26.8136 36.6341 26.941C38.4831 27.0684 38.1883 22.486 32.4738 20.3822C26.7557 18.282 25.5364 29.9257 26.8394 34.9267L25.0741 35.8949C25.0741 35.8949 25.6201 18.9517 21.4599 16.8079C17.2996 14.6641 16.4988 26.6462 22.5955 37.238C22.5955 37.238 20.8666 39.1343 20.2842 41.5693H20.2769Z" fill="white"/>
<path d="M23.9131 35.1376C24.7357 32.1602 23.6219 23.261 22.337 21.1863C21.0522 19.1153 20.3242 20.633 20.4116 24.1345C20.499 27.636 23.3889 37.0339 23.9131 35.1376Z" fill="#EAC9BE"/>
<path d="M30.9451 24.1635C30.9451 24.1635 29.2126 33.5905 28.6448 34.0309C28.077 34.4714 28.8013 25.5503 29.7949 23.2791L30.9451 24.1635Z" fill="#EAC9BE"/>
<path d="M28.5211 40.9324C28.8123 41.7149 28.5575 42.5339 27.946 42.7632C27.3382 42.9889 26.6066 42.5412 26.3154 41.7586C26.0242 40.9761 26.279 40.1571 26.8905 39.9278C27.4983 39.7021 28.2299 40.1498 28.5211 40.9324Z" fill="#818AC2"/>
<path d="M34.7452 38.4135C34.9927 39.1051 34.7598 39.8221 34.2247 40.015C33.686 40.2079 33.0491 39.8076 32.8016 39.116C32.554 38.4244 32.787 37.7074 33.322 37.5145C33.8607 37.3216 34.4977 37.722 34.7452 38.4135Z" fill="#818AC2"/>
<path d="M31.4002 42.803C31.4002 42.803 32.7724 41.7911 33.3875 42.0423C34.0027 42.2934 33.6387 43.2871 32.8998 43.5091C32.1573 43.7311 30.8178 43.3926 31.4038 42.803H31.4002Z" fill="#818AC2"/>
<path d="M25.4417 45.2889C25.4417 45.2889 27.1124 44.1205 28.2626 44.2152C29.4127 44.3098 27.884 46.3736 26.1042 46.6575C24.3243 46.9414 24.6519 45.7584 25.4417 45.2853V45.2889Z" fill="#EAC9BE"/>
<path d="M35.564 41.1906C35.564 41.1906 36.9508 39.9312 37.8025 40.3971C38.6542 40.8594 35.8807 42.3262 35.4221 42.0023C34.9635 41.6783 35.564 41.1906 35.564 41.1906Z" fill="#EAC9BE"/>
<path d="M34.9088 43.447L34.6722 43.396C34.6722 43.396 34.7924 44.033 34.2682 44.0876C33.8679 44.1313 33.5112 43.9238 33.3619 43.8255C33.2673 43.0903 32.8342 42.6462 32.8342 42.6462L32.6158 42.7918C32.6158 42.7918 33.2491 43.578 33.0271 44.5899C32.8087 45.6017 31.1817 45.7801 30.6539 45.3906L30.865 45.9075C30.865 45.9075 32.7359 46.3188 33.2309 44.9357C33.3364 44.6445 33.3692 44.5062 33.3728 44.2623C33.4384 44.3497 33.7259 44.5353 34.3155 44.4734C34.9962 44.4006 34.9052 43.447 34.9052 43.447H34.9088Z" fill="#818AC2"/>
<path d="M32.0045 45.7692C32.0045 45.7692 33.2129 47.6327 34.3485 47.3197C35.4841 47.0031 34.2503 44.397 34.2503 44.397L33.3585 44.0803C33.3585 44.0803 33.0237 45.8493 32.0045 45.7692Z" fill="#818AC2"/>
<path d="M32.5359 45.9661C32.5359 45.9661 33.515 47.3528 34.2138 47.1417C34.9163 46.9306 34.4759 45.5803 34.2502 45.3837C34.0246 45.1872 33.7261 45.1944 33.5368 45.3837C33.5368 45.3837 33.9154 45.8205 33.9954 46.2027C33.9954 46.2027 33.6387 45.5439 33.151 45.5366C32.6633 45.5257 32.5359 45.9697 32.5359 45.9697V45.9661Z" fill="#E2947F"/>
<path d="M8.25829 44.5319C8.25829 44.5319 9.23738 42.8576 9.91802 43.7348C10.464 44.4409 8.14181 46.5338 8.14181 46.5338C8.14181 46.5338 6.51483 44.7102 7.12268 43.5965C7.73052 42.4827 8.25465 44.5319 8.25465 44.5319H8.25829Z" fill="#818AC2"/>
<path d="M16.0186 10.4601C16.0186 10.4601 16.8812 10.9806 17.813 10.3218C17.813 10.3218 17.449 11.188 18.2207 11.3009C18.9923 11.4137 19.4728 10.8131 19.4728 10.8131C19.4728 10.8131 19.4509 11.5993 20.2226 11.552C20.9942 11.5047 21.3582 10.5729 21.3582 10.5729C21.3582 10.5729 21.5183 11.2099 22.2244 11.2099C22.9305 11.2099 22.9305 10.0743 22.9305 10.0743C22.9305 10.0743 23.0215 10.6421 23.6367 10.7112C24.2518 10.7804 24.5248 10.2089 24.5248 10.2089C24.5248 10.2089 24.1389 11.3737 24.9106 11.552C25.6822 11.7304 26.1627 11.2099 26.1627 11.2099C26.1627 11.2099 25.8897 12.0288 26.5485 12.2108C27.2073 12.3928 27.6841 11.6867 27.6841 11.6867C27.6841 11.6867 27.8224 12.3236 28.4339 12.4583C29.049 12.5966 29.322 11.7085 29.322 11.7085C29.322 11.7085 29.5258 12.2763 30.3011 12.1853C31.0764 12.0943 30.9599 11.1152 30.9599 11.1152C30.9599 11.1152 31.2802 11.5484 31.8917 11.3919C32.5068 11.2317 32.2083 10.1871 32.2083 10.1871C32.2083 10.1871 32.6633 10.4601 33.0054 10.2999C33.3476 10.1398 33.2093 9.55013 33.2093 9.55013C33.2093 9.55013 33.4131 10.4382 34.0974 10.5037C34.7817 10.5693 35.0292 10.2781 35.0292 10.2781C35.0292 10.2781 35.233 10.9587 35.9391 11.1189C36.6452 11.279 36.9837 10.5765 36.9837 10.5765C36.9837 10.5765 37.3695 11.2135 37.8463 11.2353C38.3232 11.2572 38.709 10.7331 38.709 10.7331C38.709 10.7331 39.0729 11.3009 39.9611 11.3482C40.8492 11.3919 41.0712 10.9951 41.0712 10.9951L40.1722 10.147C40.1722 10.147 33.3185 7.77756 31.3166 8.06146C29.3147 8.34536 17.1979 9.41545 17.1979 9.41545L16.0077 10.4637L16.0186 10.4601Z" fill="#818AC2"/>
<path d="M40.183 10.143C39.8663 10.2085 39.5133 10.2631 39.1238 10.3032C35.4513 10.6671 32.4485 8.45415 32.4485 8.45415C32.4485 8.45415 31.9935 10.82 28.8706 11.093C25.7477 11.366 24.0188 8.88 24.0188 8.88C21.2416 10.9146 18.7993 10.3104 17.2087 9.41141C17.9003 8.83996 18.6137 8.3122 19.3416 7.83902C19.4909 7.74075 19.6401 7.64612 19.793 7.55512C21.511 6.50323 23.3199 5.73887 25.1944 5.33486C26.2026 5.11283 27.2327 5 28.2773 5C29.1654 5 30.0389 5.08371 30.8979 5.24386C33.3111 5.68428 35.6151 6.72161 37.7626 8.21392C37.9191 8.32312 38.0756 8.43231 38.2284 8.54514C38.8982 9.03651 39.5497 9.56792 40.183 10.143Z" fill="#DF8F54"/>
<path d="M45.983 22.9115C45.983 22.9115 46.9621 21.2372 47.6428 22.1144C48.1887 22.8205 45.8702 24.9134 45.8702 24.9134C45.8702 24.9134 44.2432 23.0899 44.8511 21.9761C45.4589 20.8623 45.983 22.9115 45.983 22.9115Z" fill="#818AC2"/>
<path d="M11.2177 27.1083C10.3551 27.7853 7.98557 27.9636 7.1011 28.0073C8.61525 28.0364 11.3087 29.132 9.30681 29.4304C7.14478 29.7471 5.52144 28.7098 5.52144 28.7098C5.5178 28.7025 5.5178 28.6989 5.51416 28.6916C5.80898 27.6433 6.1402 26.6023 6.5151 25.5723C6.62793 26.2347 6.59881 27.0173 6.59881 27.0173C6.80628 25.0627 8.4187 23.1045 8.62617 24.1273C8.82272 25.121 7.71258 26.6751 7.65071 26.7625C8.25127 26.424 12.2841 26.2675 11.2177 27.1083Z" fill="#DF8F54"/>
<path d="M8.44043 26.1076C8.44043 26.1076 9.3067 24.426 10.6461 24.1276C11.9856 23.8291 10.577 26.0384 8.44043 26.1076Z" fill="#ECB749"/>
<path d="M44.2632 37.9657C44.2632 37.9657 45.8865 39.003 48.0486 38.6864C50.2106 38.3697 46.8984 37.1176 45.5044 37.2741C45.5044 37.2741 48.8894 37.205 49.9595 36.3642C51.0296 35.5234 46.9785 35.6799 46.3888 36.0221C46.3888 36.0221 47.5718 34.406 47.3679 33.3832C47.1641 32.3605 45.548 34.315 45.3442 36.2732C45.3442 36.2732 45.4134 34.3842 44.9111 33.9983C44.4088 33.6125 43.4843 35.4943 44.2668 37.9657H44.2632Z" fill="#DF8F54"/>
<path d="M47.1821 35.3639C47.1821 35.3639 48.0448 33.6824 49.3878 33.3839C50.7309 33.0855 49.3187 35.2948 47.1821 35.3639Z" fill="#ECB749"/>
<path d="M16.7754 58.1259C16.7754 58.1259 18.6754 58.4462 20.5389 57.3034C22.4025 56.1605 18.8646 56.3097 17.6453 57.0013C17.6453 57.0013 20.7318 55.6109 21.387 54.417C22.0422 53.2232 18.3769 54.9593 17.9692 55.5053C17.9692 55.5053 18.4242 53.5544 17.8346 52.6954C17.2449 51.8328 16.5279 54.2678 17.1066 56.1459C17.1066 56.1459 16.4296 54.3806 15.8181 54.2241C15.2067 54.064 15.0938 56.1568 16.779 58.1259H16.7754Z" fill="#DF8F54"/>
<path d="M18.4388 54.5886C18.4388 54.5886 18.5735 52.6996 19.6909 51.9024C20.8083 51.1053 20.3788 53.6859 18.4388 54.5886Z" fill="#ECB749"/>
<path d="M41.0238 59.1819C40.6089 59.1455 40.2486 58.9053 40.012 58.5013C39.6953 57.959 39.6517 57.231 39.87 56.4375C39.6043 56.5431 39.2731 56.6195 38.8982 56.5868C38.5743 56.5577 38.2613 56.4521 37.9664 56.2701C37.3477 55.8916 37.0565 55.2619 37.2421 54.705C37.4605 54.0426 38.2613 53.7077 39.386 53.806C39.4405 53.8096 39.4915 53.8169 39.5461 53.8242C39.1676 53.2819 38.709 52.4411 38.8764 51.7131C38.9819 51.2472 39.5133 50.6903 40.0229 50.6685C40.2158 50.6612 40.8819 50.7886 41.3587 51.411C41.7664 51.9461 41.9192 52.7031 41.8173 53.6713C42.2941 53.493 43.0803 53.2527 43.7428 53.311C43.9648 53.3292 44.1613 53.3801 44.3251 53.4638C44.842 53.7186 45.1113 54.5412 44.9111 55.2619C44.7073 55.9935 44.0849 56.3866 43.2514 56.3138C42.9493 56.2883 42.6144 56.201 42.2541 56.059C42.589 56.8852 42.9384 58.2429 41.9847 58.9053C41.6754 59.1201 41.3478 59.2183 41.0275 59.1892L41.0238 59.1819Z" fill="#F5F6CE"/>
<path d="M39.9573 51.0033C40.0883 50.9487 41.8463 50.9815 41.4932 54.0862C41.4932 54.0862 43.284 53.2381 44.2122 53.6931C45.1403 54.1481 45.0384 57.311 41.6971 55.4984C41.6971 55.4984 43.0438 57.8388 41.8317 58.6796C40.6197 59.5204 39.3603 58.0681 40.3686 55.8442C40.3686 55.8442 39.3167 56.7869 38.1046 56.0408C36.8926 55.2946 37.2456 53.522 40.1829 54.199C40.1829 54.199 37.919 51.8514 39.9573 51.0033Z" fill="#ECB749"/>
<path d="M41.5952 54.781C41.7008 55.265 41.4533 55.7273 41.042 55.8146C40.6343 55.902 40.2194 55.5817 40.1138 55.0976C40.0083 54.6135 40.2558 54.1513 40.6671 54.0639C41.0747 53.9766 41.4897 54.2969 41.5952 54.781Z" fill="#818AC2"/>
<path d="M38.7888 20.7348C38.494 20.6766 38.2537 20.4727 38.1191 20.167C37.9371 19.7521 37.9625 19.2279 38.1846 18.6747C37.9844 18.7293 37.7405 18.7548 37.4785 18.7038C37.2492 18.6565 37.0344 18.5546 36.8342 18.4017C36.4229 18.0814 36.2628 17.6046 36.4375 17.2224C36.6486 16.7638 37.2492 16.5891 38.0463 16.7493C38.0827 16.7565 38.1227 16.7638 38.1591 16.7747C37.9298 16.3562 37.6677 15.7156 37.8461 15.206C37.9589 14.8784 38.3848 14.5217 38.7524 14.5472C38.8907 14.5581 39.3602 14.7037 39.6514 15.1878C39.9025 15.6027 39.9499 16.1596 39.797 16.8439C40.1537 16.7529 40.7361 16.6437 41.2056 16.7383C41.3621 16.7711 41.5004 16.822 41.6132 16.8948C41.9627 17.1169 42.0901 17.732 41.8899 18.2306C41.686 18.7402 41.2092 18.9732 40.6159 18.853C40.4012 18.8094 40.1683 18.722 39.9207 18.591C40.0955 19.2097 40.2374 20.2107 39.4985 20.6111C39.2619 20.7384 39.0144 20.7821 38.7888 20.7384V20.7348Z" fill="#F5F6CE"/>
<path d="M38.6759 14.7874C38.7742 14.7583 40.0336 14.9221 39.5313 17.1205C39.5313 17.1205 40.8853 16.6546 41.5149 17.055C42.1446 17.4554 41.8207 19.7157 39.5677 18.1506C39.5677 18.1506 40.3466 19.9377 39.4075 20.4436C38.4721 20.9496 37.6823 19.8067 38.5849 18.2925C38.5849 18.2925 37.7551 18.8858 36.947 18.2525C36.139 17.6228 36.5321 16.378 38.5849 17.095C38.5849 17.095 37.1472 15.2315 38.6759 14.7874Z" fill="#ECB749"/>
<path d="M39.5496 17.6265C39.586 17.9832 39.3713 18.2962 39.0728 18.3254C38.7743 18.3545 38.5014 18.0924 38.465 17.7357C38.4286 17.379 38.6433 17.066 38.9418 17.0369C39.2402 17.0078 39.5132 17.2698 39.5496 17.6265Z" fill="#818AC2"/>
<path d="M28.8195 57.8898C28.8195 57.8898 29.7986 56.2155 30.4792 57.0927C31.0252 57.7988 28.7066 59.8917 28.7066 59.8917C28.7066 59.8917 27.0797 58.0681 27.6875 56.9544C28.2953 55.8406 28.8195 57.8898 28.8195 57.8898Z" fill="#818AC2"/>
<path d="M14.9265 15.8903C14.9265 15.8903 15.9238 16.2725 17.063 15.8539C18.1986 15.4353 16.2623 15.1332 15.5234 15.3771C15.5234 15.3771 17.3542 14.9585 17.8383 14.3798C18.3224 13.8011 16.1422 14.347 15.8619 14.5982C15.8619 14.5982 16.3205 13.5863 16.0949 13.0549C15.8692 12.5235 15.214 13.7683 15.3232 14.8529C15.3232 14.8529 15.1485 13.8193 14.8318 13.6664C14.5152 13.5135 14.2276 14.6382 14.9301 15.8939L14.9265 15.8903Z" fill="#DF8F54"/>
<path d="M16.2151 14.1471C16.2151 14.1471 16.4954 13.1352 17.1905 12.8222C17.8857 12.5092 17.3689 13.8668 16.2151 14.1471Z" fill="#ECB749"/>
<path d="M46.822 47.1413C46.822 47.1413 47.761 45.9839 48.176 46.7301C48.5072 47.327 46.5053 48.6482 46.5053 48.6482C46.5053 48.6482 45.4825 47.0758 46.0722 46.3006C46.6618 45.5253 46.822 47.1413 46.822 47.1413Z" fill="#818AC2"/>
<path d="M39.3281 35.6684C39.138 35.6287 38.982 35.4983 38.8941 35.2997C38.775 35.0331 38.792 34.6927 38.9366 34.3353C38.809 34.3693 38.6502 34.3892 38.48 34.3523C38.3325 34.324 38.1907 34.2559 38.063 34.1566C37.7964 33.9495 37.6943 33.6432 37.8077 33.3936C37.9439 33.0986 38.3325 32.9851 38.8487 33.0872C38.8742 33.0929 38.8969 33.0986 38.9225 33.1043C38.775 32.8348 38.6048 32.4178 38.7211 32.0916C38.7948 31.8817 39.07 31.6491 39.3054 31.6662C39.3962 31.6718 39.6968 31.7654 39.8869 32.0803C40.0485 32.3498 40.0797 32.71 39.9833 33.1525C40.2131 33.0929 40.5903 33.022 40.8938 33.0844C40.9959 33.1043 41.0839 33.1383 41.1576 33.1865C41.3845 33.3312 41.4668 33.7255 41.3363 34.0488C41.203 34.3778 40.8967 34.5282 40.5109 34.4516C40.3719 34.4232 40.2216 34.3665 40.0599 34.2814C40.1734 34.6813 40.2641 35.3281 39.7876 35.5862C39.6344 35.6684 39.4756 35.6968 39.3281 35.6684Z" fill="#F5F6CE"/>
<path d="M39.2542 31.8225C39.3166 31.8026 40.1307 31.9104 39.8073 33.3315C39.8073 33.3315 40.6809 33.0308 41.0894 33.289C41.495 33.5471 41.2851 35.0079 39.83 33.9952C39.83 33.9952 40.3321 35.1497 39.7279 35.4759C39.1237 35.8021 38.6131 35.0646 39.1975 34.086C39.1975 34.086 38.6614 34.4689 38.1395 34.0605C37.6175 33.652 37.8728 32.8493 39.1975 33.3145C39.1975 33.3145 38.2699 32.109 39.257 31.8225H39.2542Z" fill="#ECB749"/>
<path d="M39.8188 33.6573C39.8415 33.8871 39.7025 34.0884 39.5096 34.1083C39.3167 34.1282 39.1409 33.958 39.1153 33.7282C39.0927 33.4985 39.2316 33.2971 39.4245 33.2772C39.6174 33.2574 39.7933 33.4275 39.8188 33.6573Z" fill="#818AC2"/>
<path fill-rule="evenodd" clip-rule="evenodd" d="M4.11814 41.497C4.20607 41.6955 4.36208 41.826 4.55212 41.8657C4.69962 41.8941 4.85846 41.8657 5.01163 41.7835C5.48816 41.5253 5.39739 40.8786 5.28393 40.4787C5.44561 40.5638 5.59595 40.6205 5.73494 40.6489C6.1207 40.7254 6.42704 40.5751 6.56035 40.2461C6.69083 39.9227 6.60857 39.5284 6.38165 39.3838C6.30791 39.3356 6.21997 39.3015 6.11786 39.2817C5.81436 39.2193 5.4371 39.2902 5.20735 39.3497C5.30379 38.9073 5.27259 38.547 5.11091 38.2776C4.92086 37.9627 4.6202 37.8691 4.52943 37.8634C4.34319 37.85 4.13211 37.9927 4.01553 38.1568C4.00705 38.434 4.00202 38.7103 4.00053 38.9854C4.04374 39.1015 4.09643 39.21 4.14651 39.3015C4.13374 39.2987 4.12158 39.2958 4.10953 39.293C4.09751 39.2902 4.08548 39.2873 4.07276 39.2845C4.04829 39.2797 4.02412 39.2753 4.00024 39.2714C4.00174 39.7032 4.01192 40.1325 4.03058 40.5593C4.07666 40.5527 4.12024 40.5433 4.16069 40.5326C4.10373 40.6733 4.06656 40.8113 4.0497 40.9433C4.05795 41.0911 4.06722 41.2386 4.0775 41.3857C4.08861 41.424 4.10214 41.4612 4.11814 41.497Z" fill="#F5F6CE"/>
<path fill-rule="evenodd" clip-rule="evenodd" d="M5.03132 39.5288C5.35468 38.1077 4.54061 37.9999 4.47821 38.0198C3.49111 38.3062 4.42148 39.5118 4.42148 39.5118C4.26685 39.4574 4.1268 39.4204 4.00085 39.398C4.00343 39.7455 4.01162 40.0914 4.02533 40.4356C4.25876 40.3995 4.42148 40.2833 4.42148 40.2833C3.83716 41.2619 4.34773 41.9993 4.9519 41.6732C5.55607 41.347 5.05401 40.1925 5.05401 40.1925C6.50913 41.2051 6.71903 39.7443 6.31341 39.4862C5.90496 39.2281 5.03132 39.5288 5.03132 39.5288Z" fill="#ECB749"/>
<path d="M5.04279 39.8546C5.06548 40.0843 4.9265 40.2857 4.73361 40.3056C4.54073 40.3254 4.36487 40.1552 4.33934 39.9255C4.31665 39.6957 4.45564 39.4943 4.64852 39.4745C4.8414 39.4546 5.01726 39.6248 5.04279 39.8546Z" fill="#818AC2"/>
<path d="M14.5808 47.5673C14.5808 47.5673 15.5781 47.9495 16.7173 47.5309C17.8529 47.1123 15.9166 46.8102 15.1777 47.0541C15.1777 47.0541 17.0085 46.6355 17.4926 46.0568C17.9767 45.4781 15.7965 46.024 15.5162 46.2752C15.5162 46.2752 15.9748 45.2633 15.7491 44.7319C15.5235 44.2005 14.8683 45.4453 14.9775 46.5299C14.9775 46.5299 14.8028 45.4963 14.4861 45.3434C14.1695 45.1905 13.8819 46.3152 14.5844 47.5673H14.5808Z" fill="#DF8F54"/>
<path d="M15.8728 45.8272C15.8728 45.8272 16.1531 44.8154 16.8483 44.5024C17.5435 44.1893 17.0266 45.547 15.8728 45.8272Z" fill="#ECB749"/>
<path d="M38.2282 8.54511C36.1281 9.3677 32.2444 7.48958 31.4073 7.02368C31.1343 7.55145 30.2171 9.00736 28.3972 9.0474H28.3135C26.5409 9.0474 25.4708 7.83899 25.1287 7.38038C24.8266 7.60241 24.0841 8.02462 22.5954 8.23573C20.8774 8.48323 19.7018 8.01734 19.3414 7.83899C19.4907 7.74072 19.6399 7.64609 19.7928 7.55509C20.033 7.68612 20.932 8.10834 22.5444 7.87539C24.4335 7.60605 25.0231 6.99457 25.0268 6.99093L25.1905 6.81622L25.3179 7.0164C25.3289 7.0346 26.399 8.73074 28.3899 8.68342C30.3554 8.63974 31.127 6.78346 31.1598 6.70338L31.2362 6.50684L31.4182 6.61239C31.4619 6.63787 35.593 9.02556 37.7623 8.21389C37.9188 8.32308 38.0754 8.43228 38.2282 8.54511Z" fill="#D1E5CD"/>
<path d="M30.8977 5.24386C30.2644 5.61512 29.2198 6.06645 27.8913 6.06645C26.672 6.06645 25.7693 5.68792 25.1942 5.33486C26.2024 5.11283 27.2325 5 28.2771 5C29.1652 5 30.0388 5.08371 30.8977 5.24386Z" fill="#ECB749"/>
<path d="M10.7361 35.3854C10.2621 33.0927 10.7949 32.8014 12.2077 32.5093L15.1555 31.8998L14.9895 31.0966L12.0416 31.706C10.1065 32.1061 9.22667 32.8088 9.79806 35.5726C10.3694 38.3364 11.4557 38.6326 13.3897 38.2328L16.5176 37.5861L16.3539 36.7944L13.226 37.4411C11.8132 37.7332 11.2077 37.6731 10.7346 35.3843L10.7361 35.3854Z" fill="#BB9045"/>
<path d="M52.5546 39.1593C52.5546 40.2039 52.5037 41.234 52.4054 42.2458C52.3726 42.5698 52.3362 42.8901 52.2962 43.2104C52.136 44.4697 51.8994 45.7036 51.5937 46.9011C51.5537 47.0576 51.5136 47.2141 51.47 47.367C50.5855 50.6137 49.1951 53.6092 47.4007 56.2262C47.2842 56.3936 47.1677 56.5574 47.0513 56.7212C46.8474 57.0015 46.64 57.2781 46.4252 57.5511C45.195 59.1344 43.8046 60.5539 42.2832 61.7805C41.6571 62.2864 41.002 62.7632 40.3322 63.2L40.325 63.2073C36.7762 65.5258 32.6632 66.8507 28.2773 66.8507C25.4383 66.8507 22.7194 66.2975 20.1897 65.2747H20.1861C19.7202 65.0891 19.2616 64.8852 18.8102 64.6668C16.3862 63.4948 14.1659 61.8897 12.2223 59.9279C11.9784 59.6876 11.7382 59.4365 11.5125 59.1817C9.41235 56.8996 7.67981 54.1988 6.40589 51.1924C6.33674 51.0286 6.27122 50.8685 6.2057 50.7047C5.77257 49.6309 5.39767 48.5172 5.08465 47.3706C4.98638 47.003 4.89175 46.6281 4.80439 46.2496C4.28026 43.9893 4 41.6125 4 39.1593C4 37.98 4.06552 36.7789 4.18927 35.5705C4.21475 35.3193 4.24387 35.0718 4.27662 34.8207C4.40402 33.7688 4.57872 32.7169 4.79347 31.665C4.90266 31.1263 5.02642 30.5876 5.15745 30.0489C5.25572 29.6558 5.35764 29.2664 5.46319 28.8733C5.48139 28.8114 5.49595 28.7532 5.51415 28.6913C5.80897 27.643 6.14019 26.6021 6.51508 25.572C7.05013 24.0724 7.66889 22.602 8.35681 21.1788C8.43325 21.0296 8.50604 20.8803 8.57884 20.7311C9.11388 19.661 9.68897 18.6164 10.3041 17.6118C10.4788 17.3206 10.6571 17.0367 10.8391 16.7528C12.6809 13.8993 14.832 11.3805 17.2087 9.41141C20.5282 6.66702 24.2918 5 28.2773 5C32.605 5 36.667 6.96548 40.183 10.143C41.4424 11.2786 42.6289 12.5671 43.7354 13.9793C43.9502 14.2523 44.1613 14.5326 44.3724 14.8165C45.1185 15.8283 45.8247 16.8984 46.4871 18.0122C46.5781 18.1651 46.6654 18.3143 46.7564 18.4672C48.1323 20.8585 49.3043 23.4391 50.2251 26.0961C50.3453 26.4346 50.4581 26.7731 50.5637 27.1153C50.9749 28.3928 51.3244 29.6813 51.6119 30.9771C51.6483 31.1409 51.6847 31.3083 51.7175 31.4721C52.2634 34.0636 52.5546 36.6624 52.5546 39.1593Z" fill="url(#paint0_radial_1097_1581)"/>
<path d="M52.5546 39.1593C52.5546 40.2039 52.5037 41.234 52.4054 42.2458C52.3726 42.5698 52.3362 42.8901 52.2962 43.2104C52.136 44.4697 51.8994 45.7036 51.5937 46.9011C51.5537 47.0576 51.5136 47.2141 51.47 47.367C50.5855 50.6137 49.1951 53.6092 47.4007 56.2262C47.2842 56.3936 47.1677 56.5574 47.0513 56.7212C46.8474 57.0015 46.64 57.2781 46.4252 57.5511C45.195 59.1344 43.8046 60.5539 42.2832 61.7805C41.6571 62.2864 41.002 62.7632 40.3322 63.2L40.325 63.2073C36.7762 65.5258 32.6632 66.8507 28.2773 66.8507C25.4383 66.8507 22.7194 66.2975 20.1897 65.2747H20.1861C19.7202 65.0891 19.2616 64.8852 18.8102 64.6668C16.3862 63.4948 14.1659 61.8897 12.2223 59.9279C11.9784 59.6876 11.7382 59.4365 11.5125 59.1817C9.41235 56.8996 7.67981 54.1988 6.40589 51.1924C6.33674 51.0286 6.27122 50.8685 6.2057 50.7047C5.77257 49.6309 5.39767 48.5172 5.08465 47.3706C4.98638 47.003 4.89175 46.6281 4.80439 46.2496C4.28026 43.9893 4 41.6125 4 39.1593C4 37.98 4.06552 36.7789 4.18927 35.5705C4.21475 35.3193 4.24387 35.0718 4.27662 34.8207C4.40402 33.7688 4.57872 32.7169 4.79347 31.665C4.90266 31.1263 5.02642 30.5876 5.15745 30.0489C5.25572 29.6558 5.35764 29.2664 5.46319 28.8733C5.48139 28.8114 5.49595 28.7532 5.51415 28.6913C5.80897 27.643 6.14019 26.6021 6.51508 25.572C7.05013 24.0724 7.66889 22.602 8.35681 21.1788C8.43325 21.0296 8.50604 20.8803 8.57884 20.7311C9.11388 19.661 9.68897 18.6164 10.3041 17.6118C10.4788 17.3206 10.6571 17.0367 10.8391 16.7528C12.6809 13.8993 14.832 11.3805 17.2087 9.41141C20.5282 6.66702 24.2918 5 28.2773 5C32.605 5 36.667 6.96548 40.183 10.143C41.4424 11.2786 42.6289 12.5671 43.7354 13.9793C43.9502 14.2523 44.1613 14.5326 44.3724 14.8165C45.1185 15.8283 45.8247 16.8984 46.4871 18.0122C46.5781 18.1651 46.6654 18.3143 46.7564 18.4672C48.1323 20.8585 49.3043 23.4391 50.2251 26.0961C50.3453 26.4346 50.4581 26.7731 50.5637 27.1153C50.9749 28.3928 51.3244 29.6813 51.6119 30.9771C51.6483 31.1409 51.6847 31.3083 51.7175 31.4721C52.2634 34.0636 52.5546 36.6624 52.5546 39.1593Z" fill="url(#paint1_radial_1097_1581)"/>
<defs>
<radialGradient id="paint0_radial_1097_1581" cx="0" cy="0" r="1" gradientUnits="userSpaceOnUse" gradientTransform="translate(25 31.5) rotate(73.791) scale(44.78 35.1536)">
<stop stop-color="#11151C" stop-opacity="0"/>
<stop offset="1" stop-color="#11151C" stop-opacity="0.5"/>
</radialGradient>
<radialGradient id="paint1_radial_1097_1581" cx="0" cy="0" r="1" gradientUnits="userSpaceOnUse" gradientTransform="translate(27 34) rotate(75.2564) scale(39.2938 30.8468)">
<stop offset="0.609498" stop-color="#11151C" stop-opacity="0"/>
<stop offset="1" stop-color="#11151C"/>
</radialGradient>
</defs>
</svg>
