<svg width="56" height="72" viewBox="0 0 56 72" fill="none" xmlns="http://www.w3.org/2000/svg">
<path d="M4.06434 42.4899C3.94423 41.3943 3.88599 40.2842 3.88599 39.1558C3.88599 38.9229 3.88963 38.6863 3.89327 38.4534C4.44288 38.8756 4.90513 40.801 4.06434 42.4899Z" fill="#5961A8"/>
<path d="M52.4406 39.1556C52.4406 42.7825 51.8295 46.2447 50.7173 49.4186C50.6843 49.5127 50.6509 49.6065 50.6171 49.7001C50.4779 50.0856 50.3313 50.4668 50.1775 50.8434C49.3581 52.8498 48.3343 54.7254 47.137 56.4351C45.903 58.1971 44.4846 59.783 42.9153 61.1545C38.8242 64.7287 33.7103 66.8507 28.1633 66.8507C22.6163 66.8507 17.5533 64.7506 13.4768 61.2127C10.3324 58.4816 7.79044 54.8989 6.11527 50.7611C5.99098 50.4541 5.87147 50.1441 5.75684 49.8311C5.69265 49.656 5.63 49.48 5.56889 49.3031C4.48299 46.1596 3.88599 42.7359 3.88599 39.1556C3.88599 37.2084 4.0607 35.2065 4.3992 33.1901C4.44563 32.91 4.49534 32.6294 4.54809 32.3487C4.63179 31.9034 4.72318 31.4578 4.82141 31.0135C5.15991 29.4702 5.59304 27.9306 6.10625 26.4164C6.76465 24.4664 7.55835 22.555 8.47063 20.7268C8.6017 20.4641 8.73521 20.2032 8.87112 19.9441C9.13613 19.4389 9.41026 18.9408 9.69313 18.4506C9.76827 18.3205 9.84402 18.1908 9.92038 18.0618C10.1643 17.6497 10.4144 17.2435 10.6705 16.8438C10.7127 16.7789 10.7549 16.7137 10.7972 16.6485C10.8975 16.4942 10.9988 16.3396 11.1037 16.1887C11.1237 16.1588 11.1437 16.1289 11.1638 16.0991C12.5649 14.0165 14.1333 12.1291 15.8357 10.5256C16.2262 10.1579 16.6237 9.80507 17.0278 9.46825C17.106 9.40312 17.1844 9.33859 17.263 9.27466C17.9066 8.75154 18.5666 8.269 19.2415 7.83129C19.3929 7.73312 19.545 7.63721 19.6978 7.5436C21.4643 6.46167 23.3283 5.6873 25.2623 5.29431C26.2135 5.10103 27.1816 5 28.1633 5C28.9812 5 29.782 5.06446 30.5657 5.18891C33.1205 5.59461 35.4928 6.63781 37.6784 8.16344C37.8394 8.27584 37.9994 8.39086 38.1584 8.50843C38.74 8.93855 39.3081 9.40289 39.8624 9.8984C39.9476 9.97448 40.0324 10.0513 40.1168 10.1288C40.4606 10.4444 40.799 10.7719 41.132 11.1106C42.3892 12.3894 43.57 13.8284 44.6733 15.3879C44.8444 15.6281 45.0118 15.872 45.1756 16.1159C45.611 16.7613 46.0301 17.4256 46.432 18.106C46.5046 18.2289 46.5766 18.3524 46.6481 18.4763C46.7897 18.7219 46.9291 18.9694 47.0662 19.2188C47.225 19.5078 47.3808 19.7992 47.5335 20.093C48.5819 22.11 49.4843 24.2371 50.2203 26.4128C50.8828 28.371 51.4105 30.3729 51.7854 32.3675C51.8327 32.6368 51.8837 32.9098 51.9274 33.1828C52.2659 35.2029 52.4406 37.2084 52.4406 39.1556Z" fill="#D35B3C"/>
<path d="M17.4916 13.8754C17.2197 13.7085 16.882 13.7195 16.5896 13.7513C15.9646 13.8193 15.3736 14.0318 15.4949 15.1478C15.6163 16.2639 16.2391 16.3444 16.8664 16.2762C17.4937 16.208 18.0811 15.9917 17.9602 14.8793C17.9059 14.3798 17.7747 14.0499 17.4921 13.8758L17.4916 13.8754ZM16.8354 15.9948C16.2081 16.063 15.9039 15.9132 15.817 15.1142C15.7302 14.3152 15.9955 14.1072 16.6228 14.039C17.2501 13.9708 17.552 14.1171 17.6389 14.9161C17.7257 15.7152 17.4622 15.9266 16.8354 15.9948Z" fill="#E9EBEE"/>
<path d="M30.5854 16.659C30.2738 16.5904 29.9584 16.7114 29.6925 16.8372C29.1243 17.1061 28.6354 17.5004 29.1155 18.5152C29.5957 19.5299 30.2106 19.402 30.781 19.1321C31.3513 18.8623 31.8355 18.4656 31.3569 17.4541C31.142 16.9999 30.91 16.7312 30.586 16.6592L30.5854 16.659ZM30.6595 18.8764C30.0891 19.1463 29.7526 19.1044 29.4089 18.3779C29.0651 17.6514 29.2477 17.368 29.8181 17.0982C30.3885 16.8283 30.7216 16.8676 31.0654 17.5941C31.4091 18.3207 31.2294 18.6068 30.6595 18.8764Z" fill="#E9EBEE"/>
<path d="M44.3406 16.597C44.2338 16.2964 43.9641 16.0929 43.7166 15.934C43.1875 15.5944 42.5941 15.3887 41.9877 16.3334C41.3813 17.2782 41.8155 17.732 42.3465 18.0728C42.8775 18.4137 43.4704 18.6142 44.0748 17.6726C44.3463 17.2497 44.4513 16.9105 44.3408 16.5976L44.3406 16.597ZM42.499 17.8343C41.968 17.4935 41.8253 17.1859 42.2595 16.5095C42.6936 15.8331 43.0307 15.8379 43.5617 16.1788C44.0927 16.5196 44.2358 16.823 43.8017 17.4994C43.3675 18.1758 43.0297 18.1749 42.499 17.8343Z" fill="#E9EBEE"/>
<path d="M35.9451 11.4682C35.9451 11.4682 40.8551 26.3075 41.8779 31.9783C42.9007 37.6491 43.1409 26.8862 40.7423 20.5822C38.3437 14.2781 36.1671 9.57911 35.9451 11.4718V11.4682Z" fill="#E58B7C"/>
<path d="M13.2531 16.185C12.9 15.4361 13.059 15.2918 13.5205 15.0742L14.4834 14.6203L14.3597 14.3579L13.3968 14.8119C12.7647 15.1099 12.5205 15.4244 12.9461 16.3271C13.3717 17.2299 13.7697 17.2417 14.4014 16.9439L15.4231 16.4622L15.3012 16.2036L14.2795 16.6853C13.818 16.9028 13.6049 16.9324 13.2524 16.1848L13.2531 16.185Z" fill="#E9EBEE"/>
<path d="M26.9289 19.2969C26.8029 18.4787 26.9964 18.3854 27.5006 18.3078L28.5527 18.1458L28.5086 17.8591L27.4565 18.0211C26.7658 18.1274 26.4424 18.3597 26.5942 19.3461C26.746 20.3325 27.1243 20.4568 27.8146 20.3505L28.931 20.1787L28.8875 19.8961L27.7711 20.068C27.2668 20.1456 27.0541 20.1134 26.9284 19.2965L26.9289 19.2969Z" fill="#E9EBEE"/>
<path d="M39.9509 15.4593C40.2982 14.7078 40.511 14.737 40.9741 14.951L41.9404 15.3976L42.0621 15.1342L41.0958 14.6877C40.4614 14.3945 40.0635 14.4093 39.6448 15.3153C39.2261 16.2213 39.4727 16.5339 40.1067 16.8269L41.132 17.3008L41.252 17.0412L40.2266 16.5674C39.7635 16.3534 39.604 16.209 39.9507 15.4587L39.9509 15.4593Z" fill="#E9EBEE"/>
<path d="M26.1823 17.415C25.5431 16.9661 24.9037 16.5166 24.2648 16.0674L24.1042 16.296C24.3799 16.4913 24.6555 16.6865 24.9314 16.8814L23.7395 18.5789L24.0076 18.7672L25.1993 17.0701C25.4729 17.2617 25.7473 17.4532 26.0209 17.6448L26.1823 17.415Z" fill="#E9EBEE"/>
<path d="M39.0071 14.0063C38.2313 13.9158 37.4551 13.8248 36.6793 13.7339L36.647 14.0114C36.9823 14.0519 37.3177 14.0924 37.6531 14.1325L37.4129 16.1927L37.7382 16.2306L37.9784 14.1709C38.3103 14.2091 38.6427 14.2469 38.9746 14.2852L39.0071 14.0063Z" fill="#E9EBEE"/>
<path d="M19.5062 16.0267C18.6968 15.8544 18.6782 15.6404 18.7845 15.1412C18.8825 14.6872 18.9805 14.2338 19.0781 13.7797L18.7936 13.7192C18.696 14.1732 18.5981 14.6267 18.5005 15.0807C18.3549 15.7645 18.4574 16.149 19.4331 16.3567C20.4089 16.5643 20.6592 16.2545 20.8046 15.5711C20.9049 15.1177 21.0051 14.6647 21.1055 14.2113L20.8178 14.15C20.7202 14.6041 20.6232 15.0577 20.5256 15.5117C20.4193 16.011 20.3138 16.1986 19.5058 16.0266L19.5062 16.0267Z" fill="#E9EBEE"/>
<path d="M32.8749 17.1135C33.5929 16.7021 33.5452 16.4926 33.2914 16.0498C33.0593 15.6475 32.8275 15.2457 32.5958 14.8433L32.8481 14.6986C33.0798 15.1011 33.3117 15.5029 33.5434 15.9054C33.891 16.512 33.9109 16.9094 33.0454 17.4054C32.1798 17.9014 31.8468 17.6829 31.4994 17.0767C31.2653 16.6756 31.0314 16.2749 30.7973 15.8738L31.0525 15.7276C31.2842 16.1301 31.5153 16.5323 31.747 16.9348C32.0007 17.3777 32.1585 17.5241 32.8753 17.1133L32.8749 17.1135Z" fill="#E9EBEE"/>
<path fill-rule="evenodd" clip-rule="evenodd" d="M46.3146 18.6399C46.2036 19.1381 46.0976 19.325 45.2899 19.1449C44.4836 18.9651 44.4661 18.7507 44.5772 18.2526C44.6273 18.0258 44.6774 17.7992 44.7276 17.5726C44.7778 17.346 44.8279 17.1194 44.878 16.8927L44.5909 16.8287L44.2988 18.1905C44.1467 18.8724 44.2454 19.2583 45.2191 19.4754C46.1928 19.6924 46.4459 19.3855 46.5981 18.7031L46.6481 18.4764C46.5766 18.3525 46.5046 18.2291 46.432 18.1061L46.3146 18.6399Z" fill="#E9EBEE"/>
<path d="M22.8192 15.2837C23.5516 15.6689 23.5114 15.88 23.2738 16.3317C23.0564 16.7421 22.8392 17.152 22.6222 17.5626L22.8796 17.698C23.0966 17.2874 23.3138 16.8775 23.5309 16.4669C23.8563 15.8481 23.8619 15.4503 22.979 14.9859C22.0961 14.5215 21.7712 14.7519 21.4459 15.3702C21.2264 15.7795 21.0072 16.1884 20.7877 16.5976L21.048 16.7346C21.265 16.324 21.4814 15.9136 21.6984 15.5031C21.936 15.0513 22.0884 14.8993 22.8196 15.2839L22.8192 15.2837Z" fill="#E9EBEE"/>
<path fill-rule="evenodd" clip-rule="evenodd" d="M9.92037 18.0618C9.844 18.1908 9.76825 18.3205 9.69312 18.4506C9.74817 18.7653 9.80326 19.0798 9.85863 19.3945L10.1448 19.3438C10.1045 19.1152 10.0646 18.8865 10.0247 18.6579C9.98996 18.4592 9.95526 18.2605 9.92037 18.0618Z" fill="#E9EBEE"/>
<path fill-rule="evenodd" clip-rule="evenodd" d="M11.563 16.1874C11.7058 16.1007 11.8486 16.0141 11.9914 15.9277L11.8469 15.6875L11.1637 16.0991L11.1036 16.1887C10.9988 16.3396 10.8975 16.4942 10.7972 16.6485L10.8528 16.6152L11.9241 18.3916L12.2043 18.2227L11.134 16.4473C11.277 16.3608 11.42 16.2741 11.563 16.1874Z" fill="#E9EBEE"/>
<path d="M35.0259 14.3238C35.8412 14.1824 35.9382 14.3741 36.0254 14.877C36.1034 15.3348 36.1813 15.7921 36.2598 16.2499L36.5464 16.2001C36.4679 15.7424 36.39 15.2851 36.3115 14.8274C36.192 14.1385 35.9538 13.8199 34.9709 13.9904C33.9879 14.1609 33.871 14.5416 33.9904 15.23C34.0661 15.6882 34.1418 16.1459 34.2175 16.6041L34.5073 16.5539C34.4288 16.0962 34.35 15.639 34.2715 15.1813C34.1843 14.6784 34.2123 14.465 35.0263 14.3237L35.0259 14.3238Z" fill="#E9EBEE"/>
<path fill-rule="evenodd" clip-rule="evenodd" d="M47.137 56.4352C45.903 58.1973 44.4846 59.7832 42.9153 61.1546C38.8242 64.7288 33.7103 66.8508 28.1633 66.8508C22.6163 66.8508 17.5533 64.7507 13.4768 61.2128C10.0991 58.2792 7.41657 54.3628 5.75684 49.8312C4.55207 46.5445 3.88599 42.9375 3.88599 39.1558C3.88599 37.2085 4.0607 35.2066 4.3992 33.1902C4.44563 32.9102 4.49534 32.6296 4.54809 32.3489C6.79946 40.8876 12.2478 51.5287 25.421 55.0081C35.7877 57.7475 42.683 57.5216 47.137 56.4352Z" fill="#C14D36"/>
<path d="M52.4406 39.1558C52.4406 40.1786 52.3933 41.1868 52.295 42.1805C52.2513 42.6536 52.1967 43.1232 52.1312 43.5891C51.9456 44.8994 51.6799 46.1733 51.3414 47.4145C51.1303 48.1934 50.8864 48.9541 50.6171 49.7002C46.8899 50.8468 39.2209 52.7067 28.1633 52.8923C15.9482 53.0998 8.5995 50.905 5.75684 49.8313C5.51297 49.1579 5.28731 48.4736 5.08712 47.7748C4.69402 46.4026 4.38827 44.9831 4.19173 43.5235C4.14077 43.1778 4.0971 42.8356 4.06434 42.4899C3.94423 41.3943 3.88599 40.2841 3.88599 39.1558C3.88599 38.9229 3.88963 38.6863 3.89327 38.4533C3.92967 36.7281 4.10073 34.9664 4.3992 33.1902C4.51931 32.4659 4.66126 31.738 4.82141 31.0136C4.99612 31.1702 5.17083 31.3485 5.33826 31.545C6.61219 33.0374 9.615 42.519 11.7989 41.973C13.9827 41.427 17.9865 28.0509 20.1703 28.2256C22.3542 28.3966 22.8092 33.6925 23.9921 37.7618C25.175 41.8311 26.9039 42.428 29.6338 40.5681C32.3636 38.7118 34.7294 27.8689 37.0043 28.2328C39.2792 28.5968 43.7379 42.064 45.1028 42.5845C46.4677 43.105 48.7426 36.4223 49.5615 35.1157C50.1439 34.1839 50.9374 32.7644 51.7854 32.3676C51.8327 32.637 51.8837 32.91 51.9274 33.1829C52.2076 34.8645 52.3787 36.5352 52.426 38.1694C52.437 38.5007 52.4406 38.8282 52.4406 39.1558Z" fill="#A5C8E7"/>
<path d="M51.9275 33.1829C51.8474 33.1392 51.7673 33.1319 51.6873 33.1574C50.2313 33.6415 48.4115 46.8066 43.9855 44.9248C39.5559 43.0431 37.554 29.4558 36.4002 29.9399C35.25 30.4276 35.614 35.2175 33.9761 39.1631C32.4037 42.9448 28.491 43.7128 28.1743 43.7674V43.7783C28.1743 43.7783 23.9886 43.1122 22.3507 39.1703C20.7128 35.2248 21.0767 30.4349 19.9229 29.9472C18.7728 29.4631 16.7709 43.0503 12.3413 44.9321C7.91168 46.8139 6.09179 33.6488 4.63588 33.1647C4.5558 33.1392 4.47937 33.1465 4.39929 33.1902C4.77419 30.9262 5.34927 28.6441 6.10635 26.4166C8.37393 29.2702 9.04364 39.6945 11.1875 39.0466C13.7972 38.2604 16.4651 24.7932 20.8329 24.8515C25.1933 24.9133 23.8102 38.4569 28.1561 40.1312C32.5166 38.4861 31.1262 24.9061 35.4903 24.8442C39.858 24.7859 42.5296 38.2531 45.1357 39.0393C47.2795 39.6872 47.9492 29.2701 50.2204 26.4129C50.9739 28.6405 51.5526 30.919 51.9275 33.1829Z" fill="#E2D8CF"/>
<path fill-rule="evenodd" clip-rule="evenodd" d="M50.7173 49.4186C50.6843 49.5127 50.6509 49.6065 50.6171 49.7001C50.4779 50.0857 50.3313 50.4669 50.1775 50.8434C45.2315 52.4377 36.8529 54.3216 25.9292 53.7786C16.3695 53.3053 10.005 51.9462 6.11527 50.7611C5.94097 50.708 5.77165 50.6553 5.60723 50.603C5.35809 50.1047 5.12381 49.5952 4.90442 49.0784C5.11095 49.1511 5.33222 49.2262 5.56889 49.3031C8.74551 50.3365 14.6952 51.715 24.9735 52.3656C37.0651 53.132 46.049 50.9599 50.7173 49.4186Z" fill="#5961A8"/>
<path d="M19.4314 49.8461C19.4314 49.8461 21.8118 48.9762 23.2022 46.4611C24.5926 43.946 21.2331 45.9697 20.2904 47.553C20.2904 47.553 22.0156 44.9433 21.9902 43.1562C21.9647 41.369 19.2094 45.1871 19.0965 46.0789C19.0965 46.0789 18.3504 43.5529 17.1165 42.9523C15.8826 42.3518 16.6397 45.5984 18.5251 47.3747C18.5251 47.3747 16.6033 45.7986 15.8025 46.0134C14.9981 46.2281 16.2284 48.6959 19.4387 49.8497L19.4314 49.8461Z" fill="#D35B3C"/>
<path d="M19.2676 44.4009C19.2676 44.4009 18.1029 42.2024 18.7944 40.5318C19.486 38.8611 20.8036 42.0459 19.2676 44.4009Z" fill="#5961A8"/>
<path d="M37.3282 50.0061C37.3282 50.0061 39.7087 49.1362 41.0991 46.6211C42.4894 44.106 39.1299 46.1297 38.1872 47.713C38.1872 47.713 39.9125 45.1033 39.887 43.3162C39.8579 41.5254 37.1062 45.3472 36.9934 46.2389C36.9934 46.2389 36.2472 43.7129 35.0133 43.1124C33.7795 42.5118 34.5365 45.7585 36.4219 47.5347C36.4219 47.5347 34.5001 45.9587 33.6994 46.1734C32.895 46.3882 34.1252 48.8559 37.3355 50.0097L37.3282 50.0061Z" fill="#D35B3C"/>
<path d="M37.1644 44.561C37.1644 44.561 35.9997 42.3626 36.6913 40.6919C37.3828 39.0213 38.7004 42.2061 37.1644 44.561Z" fill="#5961A8"/>
<path d="M51.9785 43.9349C52.0003 43.8439 52.0549 43.7275 52.1314 43.5892C51.9457 44.8995 51.68 46.1734 51.3415 47.4146C48.7282 45.9004 47.942 43.6328 48.71 43.5127C49.5071 43.389 51.1668 45.056 51.2687 45.1579C49.5908 43.1888 49.1868 39.8802 50.3479 40.6118C51.5089 41.3434 51.9785 43.9349 51.9785 43.9349Z" fill="#D35B3C"/>
<path d="M52.4406 39.1561C52.4406 40.1788 52.3933 41.187 52.295 42.1807C52.1276 41.7075 51.5234 39.7712 52.2805 38.3881C52.3278 38.3007 52.3787 38.2279 52.4261 38.1697C52.437 38.5009 52.4406 38.8285 52.4406 39.1561Z" fill="#5961A8"/>
<path d="M8.0173 44.5028C7.18743 46.2572 5.85892 47.2909 5.08729 47.775C4.69419 46.4028 4.38844 44.9833 4.19189 43.5237C4.87253 42.0969 6.48496 39.8585 6.59779 41.278C6.7179 42.7667 5.65145 44.9068 5.29839 45.5693C6.28477 43.9569 9.19295 42.0132 8.0173 44.5028Z" fill="#D35B3C"/>
<path d="M12.7489 47.5894C12.8289 48.3756 12.4177 49.0635 11.8317 49.1218C11.2457 49.18 10.7033 48.594 10.6232 47.8042C10.5432 47.0143 10.9545 46.33 11.5405 46.2718C12.1265 46.2136 12.6688 46.7996 12.7489 47.5894Z" fill="#F9EF59"/>
<path d="M44.4259 47.3052C44.3458 48.0914 44.7571 48.7793 45.3431 48.8376C45.9291 48.8958 46.4714 48.3098 46.5515 47.52C46.6316 46.7302 46.2203 46.0459 45.6343 45.9876C45.0483 45.9294 44.5059 46.5154 44.4259 47.3052Z" fill="#F9EF59"/>
<path d="M28.451 49.8461C29.0782 49.8461 29.5867 49.173 29.5867 48.3428C29.5867 47.5126 29.0782 46.8396 28.451 46.8396C27.8239 46.8396 27.3154 47.5126 27.3154 48.3428C27.3154 49.173 27.8239 49.8461 28.451 49.8461Z" fill="#F9EF59"/>
<path d="M13.2585 32.3178C13.1821 32.3323 13.1057 32.3396 13.0292 32.3432C12.647 32.3578 12.2539 32.3432 11.879 32.3068V32.3141L11.6498 32.2814L11.6024 32.2741C11.1693 32.2013 10.7107 32.0812 10.2775 31.9283C9.51683 31.6553 9.05458 30.9055 9.12738 30.0647C9.20017 29.2021 9.82258 28.5433 10.7143 28.3868C10.5141 27.586 9.96817 25.0782 10.6015 24.0118C10.7616 23.7424 10.98 23.575 11.2566 23.5095C11.2748 23.5059 11.293 23.5022 11.3112 23.4986C11.5624 23.4549 11.7917 23.5241 11.97 23.6988C12.5124 24.2302 12.5197 25.7807 12.4323 27.0073C12.738 25.6824 13.2767 24.0518 14.0811 23.9099C14.2558 23.8808 14.4305 23.9135 14.6016 24.0154C14.8455 24.161 15.0056 24.3867 15.0784 24.6888C15.366 25.8935 14.0993 28.1247 13.6698 28.8308C14.5324 29.2749 14.7836 30.0647 14.7217 30.6871C14.638 31.5134 14.0374 32.1831 13.2622 32.3178H13.2585Z" fill="#E8B691"/>
<path d="M13.3458 28.9255C13.3458 28.9255 15.8609 25.0128 14.4851 24.2011C13.1129 23.3894 12.3485 28.6198 12.3485 28.6198L12.2066 28.5943H12.1993H12.1702V28.5907L12.0282 28.5725C12.0282 28.5725 12.8581 23.3494 11.3039 23.717C9.74974 24.0846 10.9873 28.5652 10.9873 28.5652C8.97447 28.7108 8.85436 31.1786 10.3503 31.7136C10.758 31.8592 11.202 31.9793 11.6388 32.0485C11.6388 32.0485 11.6497 32.0485 11.6533 32.0485C11.6643 32.0485 11.6752 32.0521 11.6861 32.0557C12.1229 32.114 12.5815 32.1322 13.0146 32.114C14.6016 32.0485 15.2203 29.6571 13.3422 28.9183L13.3458 28.9255Z" fill="white"/>
<path d="M11.566 29.5879C11.5442 29.7808 11.4277 29.9228 11.304 29.9119C11.1802 29.8973 11.0965 29.7335 11.1183 29.5406C11.1402 29.3477 11.2566 29.2057 11.3804 29.2167C11.5041 29.2312 11.5879 29.395 11.566 29.5879Z" fill="#6E4725"/>
<path d="M12.869 29.7915C12.8472 29.9844 12.7307 30.1264 12.6106 30.1155C12.4869 30.1009 12.4031 29.9371 12.425 29.7442C12.4468 29.5513 12.5633 29.4093 12.687 29.4203C12.8108 29.4348 12.8945 29.5986 12.8727 29.7915H12.869Z" fill="#6E4725"/>
<path d="M11.9809 30.4868C11.9117 30.4322 11.8753 30.3303 11.8607 30.272C11.9445 30.2393 12.0573 30.1519 12.0464 30.101C12.0282 30.0354 11.7079 30.0136 11.646 30.05C11.5914 30.0791 11.686 30.2174 11.7625 30.2684C11.7297 30.3448 11.6606 30.4613 11.555 30.454C11.3111 30.4322 11.2092 30.2284 11.2092 30.2284C11.2092 30.2284 11.191 30.3375 11.242 30.4431C11.242 30.4431 11.413 30.6251 11.6242 30.5523C11.8025 30.4904 11.8207 30.3812 11.8243 30.3485C11.8243 30.4031 11.8316 30.636 12.0791 30.6433C12.3557 30.6506 12.3994 30.3994 12.3994 30.3994C12.3994 30.3994 12.0937 30.5741 11.9881 30.4941L11.9809 30.4868Z" fill="#6E4725"/>
<path d="M11.6276 28.4303C11.624 28.4048 12.0171 24.8669 11.4384 24.4848C10.8596 24.1026 11.0307 27.615 11.3437 28.423L11.624 28.4303H11.6276Z" fill="#E39E66"/>
<path d="M12.7234 28.5504C12.7379 28.5249 13.5023 25.0525 14.172 24.8742C14.8417 24.6995 13.5496 27.9716 12.9927 28.6341L12.7234 28.5504Z" fill="#E39E66"/>
<path d="M13.7351 30.5054C13.7643 30.6837 13.6587 30.8512 13.4913 30.8803C13.3275 30.9094 13.1673 30.7893 13.1346 30.6109C13.1055 30.4326 13.211 30.2652 13.3784 30.236C13.5422 30.2069 13.7024 30.327 13.7351 30.5054Z" fill="#E39E66"/>
<path d="M10.616 29.9556C10.6451 30.1339 10.5396 30.3014 10.3721 30.3305C10.2084 30.3596 10.0482 30.2395 10.0154 30.0611C9.98632 29.8828 10.0919 29.7154 10.2593 29.6862C10.4231 29.6571 10.5833 29.7772 10.616 29.9556Z" fill="#E39E66"/>
<path d="M43.3193 32.0048C43.3957 32.0193 43.4722 32.0266 43.5486 32.0302C43.9308 32.0448 44.3239 32.0302 44.6988 31.9938V32.0011L44.9281 31.9684L44.9754 31.9611C45.4086 31.8883 45.8672 31.7682 46.3003 31.6153C47.061 31.3423 47.5233 30.5925 47.4505 29.7517C47.3777 28.8891 46.7553 28.2303 45.8635 28.0738C46.0637 27.2731 46.6097 24.7652 45.9764 23.6988C45.8162 23.4331 45.5978 23.262 45.3212 23.1965C45.303 23.1929 45.2848 23.1892 45.2666 23.1856C45.0155 23.1419 44.7861 23.2111 44.6078 23.3858C44.0655 23.9172 44.0582 25.4677 44.1456 26.6943C43.8398 25.3695 43.3011 23.7388 42.4967 23.5969C42.322 23.5678 42.1473 23.6005 41.9762 23.7024C41.7324 23.848 41.5722 24.0737 41.4994 24.3758C41.2119 25.5806 42.4785 27.8117 42.908 28.5179C42.0454 28.9619 41.7943 29.7517 41.8561 30.3741C41.9398 31.2004 42.5404 31.8701 43.3157 32.0048H43.3193Z" fill="#E8B691"/>
<path d="M43.2284 28.6165C43.2284 28.6165 40.7133 24.7037 42.0891 23.892C43.4613 23.0804 44.2257 28.3107 44.2257 28.3107L44.3676 28.2852H44.3749H44.404V28.2816L44.546 28.2634C44.546 28.2634 43.7161 23.0403 45.2703 23.4079C46.8245 23.7756 45.5869 28.2561 45.5869 28.2561C47.5997 28.4017 47.7199 30.8695 46.2239 31.4045C45.8163 31.5501 45.3722 31.6702 44.9354 31.7394C44.9354 31.7394 44.9245 31.7394 44.9209 31.7394C44.91 31.7394 44.899 31.743 44.8881 31.7467C44.4513 31.8049 43.9927 31.8231 43.5596 31.8049C41.9726 31.7394 41.3539 29.3481 43.232 28.6092L43.2284 28.6165Z" fill="white"/>
<path d="M45.0082 29.2788C45.0301 29.4717 45.1465 29.6137 45.2703 29.6028C45.394 29.5919 45.4777 29.4244 45.4559 29.2315C45.4341 29.0386 45.3176 28.8967 45.1939 28.9076C45.0701 28.9185 44.9864 29.0859 45.0082 29.2788Z" fill="#6E4725"/>
<path d="M43.7053 29.479C43.7272 29.6719 43.8436 29.8139 43.9674 29.803C44.0911 29.7884 44.1749 29.6246 44.153 29.4317C44.1312 29.2388 44.0147 29.0968 43.8946 29.1078C43.7708 29.1223 43.6871 29.2861 43.709 29.479H43.7053Z" fill="#6E4725"/>
<path d="M44.5933 30.1777C44.6624 30.1231 44.6988 30.0212 44.7134 29.963C44.6297 29.9302 44.5168 29.8428 44.5277 29.7919C44.5423 29.7264 44.8662 29.7045 44.9281 29.7409C44.9827 29.77 44.8881 29.9084 44.8116 29.9593C44.8444 30.0357 44.9136 30.1522 45.0191 30.1449C45.263 30.1231 45.3649 29.9193 45.3649 29.9193C45.3649 29.9193 45.3831 30.0285 45.3321 30.134C45.3321 30.134 45.1611 30.316 44.95 30.2432C44.7752 30.1813 44.7534 30.0721 44.7498 30.0394C44.7498 30.094 44.7425 30.3269 44.495 30.3342C44.2184 30.3415 44.1747 30.0903 44.1747 30.0903C44.1747 30.0903 44.4804 30.265 44.586 30.185L44.5933 30.1777Z" fill="#6E4725"/>
<path d="M44.9461 28.1212C44.9498 28.0957 44.5567 24.5579 45.1354 24.1757C45.7141 23.7935 45.5431 27.3059 45.23 28.1139L44.9498 28.1212H44.9461Z" fill="#E39E66"/>
<path d="M43.8506 28.2378C43.8361 28.2124 43.0717 24.74 42.402 24.5617C41.7323 24.387 43.0244 27.6591 43.5813 28.3216L43.8506 28.2378Z" fill="#E39E66"/>
<path d="M42.8388 30.1958C42.8097 30.3742 42.9152 30.5416 43.0827 30.5707C43.2465 30.5998 43.4066 30.4797 43.4394 30.3014C43.4685 30.123 43.3629 29.9556 43.1955 29.9265C43.0317 29.8974 42.8716 30.0175 42.8388 30.1958Z" fill="#E39E66"/>
<path d="M45.9583 29.646C45.9292 29.8244 46.0347 29.9918 46.2022 30.0209C46.366 30.05 46.5261 29.9299 46.5589 29.7516C46.588 29.5732 46.4824 29.4058 46.315 29.3767C46.1512 29.3475 45.9911 29.4677 45.9583 29.646Z" fill="#E39E66"/>
<path d="M30.0561 32.4434C29.9833 32.4688 29.9068 32.487 29.834 32.5052C29.4591 32.5817 29.0697 32.6326 28.6948 32.6508V32.6581H28.4655H28.4182C27.9777 32.6581 27.5046 32.6108 27.0532 32.5271C26.2598 32.3815 25.681 31.7154 25.6192 30.871C25.5537 30.0083 26.0632 29.2586 26.9186 28.9601C26.5946 28.1994 25.6556 25.8117 26.1105 24.6615C26.2234 24.3703 26.4163 24.1701 26.6783 24.061C26.6965 24.0537 26.7147 24.0464 26.7329 24.0391C26.9732 23.9554 27.2098 23.9882 27.4136 24.1337C28.0323 24.5742 28.2908 26.1029 28.3963 27.3258C28.4873 25.9682 28.7567 24.2721 29.5283 24.0064C29.6957 23.9481 29.8741 23.9554 30.0561 24.0282C30.3218 24.1301 30.5147 24.3303 30.6348 24.6178C31.108 25.7644 30.2126 28.1666 29.9032 28.931C30.8241 29.2331 31.199 29.972 31.2353 30.598C31.2827 31.4279 30.7986 32.1849 30.0561 32.4397V32.4434Z" fill="#E8B691"/>
<path d="M29.6047 29.0839C29.6047 29.0839 31.4646 24.8218 29.976 24.2394C28.4909 23.657 28.571 28.942 28.571 28.942H28.4291H28.4218H28.3927H28.2507C28.2507 28.942 28.2362 23.6607 26.762 24.2685C25.2879 24.8764 27.2243 29.1058 27.2243 29.1058C25.2588 29.5717 25.5354 32.0249 27.0969 32.3161C27.5228 32.3961 27.9814 32.4398 28.4218 32.4435C28.4218 32.4435 28.4327 32.4435 28.4363 32.4435C28.4473 32.4435 28.4582 32.4435 28.4691 32.4435C28.9095 32.4325 29.3645 32.3779 29.7903 32.2906C31.3445 31.9739 31.5775 29.5134 29.6047 29.0839Z" fill="white"/>
<path d="M27.956 30.0194C27.967 30.2123 27.876 30.3725 27.7522 30.3798C27.6285 30.3871 27.5193 30.2342 27.5083 30.0449C27.4974 29.8556 27.5884 29.6919 27.7122 29.6846C27.8359 29.6773 27.9451 29.8302 27.956 30.0194Z" fill="#6E4725"/>
<path d="M29.2735 30.0126C29.2844 30.2055 29.1935 30.3656 29.0697 30.3729C28.9459 30.3802 28.8368 30.2273 28.8258 30.0381C28.8149 29.8452 28.9059 29.685 29.0297 29.6777C29.1534 29.6705 29.2626 29.8233 29.2735 30.0126Z" fill="#6E4725"/>
<path d="M28.5055 30.842C28.4291 30.802 28.3781 30.7074 28.3527 30.6491C28.4327 30.6055 28.5274 30.4999 28.5092 30.4526C28.4837 30.3871 28.1634 30.4198 28.1052 30.4671C28.0578 30.5035 28.1743 30.6273 28.2544 30.6637C28.2326 30.7438 28.1852 30.8712 28.076 30.8784C27.8322 30.8966 27.6975 30.711 27.6975 30.711C27.6975 30.711 27.6975 30.8202 27.763 30.9185C27.763 30.9185 27.9596 31.0713 28.1561 30.9622C28.3199 30.8712 28.3235 30.762 28.3199 30.7292C28.3272 30.7802 28.3709 31.0131 28.6184 30.9803C28.895 30.944 28.8986 30.6892 28.8986 30.6892C28.8986 30.6892 28.6256 30.9112 28.5092 30.8493L28.5055 30.842Z" fill="#6E4725"/>
<path d="M27.8285 28.869C27.8212 28.8435 27.6465 25.2911 27.0131 25.0036C26.3798 24.716 27.1078 28.1593 27.5482 28.9054L27.8285 28.869Z" fill="#E39E66"/>
<path d="M28.9314 28.8111C28.9423 28.7857 29.1425 25.2332 29.7758 24.953C30.4091 24.6727 29.6557 28.1087 29.2117 28.8512L28.9314 28.8111Z" fill="#E39E66"/>
<path d="M30.2416 30.5798C30.2999 30.7509 30.2198 30.9329 30.0596 30.9875C29.8995 31.0421 29.7248 30.9475 29.6666 30.7764C29.6083 30.6053 29.6884 30.4233 29.8485 30.3687C30.0087 30.3141 30.1834 30.4088 30.2416 30.5798Z" fill="#E39E66"/>
<path d="M27.0714 30.5364C27.1296 30.7074 27.0495 30.8894 26.8894 30.944C26.7292 30.9986 26.5545 30.904 26.4963 30.7329C26.438 30.5619 26.5181 30.3799 26.6783 30.3253C26.8384 30.2707 27.0131 30.3653 27.0714 30.5364Z" fill="#E39E66"/>
<path d="M11.1182 34.9618C11.1182 34.9618 10.867 33.939 11.5149 33.7935C12.1628 33.6479 12.2283 34.6051 11.7624 35.1365C11.7624 35.1365 12.7342 34.6306 13.1564 35.1729C13.5786 35.7153 12.5668 36.3013 11.8279 35.5624C11.8279 35.5624 12.1919 36.0901 11.7697 36.6361C11.3438 37.1857 10.4484 36.5597 11.0199 35.4714C11.0199 35.4714 10.5212 35.9446 10.0735 35.5187C9.62584 35.0929 9.99346 34.3467 11.1182 34.9582V34.9618Z" fill="#F9EF59"/>
<path d="M27.9412 35.9186C27.9412 35.9186 27.5772 34.9286 28.2033 34.7102C28.8293 34.4918 29.004 35.4345 28.6 36.0169C28.6 36.0169 29.51 35.4054 29.9904 35.8968C30.4709 36.3881 29.5318 37.087 28.7165 36.4354C28.7165 36.4354 29.1387 36.9159 28.7784 37.5092C28.418 38.1025 27.4571 37.582 27.9012 36.4391C27.9012 36.4391 27.4608 36.9669 26.9657 36.592C26.4707 36.2207 26.751 35.4345 27.9412 35.9149V35.9186Z" fill="#F9EF59"/>
<path d="M45.6814 34.9618C45.6814 34.9618 45.9326 33.939 45.2847 33.7935C44.6368 33.6479 44.5713 34.6051 45.0372 35.1365C45.0372 35.1365 44.0653 34.6306 43.6431 35.1729C43.2209 35.7153 44.2328 36.3013 44.9716 35.5624C44.9716 35.5624 44.6077 36.0901 45.0299 36.6361C45.4557 37.1857 46.3511 36.5597 45.7797 35.4714C45.7797 35.4714 46.2783 35.9446 46.726 35.5187C47.1737 35.0929 46.8061 34.3467 45.6814 34.9582V34.9618Z" fill="#F9EF59"/>
<path fill-rule="evenodd" clip-rule="evenodd" d="M15.8357 10.5257C16.1753 10.6292 16.7653 10.6982 17.3851 10.26C17.3851 10.26 17.0107 11.1511 17.8044 11.2671C18.5981 11.3832 19.0923 10.7654 19.0923 10.7654C19.0923 10.7654 19.0698 11.5741 19.8635 11.5254C20.6572 11.4768 21.0316 10.5183 21.0316 10.5183C21.0316 10.5183 21.1963 11.1735 21.9189 11.1735C22.6414 11.1735 22.6452 10.0054 22.6452 10.0054C22.6452 10.0054 22.7388 10.5895 23.3715 10.6606C24.0042 10.7317 24.285 10.144 24.285 10.144C24.285 10.144 23.8881 11.342 24.6818 11.5254C25.4755 11.7089 25.9697 11.1735 25.9697 11.1735C25.9697 11.1735 25.6889 12.0159 26.3665 12.2031C27.0442 12.3903 27.5346 11.664 27.5346 11.664C27.5346 11.664 27.6731 12.3191 28.3059 12.4577C28.9386 12.5962 29.2193 11.6864 29.2193 11.6864C29.2193 11.6864 29.429 12.2705 30.2264 12.1769C31.0239 12.0833 30.9041 11.0762 30.9041 11.0762C30.9041 11.0762 31.2298 11.5217 31.8625 11.357C32.4952 11.1922 32.1882 10.1178 32.1882 10.1178C32.1882 10.1178 32.6562 10.3985 33.0081 10.2338C33.36 10.0691 33.2178 9.46258 33.2178 9.46258C33.2178 9.46258 33.4274 10.3761 34.1313 10.4435C34.8351 10.5109 35.0897 10.2113 35.0897 10.2113C35.0897 10.2113 35.2993 10.9077 36.0256 11.0762C36.7519 11.2447 37.1001 10.5146 37.1001 10.5146C37.1001 10.5146 37.497 11.1698 37.9874 11.1922C38.4779 11.2147 38.8747 10.6756 38.8747 10.6756C38.8747 10.6756 39.2491 11.2596 40.1626 11.3083C40.6732 11.3355 40.9697 11.2188 41.132 11.1106C40.7171 10.6886 40.2939 10.2841 39.8624 9.89843C38.1984 9.34576 32.9918 7.68356 31.271 7.92761C29.4629 8.18403 19.6331 9.06394 17.263 9.27469C16.7776 9.66921 16.3016 10.0868 15.8357 10.5257Z" fill="#5961A8"/>
<path fill-rule="evenodd" clip-rule="evenodd" d="M17.0278 9.46825C18.6637 10.307 21.0598 10.759 23.7647 8.77731C23.7647 8.77731 25.543 11.3343 28.7552 11.0536C31.9674 10.7728 32.4354 8.33927 32.4354 8.33927C32.4354 8.33927 35.5241 10.6155 39.3016 10.2411C39.5932 10.2112 39.8649 10.1732 40.1169 10.1288C40.0324 10.0513 39.9476 9.97448 39.8625 9.8984C36.4687 6.86498 32.5626 5 28.1633 5C24.2428 5 20.5396 6.6113 17.263 9.27466C17.1844 9.33859 17.106 9.40312 17.0278 9.46825Z" fill="#A5C8E7"/>
<path fill-rule="evenodd" clip-rule="evenodd" d="M38.1583 8.50832C35.9572 9.1515 32.197 7.33102 31.3646 6.86781C31.0838 7.41066 30.1404 8.9082 28.2685 8.94938H28.1824C26.3591 8.94938 25.2584 7.70642 24.9065 7.2347C24.5958 7.46307 23.832 7.89736 22.3008 8.1145C20.8585 8.32229 19.7879 8.04125 19.2415 7.83118C19.3928 7.73301 19.5449 7.63709 19.6978 7.54348C20.1306 7.71364 20.9723 7.92822 22.2484 7.74386C24.179 7.4686 24.7902 6.84577 24.8017 6.83411L24.9701 6.6544L25.1012 6.86032C25.1012 6.86032 26.2131 8.62366 28.261 8.57499C30.2827 8.53007 31.0763 6.62071 31.11 6.53835L31.1887 6.33618L31.3759 6.44475C31.4193 6.47011 35.399 8.77032 37.6783 8.16333C37.8393 8.27573 37.9993 8.39074 38.1583 8.50832Z" fill="#F9EF59"/>
<path fill-rule="evenodd" clip-rule="evenodd" d="M25.2623 5.29431C25.8509 5.60184 26.6818 5.88332 27.7482 5.88332C28.9372 5.88332 29.9052 5.5318 30.5657 5.18891C29.7821 5.06446 28.9812 5 28.1633 5C27.1816 5 26.2135 5.10103 25.2623 5.29431Z" fill="#D35B3C"/>
<path d="M42.9153 61.1547C38.8242 64.7289 33.7103 66.8509 28.1633 66.8509C22.6163 66.8509 17.5534 64.7508 13.4768 61.2129C14.8526 60.98 17.1384 61.202 20.7418 63.1092C20.6763 62.9855 19.1985 60.252 20.4433 59.717C21.7173 59.171 23.8393 61.9627 24.4471 63.1129C24.4471 63.1129 25.1896 59.6005 28.4217 58.9927L28.429 58.989C31.6611 59.6005 32.4036 63.1129 32.4036 63.1129C33.0115 61.9627 35.1335 59.171 36.4074 59.717C37.6522 60.252 36.1744 62.9855 36.1089 63.1092C39.3374 61.3985 41.5067 61.0419 42.9153 61.1547Z" fill="#A5C8E7"/>
<path d="M17.2587 60.2011C17.2587 60.2011 13.8628 58.6542 12.2831 56.6232C10.7071 54.5922 10.8891 52.907 10.8891 52.907C10.8891 52.907 15.7409 53.7441 17.2587 60.2047V60.2011Z" fill="#A5C8E7"/>
<path d="M38.2709 60.2011C38.2709 60.2011 41.6668 58.6542 43.2465 56.6232C44.8225 54.5922 44.6405 52.907 44.6405 52.907C44.6405 52.907 39.7887 53.7441 38.2709 60.2047V60.2011Z" fill="#A5C8E7"/>
<path d="M19.7845 56.256C19.7845 56.256 19.4205 55.266 20.0465 55.0476C20.6726 54.8292 20.8473 55.7719 20.4433 56.3543C20.4433 56.3543 21.3532 55.7428 21.8337 56.2342C22.3141 56.7255 21.3751 57.4244 20.5597 56.7728C20.5597 56.7728 20.982 57.2533 20.6216 57.8466C20.2613 58.4399 19.3004 57.9194 19.7444 56.7765C19.7444 56.7765 19.304 57.3042 18.809 56.9293C18.314 56.5581 18.5943 55.7719 19.7845 56.2524V56.256Z" fill="#F9EF59"/>
<path d="M34.9477 56.256C34.9477 56.256 34.5837 55.266 35.2097 55.0476C35.8358 54.8292 36.0105 55.7719 35.6065 56.3543C35.6065 56.3543 36.5164 55.7428 36.9969 56.2342C37.4773 56.7255 36.5383 57.4244 35.7229 56.7728C35.7229 56.7728 36.1452 57.2533 35.7848 57.8466C35.4245 58.4399 34.4636 57.9194 34.9076 56.7765C34.9076 56.7765 34.4672 57.3042 33.9722 56.9293C33.4772 56.5581 33.7575 55.7719 34.9477 56.2524V56.256Z" fill="#F9EF59"/>
<path d="M28.429 57.3257C28.8431 57.3257 29.1788 56.9803 29.1788 56.5541C29.1788 56.1279 28.8431 55.7825 28.429 55.7825C28.0149 55.7825 27.6792 56.1279 27.6792 56.5541C27.6792 56.9803 28.0149 57.3257 28.429 57.3257Z" fill="#5961A8"/>
<path fill-rule="evenodd" clip-rule="evenodd" d="M47.5335 20.0931C47.3808 19.7993 47.225 19.5079 47.0661 19.219C46.7105 19.6458 46.3123 19.9462 45.8939 19.9923C44.8624 20.1107 43.8436 19.4121 42.6612 18.6012L42.6477 18.592L42.6377 18.5851C41.0439 17.4957 39.0605 16.1401 36.3039 16.4958C33.9944 16.7924 32.751 17.8334 31.6574 18.749C30.5286 19.7038 29.5357 20.5312 27.4904 20.6161C25.4536 20.5312 24.4606 19.7038 23.3234 18.749C22.2328 17.8325 20.9938 16.7928 18.6811 16.4958C15.9289 16.137 13.9535 17.4873 12.3623 18.5749L12.3373 18.592L12.3116 18.6096C11.1345 19.4168 10.1232 20.1103 9.09108 19.9923C9.01733 19.9841 8.9439 19.9679 8.87107 19.9442C8.73516 20.2033 8.60165 20.4643 8.47058 20.7269C8.62713 20.7806 8.79029 20.8181 8.95953 20.8368C10.4327 21.0019 11.6694 20.1534 12.9771 19.2562L12.9865 19.2497C14.5693 18.1592 16.2157 17.0347 18.5241 17.3317C20.5058 17.5863 21.5242 18.4435 22.5978 19.3473C23.6926 20.2681 24.8255 21.2144 26.9218 21.4308C26.9854 21.4563 27.0618 21.4733 27.1382 21.4733C27.2612 21.4733 27.38 21.469 27.4904 21.4648L27.5024 21.4652C27.6169 21.4693 27.7278 21.4733 27.8426 21.4733C27.9232 21.4733 27.9996 21.4563 28.0675 21.4308C30.1595 21.2144 31.2997 20.2621 32.3902 19.3413C33.4654 18.4397 34.4836 17.5858 36.4566 17.3317C38.7778 17.0347 40.4157 18.1592 42.0027 19.2497C43.3097 20.1493 44.553 20.998 46.0255 20.8368C46.6078 20.7714 47.109 20.4876 47.5335 20.0931Z" fill="#E2D8CF"/>
<path d="M18.2859 19.3496C18.2859 19.3496 18.6208 18.8255 18.952 19.1786C19.3779 19.6335 18.1658 20.5107 18.1658 20.5107C18.1658 20.5107 17.2449 19.4006 17.6016 19.0548C17.9547 18.709 18.2859 19.3496 18.2859 19.3496Z" fill="#A5C8E7"/>
<path d="M36.3093 19.3496C36.3093 19.3496 35.9744 18.8255 35.6432 19.1786C35.2173 19.6335 36.4294 20.5107 36.4294 20.5107C36.4294 20.5107 37.3502 19.4006 36.9935 19.0548C36.6405 18.709 36.3093 19.3496 36.3093 19.3496Z" fill="#A5C8E7"/>
<path d="M52.4406 39.1557C52.4406 42.8901 51.7927 46.4498 50.6171 49.7001C48.9719 54.2571 46.293 58.2026 42.9153 61.1545C38.8242 64.7287 33.7103 66.8507 28.1633 66.8507C22.6163 66.8507 17.5533 64.7506 13.4768 61.2127C10.0991 58.279 7.41657 54.3626 5.75684 49.8311C4.55207 46.5444 3.88599 42.9374 3.88599 39.1557C3.88599 37.2084 4.0607 35.2065 4.3992 33.1901C4.51931 32.4657 4.66126 31.7378 4.82141 31.0135C5.15991 29.4702 5.59304 27.9306 6.10625 26.4164C7.24914 23.0314 8.79969 19.7629 10.6705 16.8438C10.8125 16.6254 10.9544 16.4034 11.1037 16.1887C15.4823 9.64071 21.5098 5 28.1633 5C34.8168 5 40.342 9.26581 44.6733 15.3879C44.8444 15.6281 45.0118 15.872 45.1756 16.1159C47.2648 19.2133 48.9792 22.7439 50.2203 26.4128C50.8828 28.371 51.4105 30.3729 51.7854 32.3675C51.8327 32.6368 51.8837 32.9098 51.9274 33.1828C52.2659 35.2029 52.4406 37.2084 52.4406 39.1557Z" fill="url(#paint0_radial_1097_1379)"/>
<path d="M52.4406 39.1557C52.4406 42.8901 51.7927 46.4498 50.6171 49.7001C48.9719 54.2571 46.293 58.2026 42.9153 61.1545C38.8242 64.7287 33.7103 66.8507 28.1633 66.8507C22.6163 66.8507 17.5533 64.7506 13.4768 61.2127C10.0991 58.279 7.41657 54.3626 5.75684 49.8311C4.55207 46.5444 3.88599 42.9374 3.88599 39.1557C3.88599 37.2084 4.0607 35.2065 4.3992 33.1901C4.51931 32.4657 4.66126 31.7378 4.82141 31.0135C5.15991 29.4702 5.59304 27.9306 6.10625 26.4164C7.24914 23.0314 8.79969 19.7629 10.6705 16.8438C10.8125 16.6254 10.9544 16.4034 11.1037 16.1887C15.4823 9.64071 21.5098 5 28.1633 5C34.8168 5 40.342 9.26581 44.6733 15.3879C44.8444 15.6281 45.0118 15.872 45.1756 16.1159C47.2648 19.2133 48.9792 22.7439 50.2203 26.4128C50.8828 28.371 51.4105 30.3729 51.7854 32.3675C51.8327 32.6368 51.8837 32.9098 51.9274 33.1828C52.2659 35.2029 52.4406 37.2084 52.4406 39.1557Z" fill="url(#paint1_radial_1097_1379)"/>
<defs>
<radialGradient id="paint0_radial_1097_1379" cx="0" cy="0" r="1" gradientUnits="userSpaceOnUse" gradientTransform="translate(24.886 31.5) rotate(73.791) scale(44.78 35.1536)">
<stop stop-color="#11151C" stop-opacity="0"/>
<stop offset="1" stop-color="#11151C" stop-opacity="0.5"/>
</radialGradient>
<radialGradient id="paint1_radial_1097_1379" cx="0" cy="0" r="1" gradientUnits="userSpaceOnUse" gradientTransform="translate(26.886 34) rotate(75.2564) scale(39.2938 30.8468)">
<stop offset="0.609498" stop-color="#11151C" stop-opacity="0"/>
<stop offset="1" stop-color="#11151C"/>
</radialGradient>
</defs>
</svg>
