<svg width="56" height="72" viewBox="0 0 56 72" fill="none" xmlns="http://www.w3.org/2000/svg">
<path d="M52.2731 39.1593C52.2731 39.9054 52.2476 40.6443 52.193 41.3759C52.1603 41.9 52.1093 42.4205 52.0474 42.9374C52.011 43.2577 51.9673 43.5743 51.92 43.891C51.647 45.6963 51.2212 47.4434 50.657 49.1104C50.2785 50.2315 49.8381 51.3198 49.3394 52.368C45.2265 60.9943 37.2117 66.8507 27.9958 66.8507C23.6317 66.8507 19.5406 65.5404 16.0027 63.2437C15.2529 62.756 14.5286 62.2245 13.8334 61.6495C12.7488 60.7614 11.7333 59.775 10.7942 58.6976C10.4557 58.3118 10.1281 57.915 9.81147 57.5038C9.73503 57.4018 9.65496 57.2999 9.58216 57.198C9.26186 56.7794 8.95976 56.35 8.66494 55.9095C7.08164 53.54 5.82955 50.8684 4.98149 47.9857C4.88685 47.6691 4.79586 47.3524 4.71578 47.0285C4.06426 44.5352 3.71484 41.8928 3.71484 39.1593C3.71484 36.2802 4.10066 33.2774 4.8177 30.2964C4.86865 30.0744 4.92325 29.8524 4.98149 29.634C5.36366 28.1381 5.82591 26.6494 6.36824 25.1898C6.52111 24.7713 6.68126 24.36 6.85233 23.9487C7.35098 22.7111 7.90423 21.5027 8.50843 20.3271C8.64861 20.0506 8.79204 19.7755 8.93854 19.5025C9.20284 19.0099 9.47716 18.524 9.76051 18.0486C9.87142 17.8601 9.98393 17.6733 10.0978 17.4879C10.369 17.0468 10.648 16.6141 10.9325 16.1887C11.1109 15.9193 11.2965 15.6536 11.4785 15.3916C12.3229 14.1941 13.2256 13.0694 14.1792 12.0357C17.2293 8.71257 20.789 6.2994 24.6399 5.39673C25.7355 5.13467 26.8565 5 27.9921 5C28.6327 5 29.2697 5.04367 29.8994 5.12739C34.1361 5.69155 38.0634 8.10473 41.412 11.6135C41.9543 12.1849 42.4821 12.7818 42.9917 13.4042C43.3993 13.8992 43.7961 14.4125 44.1819 14.9402C46.6132 18.267 48.6042 22.1797 50.0019 26.2708C50.1438 26.6858 50.2785 27.1044 50.4095 27.5229C50.8754 29.0334 51.2612 30.5658 51.5597 32.0981C51.6725 32.6732 51.7708 33.2483 51.8582 33.8234C52.0365 34.9954 52.1566 36.1638 52.2185 37.3176C52.2512 37.9363 52.2731 38.5514 52.2731 39.1593Z" fill="#7B7DB9"/>
<path d="M47.1153 56.2626C46.9988 56.4301 46.8824 56.5938 46.7659 56.7576C46.5621 57.0379 46.3546 57.3145 46.1398 57.5875C44.9096 59.1708 43.5192 60.5903 41.9978 61.8169C41.3717 62.3228 40.7166 62.7997 40.0469 63.2364C40.0432 63.2401 40.0396 63.2437 40.0396 63.2437C36.4908 65.5622 32.3778 66.8871 27.9919 66.8871C25.1529 66.8871 22.434 66.3339 19.9043 65.3111C19.4385 65.1255 18.9798 64.9216 18.5285 64.7033C16.1044 63.5312 13.8842 61.9261 11.9405 59.9643C11.6966 59.724 11.4564 59.4729 11.2308 59.2181C9.13061 56.936 7.39807 54.2353 6.12415 51.2288C6.055 51.065 5.98948 50.9049 5.92397 50.7411C5.49083 49.6673 5.11594 48.5536 4.80291 47.407C4.70464 47.0394 4.61001 46.6645 4.52265 46.286C3.99852 44.0257 3.71826 41.6489 3.71826 39.1957C3.71826 38.0164 3.78378 36.8153 3.90753 35.6069C3.93301 35.3558 3.96213 35.1082 3.99488 34.8571C4.12228 33.8052 4.29699 32.7533 4.51173 31.7014C6.57549 40.2549 11.8495 51.4035 25.313 54.9596C35.8502 57.744 42.7476 57.4201 47.1189 56.2626H47.1153Z" fill="#6A6FA5"/>
<path d="M35.7048 14.0778C35.7048 14.0778 43.4976 31.4323 45.4376 38.1695C47.3776 44.9067 46.9918 31.9164 43.301 24.5822C39.6103 17.2481 35.7376 11.7593 35.7048 14.0778Z" fill="#A1A6D3"/>
<path d="M50.413 27.523C46.3401 27.5084 40.7968 27.0425 33.4298 25.6339C22.9 23.6211 15.5731 19.6101 10.936 16.1887C11.1144 15.9194 11.3 15.6537 11.482 15.3916C24.5925 23.6211 40.0579 25.805 50.0054 26.2709C50.1473 26.6858 50.282 27.1044 50.413 27.523Z" fill="#D35B3C"/>
<path d="M52.0474 42.9374C52.011 43.2577 51.9673 43.5744 51.92 43.891C47.8143 44.295 40.9825 44.2295 30.3361 42.1949C17.1274 39.6725 8.95971 34.0054 4.82129 30.2965C4.87225 30.0744 4.92684 29.8524 4.98508 29.634C21.1966 41.6016 42.4274 42.992 52.0474 42.9374Z" fill="#D35B3C"/>
<path d="M44.1855 14.9405C41.2263 16.9788 37.3318 19.1991 32.2069 21.4739C22.3614 25.8453 13.1054 26.0491 6.37183 25.1901C6.5247 24.7716 6.68485 24.3603 6.85592 23.949C22.3468 24.4658 34.8603 18.7077 42.9952 13.4045C43.4029 13.8996 43.7996 14.4128 44.1855 14.9405Z" fill="#E4A134"/>
<path d="M51.8617 33.8236C48.9026 36.8155 43.6504 40.7501 34.3908 44.8594C22.6598 50.068 11.7696 49.3618 4.9814 47.986C4.88677 47.6693 4.79577 47.3527 4.7157 47.0287C27.2969 49.4565 44.2145 38.1987 51.5632 32.0984C51.6761 32.6735 51.7744 33.2486 51.8617 33.8236Z" fill="#E4A134"/>
<path d="M50.657 49.1106C50.2784 50.2316 49.838 51.3199 49.3394 52.3682C46.3402 54.472 42.3365 56.7796 37.0078 59.1455C29.3425 62.5486 22.0374 63.4258 16.0027 63.2438C15.2529 62.7561 14.5286 62.2247 13.8334 61.6496C30.2378 61.5841 43.0935 54.5885 50.657 49.1106Z" fill="#E4A134"/>
<path d="M12.2464 41.9401C12.2464 41.9401 10.6995 40.3313 11.7296 39.3777C12.7596 38.424 13.8989 40.1056 13.6113 41.5761C13.6113 41.5761 14.8562 39.6179 16.2029 40.1639C17.5496 40.7098 16.3193 42.8609 14.1864 42.2858C14.1864 42.2858 15.413 42.8609 15.2165 44.3168C15.0199 45.7727 12.716 45.5762 12.6068 42.981C12.6068 42.981 12.1991 44.3751 10.9252 44.073C9.65127 43.7709 9.53116 42.0092 12.2428 41.9328L12.2464 41.9401Z" fill="#A3E593"/>
<path d="M43.5844 20.3451C43.5844 20.3451 42.376 19.0894 43.1804 18.3396C43.9884 17.5935 44.8765 18.9074 44.6508 20.0612C44.6508 20.0612 45.6226 18.5325 46.6782 18.9584C47.7337 19.3842 46.7692 21.0695 45.0985 20.6181C45.0985 20.6181 46.0594 21.0695 45.9065 22.2087C45.7537 23.348 43.9483 23.1951 43.8646 21.1641C43.8646 21.1641 43.5443 22.256 42.547 22.0194C41.5497 21.7829 41.4551 20.407 43.5807 20.3451H43.5844Z" fill="#A3E593"/>
<path d="M18.0721 27.6549C18.0721 27.6549 17.4163 26.632 18.0721 25.5935C18.0721 25.5935 19.0534 25.9241 18.9727 27.5221C18.9727 27.5221 19.6234 26.5331 20.8596 26.9079C20.8596 26.9079 20.6775 28.0296 19.3214 28.1598C19.3214 28.1598 20.6488 28.4044 20.8596 29.5913C20.8596 29.5913 19.639 30.2498 18.7462 28.6803C18.7462 28.6803 18.9727 29.9661 18.0799 30.3409C18.0799 30.3409 17.2835 29.495 18.2101 28.5684C18.2101 28.5684 17.3798 28.9744 16.6328 28.4227C16.6328 28.4227 16.4767 27.5924 18.0747 27.6575L18.0721 27.6549Z" fill="#E7B6D1"/>
<path d="M41.2298 48.1095C41.2298 48.1095 40.3126 46.6791 41.2298 45.2268C41.2298 45.2268 42.602 45.6891 42.4892 47.9239C42.4892 47.9239 43.3991 46.5408 45.128 47.0649C45.128 47.0649 44.8732 48.6336 42.9769 48.8156C42.9769 48.8156 44.8332 49.1578 45.128 50.8175C45.128 50.8175 43.421 51.7384 42.1725 49.5436C42.1725 49.5436 42.4928 51.3416 41.2407 51.8658C41.2407 51.8658 40.127 50.6828 41.4227 49.3871C41.4227 49.3871 40.2616 49.9549 39.217 49.1832C39.217 49.1832 38.9986 48.0222 41.2335 48.1131L41.2298 48.1095Z" fill="#E7B6D1"/>
<path d="M29.8994 36.5714C29.8156 36.586 29.7319 36.5932 29.6446 36.5969C29.2187 36.6151 28.7856 36.5969 28.3743 36.5569V36.5641L28.1231 36.5277L28.0722 36.5168C27.5917 36.4367 27.0858 36.3057 26.6054 36.1346C25.7646 35.8325 25.2514 35.0063 25.3314 34.0709C25.4115 33.1173 26.1031 32.3857 27.0858 32.2146C26.8674 31.3265 26.2632 28.5566 26.9621 27.3773C27.1368 27.0825 27.3806 26.8933 27.6864 26.8241C27.7082 26.8205 27.7264 26.8132 27.7482 26.8132C28.0285 26.7659 28.2796 26.8423 28.4762 27.0352C29.0731 27.6248 29.0877 29.3392 28.9858 30.6932C29.3243 29.2264 29.9175 27.4247 30.8093 27.2682C31.0022 27.2354 31.1951 27.2754 31.3844 27.3846C31.6537 27.5448 31.8321 27.7959 31.9121 28.1308C32.2288 29.4629 30.8275 31.9307 30.3543 32.7133C31.3079 33.2046 31.5882 34.0782 31.5154 34.7661C31.4244 35.6797 30.7583 36.4222 29.903 36.5714H29.8994Z" fill="#E8B691"/>
<path d="M29.9975 32.8181C29.9975 32.8181 32.7783 28.4904 31.2606 27.5914C29.7428 26.6924 28.8983 32.4796 28.8983 32.4796L28.7418 32.4505H28.7345L28.7018 32.4432L28.5453 32.425C28.5453 32.425 29.4625 26.6487 27.7445 27.0527C26.0266 27.4567 27.3951 32.4177 27.3951 32.4177C25.1676 32.5779 25.0365 35.3077 26.689 35.901C27.1403 36.0612 27.6317 36.1922 28.1121 36.2723C28.1121 36.2723 28.1231 36.2723 28.1303 36.2723C28.1413 36.2723 28.1558 36.2759 28.1667 36.2795C28.6508 36.3451 29.1568 36.3669 29.6372 36.3451C31.3916 36.2723 32.0795 33.6261 30.0012 32.8108L29.9975 32.8181Z" fill="white"/>
<path d="M28.032 33.5502C28.0102 33.7613 27.8792 33.9214 27.7445 33.9069C27.6098 33.8923 27.5152 33.7103 27.5407 33.4956C27.5625 33.2845 27.6935 33.1243 27.8282 33.1389C27.9629 33.1534 28.0575 33.3354 28.032 33.5502Z" fill="#6E4725"/>
<path d="M29.4736 33.7757C29.4517 33.9868 29.3207 34.147 29.186 34.1324C29.0513 34.1179 28.9567 33.9359 28.9822 33.7211C29.004 33.51 29.1351 33.3499 29.2697 33.3644C29.4044 33.379 29.499 33.561 29.4736 33.7757Z" fill="#6E4725"/>
<path d="M28.4871 34.5433C28.4106 34.4851 28.3706 34.3723 28.356 34.3031C28.4507 34.2667 28.5744 34.1721 28.5599 34.1139C28.5417 34.0411 28.1886 34.0192 28.1158 34.0556C28.0576 34.0884 28.1595 34.2412 28.2432 34.2958C28.2068 34.3796 28.1304 34.5106 28.0102 34.4997C27.7373 34.4778 27.6244 34.2485 27.6244 34.2485C27.6244 34.2485 27.6026 34.3686 27.6572 34.4888C27.6572 34.4888 27.8465 34.6926 28.0794 34.6089C28.276 34.5397 28.2978 34.4196 28.3014 34.3832C28.3014 34.4414 28.3087 34.7035 28.5817 34.7108C28.8874 34.7181 28.9384 34.4414 28.9384 34.4414C28.9384 34.4414 28.5999 34.6343 28.4834 34.547L28.4871 34.5433Z" fill="#6E4725"/>
<path d="M28.0976 32.2727C28.0939 32.2436 28.5271 28.3309 27.8901 27.9087C27.2495 27.4864 27.4388 31.3737 27.7882 32.2655L28.1012 32.2727H28.0976Z" fill="#E39E66"/>
<path d="M29.3097 32.4032C29.3242 32.3777 30.1723 28.5341 30.9112 28.3375C31.6537 28.141 30.2233 31.7626 29.6045 32.4978L29.306 32.4068L29.3097 32.4032Z" fill="#E39E66"/>
<path d="M30.4308 34.5658C30.4635 34.7624 30.3434 34.948 30.1614 34.9808C29.9794 35.0135 29.8011 34.8788 29.7683 34.6823C29.7356 34.4858 29.8557 34.3001 30.0377 34.2674C30.2197 34.2346 30.398 34.3693 30.4308 34.5658Z" fill="#E39E66"/>
<path d="M26.9767 33.9579C27.0094 34.1545 26.8893 34.3401 26.7073 34.3728C26.5253 34.4056 26.347 34.2709 26.3142 34.0744C26.2815 33.8778 26.4016 33.6922 26.5836 33.6595C26.7656 33.6267 26.9439 33.7614 26.9767 33.9579Z" fill="#E39E66"/>
<path d="M36.0139 28.99C36.0139 28.99 36.0306 27.8523 36.7478 27.8761C37.4651 27.8999 37.2727 28.9188 36.641 29.3487C36.641 29.3487 37.7953 29.085 38.0874 29.7691C38.3819 30.4531 37.1611 30.7904 36.5935 29.8142C36.5935 29.8142 36.831 30.465 36.2372 30.921C35.6434 31.377 34.8786 30.4792 35.7717 29.5007C35.7717 29.5007 35.1209 29.8593 34.7694 29.2917C34.4155 28.724 35.0045 28.0424 36.0163 28.99H36.0139Z" fill="#A3E593"/>
<path d="M27.0365 20.6108C27.4506 20.6108 27.7863 20.2637 27.7863 19.8356C27.7863 19.4074 27.4506 19.0603 27.0365 19.0603C26.6224 19.0603 26.2867 19.4074 26.2867 19.8356C26.2867 20.2637 26.6224 20.6108 27.0365 20.6108Z" fill="#A3E593"/>
<path d="M38.0305 54.4499C37.965 54.5045 37.8995 54.5554 37.8267 54.6028C37.4737 54.8357 37.0915 55.0468 36.7166 55.2215V55.2288L36.4836 55.3271L36.4363 55.3453C35.985 55.5236 35.4791 55.6729 34.9804 55.7711C34.1032 55.9458 33.237 55.5018 32.8257 54.661C32.4034 53.802 32.6182 52.8229 33.3716 52.1641C32.7274 51.5162 30.7801 49.4525 30.7728 48.0803C30.7728 47.7345 30.882 47.4506 31.1077 47.2322C31.1222 47.2176 31.1404 47.2031 31.155 47.1885C31.3698 47.0029 31.6245 46.941 31.8939 47.0029C32.7092 47.1995 33.6046 48.6626 34.2161 49.8783C33.7502 48.4479 33.3316 46.5953 34.0159 46.002C34.1651 45.8746 34.3507 45.8091 34.5691 45.8054C34.8821 45.8054 35.1624 45.9255 35.4026 46.173C36.3599 47.1521 36.429 49.9912 36.429 50.9047C37.4991 50.8356 38.187 51.4398 38.4819 52.0658C38.8713 52.8957 38.6857 53.8748 38.0269 54.4462L38.0305 54.4499Z" fill="#E8B691"/>
<path d="M36.1816 51.1849C36.1816 51.1849 36.3381 46.0419 34.5728 46.0564C32.8075 46.071 35.0678 51.4651 35.0678 51.4651L34.9186 51.5234H34.9113L34.8822 51.5343L34.7366 51.5998C34.7366 51.5998 32.5455 46.1765 31.2825 47.4104C30.0195 48.6443 33.7466 52.1895 33.7466 52.1895C31.9194 53.4743 33.2152 55.8838 34.9368 55.538C35.4063 55.4434 35.8941 55.3051 36.349 55.1231C36.349 55.1231 36.36 55.1195 36.3636 55.1158C36.3745 55.1122 36.3854 55.1086 36.3964 55.1013C36.8477 54.9084 37.2917 54.6645 37.6921 54.3988C39.1589 53.4342 38.3837 50.81 36.1816 51.1812V51.1849Z" fill="white"/>
<path d="M34.8714 52.8267C34.9624 53.0196 34.9332 53.2234 34.8095 53.2816C34.6857 53.3399 34.511 53.2307 34.4237 53.0378C34.3363 52.8449 34.3618 52.641 34.4855 52.5828C34.6093 52.5246 34.784 52.6338 34.8714 52.8267Z" fill="#6E4725"/>
<path d="M36.2216 52.2734C36.3126 52.4663 36.2835 52.6702 36.1597 52.7284C36.036 52.7866 35.8612 52.6775 35.7739 52.4846C35.6865 52.2916 35.712 52.0878 35.8358 52.0296C35.9595 51.9713 36.1342 52.0805 36.2216 52.2734Z" fill="#6E4725"/>
<path d="M35.7776 53.4421C35.6793 53.4312 35.5883 53.3547 35.541 53.3038C35.6029 53.2237 35.6611 53.0781 35.6175 53.038C35.5629 52.9835 35.2498 53.1472 35.2062 53.2164C35.1698 53.2746 35.3408 53.3511 35.4391 53.3584C35.45 53.4493 35.45 53.5986 35.3445 53.6532C35.1006 53.7733 34.8859 53.6386 34.8859 53.6386C34.8859 53.6386 34.9295 53.7514 35.0387 53.8242C35.0387 53.8242 35.3044 53.9007 35.4609 53.7078C35.592 53.5476 35.5519 53.4311 35.5337 53.3984C35.5629 53.4493 35.7048 53.6677 35.9414 53.5331C36.2107 53.3802 36.1088 53.1181 36.1088 53.1181C36.1088 53.1181 35.9196 53.4566 35.774 53.4421H35.7776Z" fill="#6E4725"/>
<path d="M34.2708 51.6945C34.2526 51.6727 32.6111 48.0948 31.8431 48.062C31.0751 48.0293 33.2408 51.265 33.9978 51.851L34.2672 51.6982L34.2708 51.6945Z" fill="#E39E66"/>
<path d="M35.3773 51.1812C35.3773 51.152 34.1216 47.4213 34.6566 46.8717C35.1917 46.3221 35.8323 50.162 35.6794 51.1084L35.3773 51.1812Z" fill="#E39E66"/>
<path d="M37.4517 52.4591C37.5827 52.6083 37.5754 52.8303 37.4335 52.9504C37.2915 53.0705 37.0732 53.0487 36.9421 52.8958C36.8111 52.7466 36.8184 52.5246 36.9603 52.4045C37.1023 52.2844 37.3207 52.3062 37.4517 52.4591Z" fill="#E39E66"/>
<path d="M34.1796 53.7183C34.3106 53.8676 34.3034 54.0896 34.1614 54.2097C34.0194 54.3298 33.8011 54.308 33.67 54.1551C33.539 54.0059 33.5463 53.7839 33.6882 53.6637C33.8302 53.5436 34.0486 53.5655 34.1796 53.7183Z" fill="#E39E66"/>
<path d="M26.3941 52.8666C26.3941 52.8666 26.4196 51.1231 27.5188 51.1595C28.618 51.1959 28.3232 52.7574 27.355 53.4162C27.355 53.4162 29.1239 53.0121 29.5716 54.0604C30.023 55.1087 28.1521 55.6255 27.2822 54.1296C27.2822 54.1296 27.6462 55.1269 26.7363 55.8257C25.8263 56.5245 24.6543 55.1487 26.0229 53.6491C26.0229 53.6491 25.0256 54.1987 24.4869 53.3288C23.9445 52.4589 24.8472 51.4143 26.3978 52.8666H26.3941Z" fill="#A3E593"/>
<path d="M22.456 58.2317C22.3905 58.279 22.3214 58.3263 22.2486 58.3663C21.8919 58.5629 21.517 58.7376 21.1457 58.8723V58.8795L20.9164 58.9523L20.8691 58.9669C20.425 59.1016 19.941 59.1962 19.4641 59.2472C18.627 59.3345 17.8626 58.8067 17.5678 57.9296C17.2657 57.0305 17.5678 56.0805 18.3431 55.5018C17.808 54.7957 16.2065 52.55 16.3449 51.1851C16.3776 50.8429 16.5159 50.5699 16.7489 50.3734C16.7634 50.3588 16.7816 50.3479 16.7962 50.337C17.0146 50.1732 17.2621 50.1368 17.5059 50.2278C18.2485 50.5044 18.9291 52.0477 19.3732 53.3143C19.0892 51.8439 18.8927 49.9621 19.5915 49.4416C19.7444 49.3288 19.9228 49.2814 20.1302 49.3033C20.425 49.3324 20.6725 49.4816 20.8727 49.751C21.6662 50.8211 21.4333 53.6492 21.3313 54.5555C22.3396 54.5919 22.9183 55.2616 23.1294 55.9131C23.406 56.7794 23.1294 57.733 22.456 58.2353V58.2317Z" fill="#E8B691"/>
<path d="M21.0729 54.7992C21.0729 54.7992 21.7609 49.6999 20.1084 49.5398C18.4559 49.3796 19.9992 54.9667 19.9992 54.9667L19.8536 55.0067H19.8463L19.8172 55.014L19.6753 55.0649C19.6753 55.0649 18.2012 49.456 16.8872 50.5552C15.5732 51.6545 18.6852 55.549 18.6852 55.549C16.8435 56.6482 17.7971 59.1706 19.4423 58.9959C19.8936 58.9486 20.3632 58.8576 20.8072 58.7229C20.8072 58.7229 20.8182 58.7229 20.8218 58.7193C20.8327 58.7193 20.8436 58.712 20.8546 58.7083C21.295 58.5591 21.7354 58.3626 22.1394 58.1405C23.6099 57.3252 23.1658 54.6427 21.0657 54.7919L21.0729 54.7992Z" fill="white"/>
<path d="M19.6754 56.3027C19.7372 56.5028 19.6899 56.703 19.5698 56.7467C19.4461 56.7904 19.2968 56.6666 19.235 56.4628C19.1731 56.2626 19.2204 56.0624 19.3405 56.0188C19.4643 55.9751 19.6135 56.0988 19.6754 56.3027Z" fill="#6E4725"/>
<path d="M20.9967 55.8876C21.0585 56.0878 21.0112 56.288 20.8911 56.3317C20.7673 56.3754 20.6181 56.2516 20.5562 56.0478C20.4944 55.8476 20.5417 55.6474 20.6618 55.6037C20.7855 55.56 20.9348 55.6838 20.9967 55.8876Z" fill="#6E4725"/>
<path d="M20.4578 57.0051C20.3668 56.9833 20.2904 56.8996 20.2504 56.845C20.3159 56.7722 20.385 56.6339 20.3523 56.5866C20.3086 56.5283 19.9956 56.6594 19.9519 56.7249C19.9119 56.7795 20.0647 56.8741 20.1557 56.8887C20.1557 56.9797 20.1412 57.1289 20.0393 57.1726C19.799 57.2672 19.6134 57.1107 19.6134 57.1107C19.6134 57.1107 19.6425 57.2272 19.7372 57.3109C19.7372 57.3109 19.9774 57.4128 20.1448 57.2381C20.2831 57.0925 20.2576 56.9724 20.2467 56.9396C20.2686 56.9942 20.3778 57.2235 20.6143 57.1143C20.88 56.9906 20.8145 56.7176 20.8145 56.7176C20.8145 56.7176 20.5998 57.0379 20.4651 57.0051H20.4578Z" fill="#6E4725"/>
<path d="M19.2348 55.1195C19.2203 55.094 18.0628 51.3742 17.3494 51.265C16.636 51.1558 18.3176 54.5881 18.9655 55.2469L19.2348 55.1195Z" fill="#E39E66"/>
<path d="M20.3232 54.7193C20.3232 54.6902 19.5443 50.8539 20.1048 50.3625C20.6617 49.8675 20.8583 53.7511 20.6144 54.6756L20.3232 54.7193Z" fill="#E39E66"/>
<path d="M22.1285 56.1937C22.234 56.3575 22.2049 56.5759 22.0593 56.6814C21.9137 56.787 21.7135 56.7433 21.608 56.5795C21.5024 56.4157 21.5316 56.1973 21.6771 56.0918C21.8227 55.9862 22.0229 56.0299 22.1285 56.1937Z" fill="#E39E66"/>
<path d="M18.9365 57.1214C19.042 57.2852 19.0129 57.5036 18.8673 57.6092C18.7217 57.7147 18.5215 57.671 18.416 57.5072C18.3104 57.3435 18.3395 57.1251 18.4851 57.0195C18.6307 56.914 18.8309 56.9576 18.9365 57.1214Z" fill="#E39E66"/>
<path d="M13.8953 58.4611C13.8953 58.4611 12.1991 59.3783 10.9434 57.198C10.9543 57.289 11.0672 58.0498 10.7942 58.6976C10.4557 58.3118 10.1281 57.9151 9.81145 57.5038C9.90244 57.3509 10.0262 57.1908 10.1863 57.0306C10.1499 57.0452 9.917 57.1507 9.58214 57.198C9.26184 56.7795 8.95974 56.35 8.66492 55.9096C8.96338 55.7967 9.38923 55.7276 9.99707 55.7531C9.99707 55.7531 9.08349 54.3226 9.99707 52.8704C9.99707 52.8704 11.3729 53.3326 11.2564 55.5674C11.2564 55.5674 12.1664 54.1843 13.8953 54.7048C13.8953 54.7048 13.6405 56.2772 11.7442 56.4592C11.7442 56.4592 13.6005 56.7977 13.8953 58.4611Z" fill="#E7B6D1"/>
<path d="M48.1709 46.832C48.585 46.832 48.9207 46.4849 48.9207 46.0568C48.9207 45.6286 48.585 45.2815 48.1709 45.2815C47.7568 45.2815 47.4211 45.6286 47.4211 46.0568C47.4211 46.4849 47.7568 46.832 48.1709 46.832Z" fill="#A3E593"/>
<path d="M20.778 44.084C21.1921 44.084 21.5278 43.7386 21.5278 43.3124C21.5278 42.8862 21.1921 42.5408 20.778 42.5408C20.3639 42.5408 20.0282 42.8862 20.0282 43.3124C20.0282 43.7386 20.3639 44.084 20.778 44.084Z" fill="#A3E593"/>
<path d="M7.12162 40.1749C7.53572 40.1749 7.87141 39.8294 7.87141 39.4032C7.87141 38.9771 7.53572 38.6316 7.12162 38.6316C6.70752 38.6316 6.37183 38.9771 6.37183 39.4032C6.37183 39.8294 6.70752 40.1749 7.12162 40.1749Z" fill="#A3E593"/>
<path d="M35.7108 22.4818C35.5777 22.3401 35.3774 22.2923 35.2004 22.2641C34.822 22.2037 34.4403 22.2337 34.3325 22.9095C34.2246 23.5852 34.5779 23.7325 34.9578 23.7932C35.3376 23.8538 35.7177 23.8209 35.8252 23.1474C35.8734 22.8449 35.8493 22.6299 35.7111 22.4822L35.7108 22.4818ZM34.9847 23.6227C34.6049 23.5621 34.45 23.4252 34.5273 22.9414C34.6045 22.4576 34.7939 22.378 35.1737 22.4386C35.5535 22.4992 35.7075 22.6337 35.6303 23.1175C35.5531 23.6013 35.3642 23.6833 34.9847 23.6227Z" fill="#E4A134"/>
<path d="M33.0481 22.7068C33.1276 22.2085 33.2572 22.1905 33.5643 22.2395L34.2051 22.3417L34.233 22.1671L33.5922 22.0649C33.1716 21.9977 32.9406 22.0722 32.8447 22.6729C32.7488 23.2737 32.9451 23.4163 33.3655 23.4834L34.0454 23.592L34.0729 23.4199L33.393 23.3114C33.0859 23.2623 32.9684 23.204 33.0478 22.7065L33.0481 22.7068Z" fill="#E4A134"/>
<path d="M40.886 23.2291C40.4158 23.1541 39.9454 23.0787 39.4753 23.0034L39.4485 23.1716C39.6517 23.2049 39.8549 23.2382 40.0581 23.2712L39.8589 24.5197L40.056 24.5511L40.2553 23.3029C40.4564 23.3347 40.6579 23.3663 40.859 23.3981L40.886 23.2291Z" fill="#E4A134"/>
<path d="M36.6964 23.8616C36.1983 23.7821 36.1803 23.6524 36.2294 23.3452C36.2748 23.0658 36.3202 22.7867 36.3654 22.5073L36.1903 22.4793C36.1451 22.7588 36.0997 23.0379 36.0546 23.3173C35.9874 23.7381 36.0618 23.9689 36.6623 24.0648C37.2628 24.1606 37.4054 23.9642 37.4725 23.5436C37.5194 23.2645 37.5662 22.9856 37.6131 22.7064L37.436 22.6781C37.3908 22.9576 37.346 23.2368 37.3008 23.5162C37.2518 23.8234 37.1934 23.941 36.6962 23.8616L36.6964 23.8616Z" fill="#E4A134"/>
<path d="M38.5905 23.0137C39.0886 23.0932 39.1066 23.2229 39.0576 23.5301C39.0121 23.8095 38.9667 24.0886 38.9215 24.3681L39.0966 24.396C39.1418 24.1166 39.1872 23.8374 39.2324 23.558C39.2996 23.1372 39.2251 22.9064 38.6246 22.8105C38.0242 22.7147 37.8815 22.9111 37.8144 23.3317C37.7676 23.6109 37.7207 23.8897 37.6739 24.1689L37.8509 24.1972C37.8961 23.9177 37.941 23.6385 37.9861 23.3591C38.0352 23.0519 38.0935 22.9343 38.5908 23.0137L38.5905 23.0137Z" fill="#E4A134"/>
<path d="M14.6039 35.5503C14.5392 35.4235 14.408 35.3491 14.2893 35.2931C14.0355 35.1735 13.761 35.1169 13.5475 35.57C13.3339 36.0232 13.5523 36.1989 13.807 36.3189C14.0617 36.439 14.3357 36.4933 14.5486 36.0416C14.6442 35.8388 14.671 35.6826 14.604 35.5506L14.6039 35.5503ZM13.8607 36.2045C13.606 36.0845 13.525 35.9567 13.6779 35.6322C13.8308 35.3078 13.9802 35.2903 14.235 35.4104C14.4897 35.5304 14.5706 35.6564 14.4177 35.9809C14.2648 36.3053 14.1152 36.3245 13.8607 36.2045Z" fill="white"/>
<path d="M12.6857 35.1653C12.8432 34.8311 12.9381 34.8448 13.144 34.9418L13.5737 35.1444L13.6289 35.0273L13.1992 34.8248C12.9171 34.6918 12.7395 34.6971 12.5496 35.1C12.3597 35.5029 12.4687 35.6432 12.7506 35.7761L13.2066 35.991L13.261 35.8756L12.805 35.6607C12.5991 35.5636 12.5284 35.4986 12.6856 35.165L12.6857 35.1653Z" fill="white"/>
<path d="M18.0907 37.1306C17.7754 36.982 17.46 36.8331 17.1448 36.6843L17.0916 36.7971C17.2277 36.8619 17.3638 36.9268 17.5 36.9914L17.1054 37.8287L17.2376 37.891L17.6322 37.0539C17.7671 37.1173 17.9023 37.1806 18.0373 37.2439L18.0907 37.1306Z" fill="white"/>
<path d="M15.0158 36.7216C14.6817 36.5641 14.6955 36.4693 14.7926 36.2632C14.8815 36.076 14.9703 35.889 15.059 35.7017L14.9416 35.6464C14.8529 35.8337 14.7641 36.0207 14.6753 36.208C14.5423 36.4902 14.5476 36.6677 14.9504 36.8575C15.3531 37.0473 15.4934 36.9382 15.6263 36.6561C15.7162 36.4694 15.8059 36.2828 15.8958 36.096L15.7771 36.0401C15.6883 36.2274 15.5999 36.4146 15.5112 36.6019C15.4141 36.8079 15.3491 36.8787 15.0156 36.7215L15.0158 36.7216Z" fill="white"/>
<path d="M16.5203 36.5113C16.8543 36.6687 16.8406 36.7636 16.7435 36.9696C16.6546 37.1568 16.5657 37.3438 16.477 37.5311L16.5944 37.5865C16.6832 37.3992 16.772 37.2122 16.8607 37.0249C16.9937 36.7426 16.9884 36.5652 16.5857 36.3754C16.183 36.1856 16.0426 36.2947 15.9097 36.5767C15.8199 36.7635 15.7301 36.95 15.6403 37.1368L15.759 37.1928C15.8477 37.0055 15.9362 36.8183 16.0249 36.631C16.122 36.4249 16.187 36.3542 16.5205 36.5114L16.5203 36.5113Z" fill="white"/>
<path fill-rule="evenodd" clip-rule="evenodd" d="M9.86385 19.5285C10.8975 21.3448 12.3098 20.5841 12.3098 20.5841C12.0623 19.2082 10.5299 18.928 10.5299 18.928C12.0987 18.7751 12.3098 17.4794 12.3098 17.4794C10.8793 17.0462 10.1259 18.1891 10.1259 18.1891C10.1389 17.9266 10.1278 17.6938 10.0978 17.488C9.98391 17.6733 9.8714 17.8602 9.76049 18.0486C9.47713 18.524 9.20282 19.0099 8.93852 19.5025C9.07926 19.467 9.17881 19.4255 9.22057 19.4082C9.22837 19.4049 9.23415 19.4025 9.23781 19.4012C8.17136 20.4712 9.09222 21.4467 9.09222 21.4467C10.1259 21.0136 9.86385 19.5285 9.86385 19.5285Z" fill="#E7B6D1"/>
<path d="M13.3149 21.6592C13.1468 21.546 12.9323 21.5439 12.7458 21.5562C12.3474 21.5826 11.9666 21.7015 12.0137 22.4131C12.0607 23.1246 12.4538 23.1924 12.8538 23.1659C13.2537 23.1395 13.6322 23.018 13.5853 22.3088C13.5643 21.9904 13.4899 21.7775 13.3152 21.6594L13.3149 21.6592ZM12.8416 22.9865C12.4417 23.013 12.2527 22.9098 12.219 22.4004C12.1853 21.891 12.3592 21.7661 12.7592 21.7397C13.1591 21.7133 13.3468 21.8142 13.3804 22.3236C13.4141 22.833 13.2412 22.9601 12.8416 22.9865Z" fill="#A3E593"/>
<path d="M10.6619 22.5052C10.6272 21.9804 10.7548 21.9321 11.0781 21.9107L11.7528 21.8661L11.7406 21.6822L11.066 21.7268C10.6231 21.7561 10.4056 21.8853 10.4475 22.5179C10.4893 23.1504 10.7218 23.2498 11.1644 23.2206L11.8803 23.1732L11.8684 22.992L11.1525 23.0394C10.8291 23.0608 10.6963 23.0287 10.6616 22.5049L10.6619 22.5052Z" fill="#A3E593"/>
<path d="M18.7458 21.219C18.2508 21.2518 17.7554 21.2842 17.2604 21.3167L17.2721 21.4937C17.4862 21.4804 17.7004 21.4672 17.9145 21.4536L18.0014 22.7682L18.209 22.7545L18.1221 21.4402C18.3339 21.4259 18.5459 21.4113 18.7576 21.397L18.7458 21.219Z" fill="#A3E593"/>
<path d="M14.636 22.8328C14.1115 22.8675 14.0631 22.7399 14.0417 22.4164C14.0232 22.122 14.0046 21.8279 13.9857 21.5336L13.8014 21.5458C13.8202 21.8401 13.8388 22.1342 13.8577 22.4286C13.887 22.8717 14.0161 23.0889 14.6484 23.0471C15.2806 23.0053 15.38 22.7727 15.3507 22.3299C15.3336 22.0354 15.3165 21.7412 15.2994 21.4467L15.113 21.459C15.1319 21.7534 15.151 22.0474 15.1699 22.3418C15.1913 22.6653 15.1593 22.7982 14.6357 22.8328L14.636 22.8328Z" fill="#A3E593"/>
<path d="M16.3638 21.5322C16.8882 21.4975 16.9366 21.6251 16.958 21.9486C16.9766 22.2429 16.9951 22.537 17.014 22.8314L17.1984 22.8192C17.1795 22.5248 17.1609 22.2308 17.1421 21.9364C17.1128 21.4933 16.9836 21.276 16.3514 21.3178C15.7191 21.3597 15.6197 21.5923 15.649 22.0351C15.6661 22.3296 15.6832 22.6238 15.7003 22.9183L15.8867 22.9059C15.8678 22.6116 15.8487 22.3175 15.8298 22.0232C15.8084 21.6997 15.8405 21.5668 16.3641 21.5321L16.3638 21.5322Z" fill="#A3E593"/>
<path d="M21.2073 30.902C21.0259 30.8981 20.8631 31.0003 20.7286 31.0997C20.4411 31.3123 20.2117 31.5862 20.5913 32.0996C20.971 32.6131 21.3 32.474 21.5886 32.2606C21.8772 32.0473 22.1037 31.7726 21.7253 31.2608C21.5554 31.031 21.3963 30.9066 21.2076 30.9021L21.2073 30.902ZM21.4927 32.1313C21.2041 32.3447 21.0117 32.3583 20.7399 31.9908C20.4681 31.6232 20.5388 31.4449 20.8274 31.2316C21.116 31.0182 21.3063 31.0035 21.578 31.3711C21.8498 31.7386 21.781 31.9181 21.4927 32.1313Z" fill="#E7B6D1"/>
<path d="M19.6173 32.8228C19.3374 32.4442 19.4101 32.346 19.6434 32.1735L20.1303 31.8135L20.0322 31.6809L19.5453 32.0409C19.2257 32.2772 19.1243 32.4797 19.4618 32.9362C19.7993 33.3926 20.0227 33.3551 20.3421 33.1189L20.8587 32.7369L20.762 32.6062L20.2454 32.9882C20.0121 33.1607 19.8965 33.2008 19.617 32.8228L19.6173 32.8228Z" fill="#E7B6D1"/>
<path d="M25.0872 27.943C24.73 28.2071 24.3724 28.4712 24.015 28.7351L24.1095 28.8629C24.2645 28.7493 24.4194 28.6357 24.5742 28.5219L25.2756 29.4705L25.4255 29.3598L24.7242 28.4113C24.8768 28.2981 25.0295 28.1846 25.1822 28.0714L25.0872 27.943Z" fill="#E7B6D1"/>
<path d="M22.7705 31.1469C22.392 31.4267 22.2938 31.354 22.1212 31.1205C21.9648 30.9077 21.8086 30.695 21.652 30.4823L21.5189 30.5807C21.6756 30.7934 21.8318 31.006 21.9884 31.2187C22.2248 31.5385 22.4272 31.6398 22.8835 31.3024C23.3397 30.9651 23.3021 30.7417 23.0658 30.4221C22.9105 30.2085 22.7553 29.995 22.6 29.7814L22.4655 29.8809C22.6221 30.0936 22.7787 30.3059 22.9353 30.5186C23.1079 30.752 23.1481 30.8677 22.7703 31.1471L22.7705 31.1469Z" fill="#E7B6D1"/>
<path d="M23.4437 29.3313C23.8222 29.0515 23.9203 29.1242 24.0929 29.3577C24.2493 29.5705 24.4056 29.7832 24.5622 29.9959L24.6952 29.8975C24.5386 29.6848 24.3824 29.4722 24.2257 29.2595C23.9893 28.9397 23.7869 28.8385 23.3307 29.1758C22.8744 29.5131 22.9121 29.7365 23.1483 30.0561C23.3037 30.2697 23.4588 30.4832 23.6142 30.6968L23.7487 30.5974C23.5921 30.3846 23.4354 30.1723 23.2788 29.9596C23.1062 29.7262 23.0661 29.6105 23.4439 29.3311L23.4437 29.3313Z" fill="#E7B6D1"/>
<path d="M37.0781 37.1398C36.7891 37.0861 36.5022 37.2071 36.2611 37.3311C35.7459 37.596 35.3076 37.974 35.7806 38.8941C36.2537 39.8142 36.8162 39.6777 37.3334 39.4118C37.8505 39.1459 38.2844 38.7658 37.8129 37.8488C37.6011 37.4369 37.3793 37.1965 37.0787 37.14L37.0781 37.1398ZM37.2137 39.18C36.6965 39.4459 36.3853 39.4175 36.0467 38.7588C35.708 38.1001 35.8675 37.8335 36.3847 37.5677C36.9018 37.3018 37.2099 37.3279 37.5486 37.9866C37.8873 38.6453 37.7304 38.9143 37.2137 39.18Z" fill="#E7B6D1"/>
<path d="M34.0343 39.7966C33.6854 39.1181 33.8273 38.9801 34.2455 38.7651L35.1179 38.3165L34.9957 38.0788L34.1232 38.5274C33.5505 38.8218 33.3355 39.1193 33.7561 39.9372C34.1767 40.7552 34.5436 40.7535 35.116 40.4592L36.0418 39.9832L35.9213 39.7489L34.9955 40.2249C34.5774 40.4399 34.382 40.4738 34.0337 39.7964L34.0343 39.7966Z" fill="#E7B6D1"/>
<path d="M44.0544 33.4216C43.4143 33.7507 42.7735 34.0797 42.1332 34.4084L42.2509 34.6374C42.5283 34.4962 42.8058 34.355 43.083 34.2134L43.9571 35.9134L44.2256 35.7754L43.3517 34.0758C43.6253 33.9346 43.8991 33.7929 44.1727 33.6517L44.0544 33.4216Z" fill="#E7B6D1"/>
<path d="M39.5138 37.9409C38.8356 38.2896 38.6976 38.1476 38.4825 37.7293C38.2879 37.3481 38.0936 36.9673 37.8987 36.5863L37.6603 36.7088C37.8552 37.0898 38.0495 37.4707 38.2445 37.8517C38.5391 38.4247 38.8363 38.6394 39.6539 38.219C40.4715 37.7986 40.4696 37.4316 40.1752 36.859C39.9826 36.4768 39.7901 36.095 39.5975 35.7128L39.3564 35.8368C39.5514 36.2178 39.7465 36.5982 39.9414 36.9792C40.1565 37.3975 40.1905 37.5929 39.5134 37.9411L39.5138 37.9409Z" fill="#E7B6D1"/>
<path d="M41.0639 35.2124C41.7421 34.8637 41.8801 35.0057 42.0952 35.424C42.2897 35.8052 42.4841 36.186 42.679 36.567L42.9174 36.4444C42.7225 36.0634 42.5281 35.6826 42.3332 35.3016C42.0386 34.7286 41.7414 34.5139 40.9237 34.9343C40.1061 35.3546 40.108 35.7217 40.4024 36.2943C40.5951 36.6765 40.7875 37.0583 40.9802 37.4405L41.2212 37.3165C41.0263 36.9355 40.8312 36.5551 40.6363 36.1741C40.4212 35.7558 40.3871 35.5603 41.0642 35.2122L41.0639 35.2124Z" fill="#E7B6D1"/>
<path d="M33.5793 63.2691C33.9934 63.2691 34.3291 62.922 34.3291 62.4938C34.3291 62.0656 33.9934 61.7185 33.5793 61.7185C33.1652 61.7185 32.8295 62.0656 32.8295 62.4938C32.8295 62.922 33.1652 63.2691 33.5793 63.2691Z" fill="#A3E593"/>
<path d="M36.9715 7.87543C36.9497 7.88634 36.9278 7.90455 36.9023 7.91183C35.0715 8.61794 30.8276 6.87085 30.8276 6.87085C30.8276 6.87085 30.0377 12.6545 26.7801 11.9047C23.5189 11.1549 23.7555 6.95093 23.7555 6.95093C23.7555 6.95093 19.7008 8.69073 18.6161 8.14113C17.0474 9.21486 15.5623 10.5288 14.1829 12.032C15.2894 13.2987 21.9028 10.4633 21.9028 10.4633C21.9028 10.4633 21.557 16.5927 26.3106 17.6846C31.0641 18.7766 32.2143 10.3432 32.2143 10.3432C32.2143 10.3432 38.4056 12.891 41.0735 11.861C41.2264 11.8027 41.3392 11.719 41.4157 11.6098C40.0289 10.1576 38.5402 8.89456 36.9751 7.87179L36.9715 7.87543Z" fill="#A3E593"/>
<path d="M18.964 9.61632C18.8279 9.57446 18.6832 9.61676 18.5604 9.66302C18.2978 9.76189 18.066 9.91945 18.2426 10.3883C18.4191 10.8572 18.6973 10.8227 18.9608 10.7234C19.2243 10.6242 19.4541 10.4654 19.2782 9.9981C19.1991 9.78824 19.1057 9.66026 18.9643 9.61644L18.964 9.61632ZM18.9161 10.6053C18.6526 10.7045 18.5045 10.6736 18.3781 10.338C18.2516 10.0023 18.3432 9.88291 18.6067 9.78367C18.8702 9.68444 19.017 9.71407 19.1434 10.0497C19.2698 10.3854 19.1794 10.5061 18.9161 10.6053Z" fill="white"/>
<path d="M17.3521 10.7251C17.2219 10.3793 17.2978 10.3208 17.5109 10.2406L17.9555 10.0731L17.9098 9.952L17.4653 10.1194C17.1734 10.2293 17.0535 10.3605 17.2105 10.7773C17.3674 11.1941 17.5441 11.2136 17.8357 11.1038L18.3075 10.9261L18.2625 10.8067L17.7908 10.9844C17.5777 11.0646 17.4818 11.0701 17.3518 10.725L17.3521 10.7251Z" fill="white"/>
<path d="M22.5261 8.21407C22.1999 8.33691 21.8734 8.45963 21.5471 8.58228L21.5911 8.69895C21.7324 8.64641 21.8736 8.59387 22.0149 8.54113L22.3411 9.40738L22.4779 9.35586L22.1518 8.4898C22.2912 8.43707 22.4308 8.38407 22.5702 8.33133L22.5261 8.21407Z" fill="white"/>
<path d="M20.0914 10.1363C19.7458 10.2665 19.6873 10.1905 19.607 9.97738C19.5346 9.78321 19.4622 9.58924 19.3896 9.39515L19.2681 9.44089C19.3407 9.63499 19.4131 9.82896 19.4858 10.0231C19.5957 10.315 19.7268 10.4348 20.1434 10.2779C20.5601 10.121 20.5795 9.94435 20.4696 9.65256C20.3981 9.45803 20.3267 9.26369 20.2552 9.06916L20.1324 9.11542C20.205 9.30951 20.2778 9.50333 20.3505 9.69743C20.4307 9.91059 20.4363 10.0065 20.0912 10.1364L20.0914 10.1363Z" fill="white"/>
<path d="M20.9883 8.91014C21.3339 8.78 21.3924 8.85594 21.4727 9.06911C21.5451 9.26327 21.6175 9.45724 21.6901 9.65134L21.8116 9.60559C21.739 9.4115 21.6666 9.21753 21.5939 9.02343C21.484 8.73145 21.3529 8.61167 20.9363 8.76857C20.5196 8.92546 20.5002 9.10214 20.6101 9.39393C20.6816 9.58846 20.753 9.7828 20.8245 9.97733L20.9473 9.93107C20.8747 9.73698 20.8019 9.54315 20.7292 9.34906C20.649 9.13589 20.6434 9.04 20.9885 8.91007L20.9883 8.91014Z" fill="white"/>
<path d="M34.6818 9.18118C34.608 9.09468 34.4923 9.06125 34.3896 9.03986C34.1702 8.99412 33.9464 9.00113 33.8648 9.39292C33.7831 9.78471 33.9855 9.88056 34.2057 9.92646C34.4259 9.97236 34.6488 9.96366 34.7302 9.57316C34.7668 9.39779 34.7586 9.27149 34.682 9.18137L34.6818 9.18118ZM34.2261 9.82763C34.0059 9.78172 33.9192 9.69747 33.9777 9.41697C34.0362 9.13647 34.149 9.09516 34.3692 9.14106C34.5894 9.18697 34.6757 9.26979 34.6172 9.55029C34.5588 9.83079 34.4461 9.8735 34.2261 9.82763Z" fill="#7B7DB9"/>
<path d="M33.12 9.23892C33.1803 8.94999 33.2565 8.94303 33.4346 8.98014L33.8061 9.05758L33.8272 8.95635L33.4557 8.87891C33.2118 8.82807 33.0748 8.86519 33.0022 9.2135C32.9296 9.56181 33.0403 9.65059 33.284 9.70139L33.6783 9.78356L33.6991 9.68379L33.3048 9.60162C33.1268 9.5645 33.0598 9.52717 33.1199 9.23873L33.12 9.23892Z" fill="#7B7DB9"/>
<path d="M37.6846 9.76067C37.412 9.70385 37.1393 9.64683 36.8667 9.58984L36.8464 9.68734C36.9642 9.71241 37.082 9.73747 37.1998 9.76237L37.0489 10.4862L37.1632 10.5101L37.3141 9.78636C37.4307 9.8105 37.5475 9.83451 37.6641 9.85865L37.6846 9.76067Z" fill="#7B7DB9"/>
<path d="M35.2196 10.0146C34.9308 9.95444 34.9238 9.87817 34.961 9.70004C34.9952 9.53808 35.0295 9.37627 35.0636 9.21427L34.9621 9.19311C34.928 9.35511 34.8937 9.51692 34.8596 9.67892C34.8088 9.92291 34.8459 10.0598 35.194 10.1324C35.5422 10.205 35.6309 10.0941 35.6818 9.85029C35.7168 9.6885 35.7519 9.52686 35.787 9.36506L35.6843 9.34366C35.6502 9.50566 35.6163 9.66754 35.5822 9.82954C35.5451 10.0077 35.5077 10.0747 35.2194 10.0146L35.2196 10.0146Z" fill="#7B7DB9"/>
<path d="M36.3495 9.57167C36.6383 9.63187 36.6452 9.70814 36.6081 9.88627C36.5738 10.0482 36.5396 10.21 36.5055 10.372L36.607 10.3932C36.6411 10.2312 36.6753 10.0694 36.7095 9.9074C36.7603 9.6634 36.7232 9.52651 36.375 9.45393C36.0269 9.38136 35.9381 9.49219 35.8873 9.73602C35.8522 9.89782 35.8172 10.0595 35.7821 10.2213L35.8847 10.2427C35.9189 10.0807 35.9528 9.91878 35.9869 9.75678C36.024 9.57865 36.0613 9.5116 36.3497 9.57171L36.3495 9.57167Z" fill="#7B7DB9"/>
<path d="M18.507 15.1697C18.507 15.1697 18.2194 12.9567 20.083 12.5017C20.083 12.5017 21.0548 13.7756 18.507 15.1697Z" fill="#A3E593"/>
<path d="M35.1696 15.1697C35.1696 15.1697 35.4572 12.9567 33.5936 12.5017C33.5936 12.5017 32.6218 13.7756 35.1696 15.1697Z" fill="#A3E593"/>
<path d="M27.0604 12.6907C25.4007 14.3722 27.0604 15.8973 27.0604 15.8973C27.0604 15.8973 28.7202 14.3722 27.0604 12.6907Z" fill="#7B7DB9"/>
<path d="M12.8214 29.4263C13.2355 29.4263 13.5712 29.0792 13.5712 28.651C13.5712 28.2228 13.2355 27.8757 12.8214 27.8757C12.4073 27.8757 12.0717 28.2228 12.0717 28.651C12.0717 29.0792 12.4073 29.4263 12.8214 29.4263Z" fill="#A3E593"/>
<path d="M46.6314 32.8735C47.0455 32.8735 47.3812 32.5264 47.3812 32.0983C47.3812 31.6701 47.0455 31.323 46.6314 31.323C46.2173 31.323 45.8816 31.6701 45.8816 32.0983C45.8816 32.5264 46.2173 32.8735 46.6314 32.8735Z" fill="#A3E593"/>
<path d="M52.273 39.159C52.273 39.9051 52.2475 40.644 52.1929 41.3756C52.0874 41.6923 51.8799 41.9907 51.505 42.1472C51.505 42.1472 50.5842 41.1718 51.6506 40.1017C51.5815 40.1308 50.6606 40.5421 49.8307 39.927C49.8307 39.927 49.6487 38.9697 51.4977 39.0425C51.4977 39.0425 50.7407 37.8596 51.4977 36.6584C51.4977 36.6584 51.9127 36.8004 52.2221 37.3172C52.2548 37.936 52.273 38.5511 52.273 39.159Z" fill="#E7B6D1"/>
<path d="M29.9029 5.12739C29.528 6.58694 28.4725 9.91734 26.7873 9.68075C25.1639 9.45145 24.7453 6.72525 24.6434 5.39673C25.739 5.13467 26.8601 5 27.9957 5C28.6363 5 29.2732 5.04367 29.9029 5.12739Z" fill="#A3E593"/>
<path d="M52.2695 39.1593C52.2695 40.2039 52.2185 41.234 52.1202 42.2458C52.0875 42.5698 52.0511 42.8901 52.011 43.2104C51.8509 44.4697 51.6143 45.7036 51.3086 46.9011C51.2685 47.0576 51.2285 47.2141 51.1848 47.367C50.3003 50.6137 48.9099 53.6092 47.1155 56.2262C46.9991 56.3936 46.8826 56.5574 46.7661 56.7212C46.5623 57.0015 46.3548 57.2781 46.1401 57.5511C44.9098 59.1344 43.5194 60.5539 41.998 61.7805C41.372 62.2864 40.7168 62.7632 40.0471 63.2L40.0398 63.2073C36.491 65.5258 32.3781 66.8507 27.9921 66.8507C25.1531 66.8507 22.4342 66.2975 19.9046 65.2747H19.9009C19.435 65.0891 18.9764 64.8852 18.5251 64.6668C16.101 63.4948 13.8807 61.8897 11.9371 59.9279C11.6932 59.6876 11.453 59.4365 11.2273 59.1817C9.12719 56.8996 7.39466 54.1988 6.12074 51.1924C6.05158 51.0286 5.98606 50.8685 5.92055 50.7047C5.48741 49.6309 5.11252 48.5172 4.7995 47.3706C4.70122 47.003 4.60659 46.6281 4.51923 46.2496C3.99511 43.9893 3.71484 41.6125 3.71484 39.1593C3.71484 37.98 3.78036 36.7789 3.90411 35.5705C3.92959 35.3193 3.95871 35.0718 3.99147 34.8207C4.11886 33.7688 4.29357 32.7169 4.50831 31.665C4.61751 31.1263 4.74126 30.5876 4.87229 30.0489C4.97057 29.6558 5.07248 29.2664 5.17803 28.8733C5.19623 28.8114 5.21079 28.7532 5.22899 28.6913C5.52381 27.643 5.85503 26.6021 6.22993 25.572C6.76498 24.0724 7.38374 22.602 8.07166 21.1788C8.14809 21.0296 8.22089 20.8803 8.29368 20.7311C8.82873 19.661 9.40381 18.6164 10.0189 17.6118C10.1936 17.3206 10.372 17.0367 10.554 16.7528C12.3957 13.8993 14.5468 11.3805 16.9236 9.41141C20.2431 6.66702 24.0066 5 27.9921 5C32.3198 5 36.3818 6.96548 39.8979 10.143C41.1572 11.2786 42.3438 12.5671 43.4503 13.9793C43.665 14.2523 43.8761 14.5326 44.0872 14.8165C44.8334 15.8283 45.5395 16.8984 46.2019 18.0122C46.2929 18.1651 46.3803 18.3143 46.4713 18.4672C47.8471 20.8585 49.0191 23.4391 49.94 26.0961C50.0601 26.4346 50.1729 26.7731 50.2785 27.1153C50.6898 28.3928 51.0392 29.6813 51.3267 30.9771C51.3631 31.1409 51.3995 31.3083 51.4323 31.4721C51.9783 34.0636 52.2695 36.6624 52.2695 39.1593Z" fill="url(#paint0_radial_1097_1518)"/>
<path d="M52.2695 39.1593C52.2695 40.2039 52.2185 41.234 52.1202 42.2458C52.0875 42.5698 52.0511 42.8901 52.011 43.2104C51.8509 44.4697 51.6143 45.7036 51.3086 46.9011C51.2685 47.0576 51.2285 47.2141 51.1848 47.367C50.3003 50.6137 48.9099 53.6092 47.1155 56.2262C46.9991 56.3936 46.8826 56.5574 46.7661 56.7212C46.5623 57.0015 46.3548 57.2781 46.1401 57.5511C44.9098 59.1344 43.5194 60.5539 41.998 61.7805C41.372 62.2864 40.7168 62.7632 40.0471 63.2L40.0398 63.2073C36.491 65.5258 32.3781 66.8507 27.9921 66.8507C25.1531 66.8507 22.4342 66.2975 19.9046 65.2747H19.9009C19.435 65.0891 18.9764 64.8852 18.5251 64.6668C16.101 63.4948 13.8807 61.8897 11.9371 59.9279C11.6932 59.6876 11.453 59.4365 11.2273 59.1817C9.12719 56.8996 7.39466 54.1988 6.12074 51.1924C6.05158 51.0286 5.98606 50.8685 5.92055 50.7047C5.48741 49.6309 5.11252 48.5172 4.7995 47.3706C4.70122 47.003 4.60659 46.6281 4.51923 46.2496C3.99511 43.9893 3.71484 41.6125 3.71484 39.1593C3.71484 37.98 3.78036 36.7789 3.90411 35.5705C3.92959 35.3193 3.95871 35.0718 3.99147 34.8207C4.11886 33.7688 4.29357 32.7169 4.50831 31.665C4.61751 31.1263 4.74126 30.5876 4.87229 30.0489C4.97057 29.6558 5.07248 29.2664 5.17803 28.8733C5.19623 28.8114 5.21079 28.7532 5.22899 28.6913C5.52381 27.643 5.85503 26.6021 6.22993 25.572C6.76498 24.0724 7.38374 22.602 8.07166 21.1788C8.14809 21.0296 8.22089 20.8803 8.29368 20.7311C8.82873 19.661 9.40381 18.6164 10.0189 17.6118C10.1936 17.3206 10.372 17.0367 10.554 16.7528C12.3957 13.8993 14.5468 11.3805 16.9236 9.41141C20.2431 6.66702 24.0066 5 27.9921 5C32.3198 5 36.3818 6.96548 39.8979 10.143C41.1572 11.2786 42.3438 12.5671 43.4503 13.9793C43.665 14.2523 43.8761 14.5326 44.0872 14.8165C44.8334 15.8283 45.5395 16.8984 46.2019 18.0122C46.2929 18.1651 46.3803 18.3143 46.4713 18.4672C47.8471 20.8585 49.0191 23.4391 49.94 26.0961C50.0601 26.4346 50.1729 26.7731 50.2785 27.1153C50.6898 28.3928 51.0392 29.6813 51.3267 30.9771C51.3631 31.1409 51.3995 31.3083 51.4323 31.4721C51.9783 34.0636 52.2695 36.6624 52.2695 39.1593Z" fill="url(#paint1_radial_1097_1518)"/>
<defs>
<radialGradient id="paint0_radial_1097_1518" cx="0" cy="0" r="1" gradientUnits="userSpaceOnUse" gradientTransform="translate(24.7148 31.5) rotate(73.791) scale(44.78 35.1536)">
<stop stop-color="#11151C" stop-opacity="0"/>
<stop offset="1" stop-color="#11151C" stop-opacity="0.5"/>
</radialGradient>
<radialGradient id="paint1_radial_1097_1518" cx="0" cy="0" r="1" gradientUnits="userSpaceOnUse" gradientTransform="translate(26.7148 34) rotate(75.2564) scale(39.2938 30.8468)">
<stop offset="0.609498" stop-color="#11151C" stop-opacity="0"/>
<stop offset="1" stop-color="#11151C"/>
</radialGradient>
</defs>
</svg>
