<svg width="21" height="25" viewBox="0 0 21 25" fill="none" xmlns="http://www.w3.org/2000/svg">
<path d="M0.814641 4.6693C0.364728 3.89003 0.631726 2.89357 1.411 2.44366L4.233 0.81438C5.01227 0.364466 6.00872 0.631465 6.45864 1.41074L11.7538 10.5822C12.2037 11.3615 11.9367 12.358 11.1574 12.8079L8.33544 14.4371C7.55617 14.8871 6.55972 14.6201 6.1098 13.8408L0.814641 4.6693Z" fill="#656565"/>
<rect opacity="0.2" x="1.41113" y="2.44385" width="3.25856" height="13.8489" transform="rotate(-30 1.41113 2.44385)" fill="#C0C0C0"/>
<path d="M8.96161 10.5822C8.5117 11.3614 8.7787 12.3579 9.55797 12.8078L12.38 14.4371C13.1592 14.887 14.1557 14.62 14.6056 13.8407L19.9008 4.66924C20.3507 3.88996 20.0837 2.89351 19.3044 2.4436L16.4824 0.814316C15.7031 0.364402 14.7067 0.631401 14.2568 1.41067L8.96161 10.5822Z" fill="#656565"/>
<rect opacity="0.2" width="3.25856" height="13.8489" transform="matrix(0.866025 0.5 0.5 -0.866025 9.55811 12.8076)" fill="#C0C0C0"/>
<circle cx="10.358" cy="15.3649" r="8.96105" fill="#C0C0C0"/>
<circle cx="10.358" cy="15.3649" r="8.14641" stroke="#989898" stroke-width="1.62928"/>
<path d="M7.67976 19.2188V18.2265L10.8503 15.2156C11.1165 14.9647 11.3141 14.7442 11.4434 14.5541C11.5727 14.364 11.6563 14.1892 11.6943 14.0295C11.7399 13.8622 11.7627 13.7063 11.7627 13.5619C11.7627 13.1969 11.6373 12.9156 11.3864 12.7179C11.1355 12.5126 10.7667 12.41 10.2801 12.41C9.89232 12.41 9.53877 12.4784 9.21943 12.6153C8.90769 12.7521 8.63778 12.9612 8.40968 13.2425L7.37183 12.4442C7.68356 12.026 8.10174 11.7029 8.62637 11.4748C9.1586 11.2391 9.75166 11.1212 10.4055 11.1212C10.9834 11.1212 11.4852 11.2163 11.911 11.4063C12.3444 11.5888 12.6751 11.8511 12.9032 12.1933C13.1389 12.5354 13.2568 12.9422 13.2568 13.4136C13.2568 13.6721 13.2226 13.9306 13.1541 14.1892C13.0857 14.4401 12.9565 14.7062 12.7664 14.9875C12.5763 15.2688 12.2988 15.5844 11.9338 15.9341L9.20803 18.523L8.90009 17.9642H13.5647V19.2188H7.67976Z" fill="#4D4D4D"/>
</svg>
