<svg width="21" height="25" viewBox="0 0 21 25" fill="none" xmlns="http://www.w3.org/2000/svg">
<path d="M0.814641 4.66979C0.364728 3.89052 0.631726 2.89406 1.411 2.44415L4.233 0.814868C5.01227 0.364955 6.00872 0.631953 6.45864 1.41123L11.7538 10.5827C12.2037 11.362 11.9367 12.3584 11.1574 12.8084L8.33544 14.4376C7.55617 14.8876 6.55972 14.6206 6.1098 13.8413L0.814641 4.66979Z" fill="#653B1D"/>
<rect opacity="0.2" x="1.41113" y="2.44434" width="3.25856" height="13.8489" transform="rotate(-30 1.41113 2.44434)" fill="#CD7F32"/>
<path d="M8.96161 10.5827C8.5117 11.3619 8.7787 12.3584 9.55797 12.8083L12.38 14.4376C13.1592 14.8875 14.1557 14.6205 14.6056 13.8412L19.9008 4.66973C20.3507 3.89045 20.0837 2.894 19.3044 2.44408L16.4824 0.814804C15.7031 0.364891 14.7067 0.631889 14.2568 1.41116L8.96161 10.5827Z" fill="#653B1D"/>
<rect opacity="0.2" width="3.25856" height="13.8489" transform="matrix(0.866025 0.5 0.5 -0.866025 9.55811 12.8081)" fill="#CD7F32"/>
<circle cx="10.358" cy="15.3653" r="8.96105" fill="#CD7F32"/>
<circle cx="10.358" cy="15.3653" r="8.14641" stroke="#AA6522" stroke-width="1.62928"/>
<path d="M10.2915 19.3333C9.72885 19.3333 9.17761 19.2535 8.63778 19.0938C8.10555 18.9265 7.65695 18.6984 7.29199 18.4095L7.93067 17.2576C8.21959 17.4933 8.56935 17.6834 8.97993 17.8278C9.3905 17.9723 9.82009 18.0445 10.2687 18.0445C10.8009 18.0445 11.2153 17.9381 11.5118 17.7252C11.8084 17.5047 11.9566 17.2082 11.9566 16.8356C11.9566 16.4706 11.8198 16.1817 11.546 15.9688C11.2723 15.7559 10.8313 15.6495 10.2231 15.6495H9.49315V14.6344L11.7741 11.9201L11.968 12.4789H7.67976V11.2358H13.1199V12.228L10.8389 14.9424L10.0634 14.4862H10.5082C11.489 14.4862 12.2227 14.7067 12.7094 15.1477C13.2036 15.5811 13.4507 16.1399 13.4507 16.8242C13.4507 17.2728 13.3366 17.6872 13.1085 18.0673C12.8804 18.4475 12.5307 18.7554 12.0593 18.9911C11.5955 19.2192 11.0062 19.3333 10.2915 19.3333Z" fill="#5A3510"/>
</svg>
